%TF.GenerationSoftware,KiCad,Pcbnew,5.1.10*%
%TF.CreationDate,2021-09-26T09:19:48+10:00*%
%TF.ProjectId,pcb-main,7063622d-6d61-4696-9e2e-6b696361645f,rev?*%
%TF.SameCoordinates,Original*%
%TF.FileFunction,Copper,L1,Top*%
%TF.FilePolarity,Positive*%
%FSLAX46Y46*%
G04 Gerber Fmt 4.6, Leading zero omitted, Abs format (unit mm)*
G04 Created by KiCad (PCBNEW 5.1.10) date 2021-09-26 09:19:48*
%MOMM*%
%LPD*%
G01*
G04 APERTURE LIST*
%TA.AperFunction,SMDPad,CuDef*%
%ADD10R,1.400000X3.100000*%
%TD*%
%TA.AperFunction,ComponentPad*%
%ADD11O,1.700000X1.700000*%
%TD*%
%TA.AperFunction,ComponentPad*%
%ADD12R,1.700000X1.700000*%
%TD*%
%TA.AperFunction,ComponentPad*%
%ADD13C,1.524000*%
%TD*%
%TA.AperFunction,SMDPad,CuDef*%
%ADD14R,0.400000X2.400000*%
%TD*%
%TA.AperFunction,SMDPad,CuDef*%
%ADD15R,3.150000X1.000000*%
%TD*%
%TA.AperFunction,ComponentPad*%
%ADD16C,1.500000*%
%TD*%
%TA.AperFunction,SMDPad,CuDef*%
%ADD17R,1.600000X0.550000*%
%TD*%
%TA.AperFunction,SMDPad,CuDef*%
%ADD18R,0.550000X1.600000*%
%TD*%
%TA.AperFunction,ViaPad*%
%ADD19C,0.800000*%
%TD*%
%TA.AperFunction,Conductor*%
%ADD20C,0.500000*%
%TD*%
%TA.AperFunction,Conductor*%
%ADD21C,0.250000*%
%TD*%
G04 APERTURE END LIST*
D10*
%TO.P,U4,4*%
%TO.N,GND*%
X119200000Y-117450000D03*
%TO.P,U4,2*%
%TO.N,Net-(U4-Pad2)*%
X116000000Y-117450000D03*
%TO.P,U4,1*%
%TO.N,/RESET*%
X116000000Y-108550000D03*
%TO.P,U4,3*%
%TO.N,GND*%
X119200000Y-108550000D03*
%TD*%
D11*
%TO.P,J1,6*%
%TO.N,GND*%
X118540000Y-103080000D03*
%TO.P,J1,5*%
%TO.N,/RESET*%
X116000000Y-103080000D03*
%TO.P,J1,4*%
%TO.N,/PB3*%
X118540000Y-100540000D03*
%TO.P,J1,3*%
%TO.N,/PB5*%
X116000000Y-100540000D03*
%TO.P,J1,2*%
%TO.N,+5V*%
X118540000Y-98000000D03*
D12*
%TO.P,J1,1*%
%TO.N,/PB4*%
X116000000Y-98000000D03*
%TD*%
D13*
%TO.P,U3,36*%
%TO.N,/SEG16*%
X128410880Y-111027040D03*
%TO.P,U3,35*%
%TO.N,/SEG17*%
X130950880Y-111027040D03*
%TO.P,U3,34*%
%TO.N,/SEG18*%
X133490880Y-111027040D03*
%TO.P,U3,33*%
%TO.N,/SEG19*%
X136030880Y-111027040D03*
%TO.P,U3,32*%
%TO.N,/SEG20*%
X138570880Y-111027040D03*
%TO.P,U3,31*%
%TO.N,/SEG21*%
X141110880Y-111027040D03*
%TO.P,U3,30*%
%TO.N,/SEG22*%
X143650880Y-111027040D03*
%TO.P,U3,29*%
%TO.N,/SEG23*%
X146190880Y-111027040D03*
%TO.P,U3,28*%
%TO.N,/SEG24*%
X148730880Y-111027040D03*
%TO.P,U3,27*%
%TO.N,/SEG25*%
X151270880Y-111027040D03*
%TO.P,U3,26*%
%TO.N,/SEG26*%
X153810880Y-111027040D03*
%TO.P,U3,25*%
%TO.N,/SEG27*%
X156350880Y-111027040D03*
%TO.P,U3,24*%
%TO.N,/SEG28*%
X158890880Y-111027040D03*
%TO.P,U3,23*%
%TO.N,/SEG29*%
X161430880Y-111027040D03*
%TO.P,U3,22*%
%TO.N,/SEG30*%
X163970880Y-111027040D03*
%TO.P,U3,21*%
%TO.N,/SEG31*%
X166510880Y-111027040D03*
%TO.P,U3,20*%
%TO.N,/COM2*%
X169050880Y-111027040D03*
%TO.P,U3,19*%
%TO.N,/COM3*%
X171590880Y-111027040D03*
%TO.P,U3,18*%
%TO.N,/COM1*%
X171590880Y-135000000D03*
%TO.P,U3,17*%
%TO.N,/COM0*%
X169050880Y-135000000D03*
%TO.P,U3,16*%
%TO.N,/SEG0*%
X166510880Y-135000000D03*
%TO.P,U3,15*%
%TO.N,/SEG1*%
X163970880Y-135000000D03*
%TO.P,U3,14*%
%TO.N,/SEG2*%
X161430880Y-135000000D03*
%TO.P,U3,13*%
%TO.N,/SEG3*%
X158890880Y-135000000D03*
%TO.P,U3,12*%
%TO.N,/SEG4*%
X156350880Y-135000000D03*
%TO.P,U3,11*%
%TO.N,/SEG5*%
X153810880Y-135000000D03*
%TO.P,U3,10*%
%TO.N,/SEG6*%
X151270880Y-135000000D03*
%TO.P,U3,9*%
%TO.N,/SEG7*%
X148730880Y-135000000D03*
%TO.P,U3,8*%
%TO.N,/SEG15*%
X146190880Y-135000000D03*
%TO.P,U3,7*%
%TO.N,/SEG14*%
X143650880Y-135000000D03*
%TO.P,U3,6*%
%TO.N,/SEG13*%
X141110880Y-135000000D03*
%TO.P,U3,5*%
%TO.N,/SEG12*%
X138570880Y-135000000D03*
%TO.P,U3,4*%
%TO.N,/SEG11*%
X136030880Y-135000000D03*
%TO.P,U3,3*%
%TO.N,/SEG10*%
X133490880Y-135000000D03*
%TO.P,U3,2*%
%TO.N,/SEG9*%
X130950880Y-135000000D03*
%TO.P,U3,1*%
%TO.N,/SEG8*%
X128410880Y-135000000D03*
%TD*%
D14*
%TO.P,U2,1*%
%TO.N,/SEG7*%
X143397500Y-128350000D03*
%TO.P,U2,2*%
%TO.N,/SEG6*%
X144032500Y-128350000D03*
%TO.P,U2,3*%
%TO.N,/SEG5*%
X144667500Y-128350000D03*
%TO.P,U2,4*%
%TO.N,/SEG4*%
X145302500Y-128350000D03*
%TO.P,U2,5*%
%TO.N,/SEG3*%
X145937500Y-128350000D03*
%TO.P,U2,6*%
%TO.N,/SEG2*%
X146572500Y-128350000D03*
%TO.P,U2,7*%
%TO.N,/SEG1*%
X147207500Y-128350000D03*
%TO.P,U2,8*%
%TO.N,/SEG0*%
X147842500Y-128350000D03*
%TO.P,U2,9*%
%TO.N,/PB3*%
X148477500Y-128350000D03*
%TO.P,U2,10*%
%TO.N,Net-(U2-Pad10)*%
X149112500Y-128350000D03*
%TO.P,U2,11*%
%TO.N,/PB4*%
X149747500Y-128350000D03*
%TO.P,U2,12*%
%TO.N,/PB5*%
X150382500Y-128350000D03*
%TO.P,U2,13*%
%TO.N,GND*%
X151017500Y-128350000D03*
%TO.P,U2,14*%
%TO.N,Net-(U2-Pad14)*%
X151652500Y-128350000D03*
%TO.P,U2,15*%
%TO.N,Net-(U2-Pad15)*%
X152287500Y-128350000D03*
%TO.P,U2,16*%
%TO.N,+5V*%
X152922500Y-128350000D03*
%TO.P,U2,17*%
X153557500Y-128350000D03*
%TO.P,U2,18*%
%TO.N,Net-(U2-Pad18)*%
X154192500Y-128350000D03*
%TO.P,U2,19*%
%TO.N,Net-(U2-Pad19)*%
X154827500Y-128350000D03*
%TO.P,U2,20*%
%TO.N,Net-(U2-Pad20)*%
X155462500Y-128350000D03*
%TO.P,U2,21*%
%TO.N,/COM0*%
X156097500Y-128350000D03*
%TO.P,U2,22*%
%TO.N,/COM1*%
X156732500Y-128350000D03*
%TO.P,U2,23*%
%TO.N,/COM2*%
X157367500Y-128350000D03*
%TO.P,U2,24*%
%TO.N,/COM3*%
X158002500Y-128350000D03*
%TO.P,U2,25*%
%TO.N,/SEG31*%
X158002500Y-117750000D03*
%TO.P,U2,26*%
%TO.N,/SEG30*%
X157367500Y-117750000D03*
%TO.P,U2,27*%
%TO.N,/SEG29*%
X156732500Y-117750000D03*
%TO.P,U2,28*%
%TO.N,/SEG28*%
X156097500Y-117750000D03*
%TO.P,U2,29*%
%TO.N,/SEG27*%
X155462500Y-117750000D03*
%TO.P,U2,30*%
%TO.N,/SEG26*%
X154827500Y-117750000D03*
%TO.P,U2,31*%
%TO.N,/SEG25*%
X154192500Y-117750000D03*
%TO.P,U2,32*%
%TO.N,/SEG24*%
X153557500Y-117750000D03*
%TO.P,U2,33*%
%TO.N,/SEG23*%
X152922500Y-117750000D03*
%TO.P,U2,34*%
%TO.N,/SEG22*%
X152287500Y-117750000D03*
%TO.P,U2,35*%
%TO.N,/SEG21*%
X151652500Y-117750000D03*
%TO.P,U2,36*%
%TO.N,/SEG20*%
X151017500Y-117750000D03*
%TO.P,U2,37*%
%TO.N,/SEG19*%
X150382500Y-117750000D03*
%TO.P,U2,38*%
%TO.N,/SEG18*%
X149747500Y-117750000D03*
%TO.P,U2,39*%
%TO.N,/SEG17*%
X149112500Y-117750000D03*
%TO.P,U2,40*%
%TO.N,/SEG16*%
X148477500Y-117750000D03*
%TO.P,U2,41*%
%TO.N,/SEG15*%
X147842500Y-117750000D03*
%TO.P,U2,42*%
%TO.N,/SEG14*%
X147207500Y-117750000D03*
%TO.P,U2,43*%
%TO.N,/SEG13*%
X146572500Y-117750000D03*
%TO.P,U2,44*%
%TO.N,/SEG12*%
X145937500Y-117750000D03*
%TO.P,U2,45*%
%TO.N,/SEG11*%
X145302500Y-117750000D03*
%TO.P,U2,46*%
%TO.N,/SEG10*%
X144667500Y-117750000D03*
%TO.P,U2,47*%
%TO.N,/SEG9*%
X144032500Y-117750000D03*
%TO.P,U2,48*%
%TO.N,/SEG8*%
X143397500Y-117750000D03*
%TD*%
D15*
%TO.P,J3,4*%
%TO.N,Net-(J3-Pad4)*%
X173050000Y-71540000D03*
%TO.P,J3,3*%
%TO.N,/PD0*%
X168000000Y-71540000D03*
%TO.P,J3,2*%
%TO.N,GND*%
X173050000Y-69000000D03*
%TO.P,J3,1*%
%TO.N,+5V*%
X168000000Y-69000000D03*
%TD*%
D13*
%TO.P,M1,4*%
%TO.N,/MOT_4*%
X161430000Y-97810000D03*
%TO.P,M1,3*%
%TO.N,/MOT_3*%
X161430000Y-90190000D03*
%TO.P,M1,2*%
%TO.N,/MOT_2*%
X138570000Y-90190000D03*
%TO.P,M1,1*%
%TO.N,/MOT_1*%
X138570000Y-97810000D03*
%TD*%
%TO.P,C4,2*%
%TO.N,GND*%
%TA.AperFunction,SMDPad,CuDef*%
G36*
G01*
X166462500Y-127650001D02*
X166462500Y-126349999D01*
G75*
G02*
X166712499Y-126100000I249999J0D01*
G01*
X167537501Y-126100000D01*
G75*
G02*
X167787500Y-126349999I0J-249999D01*
G01*
X167787500Y-127650001D01*
G75*
G02*
X167537501Y-127900000I-249999J0D01*
G01*
X166712499Y-127900000D01*
G75*
G02*
X166462500Y-127650001I0J249999D01*
G01*
G37*
%TD.AperFunction*%
%TO.P,C4,1*%
%TO.N,+5V*%
%TA.AperFunction,SMDPad,CuDef*%
G36*
G01*
X163337500Y-127650001D02*
X163337500Y-126349999D01*
G75*
G02*
X163587499Y-126100000I249999J0D01*
G01*
X164412501Y-126100000D01*
G75*
G02*
X164662500Y-126349999I0J-249999D01*
G01*
X164662500Y-127650001D01*
G75*
G02*
X164412501Y-127900000I-249999J0D01*
G01*
X163587499Y-127900000D01*
G75*
G02*
X163337500Y-127650001I0J249999D01*
G01*
G37*
%TD.AperFunction*%
%TD*%
D16*
%TO.P,Y1,2*%
%TO.N,/XTAL2*%
X135000000Y-71380000D03*
%TO.P,Y1,1*%
%TO.N,/XTAL1*%
X135000000Y-66500000D03*
%TD*%
%TO.P,R7,2*%
%TO.N,+5V*%
%TA.AperFunction,SMDPad,CuDef*%
G36*
G01*
X119375000Y-93450000D02*
X120625000Y-93450000D01*
G75*
G02*
X120875000Y-93700000I0J-250000D01*
G01*
X120875000Y-94500000D01*
G75*
G02*
X120625000Y-94750000I-250000J0D01*
G01*
X119375000Y-94750000D01*
G75*
G02*
X119125000Y-94500000I0J250000D01*
G01*
X119125000Y-93700000D01*
G75*
G02*
X119375000Y-93450000I250000J0D01*
G01*
G37*
%TD.AperFunction*%
%TO.P,R7,1*%
%TO.N,/RESET*%
%TA.AperFunction,SMDPad,CuDef*%
G36*
G01*
X119375000Y-90350000D02*
X120625000Y-90350000D01*
G75*
G02*
X120875000Y-90600000I0J-250000D01*
G01*
X120875000Y-91400000D01*
G75*
G02*
X120625000Y-91650000I-250000J0D01*
G01*
X119375000Y-91650000D01*
G75*
G02*
X119125000Y-91400000I0J250000D01*
G01*
X119125000Y-90600000D01*
G75*
G02*
X119375000Y-90350000I250000J0D01*
G01*
G37*
%TD.AperFunction*%
%TD*%
%TO.P,C3,2*%
%TO.N,GND*%
%TA.AperFunction,SMDPad,CuDef*%
G36*
G01*
X128537500Y-70849999D02*
X128537500Y-72150001D01*
G75*
G02*
X128287501Y-72400000I-249999J0D01*
G01*
X127462499Y-72400000D01*
G75*
G02*
X127212500Y-72150001I0J249999D01*
G01*
X127212500Y-70849999D01*
G75*
G02*
X127462499Y-70600000I249999J0D01*
G01*
X128287501Y-70600000D01*
G75*
G02*
X128537500Y-70849999I0J-249999D01*
G01*
G37*
%TD.AperFunction*%
%TO.P,C3,1*%
%TO.N,/XTAL2*%
%TA.AperFunction,SMDPad,CuDef*%
G36*
G01*
X131662500Y-70849999D02*
X131662500Y-72150001D01*
G75*
G02*
X131412501Y-72400000I-249999J0D01*
G01*
X130587499Y-72400000D01*
G75*
G02*
X130337500Y-72150001I0J249999D01*
G01*
X130337500Y-70849999D01*
G75*
G02*
X130587499Y-70600000I249999J0D01*
G01*
X131412501Y-70600000D01*
G75*
G02*
X131662500Y-70849999I0J-249999D01*
G01*
G37*
%TD.AperFunction*%
%TD*%
%TO.P,C2,2*%
%TO.N,GND*%
%TA.AperFunction,SMDPad,CuDef*%
G36*
G01*
X128537500Y-65849999D02*
X128537500Y-67150001D01*
G75*
G02*
X128287501Y-67400000I-249999J0D01*
G01*
X127462499Y-67400000D01*
G75*
G02*
X127212500Y-67150001I0J249999D01*
G01*
X127212500Y-65849999D01*
G75*
G02*
X127462499Y-65600000I249999J0D01*
G01*
X128287501Y-65600000D01*
G75*
G02*
X128537500Y-65849999I0J-249999D01*
G01*
G37*
%TD.AperFunction*%
%TO.P,C2,1*%
%TO.N,/XTAL1*%
%TA.AperFunction,SMDPad,CuDef*%
G36*
G01*
X131662500Y-65849999D02*
X131662500Y-67150001D01*
G75*
G02*
X131412501Y-67400000I-249999J0D01*
G01*
X130587499Y-67400000D01*
G75*
G02*
X130337500Y-67150001I0J249999D01*
G01*
X130337500Y-65849999D01*
G75*
G02*
X130587499Y-65600000I249999J0D01*
G01*
X131412501Y-65600000D01*
G75*
G02*
X131662500Y-65849999I0J-249999D01*
G01*
G37*
%TD.AperFunction*%
%TD*%
%TO.P,C1,2*%
%TO.N,GND*%
%TA.AperFunction,SMDPad,CuDef*%
G36*
G01*
X151462500Y-60650001D02*
X151462500Y-59349999D01*
G75*
G02*
X151712499Y-59100000I249999J0D01*
G01*
X152537501Y-59100000D01*
G75*
G02*
X152787500Y-59349999I0J-249999D01*
G01*
X152787500Y-60650001D01*
G75*
G02*
X152537501Y-60900000I-249999J0D01*
G01*
X151712499Y-60900000D01*
G75*
G02*
X151462500Y-60650001I0J249999D01*
G01*
G37*
%TD.AperFunction*%
%TO.P,C1,1*%
%TO.N,+5V*%
%TA.AperFunction,SMDPad,CuDef*%
G36*
G01*
X148337500Y-60650001D02*
X148337500Y-59349999D01*
G75*
G02*
X148587499Y-59100000I249999J0D01*
G01*
X149412501Y-59100000D01*
G75*
G02*
X149662500Y-59349999I0J-249999D01*
G01*
X149662500Y-60650001D01*
G75*
G02*
X149412501Y-60900000I-249999J0D01*
G01*
X148587499Y-60900000D01*
G75*
G02*
X148337500Y-60650001I0J249999D01*
G01*
G37*
%TD.AperFunction*%
%TD*%
%TO.P,R6,2*%
%TO.N,GND*%
%TA.AperFunction,SMDPad,CuDef*%
G36*
G01*
X169625000Y-121550000D02*
X168375000Y-121550000D01*
G75*
G02*
X168125000Y-121300000I0J250000D01*
G01*
X168125000Y-120500000D01*
G75*
G02*
X168375000Y-120250000I250000J0D01*
G01*
X169625000Y-120250000D01*
G75*
G02*
X169875000Y-120500000I0J-250000D01*
G01*
X169875000Y-121300000D01*
G75*
G02*
X169625000Y-121550000I-250000J0D01*
G01*
G37*
%TD.AperFunction*%
%TO.P,R6,1*%
%TO.N,Net-(D14-Pad1)*%
%TA.AperFunction,SMDPad,CuDef*%
G36*
G01*
X169625000Y-124650000D02*
X168375000Y-124650000D01*
G75*
G02*
X168125000Y-124400000I0J250000D01*
G01*
X168125000Y-123600000D01*
G75*
G02*
X168375000Y-123350000I250000J0D01*
G01*
X169625000Y-123350000D01*
G75*
G02*
X169875000Y-123600000I0J-250000D01*
G01*
X169875000Y-124400000D01*
G75*
G02*
X169625000Y-124650000I-250000J0D01*
G01*
G37*
%TD.AperFunction*%
%TD*%
%TO.P,R3,2*%
%TO.N,GND*%
%TA.AperFunction,SMDPad,CuDef*%
G36*
G01*
X131625000Y-121550000D02*
X130375000Y-121550000D01*
G75*
G02*
X130125000Y-121300000I0J250000D01*
G01*
X130125000Y-120500000D01*
G75*
G02*
X130375000Y-120250000I250000J0D01*
G01*
X131625000Y-120250000D01*
G75*
G02*
X131875000Y-120500000I0J-250000D01*
G01*
X131875000Y-121300000D01*
G75*
G02*
X131625000Y-121550000I-250000J0D01*
G01*
G37*
%TD.AperFunction*%
%TO.P,R3,1*%
%TO.N,Net-(D11-Pad1)*%
%TA.AperFunction,SMDPad,CuDef*%
G36*
G01*
X131625000Y-124650000D02*
X130375000Y-124650000D01*
G75*
G02*
X130125000Y-124400000I0J250000D01*
G01*
X130125000Y-123600000D01*
G75*
G02*
X130375000Y-123350000I250000J0D01*
G01*
X131625000Y-123350000D01*
G75*
G02*
X131875000Y-123600000I0J-250000D01*
G01*
X131875000Y-124400000D01*
G75*
G02*
X131625000Y-124650000I-250000J0D01*
G01*
G37*
%TD.AperFunction*%
%TD*%
%TO.P,D14,2*%
%TO.N,/BACKLIGHT_LED*%
%TA.AperFunction,SMDPad,CuDef*%
G36*
G01*
X164825000Y-121737500D02*
X163575000Y-121737500D01*
G75*
G02*
X163325000Y-121487500I0J250000D01*
G01*
X163325000Y-120562500D01*
G75*
G02*
X163575000Y-120312500I250000J0D01*
G01*
X164825000Y-120312500D01*
G75*
G02*
X165075000Y-120562500I0J-250000D01*
G01*
X165075000Y-121487500D01*
G75*
G02*
X164825000Y-121737500I-250000J0D01*
G01*
G37*
%TD.AperFunction*%
%TO.P,D14,1*%
%TO.N,Net-(D14-Pad1)*%
%TA.AperFunction,SMDPad,CuDef*%
G36*
G01*
X164825000Y-124712500D02*
X163575000Y-124712500D01*
G75*
G02*
X163325000Y-124462500I0J250000D01*
G01*
X163325000Y-123537500D01*
G75*
G02*
X163575000Y-123287500I250000J0D01*
G01*
X164825000Y-123287500D01*
G75*
G02*
X165075000Y-123537500I0J-250000D01*
G01*
X165075000Y-124462500D01*
G75*
G02*
X164825000Y-124712500I-250000J0D01*
G01*
G37*
%TD.AperFunction*%
%TD*%
%TO.P,D11,2*%
%TO.N,/BACKLIGHT_LED*%
%TA.AperFunction,SMDPad,CuDef*%
G36*
G01*
X136625000Y-121737500D02*
X135375000Y-121737500D01*
G75*
G02*
X135125000Y-121487500I0J250000D01*
G01*
X135125000Y-120562500D01*
G75*
G02*
X135375000Y-120312500I250000J0D01*
G01*
X136625000Y-120312500D01*
G75*
G02*
X136875000Y-120562500I0J-250000D01*
G01*
X136875000Y-121487500D01*
G75*
G02*
X136625000Y-121737500I-250000J0D01*
G01*
G37*
%TD.AperFunction*%
%TO.P,D11,1*%
%TO.N,Net-(D11-Pad1)*%
%TA.AperFunction,SMDPad,CuDef*%
G36*
G01*
X136625000Y-124712500D02*
X135375000Y-124712500D01*
G75*
G02*
X135125000Y-124462500I0J250000D01*
G01*
X135125000Y-123537500D01*
G75*
G02*
X135375000Y-123287500I250000J0D01*
G01*
X136625000Y-123287500D01*
G75*
G02*
X136875000Y-123537500I0J-250000D01*
G01*
X136875000Y-124462500D01*
G75*
G02*
X136625000Y-124712500I-250000J0D01*
G01*
G37*
%TD.AperFunction*%
%TD*%
D17*
%TO.P,U1,32*%
%TO.N,/PD2*%
X154250000Y-65400000D03*
%TO.P,U1,31*%
%TO.N,/PD1*%
X154250000Y-66200000D03*
%TO.P,U1,30*%
%TO.N,/PD0*%
X154250000Y-67000000D03*
%TO.P,U1,29*%
%TO.N,/RESET*%
X154250000Y-67800000D03*
%TO.P,U1,28*%
%TO.N,Net-(U1-Pad28)*%
X154250000Y-68600000D03*
%TO.P,U1,27*%
%TO.N,/BACKLIGHT_LED*%
X154250000Y-69400000D03*
%TO.P,U1,26*%
%TO.N,/MOT_3*%
X154250000Y-70200000D03*
%TO.P,U1,25*%
%TO.N,/MOT_4*%
X154250000Y-71000000D03*
D18*
%TO.P,U1,24*%
%TO.N,/MOT_1*%
X152800000Y-72450000D03*
%TO.P,U1,23*%
%TO.N,/MOT_2*%
X152000000Y-72450000D03*
%TO.P,U1,22*%
%TO.N,/ADC7*%
X151200000Y-72450000D03*
%TO.P,U1,21*%
%TO.N,GND*%
X150400000Y-72450000D03*
%TO.P,U1,20*%
%TO.N,+5V*%
X149600000Y-72450000D03*
%TO.P,U1,19*%
%TO.N,/ADC6*%
X148800000Y-72450000D03*
%TO.P,U1,18*%
%TO.N,+5V*%
X148000000Y-72450000D03*
%TO.P,U1,17*%
%TO.N,/PB5*%
X147200000Y-72450000D03*
D17*
%TO.P,U1,16*%
%TO.N,/PB4*%
X145750000Y-71000000D03*
%TO.P,U1,15*%
%TO.N,/PB3*%
X145750000Y-70200000D03*
%TO.P,U1,14*%
%TO.N,Net-(U1-Pad14)*%
X145750000Y-69400000D03*
%TO.P,U1,13*%
%TO.N,Net-(U1-Pad13)*%
X145750000Y-68600000D03*
%TO.P,U1,12*%
%TO.N,/PB0*%
X145750000Y-67800000D03*
%TO.P,U1,11*%
%TO.N,/PD7*%
X145750000Y-67000000D03*
%TO.P,U1,10*%
%TO.N,/PD6*%
X145750000Y-66200000D03*
%TO.P,U1,9*%
%TO.N,/PD5*%
X145750000Y-65400000D03*
D18*
%TO.P,U1,8*%
%TO.N,/XTAL2*%
X147200000Y-63950000D03*
%TO.P,U1,7*%
%TO.N,/XTAL1*%
X148000000Y-63950000D03*
%TO.P,U1,6*%
%TO.N,+5V*%
X148800000Y-63950000D03*
%TO.P,U1,5*%
%TO.N,GND*%
X149600000Y-63950000D03*
%TO.P,U1,4*%
%TO.N,+5V*%
X150400000Y-63950000D03*
%TO.P,U1,3*%
%TO.N,GND*%
X151200000Y-63950000D03*
%TO.P,U1,2*%
%TO.N,/PD4*%
X152000000Y-63950000D03*
%TO.P,U1,1*%
%TO.N,/PD3*%
X152800000Y-63950000D03*
%TD*%
D19*
%TO.N,+5V*%
X148000000Y-76000000D03*
X170500000Y-78000000D03*
X129000000Y-94000000D03*
X155000000Y-122000000D03*
%TO.N,GND*%
X154000000Y-60000000D03*
X169000000Y-127000000D03*
X169000000Y-119000000D03*
X131000000Y-119000000D03*
X151013270Y-125999766D03*
X128000000Y-69000000D03*
X157000000Y-103000000D03*
X153000000Y-103000000D03*
X176000000Y-69000000D03*
%TO.N,/RESET*%
X152000000Y-70000000D03*
X124000000Y-91000000D03*
%TO.N,/COM3*%
X158092500Y-126012653D03*
%TO.N,/COM2*%
X158000000Y-125000000D03*
%TO.N,/BACKLIGHT_LED*%
X140000000Y-121000000D03*
X148000000Y-121000000D03*
%TO.N,/PB3*%
X147987347Y-126012653D03*
X124000000Y-100000000D03*
X143994204Y-73978197D03*
%TO.N,/PB5*%
X150012653Y-125987347D03*
X126000000Y-102000000D03*
X144000000Y-76000000D03*
%TO.N,/PB4*%
X149000000Y-126000000D03*
X143987347Y-74987347D03*
X125000000Y-99000000D03*
%TO.N,/ADC6*%
X150000000Y-76000000D03*
%TO.N,/ADC7*%
X151275000Y-75922264D03*
%TO.N,/PB0*%
X148000000Y-68500000D03*
%TO.N,/PD1*%
X157000000Y-64500000D03*
%TO.N,/PD7*%
X148000000Y-67500000D03*
%TO.N,/PD2*%
X157000000Y-63500000D03*
%TO.N,/PD6*%
X148000000Y-66500000D03*
%TO.N,/PD3*%
X157000000Y-62500000D03*
%TO.N,/PD5*%
X148000000Y-65500000D03*
%TO.N,/PD4*%
X157000000Y-61500000D03*
%TD*%
D20*
%TO.N,+5V*%
X148800000Y-60200000D02*
X149000000Y-60000000D01*
X148800000Y-63950000D02*
X148800000Y-60200000D01*
X150400000Y-65035002D02*
X150400000Y-63950000D01*
X150235001Y-65200001D02*
X150400000Y-65035002D01*
X148964999Y-65200001D02*
X150235001Y-65200001D01*
X148800000Y-65035002D02*
X148964999Y-65200001D01*
X148800000Y-63950000D02*
X148800000Y-65035002D01*
X148000000Y-71364998D02*
X148000000Y-72450000D01*
X148164999Y-71199999D02*
X148000000Y-71364998D01*
X149600000Y-71364998D02*
X149435001Y-71199999D01*
X149600000Y-72450000D02*
X149600000Y-71364998D01*
X148850001Y-71149999D02*
X148800001Y-71199999D01*
X148850001Y-64000001D02*
X148850001Y-71149999D01*
X148800000Y-63950000D02*
X148850001Y-64000001D01*
X148800001Y-71199999D02*
X148164999Y-71199999D01*
X149435001Y-71199999D02*
X148800001Y-71199999D01*
X148000000Y-76000000D02*
X148000000Y-72450000D01*
X161000000Y-124000000D02*
X164000000Y-127000000D01*
D21*
X152922500Y-124077500D02*
X153000000Y-124000000D01*
X153557500Y-127557500D02*
X152922500Y-126922500D01*
X153557500Y-127750000D02*
X153557500Y-127557500D01*
X152922500Y-126922500D02*
X152922500Y-124077500D01*
X152922500Y-127750000D02*
X152922500Y-126922500D01*
D20*
X120000000Y-94100000D02*
X120000000Y-96970000D01*
X168345002Y-69000000D02*
X168000000Y-69000000D01*
X170500000Y-71154998D02*
X168345002Y-69000000D01*
X170500000Y-78000000D02*
X170500000Y-71154998D01*
X119570000Y-96970000D02*
X118540000Y-98000000D01*
X120000000Y-96970000D02*
X119570000Y-96970000D01*
X155000000Y-122000000D02*
X155000000Y-124000000D01*
X155000000Y-124000000D02*
X161000000Y-124000000D01*
X153000000Y-124000000D02*
X155000000Y-124000000D01*
X120100000Y-94000000D02*
X120000000Y-94100000D01*
X129000000Y-94000000D02*
X120100000Y-94000000D01*
%TO.N,GND*%
X151200000Y-62864998D02*
X151200000Y-63950000D01*
X151035001Y-62699999D02*
X151200000Y-62864998D01*
X149764999Y-62699999D02*
X151035001Y-62699999D01*
X149600000Y-62864998D02*
X149764999Y-62699999D01*
X149600000Y-63950000D02*
X149600000Y-62864998D01*
X151200000Y-60925000D02*
X152125000Y-60000000D01*
X151200000Y-63950000D02*
X151200000Y-60925000D01*
X151200000Y-65224965D02*
X151200000Y-63950000D01*
X150400000Y-66024965D02*
X151200000Y-65224965D01*
X150400000Y-72450000D02*
X150400000Y-66024965D01*
X152125000Y-60000000D02*
X154000000Y-60000000D01*
X167125000Y-127000000D02*
X169000000Y-127000000D01*
X169000000Y-120900000D02*
X169000000Y-119000000D01*
X131000000Y-120900000D02*
X131000000Y-119000000D01*
D21*
X151017500Y-126003996D02*
X151013270Y-125999766D01*
X151017500Y-127750000D02*
X151017500Y-126003996D01*
D20*
X127875000Y-69125000D02*
X128000000Y-69000000D01*
X127875000Y-71500000D02*
X127875000Y-69125000D01*
X127875000Y-69125000D02*
X127875000Y-66500000D01*
X157000000Y-103000000D02*
X153000000Y-103000000D01*
X120186013Y-109536013D02*
X119200000Y-108550000D01*
X120186013Y-116463987D02*
X120186013Y-109536013D01*
X119200000Y-117450000D02*
X120186013Y-116463987D01*
X119200000Y-103740000D02*
X118540000Y-103080000D01*
X119200000Y-108550000D02*
X119200000Y-103740000D01*
X173050000Y-69000000D02*
X176000000Y-69000000D01*
D21*
%TO.N,/RESET*%
X152000000Y-69000000D02*
X152000000Y-70000000D01*
X153200000Y-67800000D02*
X152000000Y-69000000D01*
X154250000Y-67800000D02*
X153200000Y-67800000D01*
X120000000Y-91000000D02*
X124000000Y-91000000D01*
X114824999Y-96175001D02*
X114824999Y-101904999D01*
X114824999Y-101904999D02*
X116000000Y-103080000D01*
X120000000Y-91000000D02*
X114824999Y-96175001D01*
X116000000Y-108550000D02*
X116000000Y-103080000D01*
%TO.N,/SEG8*%
X143397500Y-118675502D02*
X143397500Y-118350000D01*
X128410880Y-133662122D02*
X143397500Y-118675502D01*
X128410880Y-135000000D02*
X128410880Y-133662122D01*
%TO.N,/SEG9*%
X144032500Y-118100000D02*
X144032500Y-119329748D01*
X130950880Y-132411368D02*
X131681124Y-131681124D01*
X130950880Y-135000000D02*
X130950880Y-132411368D01*
X144032500Y-119329748D02*
X131681124Y-131681124D01*
%TO.N,/SEG10*%
X144667500Y-118100000D02*
X144667500Y-119331158D01*
X133490880Y-130507778D02*
X133999329Y-129999329D01*
X133490880Y-135000000D02*
X133490880Y-130507778D01*
X144667500Y-119331158D02*
X133999329Y-129999329D01*
%TO.N,/SEG11*%
X145302500Y-118100000D02*
X145302500Y-119332568D01*
X136030880Y-128604188D02*
X136817534Y-127817534D01*
X136030880Y-135000000D02*
X136030880Y-128604188D01*
X145302500Y-119332568D02*
X136817534Y-127817534D01*
%TO.N,/SEG12*%
X145937500Y-118100000D02*
X145937500Y-119333978D01*
X138570880Y-126700598D02*
X139635739Y-125635739D01*
X138570880Y-135000000D02*
X138570880Y-126700598D01*
X145937500Y-119333978D02*
X139635739Y-125635739D01*
%TO.N,/SEG13*%
X146572500Y-118100000D02*
X146572500Y-119335388D01*
X141110880Y-124797008D02*
X141953944Y-123953944D01*
X141110880Y-135000000D02*
X141110880Y-124797008D01*
X146572500Y-119335388D02*
X141953944Y-123953944D01*
%TO.N,/SEG14*%
X142422489Y-124121809D02*
X142422489Y-132976569D01*
X147207500Y-119336798D02*
X142422489Y-124121809D01*
X147207500Y-118100000D02*
X147207500Y-119336798D01*
X142422489Y-133771609D02*
X142422489Y-132976569D01*
X143650880Y-135000000D02*
X142422489Y-133771609D01*
%TO.N,/SEG15*%
X147842500Y-119338208D02*
X142872499Y-124308209D01*
X147842500Y-118100000D02*
X147842500Y-119338208D01*
X142872499Y-131681619D02*
X142872499Y-130872499D01*
X146190880Y-135000000D02*
X142872499Y-131681619D01*
X142872499Y-124308209D02*
X142872499Y-130872499D01*
%TO.N,/SEG16*%
X128410880Y-111027040D02*
X133608839Y-116224999D01*
X148477500Y-116477500D02*
X148477500Y-117750000D01*
X148224999Y-116224999D02*
X148477500Y-116477500D01*
X133608839Y-116224999D02*
X148224999Y-116224999D01*
%TO.N,/SEG17*%
X130950880Y-111027040D02*
X135698829Y-115774989D01*
X149112500Y-116399998D02*
X149112500Y-117750000D01*
X148487491Y-115774989D02*
X149112500Y-116399998D01*
X135698829Y-115774989D02*
X148487491Y-115774989D01*
%TO.N,/SEG18*%
X133490880Y-111027040D02*
X137788819Y-115324979D01*
X149747500Y-116398588D02*
X149747500Y-117750000D01*
X148673892Y-115324980D02*
X149747500Y-116398588D01*
X137788819Y-115324979D02*
X148673892Y-115324980D01*
%TO.N,/SEG19*%
X136030880Y-111027040D02*
X139878810Y-114874970D01*
X150382500Y-116397178D02*
X150382500Y-117750000D01*
X148860293Y-114874971D02*
X150382500Y-116397178D01*
X139878810Y-114874970D02*
X148860293Y-114874971D01*
%TO.N,/SEG20*%
X138570880Y-111027040D02*
X141968801Y-114424961D01*
X151017500Y-116395768D02*
X151017500Y-117750000D01*
X149046694Y-114424962D02*
X151017500Y-116395768D01*
X141968801Y-114424961D02*
X149046694Y-114424962D01*
%TO.N,/SEG21*%
X141110880Y-111027040D02*
X144058792Y-113974952D01*
X144058792Y-113974952D02*
X149233095Y-113974953D01*
X151652500Y-116394358D02*
X151652500Y-117750000D01*
X149233095Y-113974953D02*
X151652500Y-116394358D01*
%TO.N,/SEG22*%
X143650880Y-111027040D02*
X146123840Y-113500000D01*
X149024943Y-113524943D02*
X149419496Y-113524944D01*
X149000000Y-113500000D02*
X149024943Y-113524943D01*
X146123840Y-113500000D02*
X149000000Y-113500000D01*
X152287500Y-116392948D02*
X152287500Y-117750000D01*
X149419496Y-113524944D02*
X152287500Y-116392948D01*
%TO.N,/SEG23*%
X152922500Y-118350000D02*
X152922500Y-117244360D01*
X146190880Y-111027040D02*
X148213830Y-113049990D01*
X148213830Y-113049990D02*
X149580952Y-113049990D01*
X152922500Y-116391538D02*
X152922500Y-117750000D01*
X149580952Y-113049990D02*
X152922500Y-116391538D01*
%TO.N,/SEG24*%
X153557500Y-115853660D02*
X153557500Y-117750000D01*
X148730880Y-111027040D02*
X153557500Y-115853660D01*
%TO.N,/SEG25*%
X154192500Y-113948660D02*
X154192500Y-117750000D01*
X151270880Y-111027040D02*
X154192500Y-113948660D01*
%TO.N,/SEG26*%
X154827500Y-112043660D02*
X154827500Y-117750000D01*
X153810880Y-111027040D02*
X154827500Y-112043660D01*
%TO.N,/SEG27*%
X155462500Y-111915420D02*
X155462500Y-117750000D01*
X156350880Y-111027040D02*
X155462500Y-111915420D01*
%TO.N,/SEG28*%
X156097500Y-113820420D02*
X156097500Y-117750000D01*
X158890880Y-111027040D02*
X156097500Y-113820420D01*
%TO.N,/SEG29*%
X156732500Y-115725420D02*
X156732500Y-117750000D01*
X161430880Y-111027040D02*
X156732500Y-115725420D01*
%TO.N,/SEG30*%
X157367500Y-117630420D02*
X157367500Y-118350000D01*
X157367500Y-116180000D02*
X157367500Y-117750000D01*
X161433459Y-112114041D02*
X157367500Y-116180000D01*
X162883879Y-112114041D02*
X161433459Y-112114041D01*
X163970880Y-111027040D02*
X162883879Y-112114041D01*
%TO.N,/SEG31*%
X159787920Y-117750000D02*
X158002500Y-117750000D01*
X166510880Y-111027040D02*
X159787920Y-117750000D01*
%TO.N,/COM3*%
X158002500Y-126102653D02*
X158092500Y-126012653D01*
X158002500Y-127750000D02*
X158002500Y-126102653D01*
%TO.N,/COM2*%
X157367500Y-125632500D02*
X158000000Y-125000000D01*
X157367500Y-127750000D02*
X157367500Y-125632500D01*
%TO.N,/COM1*%
X156732500Y-127750000D02*
X156732500Y-128600000D01*
X156732500Y-129700002D02*
X156732500Y-128350000D01*
X156907499Y-129875001D02*
X156732500Y-129700002D01*
X166465881Y-129875001D02*
X156907499Y-129875001D01*
X171590880Y-135000000D02*
X166465881Y-129875001D01*
%TO.N,/COM0*%
X156097500Y-128601410D02*
X156097500Y-127750000D01*
X169050880Y-135000000D02*
X164375891Y-130325011D01*
X156097500Y-129701412D02*
X156097500Y-128350000D01*
X156721098Y-130325010D02*
X156097500Y-129701412D01*
X164375891Y-130325011D02*
X156721098Y-130325010D01*
%TO.N,/SEG0*%
X147842500Y-128500002D02*
X147842500Y-127750000D01*
X166510880Y-135000000D02*
X162285899Y-130775019D01*
X147842500Y-129700002D02*
X147842500Y-128350000D01*
X148917517Y-130775019D02*
X147842500Y-129700002D01*
X162285899Y-130775019D02*
X148917517Y-130775019D01*
%TO.N,/SEG1*%
X147207500Y-128501412D02*
X147207500Y-127750000D01*
X163970880Y-135000000D02*
X160195909Y-131225029D01*
X147207500Y-129701412D02*
X147207500Y-128350000D01*
X148731116Y-131225028D02*
X147207500Y-129701412D01*
X160195909Y-131225029D02*
X148731116Y-131225028D01*
%TO.N,/SEG2*%
X146572500Y-128502822D02*
X146572500Y-127750000D01*
X148544715Y-131675037D02*
X146572500Y-129702822D01*
X158105918Y-131675038D02*
X148544715Y-131675037D01*
X146572500Y-129702822D02*
X146572500Y-128350000D01*
X161430880Y-135000000D02*
X158105918Y-131675038D01*
%TO.N,/SEG3*%
X145937500Y-128504232D02*
X145937500Y-127750000D01*
X145937500Y-129704232D02*
X145937500Y-128350000D01*
X148358314Y-132125046D02*
X145937500Y-129704232D01*
X156015926Y-132125046D02*
X148358314Y-132125046D01*
X158890880Y-135000000D02*
X156015926Y-132125046D01*
%TO.N,/SEG4*%
X145302500Y-128505642D02*
X145302500Y-127750000D01*
X156350880Y-135000000D02*
X153925936Y-132575056D01*
X153925936Y-132575056D02*
X148075056Y-132575056D01*
X145302500Y-129802500D02*
X145302500Y-128350000D01*
X148075056Y-132575056D02*
X145302500Y-129802500D01*
%TO.N,/SEG5*%
X144667500Y-128507052D02*
X144667500Y-127750000D01*
X153810880Y-135000000D02*
X151835946Y-133025066D01*
X151835946Y-133025066D02*
X147888655Y-133025065D01*
X144667500Y-129803910D02*
X144667500Y-128350000D01*
X147888655Y-133025065D02*
X144667500Y-129803910D01*
%TO.N,/SEG6*%
X144032500Y-128508462D02*
X144032500Y-127750000D01*
X151270880Y-135000000D02*
X149770880Y-133500000D01*
X149770880Y-133500000D02*
X147727180Y-133500000D01*
X144032500Y-129805320D02*
X144032500Y-128350000D01*
X147727180Y-133500000D02*
X144032500Y-129805320D01*
%TO.N,/SEG7*%
X143397500Y-128602500D02*
X143397500Y-127750000D01*
X148590770Y-135000000D02*
X143397500Y-129806730D01*
X143397500Y-129806730D02*
X143397500Y-128350000D01*
X148730880Y-135000000D02*
X148590770Y-135000000D01*
%TO.N,Net-(D11-Pad1)*%
X136000000Y-124000000D02*
X131000000Y-124000000D01*
%TO.N,Net-(D14-Pad1)*%
X164200000Y-124000000D02*
X169000000Y-124000000D01*
%TO.N,/XTAL1*%
X131000000Y-66500000D02*
X135000000Y-66500000D01*
X148000000Y-63000000D02*
X148000000Y-63950000D01*
X147824999Y-62824999D02*
X148000000Y-63000000D01*
X138675001Y-62824999D02*
X147824999Y-62824999D01*
X135000000Y-66500000D02*
X138675001Y-62824999D01*
%TO.N,/XTAL2*%
X134880000Y-71500000D02*
X135000000Y-71380000D01*
X131000000Y-71500000D02*
X134880000Y-71500000D01*
X142430000Y-63950000D02*
X147200000Y-63950000D01*
X135000000Y-71380000D02*
X142430000Y-63950000D01*
%TO.N,/MOT_3*%
X155375001Y-84135001D02*
X161430000Y-90190000D01*
X155375001Y-70275001D02*
X155375001Y-84135001D01*
X155300000Y-70200000D02*
X155375001Y-70275001D01*
X154250000Y-70200000D02*
X155300000Y-70200000D01*
%TO.N,/MOT_4*%
X154250000Y-90630000D02*
X161430000Y-97810000D01*
X154250000Y-71000000D02*
X154250000Y-90630000D01*
%TO.N,/MOT_2*%
X152000000Y-76760000D02*
X152000000Y-72450000D01*
X138570000Y-90190000D02*
X152000000Y-76760000D01*
%TO.N,/MOT_1*%
X152800000Y-83580000D02*
X138570000Y-97810000D01*
X152800000Y-72450000D02*
X152800000Y-83580000D01*
%TO.N,/BACKLIGHT_LED*%
X139975000Y-121025000D02*
X140000000Y-121000000D01*
X136000000Y-121025000D02*
X139975000Y-121025000D01*
X164175000Y-121000000D02*
X164200000Y-121025000D01*
X148000000Y-121000000D02*
X164175000Y-121000000D01*
X167963879Y-82063879D02*
X167963879Y-117261121D01*
X155300000Y-69400000D02*
X167963879Y-82063879D01*
X167963879Y-117261121D02*
X164200000Y-121025000D01*
X154250000Y-69400000D02*
X155300000Y-69400000D01*
%TO.N,/PB3*%
X148477500Y-126502806D02*
X147987347Y-126012653D01*
X148477500Y-127750000D02*
X148477500Y-126502806D01*
X144700000Y-70200000D02*
X145750000Y-70200000D01*
X143994204Y-70905796D02*
X144700000Y-70200000D01*
X143994204Y-73978197D02*
X143994204Y-70905796D01*
X119080000Y-100000000D02*
X118540000Y-100540000D01*
X124000000Y-100000000D02*
X119080000Y-100000000D01*
%TO.N,/PB5*%
X150382500Y-126357194D02*
X150012653Y-125987347D01*
X150382500Y-127750000D02*
X150382500Y-126357194D01*
X147200000Y-72800000D02*
X147200000Y-72450000D01*
X144000000Y-76000000D02*
X147200000Y-72800000D01*
X117175001Y-101715001D02*
X116000000Y-100540000D01*
X125715001Y-101715001D02*
X117175001Y-101715001D01*
X126000000Y-102000000D02*
X125715001Y-101715001D01*
%TO.N,/PB4*%
X149747500Y-126747500D02*
X149000000Y-126000000D01*
X149747500Y-127750000D02*
X149747500Y-126747500D01*
X144387346Y-74587348D02*
X144412652Y-74587348D01*
X143987347Y-74987347D02*
X144387346Y-74587348D01*
X145750000Y-73250000D02*
X145750000Y-71000000D01*
X144412652Y-74587348D02*
X145750000Y-73250000D01*
X117175001Y-99175001D02*
X116000000Y-98000000D01*
X124824999Y-99175001D02*
X117175001Y-99175001D01*
X125000000Y-99000000D02*
X124824999Y-99175001D01*
%TO.N,/ADC6*%
X148800000Y-74800000D02*
X148800000Y-72450000D01*
X150000000Y-76000000D02*
X148800000Y-74800000D01*
%TO.N,/ADC7*%
X151200000Y-75847264D02*
X151275000Y-75922264D01*
X151200000Y-72450000D02*
X151200000Y-75847264D01*
%TO.N,/PB0*%
X146800000Y-67800000D02*
X147500000Y-68500000D01*
X147500000Y-68500000D02*
X148000000Y-68500000D01*
X145750000Y-67800000D02*
X146800000Y-67800000D01*
%TO.N,/PD1*%
X155300000Y-66200000D02*
X157000000Y-64500000D01*
X154250000Y-66200000D02*
X155300000Y-66200000D01*
%TO.N,/PD7*%
X147926998Y-67500000D02*
X148000000Y-67500000D01*
X147426998Y-67000000D02*
X147926998Y-67500000D01*
X145750000Y-67000000D02*
X147426998Y-67000000D01*
%TO.N,/PD2*%
X154250000Y-65400000D02*
X154250000Y-64750000D01*
X155500000Y-63500000D02*
X157000000Y-63500000D01*
X154250000Y-64750000D02*
X155500000Y-63500000D01*
%TO.N,/PD6*%
X147700000Y-66200000D02*
X148000000Y-66500000D01*
X145750000Y-66200000D02*
X147700000Y-66200000D01*
%TO.N,/PD3*%
X152800000Y-63950000D02*
X152800000Y-63700000D01*
X154000000Y-62500000D02*
X157000000Y-62500000D01*
X152800000Y-63700000D02*
X154000000Y-62500000D01*
%TO.N,/PD5*%
X147900000Y-65400000D02*
X148000000Y-65500000D01*
X145750000Y-65400000D02*
X147900000Y-65400000D01*
%TO.N,/PD4*%
X153400000Y-61500000D02*
X157000000Y-61500000D01*
X152000000Y-62900000D02*
X153400000Y-61500000D01*
X152000000Y-63950000D02*
X152000000Y-62900000D01*
%TO.N,/PD0*%
X163460000Y-67000000D02*
X168000000Y-71540000D01*
X154250000Y-67000000D02*
X163460000Y-67000000D01*
%TD*%
M02*
