%TF.GenerationSoftware,KiCad,Pcbnew,5.1.10*%
%TF.CreationDate,2021-09-26T09:19:48+10:00*%
%TF.ProjectId,pcb-main,7063622d-6d61-4696-9e2e-6b696361645f,rev?*%
%TF.SameCoordinates,Original*%
%TF.FileFunction,Copper,L2,Bot*%
%TF.FilePolarity,Positive*%
%FSLAX46Y46*%
G04 Gerber Fmt 4.6, Leading zero omitted, Abs format (unit mm)*
G04 Created by KiCad (PCBNEW 5.1.10) date 2021-09-26 09:19:48*
%MOMM*%
%LPD*%
G01*
G04 APERTURE LIST*
%TA.AperFunction,ComponentPad*%
%ADD10O,1.700000X1.700000*%
%TD*%
%TA.AperFunction,ComponentPad*%
%ADD11R,1.700000X1.700000*%
%TD*%
%TA.AperFunction,ComponentPad*%
%ADD12C,1.524000*%
%TD*%
%TA.AperFunction,SMDPad,CuDef*%
%ADD13R,3.150000X1.000000*%
%TD*%
%TA.AperFunction,ComponentPad*%
%ADD14C,1.500000*%
%TD*%
%TA.AperFunction,ViaPad*%
%ADD15C,0.800000*%
%TD*%
%TA.AperFunction,Conductor*%
%ADD16C,0.500000*%
%TD*%
%TA.AperFunction,Conductor*%
%ADD17C,0.250000*%
%TD*%
%TA.AperFunction,Conductor*%
%ADD18C,0.254000*%
%TD*%
%TA.AperFunction,Conductor*%
%ADD19C,0.100000*%
%TD*%
G04 APERTURE END LIST*
D10*
%TO.P,J1,6*%
%TO.N,GND*%
X118540000Y-103080000D03*
%TO.P,J1,5*%
%TO.N,/RESET*%
X116000000Y-103080000D03*
%TO.P,J1,4*%
%TO.N,/PB3*%
X118540000Y-100540000D03*
%TO.P,J1,3*%
%TO.N,/PB5*%
X116000000Y-100540000D03*
%TO.P,J1,2*%
%TO.N,+5V*%
X118540000Y-98000000D03*
D11*
%TO.P,J1,1*%
%TO.N,/PB4*%
X116000000Y-98000000D03*
%TD*%
D12*
%TO.P,U3,36*%
%TO.N,/SEG16*%
X128410880Y-111027040D03*
%TO.P,U3,35*%
%TO.N,/SEG17*%
X130950880Y-111027040D03*
%TO.P,U3,34*%
%TO.N,/SEG18*%
X133490880Y-111027040D03*
%TO.P,U3,33*%
%TO.N,/SEG19*%
X136030880Y-111027040D03*
%TO.P,U3,32*%
%TO.N,/SEG20*%
X138570880Y-111027040D03*
%TO.P,U3,31*%
%TO.N,/SEG21*%
X141110880Y-111027040D03*
%TO.P,U3,30*%
%TO.N,/SEG22*%
X143650880Y-111027040D03*
%TO.P,U3,29*%
%TO.N,/SEG23*%
X146190880Y-111027040D03*
%TO.P,U3,28*%
%TO.N,/SEG24*%
X148730880Y-111027040D03*
%TO.P,U3,27*%
%TO.N,/SEG25*%
X151270880Y-111027040D03*
%TO.P,U3,26*%
%TO.N,/SEG26*%
X153810880Y-111027040D03*
%TO.P,U3,25*%
%TO.N,/SEG27*%
X156350880Y-111027040D03*
%TO.P,U3,24*%
%TO.N,/SEG28*%
X158890880Y-111027040D03*
%TO.P,U3,23*%
%TO.N,/SEG29*%
X161430880Y-111027040D03*
%TO.P,U3,22*%
%TO.N,/SEG30*%
X163970880Y-111027040D03*
%TO.P,U3,21*%
%TO.N,/SEG31*%
X166510880Y-111027040D03*
%TO.P,U3,20*%
%TO.N,/COM2*%
X169050880Y-111027040D03*
%TO.P,U3,19*%
%TO.N,/COM3*%
X171590880Y-111027040D03*
%TO.P,U3,18*%
%TO.N,/COM1*%
X171590880Y-135000000D03*
%TO.P,U3,17*%
%TO.N,/COM0*%
X169050880Y-135000000D03*
%TO.P,U3,16*%
%TO.N,/SEG0*%
X166510880Y-135000000D03*
%TO.P,U3,15*%
%TO.N,/SEG1*%
X163970880Y-135000000D03*
%TO.P,U3,14*%
%TO.N,/SEG2*%
X161430880Y-135000000D03*
%TO.P,U3,13*%
%TO.N,/SEG3*%
X158890880Y-135000000D03*
%TO.P,U3,12*%
%TO.N,/SEG4*%
X156350880Y-135000000D03*
%TO.P,U3,11*%
%TO.N,/SEG5*%
X153810880Y-135000000D03*
%TO.P,U3,10*%
%TO.N,/SEG6*%
X151270880Y-135000000D03*
%TO.P,U3,9*%
%TO.N,/SEG7*%
X148730880Y-135000000D03*
%TO.P,U3,8*%
%TO.N,/SEG15*%
X146190880Y-135000000D03*
%TO.P,U3,7*%
%TO.N,/SEG14*%
X143650880Y-135000000D03*
%TO.P,U3,6*%
%TO.N,/SEG13*%
X141110880Y-135000000D03*
%TO.P,U3,5*%
%TO.N,/SEG12*%
X138570880Y-135000000D03*
%TO.P,U3,4*%
%TO.N,/SEG11*%
X136030880Y-135000000D03*
%TO.P,U3,3*%
%TO.N,/SEG10*%
X133490880Y-135000000D03*
%TO.P,U3,2*%
%TO.N,/SEG9*%
X130950880Y-135000000D03*
%TO.P,U3,1*%
%TO.N,/SEG8*%
X128410880Y-135000000D03*
%TD*%
%TO.P,M1,4*%
%TO.N,/MOT_4*%
X161430000Y-97810000D03*
%TO.P,M1,3*%
%TO.N,/MOT_3*%
X161430000Y-90190000D03*
%TO.P,M1,2*%
%TO.N,/MOT_2*%
X138570000Y-90190000D03*
%TO.P,M1,1*%
%TO.N,/MOT_1*%
X138570000Y-97810000D03*
%TD*%
D13*
%TO.P,J2,12*%
%TO.N,/ADC6*%
X167950000Y-81700000D03*
%TO.P,J2,11*%
%TO.N,GND*%
X173000000Y-81700000D03*
%TO.P,J2,10*%
%TO.N,/ADC7*%
X167950000Y-79160000D03*
%TO.P,J2,9*%
%TO.N,+5V*%
X173000000Y-79160000D03*
%TO.P,J2,8*%
%TO.N,/PB0*%
X167950000Y-76620000D03*
%TO.P,J2,7*%
%TO.N,/PD1*%
X173000000Y-76620000D03*
%TO.P,J2,6*%
%TO.N,/PD7*%
X167950000Y-74080000D03*
%TO.P,J2,5*%
%TO.N,/PD2*%
X173000000Y-74080000D03*
%TO.P,J2,4*%
%TO.N,/PD6*%
X167950000Y-71540000D03*
%TO.P,J2,3*%
%TO.N,/PD3*%
X173000000Y-71540000D03*
%TO.P,J2,2*%
%TO.N,/PD5*%
X167950000Y-69000000D03*
%TO.P,J2,1*%
%TO.N,/PD4*%
X173000000Y-69000000D03*
%TD*%
D14*
%TO.P,Y1,2*%
%TO.N,/XTAL2*%
X135000000Y-71380000D03*
%TO.P,Y1,1*%
%TO.N,/XTAL1*%
X135000000Y-66500000D03*
%TD*%
%TO.P,D8,2*%
%TO.N,GND*%
%TA.AperFunction,SMDPad,CuDef*%
G36*
G01*
X133737500Y-97375000D02*
X133737500Y-98625000D01*
G75*
G02*
X133487500Y-98875000I-250000J0D01*
G01*
X132562500Y-98875000D01*
G75*
G02*
X132312500Y-98625000I0J250000D01*
G01*
X132312500Y-97375000D01*
G75*
G02*
X132562500Y-97125000I250000J0D01*
G01*
X133487500Y-97125000D01*
G75*
G02*
X133737500Y-97375000I0J-250000D01*
G01*
G37*
%TD.AperFunction*%
%TO.P,D8,1*%
%TO.N,/MOT_1*%
%TA.AperFunction,SMDPad,CuDef*%
G36*
G01*
X136712500Y-97375000D02*
X136712500Y-98625000D01*
G75*
G02*
X136462500Y-98875000I-250000J0D01*
G01*
X135537500Y-98875000D01*
G75*
G02*
X135287500Y-98625000I0J250000D01*
G01*
X135287500Y-97375000D01*
G75*
G02*
X135537500Y-97125000I250000J0D01*
G01*
X136462500Y-97125000D01*
G75*
G02*
X136712500Y-97375000I0J-250000D01*
G01*
G37*
%TD.AperFunction*%
%TD*%
%TO.P,D7,2*%
%TO.N,/MOT_1*%
%TA.AperFunction,SMDPad,CuDef*%
G36*
G01*
X141712500Y-97375000D02*
X141712500Y-98625000D01*
G75*
G02*
X141462500Y-98875000I-250000J0D01*
G01*
X140537500Y-98875000D01*
G75*
G02*
X140287500Y-98625000I0J250000D01*
G01*
X140287500Y-97375000D01*
G75*
G02*
X140537500Y-97125000I250000J0D01*
G01*
X141462500Y-97125000D01*
G75*
G02*
X141712500Y-97375000I0J-250000D01*
G01*
G37*
%TD.AperFunction*%
%TO.P,D7,1*%
%TO.N,+5V*%
%TA.AperFunction,SMDPad,CuDef*%
G36*
G01*
X144687500Y-97375000D02*
X144687500Y-98625000D01*
G75*
G02*
X144437500Y-98875000I-250000J0D01*
G01*
X143512500Y-98875000D01*
G75*
G02*
X143262500Y-98625000I0J250000D01*
G01*
X143262500Y-97375000D01*
G75*
G02*
X143512500Y-97125000I250000J0D01*
G01*
X144437500Y-97125000D01*
G75*
G02*
X144687500Y-97375000I0J-250000D01*
G01*
G37*
%TD.AperFunction*%
%TD*%
%TO.P,D6,2*%
%TO.N,GND*%
%TA.AperFunction,SMDPad,CuDef*%
G36*
G01*
X133737500Y-89375000D02*
X133737500Y-90625000D01*
G75*
G02*
X133487500Y-90875000I-250000J0D01*
G01*
X132562500Y-90875000D01*
G75*
G02*
X132312500Y-90625000I0J250000D01*
G01*
X132312500Y-89375000D01*
G75*
G02*
X132562500Y-89125000I250000J0D01*
G01*
X133487500Y-89125000D01*
G75*
G02*
X133737500Y-89375000I0J-250000D01*
G01*
G37*
%TD.AperFunction*%
%TO.P,D6,1*%
%TO.N,/MOT_2*%
%TA.AperFunction,SMDPad,CuDef*%
G36*
G01*
X136712500Y-89375000D02*
X136712500Y-90625000D01*
G75*
G02*
X136462500Y-90875000I-250000J0D01*
G01*
X135537500Y-90875000D01*
G75*
G02*
X135287500Y-90625000I0J250000D01*
G01*
X135287500Y-89375000D01*
G75*
G02*
X135537500Y-89125000I250000J0D01*
G01*
X136462500Y-89125000D01*
G75*
G02*
X136712500Y-89375000I0J-250000D01*
G01*
G37*
%TD.AperFunction*%
%TD*%
%TO.P,D5,2*%
%TO.N,/MOT_2*%
%TA.AperFunction,SMDPad,CuDef*%
G36*
G01*
X141712500Y-89375000D02*
X141712500Y-90625000D01*
G75*
G02*
X141462500Y-90875000I-250000J0D01*
G01*
X140537500Y-90875000D01*
G75*
G02*
X140287500Y-90625000I0J250000D01*
G01*
X140287500Y-89375000D01*
G75*
G02*
X140537500Y-89125000I250000J0D01*
G01*
X141462500Y-89125000D01*
G75*
G02*
X141712500Y-89375000I0J-250000D01*
G01*
G37*
%TD.AperFunction*%
%TO.P,D5,1*%
%TO.N,+5V*%
%TA.AperFunction,SMDPad,CuDef*%
G36*
G01*
X144687500Y-89375000D02*
X144687500Y-90625000D01*
G75*
G02*
X144437500Y-90875000I-250000J0D01*
G01*
X143512500Y-90875000D01*
G75*
G02*
X143262500Y-90625000I0J250000D01*
G01*
X143262500Y-89375000D01*
G75*
G02*
X143512500Y-89125000I250000J0D01*
G01*
X144437500Y-89125000D01*
G75*
G02*
X144687500Y-89375000I0J-250000D01*
G01*
G37*
%TD.AperFunction*%
%TD*%
%TO.P,D4,2*%
%TO.N,GND*%
%TA.AperFunction,SMDPad,CuDef*%
G36*
G01*
X166262500Y-98625000D02*
X166262500Y-97375000D01*
G75*
G02*
X166512500Y-97125000I250000J0D01*
G01*
X167437500Y-97125000D01*
G75*
G02*
X167687500Y-97375000I0J-250000D01*
G01*
X167687500Y-98625000D01*
G75*
G02*
X167437500Y-98875000I-250000J0D01*
G01*
X166512500Y-98875000D01*
G75*
G02*
X166262500Y-98625000I0J250000D01*
G01*
G37*
%TD.AperFunction*%
%TO.P,D4,1*%
%TO.N,/MOT_4*%
%TA.AperFunction,SMDPad,CuDef*%
G36*
G01*
X163287500Y-98625000D02*
X163287500Y-97375000D01*
G75*
G02*
X163537500Y-97125000I250000J0D01*
G01*
X164462500Y-97125000D01*
G75*
G02*
X164712500Y-97375000I0J-250000D01*
G01*
X164712500Y-98625000D01*
G75*
G02*
X164462500Y-98875000I-250000J0D01*
G01*
X163537500Y-98875000D01*
G75*
G02*
X163287500Y-98625000I0J250000D01*
G01*
G37*
%TD.AperFunction*%
%TD*%
%TO.P,D3,2*%
%TO.N,/MOT_4*%
%TA.AperFunction,SMDPad,CuDef*%
G36*
G01*
X158287500Y-98625000D02*
X158287500Y-97375000D01*
G75*
G02*
X158537500Y-97125000I250000J0D01*
G01*
X159462500Y-97125000D01*
G75*
G02*
X159712500Y-97375000I0J-250000D01*
G01*
X159712500Y-98625000D01*
G75*
G02*
X159462500Y-98875000I-250000J0D01*
G01*
X158537500Y-98875000D01*
G75*
G02*
X158287500Y-98625000I0J250000D01*
G01*
G37*
%TD.AperFunction*%
%TO.P,D3,1*%
%TO.N,+5V*%
%TA.AperFunction,SMDPad,CuDef*%
G36*
G01*
X155312500Y-98625000D02*
X155312500Y-97375000D01*
G75*
G02*
X155562500Y-97125000I250000J0D01*
G01*
X156487500Y-97125000D01*
G75*
G02*
X156737500Y-97375000I0J-250000D01*
G01*
X156737500Y-98625000D01*
G75*
G02*
X156487500Y-98875000I-250000J0D01*
G01*
X155562500Y-98875000D01*
G75*
G02*
X155312500Y-98625000I0J250000D01*
G01*
G37*
%TD.AperFunction*%
%TD*%
%TO.P,D2,2*%
%TO.N,GND*%
%TA.AperFunction,SMDPad,CuDef*%
G36*
G01*
X166262500Y-90625000D02*
X166262500Y-89375000D01*
G75*
G02*
X166512500Y-89125000I250000J0D01*
G01*
X167437500Y-89125000D01*
G75*
G02*
X167687500Y-89375000I0J-250000D01*
G01*
X167687500Y-90625000D01*
G75*
G02*
X167437500Y-90875000I-250000J0D01*
G01*
X166512500Y-90875000D01*
G75*
G02*
X166262500Y-90625000I0J250000D01*
G01*
G37*
%TD.AperFunction*%
%TO.P,D2,1*%
%TO.N,/MOT_3*%
%TA.AperFunction,SMDPad,CuDef*%
G36*
G01*
X163287500Y-90625000D02*
X163287500Y-89375000D01*
G75*
G02*
X163537500Y-89125000I250000J0D01*
G01*
X164462500Y-89125000D01*
G75*
G02*
X164712500Y-89375000I0J-250000D01*
G01*
X164712500Y-90625000D01*
G75*
G02*
X164462500Y-90875000I-250000J0D01*
G01*
X163537500Y-90875000D01*
G75*
G02*
X163287500Y-90625000I0J250000D01*
G01*
G37*
%TD.AperFunction*%
%TD*%
%TO.P,D1,2*%
%TO.N,/MOT_3*%
%TA.AperFunction,SMDPad,CuDef*%
G36*
G01*
X158287500Y-90625000D02*
X158287500Y-89375000D01*
G75*
G02*
X158537500Y-89125000I250000J0D01*
G01*
X159462500Y-89125000D01*
G75*
G02*
X159712500Y-89375000I0J-250000D01*
G01*
X159712500Y-90625000D01*
G75*
G02*
X159462500Y-90875000I-250000J0D01*
G01*
X158537500Y-90875000D01*
G75*
G02*
X158287500Y-90625000I0J250000D01*
G01*
G37*
%TD.AperFunction*%
%TO.P,D1,1*%
%TO.N,+5V*%
%TA.AperFunction,SMDPad,CuDef*%
G36*
G01*
X155312500Y-90625000D02*
X155312500Y-89375000D01*
G75*
G02*
X155562500Y-89125000I250000J0D01*
G01*
X156487500Y-89125000D01*
G75*
G02*
X156737500Y-89375000I0J-250000D01*
G01*
X156737500Y-90625000D01*
G75*
G02*
X156487500Y-90875000I-250000J0D01*
G01*
X155562500Y-90875000D01*
G75*
G02*
X155312500Y-90625000I0J250000D01*
G01*
G37*
%TD.AperFunction*%
%TD*%
D15*
%TO.N,+5V*%
X148000000Y-76000000D03*
X170500000Y-78000000D03*
X129000000Y-94000000D03*
X155000000Y-122000000D03*
%TO.N,GND*%
X154000000Y-60000000D03*
X169000000Y-127000000D03*
X169000000Y-119000000D03*
X131000000Y-119000000D03*
X151013270Y-125999766D03*
X128000000Y-69000000D03*
X157000000Y-103000000D03*
X153000000Y-103000000D03*
X176000000Y-69000000D03*
%TO.N,/RESET*%
X152000000Y-70000000D03*
X124000000Y-91000000D03*
%TO.N,/COM3*%
X158092500Y-126012653D03*
%TO.N,/COM2*%
X158000000Y-125000000D03*
%TO.N,/BACKLIGHT_LED*%
X140000000Y-121000000D03*
X148000000Y-121000000D03*
%TO.N,/PB3*%
X147987347Y-126012653D03*
X124000000Y-100000000D03*
X143994204Y-73978197D03*
%TO.N,/PB5*%
X150012653Y-125987347D03*
X126000000Y-102000000D03*
X144000000Y-76000000D03*
%TO.N,/PB4*%
X149000000Y-126000000D03*
X143987347Y-74987347D03*
X125000000Y-99000000D03*
%TO.N,/ADC6*%
X150000000Y-76000000D03*
%TO.N,/ADC7*%
X151275000Y-75922264D03*
%TO.N,/PB0*%
X148000000Y-68500000D03*
%TO.N,/PD1*%
X157000000Y-64500000D03*
%TO.N,/PD7*%
X148000000Y-67500000D03*
%TO.N,/PD2*%
X157000000Y-63500000D03*
%TO.N,/PD6*%
X148000000Y-66500000D03*
%TO.N,/PD3*%
X157000000Y-62500000D03*
%TO.N,/PD5*%
X148000000Y-65500000D03*
%TO.N,/PD4*%
X157000000Y-61500000D03*
%TD*%
D16*
%TO.N,+5V*%
X169312921Y-83222081D02*
X156802919Y-83222081D01*
X169975001Y-82560001D02*
X169312921Y-83222081D01*
X169975001Y-80109999D02*
X169975001Y-82560001D01*
X170925000Y-79160000D02*
X169975001Y-80109999D01*
X173000000Y-79160000D02*
X170925000Y-79160000D01*
X155222081Y-83222081D02*
X148000000Y-76000000D01*
X155777919Y-83222081D02*
X155222081Y-83222081D01*
X171660000Y-79160000D02*
X170500000Y-78000000D01*
X173000000Y-79160000D02*
X171660000Y-79160000D01*
X156025000Y-93975000D02*
X143975000Y-93975000D01*
X143975000Y-93975000D02*
X143975000Y-90000000D01*
X143975000Y-98000000D02*
X143975000Y-93975000D01*
X156025000Y-98000000D02*
X156025000Y-93975000D01*
X156025000Y-93975000D02*
X156025000Y-90000000D01*
X156025000Y-90000000D02*
X156025000Y-83419162D01*
X156025000Y-83419162D02*
X156222081Y-83222081D01*
X156222081Y-83222081D02*
X155777919Y-83222081D01*
X156802919Y-83222081D02*
X156222081Y-83222081D01*
X129025000Y-93975000D02*
X129000000Y-94000000D01*
X143975000Y-93975000D02*
X129025000Y-93975000D01*
X155138879Y-121861121D02*
X155000000Y-122000000D01*
X155138879Y-98886121D02*
X155138879Y-121861121D01*
X156025000Y-98000000D02*
X155138879Y-98886121D01*
D17*
%TO.N,/RESET*%
X152000000Y-70000000D02*
X146899399Y-70000000D01*
X125899400Y-91000000D02*
X135949700Y-80949700D01*
X135949700Y-80949700D02*
X134000000Y-82899399D01*
X146899399Y-70000000D02*
X135949700Y-80949700D01*
X125899400Y-91000000D02*
X124000000Y-91000000D01*
%TO.N,/COM3*%
X171590880Y-112514273D02*
X171590880Y-111027040D01*
X158092500Y-126012653D02*
X171590880Y-112514273D01*
%TO.N,/COM2*%
X169050880Y-113949120D02*
X169050880Y-111027040D01*
X158000000Y-125000000D02*
X169050880Y-113949120D01*
%TO.N,/MOT_3*%
X161240000Y-90000000D02*
X161430000Y-90190000D01*
X159000000Y-90000000D02*
X161240000Y-90000000D01*
X161620000Y-90000000D02*
X161430000Y-90190000D01*
X164000000Y-90000000D02*
X161620000Y-90000000D01*
%TO.N,/MOT_4*%
X161240000Y-98000000D02*
X161430000Y-97810000D01*
X159000000Y-98000000D02*
X161240000Y-98000000D01*
X161620000Y-98000000D02*
X161430000Y-97810000D01*
X164000000Y-98000000D02*
X161620000Y-98000000D01*
%TO.N,/MOT_2*%
X138760000Y-90000000D02*
X138570000Y-90190000D01*
X141000000Y-90000000D02*
X138760000Y-90000000D01*
X138380000Y-90000000D02*
X138570000Y-90190000D01*
X136000000Y-90000000D02*
X138380000Y-90000000D01*
%TO.N,/MOT_1*%
X138760000Y-98000000D02*
X138570000Y-97810000D01*
X141000000Y-98000000D02*
X138760000Y-98000000D01*
X138380000Y-98000000D02*
X138570000Y-97810000D01*
X136000000Y-98000000D02*
X138380000Y-98000000D01*
%TO.N,/BACKLIGHT_LED*%
X140000000Y-121000000D02*
X148000000Y-121000000D01*
%TO.N,/PB3*%
X143923495Y-73978197D02*
X143994204Y-73978197D01*
X146974694Y-125000000D02*
X138073002Y-125000000D01*
X147987347Y-126012653D02*
X146974694Y-125000000D01*
X124000000Y-94000000D02*
X123950846Y-93950846D01*
X124000000Y-100000000D02*
X124000000Y-94000000D01*
X123950846Y-93950846D02*
X143923495Y-73978197D01*
X124000000Y-100000000D02*
X124000000Y-110926998D01*
X124000000Y-110926998D02*
X124036501Y-110963499D01*
X138073002Y-125000000D02*
X124036501Y-110963499D01*
%TO.N,/PB5*%
X126000000Y-102000000D02*
X126000000Y-96000000D01*
X148025307Y-124000001D02*
X139000001Y-124000001D01*
X150012653Y-125987347D02*
X148025307Y-124000001D01*
X126000000Y-96000000D02*
X126000000Y-94000000D01*
X126000000Y-94000000D02*
X144000000Y-76000000D01*
X126000000Y-109000000D02*
X126000000Y-111000000D01*
X126000000Y-102000000D02*
X126000000Y-109000000D01*
X139000001Y-124000001D02*
X126000000Y-111000000D01*
%TO.N,/PB4*%
X147500000Y-124500000D02*
X138500000Y-124500000D01*
X149000000Y-126000000D02*
X147500000Y-124500000D01*
X125000000Y-94000000D02*
X124987347Y-93987347D01*
X125000000Y-99000000D02*
X125000000Y-94000000D01*
X124987347Y-93987347D02*
X143987347Y-74987347D01*
X125000000Y-109000000D02*
X125000000Y-111000000D01*
X125000000Y-99000000D02*
X125000000Y-109000000D01*
X138500000Y-124500000D02*
X125000000Y-111000000D01*
%TO.N,/ADC6*%
X155700000Y-81700000D02*
X150000000Y-76000000D01*
X167950000Y-81700000D02*
X155700000Y-81700000D01*
%TO.N,/ADC7*%
X154512736Y-79160000D02*
X151275000Y-75922264D01*
X167950000Y-79160000D02*
X154512736Y-79160000D01*
%TO.N,/PB0*%
X151573002Y-68500000D02*
X148000000Y-68500000D01*
X159693002Y-76620000D02*
X151573002Y-68500000D01*
X167950000Y-76620000D02*
X159693002Y-76620000D01*
%TO.N,/PD1*%
X166110002Y-64500000D02*
X157000000Y-64500000D01*
X169850001Y-68239999D02*
X166110002Y-64500000D01*
X169850001Y-75295001D02*
X169850001Y-68239999D01*
X171175000Y-76620000D02*
X169850001Y-75295001D01*
X173000000Y-76620000D02*
X171175000Y-76620000D01*
%TO.N,/PD7*%
X167950000Y-74080000D02*
X157789412Y-74080000D01*
X151209412Y-67500000D02*
X152604706Y-68895294D01*
X148000000Y-67500000D02*
X151209412Y-67500000D01*
X152604706Y-68895294D02*
X152104706Y-68395294D01*
X157789412Y-74080000D02*
X152604706Y-68895294D01*
%TO.N,/PD2*%
X171175000Y-74080000D02*
X170300011Y-73205011D01*
X173000000Y-74080000D02*
X171175000Y-74080000D01*
X165746412Y-63500000D02*
X157000000Y-63500000D01*
X170300010Y-68053598D02*
X165746412Y-63500000D01*
X170300011Y-73205011D02*
X170300010Y-68053598D01*
%TO.N,/PD6*%
X167950000Y-71540000D02*
X155885822Y-71540000D01*
X150845822Y-66500000D02*
X153422911Y-69077089D01*
X148000000Y-66500000D02*
X150845822Y-66500000D01*
X153422911Y-69077089D02*
X153054715Y-68708893D01*
X155885822Y-71540000D02*
X153422911Y-69077089D01*
%TO.N,/PD3*%
X170750019Y-69290019D02*
X173000000Y-71540000D01*
X170750019Y-67867197D02*
X170750019Y-69290019D01*
X165382822Y-62500000D02*
X170750019Y-67867197D01*
X157000000Y-62500000D02*
X165382822Y-62500000D01*
%TO.N,/PD5*%
X167950000Y-69000000D02*
X153982232Y-69000000D01*
X150482232Y-65500000D02*
X148000000Y-65500000D01*
X153982232Y-69000000D02*
X150482232Y-65500000D01*
%TO.N,/PD4*%
X173000000Y-69000000D02*
X172519232Y-69000000D01*
X165019232Y-61500000D02*
X157000000Y-61500000D01*
X172519232Y-69000000D02*
X165019232Y-61500000D01*
%TD*%
D18*
%TO.N,GND*%
X152541850Y-58788314D02*
X155074058Y-59022957D01*
X157587018Y-59413041D01*
X160071198Y-59957085D01*
X162517174Y-60653025D01*
X162763991Y-60740000D01*
X157703711Y-60740000D01*
X157659774Y-60696063D01*
X157490256Y-60582795D01*
X157301898Y-60504774D01*
X157101939Y-60465000D01*
X156898061Y-60465000D01*
X156698102Y-60504774D01*
X156509744Y-60582795D01*
X156340226Y-60696063D01*
X156196063Y-60840226D01*
X156082795Y-61009744D01*
X156004774Y-61198102D01*
X155965000Y-61398061D01*
X155965000Y-61601939D01*
X156004774Y-61801898D01*
X156082795Y-61990256D01*
X156089306Y-62000000D01*
X156082795Y-62009744D01*
X156004774Y-62198102D01*
X155965000Y-62398061D01*
X155965000Y-62601939D01*
X156004774Y-62801898D01*
X156082795Y-62990256D01*
X156089306Y-63000000D01*
X156082795Y-63009744D01*
X156004774Y-63198102D01*
X155965000Y-63398061D01*
X155965000Y-63601939D01*
X156004774Y-63801898D01*
X156082795Y-63990256D01*
X156089306Y-64000000D01*
X156082795Y-64009744D01*
X156004774Y-64198102D01*
X155965000Y-64398061D01*
X155965000Y-64601939D01*
X156004774Y-64801898D01*
X156082795Y-64990256D01*
X156196063Y-65159774D01*
X156340226Y-65303937D01*
X156509744Y-65417205D01*
X156698102Y-65495226D01*
X156898061Y-65535000D01*
X157101939Y-65535000D01*
X157301898Y-65495226D01*
X157490256Y-65417205D01*
X157659774Y-65303937D01*
X157703711Y-65260000D01*
X165795201Y-65260000D01*
X168397128Y-67861928D01*
X166375000Y-67861928D01*
X166250518Y-67874188D01*
X166130820Y-67910498D01*
X166020506Y-67969463D01*
X165923815Y-68048815D01*
X165844463Y-68145506D01*
X165793954Y-68240000D01*
X154297035Y-68240000D01*
X151046036Y-64989003D01*
X151022233Y-64959999D01*
X150906508Y-64865026D01*
X150774479Y-64794454D01*
X150631218Y-64750997D01*
X150519565Y-64740000D01*
X150519554Y-64740000D01*
X150482232Y-64736324D01*
X150444910Y-64740000D01*
X148703711Y-64740000D01*
X148659774Y-64696063D01*
X148490256Y-64582795D01*
X148301898Y-64504774D01*
X148101939Y-64465000D01*
X147898061Y-64465000D01*
X147698102Y-64504774D01*
X147509744Y-64582795D01*
X147340226Y-64696063D01*
X147196063Y-64840226D01*
X147082795Y-65009744D01*
X147004774Y-65198102D01*
X146965000Y-65398061D01*
X146965000Y-65601939D01*
X147004774Y-65801898D01*
X147082795Y-65990256D01*
X147089306Y-66000000D01*
X147082795Y-66009744D01*
X147004774Y-66198102D01*
X146965000Y-66398061D01*
X146965000Y-66601939D01*
X147004774Y-66801898D01*
X147082795Y-66990256D01*
X147089306Y-67000000D01*
X147082795Y-67009744D01*
X147004774Y-67198102D01*
X146965000Y-67398061D01*
X146965000Y-67601939D01*
X147004774Y-67801898D01*
X147082795Y-67990256D01*
X147089306Y-68000000D01*
X147082795Y-68009744D01*
X147004774Y-68198102D01*
X146965000Y-68398061D01*
X146965000Y-68601939D01*
X147004774Y-68801898D01*
X147082795Y-68990256D01*
X147196063Y-69159774D01*
X147276289Y-69240000D01*
X146936732Y-69240000D01*
X146899399Y-69236323D01*
X146862066Y-69240000D01*
X146750413Y-69250997D01*
X146607152Y-69294454D01*
X146475123Y-69365026D01*
X146359398Y-69459999D01*
X146335600Y-69488997D01*
X135438703Y-80385896D01*
X135438697Y-80385901D01*
X125584599Y-90240000D01*
X124703711Y-90240000D01*
X124659774Y-90196063D01*
X124490256Y-90082795D01*
X124301898Y-90004774D01*
X124101939Y-89965000D01*
X123898061Y-89965000D01*
X123698102Y-90004774D01*
X123509744Y-90082795D01*
X123340226Y-90196063D01*
X123196063Y-90340226D01*
X123082795Y-90509744D01*
X123004774Y-90698102D01*
X122965000Y-90898061D01*
X122965000Y-91101939D01*
X123004774Y-91301898D01*
X123082795Y-91490256D01*
X123196063Y-91659774D01*
X123340226Y-91803937D01*
X123509744Y-91917205D01*
X123698102Y-91995226D01*
X123898061Y-92035000D01*
X124101939Y-92035000D01*
X124301898Y-91995226D01*
X124490256Y-91917205D01*
X124659774Y-91803937D01*
X124703711Y-91760000D01*
X125066891Y-91760000D01*
X123439849Y-93387042D01*
X123410845Y-93410845D01*
X123357091Y-93476345D01*
X123315872Y-93526570D01*
X123245300Y-93658600D01*
X123201844Y-93801861D01*
X123187170Y-93950846D01*
X123201844Y-94099831D01*
X123240001Y-94225623D01*
X123240000Y-99296289D01*
X123196063Y-99340226D01*
X123082795Y-99509744D01*
X123004774Y-99698102D01*
X122965000Y-99898061D01*
X122965000Y-100101939D01*
X123004774Y-100301898D01*
X123082795Y-100490256D01*
X123196063Y-100659774D01*
X123240000Y-100703711D01*
X123240001Y-110889666D01*
X123236324Y-110926998D01*
X123250998Y-111075983D01*
X123294454Y-111219244D01*
X123365026Y-111351274D01*
X123424938Y-111424276D01*
X123460000Y-111466999D01*
X123488998Y-111490797D01*
X137509202Y-125511002D01*
X137533001Y-125540001D01*
X137561999Y-125563799D01*
X137648725Y-125634974D01*
X137761212Y-125695100D01*
X137780755Y-125705546D01*
X137924016Y-125749003D01*
X138035669Y-125760000D01*
X138035678Y-125760000D01*
X138073001Y-125763676D01*
X138110324Y-125760000D01*
X146659893Y-125760000D01*
X146952347Y-126052455D01*
X146952347Y-126114592D01*
X146992121Y-126314551D01*
X147070142Y-126502909D01*
X147183410Y-126672427D01*
X147327573Y-126816590D01*
X147497091Y-126929858D01*
X147685449Y-127007879D01*
X147885408Y-127047653D01*
X148089286Y-127047653D01*
X148289245Y-127007879D01*
X148477603Y-126929858D01*
X148503142Y-126912794D01*
X148509744Y-126917205D01*
X148698102Y-126995226D01*
X148898061Y-127035000D01*
X149101939Y-127035000D01*
X149301898Y-126995226D01*
X149490256Y-126917205D01*
X149515795Y-126900141D01*
X149522397Y-126904552D01*
X149710755Y-126982573D01*
X149910714Y-127022347D01*
X150114592Y-127022347D01*
X150314551Y-126982573D01*
X150502909Y-126904552D01*
X150672427Y-126791284D01*
X150816590Y-126647121D01*
X150929858Y-126477603D01*
X151007879Y-126289245D01*
X151047653Y-126089286D01*
X151047653Y-125885408D01*
X151007879Y-125685449D01*
X150929858Y-125497091D01*
X150816590Y-125327573D01*
X150672427Y-125183410D01*
X150502909Y-125070142D01*
X150314551Y-124992121D01*
X150114592Y-124952347D01*
X150052455Y-124952347D01*
X148589111Y-123489004D01*
X148565308Y-123460000D01*
X148449583Y-123365027D01*
X148317554Y-123294455D01*
X148174293Y-123250998D01*
X148062640Y-123240001D01*
X148062629Y-123240001D01*
X148025307Y-123236325D01*
X147987985Y-123240001D01*
X139314803Y-123240001D01*
X136972863Y-120898061D01*
X138965000Y-120898061D01*
X138965000Y-121101939D01*
X139004774Y-121301898D01*
X139082795Y-121490256D01*
X139196063Y-121659774D01*
X139340226Y-121803937D01*
X139509744Y-121917205D01*
X139698102Y-121995226D01*
X139898061Y-122035000D01*
X140101939Y-122035000D01*
X140301898Y-121995226D01*
X140490256Y-121917205D01*
X140659774Y-121803937D01*
X140703711Y-121760000D01*
X147296289Y-121760000D01*
X147340226Y-121803937D01*
X147509744Y-121917205D01*
X147698102Y-121995226D01*
X147898061Y-122035000D01*
X148101939Y-122035000D01*
X148301898Y-121995226D01*
X148490256Y-121917205D01*
X148659774Y-121803937D01*
X148803937Y-121659774D01*
X148917205Y-121490256D01*
X148995226Y-121301898D01*
X149035000Y-121101939D01*
X149035000Y-120898061D01*
X148995226Y-120698102D01*
X148917205Y-120509744D01*
X148803937Y-120340226D01*
X148659774Y-120196063D01*
X148490256Y-120082795D01*
X148301898Y-120004774D01*
X148101939Y-119965000D01*
X147898061Y-119965000D01*
X147698102Y-120004774D01*
X147509744Y-120082795D01*
X147340226Y-120196063D01*
X147296289Y-120240000D01*
X140703711Y-120240000D01*
X140659774Y-120196063D01*
X140490256Y-120082795D01*
X140301898Y-120004774D01*
X140101939Y-119965000D01*
X139898061Y-119965000D01*
X139698102Y-120004774D01*
X139509744Y-120082795D01*
X139340226Y-120196063D01*
X139196063Y-120340226D01*
X139082795Y-120509744D01*
X139004774Y-120698102D01*
X138965000Y-120898061D01*
X136972863Y-120898061D01*
X128498841Y-112424040D01*
X128548472Y-112424040D01*
X128818370Y-112370354D01*
X129072607Y-112265045D01*
X129301415Y-112112160D01*
X129496000Y-111917575D01*
X129648885Y-111688767D01*
X129680880Y-111611525D01*
X129712875Y-111688767D01*
X129865760Y-111917575D01*
X130060345Y-112112160D01*
X130289153Y-112265045D01*
X130543390Y-112370354D01*
X130813288Y-112424040D01*
X131088472Y-112424040D01*
X131358370Y-112370354D01*
X131612607Y-112265045D01*
X131841415Y-112112160D01*
X132036000Y-111917575D01*
X132188885Y-111688767D01*
X132220880Y-111611525D01*
X132252875Y-111688767D01*
X132405760Y-111917575D01*
X132600345Y-112112160D01*
X132829153Y-112265045D01*
X133083390Y-112370354D01*
X133353288Y-112424040D01*
X133628472Y-112424040D01*
X133898370Y-112370354D01*
X134152607Y-112265045D01*
X134381415Y-112112160D01*
X134576000Y-111917575D01*
X134728885Y-111688767D01*
X134760880Y-111611525D01*
X134792875Y-111688767D01*
X134945760Y-111917575D01*
X135140345Y-112112160D01*
X135369153Y-112265045D01*
X135623390Y-112370354D01*
X135893288Y-112424040D01*
X136168472Y-112424040D01*
X136438370Y-112370354D01*
X136692607Y-112265045D01*
X136921415Y-112112160D01*
X137116000Y-111917575D01*
X137268885Y-111688767D01*
X137300880Y-111611525D01*
X137332875Y-111688767D01*
X137485760Y-111917575D01*
X137680345Y-112112160D01*
X137909153Y-112265045D01*
X138163390Y-112370354D01*
X138433288Y-112424040D01*
X138708472Y-112424040D01*
X138978370Y-112370354D01*
X139232607Y-112265045D01*
X139461415Y-112112160D01*
X139656000Y-111917575D01*
X139808885Y-111688767D01*
X139840880Y-111611525D01*
X139872875Y-111688767D01*
X140025760Y-111917575D01*
X140220345Y-112112160D01*
X140449153Y-112265045D01*
X140703390Y-112370354D01*
X140973288Y-112424040D01*
X141248472Y-112424040D01*
X141518370Y-112370354D01*
X141772607Y-112265045D01*
X142001415Y-112112160D01*
X142196000Y-111917575D01*
X142348885Y-111688767D01*
X142380880Y-111611525D01*
X142412875Y-111688767D01*
X142565760Y-111917575D01*
X142760345Y-112112160D01*
X142989153Y-112265045D01*
X143243390Y-112370354D01*
X143513288Y-112424040D01*
X143788472Y-112424040D01*
X144058370Y-112370354D01*
X144312607Y-112265045D01*
X144541415Y-112112160D01*
X144736000Y-111917575D01*
X144888885Y-111688767D01*
X144920880Y-111611525D01*
X144952875Y-111688767D01*
X145105760Y-111917575D01*
X145300345Y-112112160D01*
X145529153Y-112265045D01*
X145783390Y-112370354D01*
X146053288Y-112424040D01*
X146328472Y-112424040D01*
X146598370Y-112370354D01*
X146852607Y-112265045D01*
X147081415Y-112112160D01*
X147276000Y-111917575D01*
X147428885Y-111688767D01*
X147460880Y-111611525D01*
X147492875Y-111688767D01*
X147645760Y-111917575D01*
X147840345Y-112112160D01*
X148069153Y-112265045D01*
X148323390Y-112370354D01*
X148593288Y-112424040D01*
X148868472Y-112424040D01*
X149138370Y-112370354D01*
X149392607Y-112265045D01*
X149621415Y-112112160D01*
X149816000Y-111917575D01*
X149968885Y-111688767D01*
X150000880Y-111611525D01*
X150032875Y-111688767D01*
X150185760Y-111917575D01*
X150380345Y-112112160D01*
X150609153Y-112265045D01*
X150863390Y-112370354D01*
X151133288Y-112424040D01*
X151408472Y-112424040D01*
X151678370Y-112370354D01*
X151932607Y-112265045D01*
X152161415Y-112112160D01*
X152356000Y-111917575D01*
X152508885Y-111688767D01*
X152540880Y-111611525D01*
X152572875Y-111688767D01*
X152725760Y-111917575D01*
X152920345Y-112112160D01*
X153149153Y-112265045D01*
X153403390Y-112370354D01*
X153673288Y-112424040D01*
X153948472Y-112424040D01*
X154218370Y-112370354D01*
X154253880Y-112355645D01*
X154253880Y-121282409D01*
X154196063Y-121340226D01*
X154082795Y-121509744D01*
X154004774Y-121698102D01*
X153965000Y-121898061D01*
X153965000Y-122101939D01*
X154004774Y-122301898D01*
X154082795Y-122490256D01*
X154196063Y-122659774D01*
X154340226Y-122803937D01*
X154509744Y-122917205D01*
X154698102Y-122995226D01*
X154898061Y-123035000D01*
X155101939Y-123035000D01*
X155301898Y-122995226D01*
X155490256Y-122917205D01*
X155659774Y-122803937D01*
X155803937Y-122659774D01*
X155917205Y-122490256D01*
X155995226Y-122301898D01*
X156035000Y-122101939D01*
X156035000Y-121898061D01*
X156027992Y-121862828D01*
X156028160Y-121861121D01*
X156023879Y-121817652D01*
X156023879Y-112386364D01*
X156213288Y-112424040D01*
X156488472Y-112424040D01*
X156758370Y-112370354D01*
X157012607Y-112265045D01*
X157241415Y-112112160D01*
X157436000Y-111917575D01*
X157588885Y-111688767D01*
X157620880Y-111611525D01*
X157652875Y-111688767D01*
X157805760Y-111917575D01*
X158000345Y-112112160D01*
X158229153Y-112265045D01*
X158483390Y-112370354D01*
X158753288Y-112424040D01*
X159028472Y-112424040D01*
X159298370Y-112370354D01*
X159552607Y-112265045D01*
X159781415Y-112112160D01*
X159976000Y-111917575D01*
X160128885Y-111688767D01*
X160160880Y-111611525D01*
X160192875Y-111688767D01*
X160345760Y-111917575D01*
X160540345Y-112112160D01*
X160769153Y-112265045D01*
X161023390Y-112370354D01*
X161293288Y-112424040D01*
X161568472Y-112424040D01*
X161838370Y-112370354D01*
X162092607Y-112265045D01*
X162321415Y-112112160D01*
X162516000Y-111917575D01*
X162668885Y-111688767D01*
X162700880Y-111611525D01*
X162732875Y-111688767D01*
X162885760Y-111917575D01*
X163080345Y-112112160D01*
X163309153Y-112265045D01*
X163563390Y-112370354D01*
X163833288Y-112424040D01*
X164108472Y-112424040D01*
X164378370Y-112370354D01*
X164632607Y-112265045D01*
X164861415Y-112112160D01*
X165056000Y-111917575D01*
X165208885Y-111688767D01*
X165240880Y-111611525D01*
X165272875Y-111688767D01*
X165425760Y-111917575D01*
X165620345Y-112112160D01*
X165849153Y-112265045D01*
X166103390Y-112370354D01*
X166373288Y-112424040D01*
X166648472Y-112424040D01*
X166918370Y-112370354D01*
X167172607Y-112265045D01*
X167401415Y-112112160D01*
X167596000Y-111917575D01*
X167748885Y-111688767D01*
X167780880Y-111611525D01*
X167812875Y-111688767D01*
X167965760Y-111917575D01*
X168160345Y-112112160D01*
X168290881Y-112199381D01*
X168290880Y-113634318D01*
X157960199Y-123965000D01*
X157898061Y-123965000D01*
X157698102Y-124004774D01*
X157509744Y-124082795D01*
X157340226Y-124196063D01*
X157196063Y-124340226D01*
X157082795Y-124509744D01*
X157004774Y-124698102D01*
X156965000Y-124898061D01*
X156965000Y-125101939D01*
X157004774Y-125301898D01*
X157082795Y-125490256D01*
X157148115Y-125588015D01*
X157097274Y-125710755D01*
X157057500Y-125910714D01*
X157057500Y-126114592D01*
X157097274Y-126314551D01*
X157175295Y-126502909D01*
X157288563Y-126672427D01*
X157432726Y-126816590D01*
X157602244Y-126929858D01*
X157790602Y-127007879D01*
X157990561Y-127047653D01*
X158194439Y-127047653D01*
X158394398Y-127007879D01*
X158582756Y-126929858D01*
X158752274Y-126816590D01*
X158896437Y-126672427D01*
X159009705Y-126502909D01*
X159087726Y-126314551D01*
X159127500Y-126114592D01*
X159127500Y-126052454D01*
X172101884Y-113078071D01*
X172130881Y-113054274D01*
X172157212Y-113022190D01*
X172225854Y-112938550D01*
X172296426Y-112806520D01*
X172296426Y-112806519D01*
X172339883Y-112663259D01*
X172350880Y-112551606D01*
X172350880Y-112551597D01*
X172354556Y-112514274D01*
X172350880Y-112476951D01*
X172350880Y-112199381D01*
X172481415Y-112112160D01*
X172676000Y-111917575D01*
X172828885Y-111688767D01*
X172934194Y-111434530D01*
X172987880Y-111164632D01*
X172987880Y-110889448D01*
X172934194Y-110619550D01*
X172828885Y-110365313D01*
X172676000Y-110136505D01*
X172481415Y-109941920D01*
X172252607Y-109789035D01*
X171998370Y-109683726D01*
X171728472Y-109630040D01*
X171453288Y-109630040D01*
X171183390Y-109683726D01*
X170929153Y-109789035D01*
X170700345Y-109941920D01*
X170505760Y-110136505D01*
X170352875Y-110365313D01*
X170320880Y-110442555D01*
X170288885Y-110365313D01*
X170136000Y-110136505D01*
X169941415Y-109941920D01*
X169712607Y-109789035D01*
X169458370Y-109683726D01*
X169188472Y-109630040D01*
X168913288Y-109630040D01*
X168643390Y-109683726D01*
X168389153Y-109789035D01*
X168160345Y-109941920D01*
X167965760Y-110136505D01*
X167812875Y-110365313D01*
X167780880Y-110442555D01*
X167748885Y-110365313D01*
X167596000Y-110136505D01*
X167401415Y-109941920D01*
X167172607Y-109789035D01*
X166918370Y-109683726D01*
X166648472Y-109630040D01*
X166373288Y-109630040D01*
X166103390Y-109683726D01*
X165849153Y-109789035D01*
X165620345Y-109941920D01*
X165425760Y-110136505D01*
X165272875Y-110365313D01*
X165240880Y-110442555D01*
X165208885Y-110365313D01*
X165056000Y-110136505D01*
X164861415Y-109941920D01*
X164632607Y-109789035D01*
X164378370Y-109683726D01*
X164108472Y-109630040D01*
X163833288Y-109630040D01*
X163563390Y-109683726D01*
X163309153Y-109789035D01*
X163080345Y-109941920D01*
X162885760Y-110136505D01*
X162732875Y-110365313D01*
X162700880Y-110442555D01*
X162668885Y-110365313D01*
X162516000Y-110136505D01*
X162321415Y-109941920D01*
X162092607Y-109789035D01*
X161838370Y-109683726D01*
X161568472Y-109630040D01*
X161293288Y-109630040D01*
X161023390Y-109683726D01*
X160769153Y-109789035D01*
X160540345Y-109941920D01*
X160345760Y-110136505D01*
X160192875Y-110365313D01*
X160160880Y-110442555D01*
X160128885Y-110365313D01*
X159976000Y-110136505D01*
X159781415Y-109941920D01*
X159552607Y-109789035D01*
X159298370Y-109683726D01*
X159028472Y-109630040D01*
X158753288Y-109630040D01*
X158483390Y-109683726D01*
X158229153Y-109789035D01*
X158000345Y-109941920D01*
X157805760Y-110136505D01*
X157652875Y-110365313D01*
X157620880Y-110442555D01*
X157588885Y-110365313D01*
X157436000Y-110136505D01*
X157241415Y-109941920D01*
X157012607Y-109789035D01*
X156758370Y-109683726D01*
X156488472Y-109630040D01*
X156213288Y-109630040D01*
X156023879Y-109667716D01*
X156023879Y-99513072D01*
X156487500Y-99513072D01*
X156660754Y-99496008D01*
X156827350Y-99445472D01*
X156980886Y-99363405D01*
X157115462Y-99252962D01*
X157225905Y-99118386D01*
X157307972Y-98964850D01*
X157358508Y-98798254D01*
X157375572Y-98625000D01*
X157375572Y-97375000D01*
X157649428Y-97375000D01*
X157649428Y-98625000D01*
X157666492Y-98798254D01*
X157717028Y-98964850D01*
X157799095Y-99118386D01*
X157909538Y-99252962D01*
X158044114Y-99363405D01*
X158197650Y-99445472D01*
X158364246Y-99496008D01*
X158537500Y-99513072D01*
X159462500Y-99513072D01*
X159635754Y-99496008D01*
X159802350Y-99445472D01*
X159955886Y-99363405D01*
X160090462Y-99252962D01*
X160200905Y-99118386D01*
X160282972Y-98964850D01*
X160333508Y-98798254D01*
X160337276Y-98760000D01*
X160404345Y-98760000D01*
X160539465Y-98895120D01*
X160768273Y-99048005D01*
X161022510Y-99153314D01*
X161292408Y-99207000D01*
X161567592Y-99207000D01*
X161837490Y-99153314D01*
X162091727Y-99048005D01*
X162320535Y-98895120D01*
X162455655Y-98760000D01*
X162662724Y-98760000D01*
X162666492Y-98798254D01*
X162717028Y-98964850D01*
X162799095Y-99118386D01*
X162909538Y-99252962D01*
X163044114Y-99363405D01*
X163197650Y-99445472D01*
X163364246Y-99496008D01*
X163537500Y-99513072D01*
X164462500Y-99513072D01*
X164635754Y-99496008D01*
X164802350Y-99445472D01*
X164955886Y-99363405D01*
X165090462Y-99252962D01*
X165200905Y-99118386D01*
X165282972Y-98964850D01*
X165310227Y-98875000D01*
X165624428Y-98875000D01*
X165636688Y-98999482D01*
X165672998Y-99119180D01*
X165731963Y-99229494D01*
X165811315Y-99326185D01*
X165908006Y-99405537D01*
X166018320Y-99464502D01*
X166138018Y-99500812D01*
X166262500Y-99513072D01*
X166689250Y-99510000D01*
X166848000Y-99351250D01*
X166848000Y-98127000D01*
X167102000Y-98127000D01*
X167102000Y-99351250D01*
X167260750Y-99510000D01*
X167687500Y-99513072D01*
X167811982Y-99500812D01*
X167931680Y-99464502D01*
X168041994Y-99405537D01*
X168138685Y-99326185D01*
X168218037Y-99229494D01*
X168277002Y-99119180D01*
X168313312Y-98999482D01*
X168325572Y-98875000D01*
X168322500Y-98285750D01*
X168163750Y-98127000D01*
X167102000Y-98127000D01*
X166848000Y-98127000D01*
X165786250Y-98127000D01*
X165627500Y-98285750D01*
X165624428Y-98875000D01*
X165310227Y-98875000D01*
X165333508Y-98798254D01*
X165350572Y-98625000D01*
X165350572Y-97375000D01*
X165333508Y-97201746D01*
X165310228Y-97125000D01*
X165624428Y-97125000D01*
X165627500Y-97714250D01*
X165786250Y-97873000D01*
X166848000Y-97873000D01*
X166848000Y-96648750D01*
X167102000Y-96648750D01*
X167102000Y-97873000D01*
X168163750Y-97873000D01*
X168322500Y-97714250D01*
X168325572Y-97125000D01*
X168313312Y-97000518D01*
X168277002Y-96880820D01*
X168218037Y-96770506D01*
X168138685Y-96673815D01*
X168041994Y-96594463D01*
X167931680Y-96535498D01*
X167811982Y-96499188D01*
X167687500Y-96486928D01*
X167260750Y-96490000D01*
X167102000Y-96648750D01*
X166848000Y-96648750D01*
X166689250Y-96490000D01*
X166262500Y-96486928D01*
X166138018Y-96499188D01*
X166018320Y-96535498D01*
X165908006Y-96594463D01*
X165811315Y-96673815D01*
X165731963Y-96770506D01*
X165672998Y-96880820D01*
X165636688Y-97000518D01*
X165624428Y-97125000D01*
X165310228Y-97125000D01*
X165282972Y-97035150D01*
X165200905Y-96881614D01*
X165090462Y-96747038D01*
X164955886Y-96636595D01*
X164802350Y-96554528D01*
X164635754Y-96503992D01*
X164462500Y-96486928D01*
X163537500Y-96486928D01*
X163364246Y-96503992D01*
X163197650Y-96554528D01*
X163044114Y-96636595D01*
X162909538Y-96747038D01*
X162799095Y-96881614D01*
X162717028Y-97035150D01*
X162676495Y-97168770D01*
X162668005Y-97148273D01*
X162515120Y-96919465D01*
X162320535Y-96724880D01*
X162091727Y-96571995D01*
X161837490Y-96466686D01*
X161567592Y-96413000D01*
X161292408Y-96413000D01*
X161022510Y-96466686D01*
X160768273Y-96571995D01*
X160539465Y-96724880D01*
X160344880Y-96919465D01*
X160276132Y-97022353D01*
X160200905Y-96881614D01*
X160090462Y-96747038D01*
X159955886Y-96636595D01*
X159802350Y-96554528D01*
X159635754Y-96503992D01*
X159462500Y-96486928D01*
X158537500Y-96486928D01*
X158364246Y-96503992D01*
X158197650Y-96554528D01*
X158044114Y-96636595D01*
X157909538Y-96747038D01*
X157799095Y-96881614D01*
X157717028Y-97035150D01*
X157666492Y-97201746D01*
X157649428Y-97375000D01*
X157375572Y-97375000D01*
X157358508Y-97201746D01*
X157307972Y-97035150D01*
X157225905Y-96881614D01*
X157115462Y-96747038D01*
X156980886Y-96636595D01*
X156910000Y-96598706D01*
X156910000Y-94018476D01*
X156914282Y-93975000D01*
X156910000Y-93931523D01*
X156910000Y-91401294D01*
X156980886Y-91363405D01*
X157115462Y-91252962D01*
X157225905Y-91118386D01*
X157307972Y-90964850D01*
X157358508Y-90798254D01*
X157375572Y-90625000D01*
X157375572Y-89375000D01*
X157649428Y-89375000D01*
X157649428Y-90625000D01*
X157666492Y-90798254D01*
X157717028Y-90964850D01*
X157799095Y-91118386D01*
X157909538Y-91252962D01*
X158044114Y-91363405D01*
X158197650Y-91445472D01*
X158364246Y-91496008D01*
X158537500Y-91513072D01*
X159462500Y-91513072D01*
X159635754Y-91496008D01*
X159802350Y-91445472D01*
X159955886Y-91363405D01*
X160090462Y-91252962D01*
X160200905Y-91118386D01*
X160276132Y-90977647D01*
X160344880Y-91080535D01*
X160539465Y-91275120D01*
X160768273Y-91428005D01*
X161022510Y-91533314D01*
X161292408Y-91587000D01*
X161567592Y-91587000D01*
X161837490Y-91533314D01*
X162091727Y-91428005D01*
X162320535Y-91275120D01*
X162515120Y-91080535D01*
X162668005Y-90851727D01*
X162676495Y-90831230D01*
X162717028Y-90964850D01*
X162799095Y-91118386D01*
X162909538Y-91252962D01*
X163044114Y-91363405D01*
X163197650Y-91445472D01*
X163364246Y-91496008D01*
X163537500Y-91513072D01*
X164462500Y-91513072D01*
X164635754Y-91496008D01*
X164802350Y-91445472D01*
X164955886Y-91363405D01*
X165090462Y-91252962D01*
X165200905Y-91118386D01*
X165282972Y-90964850D01*
X165310227Y-90875000D01*
X165624428Y-90875000D01*
X165636688Y-90999482D01*
X165672998Y-91119180D01*
X165731963Y-91229494D01*
X165811315Y-91326185D01*
X165908006Y-91405537D01*
X166018320Y-91464502D01*
X166138018Y-91500812D01*
X166262500Y-91513072D01*
X166689250Y-91510000D01*
X166848000Y-91351250D01*
X166848000Y-90127000D01*
X167102000Y-90127000D01*
X167102000Y-91351250D01*
X167260750Y-91510000D01*
X167687500Y-91513072D01*
X167811982Y-91500812D01*
X167931680Y-91464502D01*
X168041994Y-91405537D01*
X168138685Y-91326185D01*
X168218037Y-91229494D01*
X168277002Y-91119180D01*
X168313312Y-90999482D01*
X168325572Y-90875000D01*
X168322500Y-90285750D01*
X168163750Y-90127000D01*
X167102000Y-90127000D01*
X166848000Y-90127000D01*
X165786250Y-90127000D01*
X165627500Y-90285750D01*
X165624428Y-90875000D01*
X165310227Y-90875000D01*
X165333508Y-90798254D01*
X165350572Y-90625000D01*
X165350572Y-89375000D01*
X165333508Y-89201746D01*
X165310228Y-89125000D01*
X165624428Y-89125000D01*
X165627500Y-89714250D01*
X165786250Y-89873000D01*
X166848000Y-89873000D01*
X166848000Y-88648750D01*
X167102000Y-88648750D01*
X167102000Y-89873000D01*
X168163750Y-89873000D01*
X168322500Y-89714250D01*
X168325572Y-89125000D01*
X168313312Y-89000518D01*
X168277002Y-88880820D01*
X168218037Y-88770506D01*
X168138685Y-88673815D01*
X168041994Y-88594463D01*
X167931680Y-88535498D01*
X167811982Y-88499188D01*
X167687500Y-88486928D01*
X167260750Y-88490000D01*
X167102000Y-88648750D01*
X166848000Y-88648750D01*
X166689250Y-88490000D01*
X166262500Y-88486928D01*
X166138018Y-88499188D01*
X166018320Y-88535498D01*
X165908006Y-88594463D01*
X165811315Y-88673815D01*
X165731963Y-88770506D01*
X165672998Y-88880820D01*
X165636688Y-89000518D01*
X165624428Y-89125000D01*
X165310228Y-89125000D01*
X165282972Y-89035150D01*
X165200905Y-88881614D01*
X165090462Y-88747038D01*
X164955886Y-88636595D01*
X164802350Y-88554528D01*
X164635754Y-88503992D01*
X164462500Y-88486928D01*
X163537500Y-88486928D01*
X163364246Y-88503992D01*
X163197650Y-88554528D01*
X163044114Y-88636595D01*
X162909538Y-88747038D01*
X162799095Y-88881614D01*
X162717028Y-89035150D01*
X162666492Y-89201746D01*
X162662724Y-89240000D01*
X162455655Y-89240000D01*
X162320535Y-89104880D01*
X162091727Y-88951995D01*
X161837490Y-88846686D01*
X161567592Y-88793000D01*
X161292408Y-88793000D01*
X161022510Y-88846686D01*
X160768273Y-88951995D01*
X160539465Y-89104880D01*
X160404345Y-89240000D01*
X160337276Y-89240000D01*
X160333508Y-89201746D01*
X160282972Y-89035150D01*
X160200905Y-88881614D01*
X160090462Y-88747038D01*
X159955886Y-88636595D01*
X159802350Y-88554528D01*
X159635754Y-88503992D01*
X159462500Y-88486928D01*
X158537500Y-88486928D01*
X158364246Y-88503992D01*
X158197650Y-88554528D01*
X158044114Y-88636595D01*
X157909538Y-88747038D01*
X157799095Y-88881614D01*
X157717028Y-89035150D01*
X157666492Y-89201746D01*
X157649428Y-89375000D01*
X157375572Y-89375000D01*
X157358508Y-89201746D01*
X157307972Y-89035150D01*
X157225905Y-88881614D01*
X157115462Y-88747038D01*
X156980886Y-88636595D01*
X156910000Y-88598706D01*
X156910000Y-84107081D01*
X157237042Y-84107081D01*
X157105258Y-84425236D01*
X157029534Y-84805926D01*
X157029534Y-85194074D01*
X157105258Y-85574764D01*
X157253796Y-85933366D01*
X157469439Y-86256099D01*
X157743901Y-86530561D01*
X158066634Y-86746204D01*
X158425236Y-86894742D01*
X158805926Y-86970466D01*
X159194074Y-86970466D01*
X159574764Y-86894742D01*
X159933366Y-86746204D01*
X160256099Y-86530561D01*
X160530561Y-86256099D01*
X160746204Y-85933366D01*
X160894742Y-85574764D01*
X160970466Y-85194074D01*
X160970466Y-84805926D01*
X160894742Y-84425236D01*
X160762958Y-84107081D01*
X169269452Y-84107081D01*
X169312921Y-84111362D01*
X169356390Y-84107081D01*
X169356398Y-84107081D01*
X169486411Y-84094276D01*
X169653234Y-84043670D01*
X169806980Y-83961492D01*
X169941738Y-83850898D01*
X169969455Y-83817125D01*
X170570050Y-83216531D01*
X170603818Y-83188818D01*
X170714412Y-83054060D01*
X170727521Y-83029534D01*
X170796590Y-82900315D01*
X170847196Y-82733491D01*
X170852489Y-82679751D01*
X170860001Y-82603478D01*
X170860001Y-82603470D01*
X170864282Y-82560001D01*
X170860001Y-82516532D01*
X170860001Y-82490021D01*
X170894463Y-82554494D01*
X170973815Y-82651185D01*
X171070506Y-82730537D01*
X171180820Y-82789502D01*
X171300518Y-82825812D01*
X171425000Y-82838072D01*
X172714250Y-82835000D01*
X172873000Y-82676250D01*
X172873000Y-81827000D01*
X173127000Y-81827000D01*
X173127000Y-82676250D01*
X173285750Y-82835000D01*
X174575000Y-82838072D01*
X174699482Y-82825812D01*
X174819180Y-82789502D01*
X174929494Y-82730537D01*
X175026185Y-82651185D01*
X175105537Y-82554494D01*
X175164502Y-82444180D01*
X175200812Y-82324482D01*
X175213072Y-82200000D01*
X175210000Y-81985750D01*
X175051250Y-81827000D01*
X173127000Y-81827000D01*
X172873000Y-81827000D01*
X172853000Y-81827000D01*
X172853000Y-81573000D01*
X172873000Y-81573000D01*
X172873000Y-80723750D01*
X173127000Y-80723750D01*
X173127000Y-81573000D01*
X175051250Y-81573000D01*
X175210000Y-81414250D01*
X175213072Y-81200000D01*
X175200812Y-81075518D01*
X175164502Y-80955820D01*
X175105537Y-80845506D01*
X175026185Y-80748815D01*
X174929494Y-80669463D01*
X174819180Y-80610498D01*
X174699482Y-80574188D01*
X174575000Y-80561928D01*
X173285750Y-80565000D01*
X173127000Y-80723750D01*
X172873000Y-80723750D01*
X172714250Y-80565000D01*
X171425000Y-80561928D01*
X171300518Y-80574188D01*
X171180820Y-80610498D01*
X171070506Y-80669463D01*
X170973815Y-80748815D01*
X170894463Y-80845506D01*
X170860001Y-80909979D01*
X170860001Y-80476577D01*
X171119730Y-80216848D01*
X171180820Y-80249502D01*
X171300518Y-80285812D01*
X171425000Y-80298072D01*
X174575000Y-80298072D01*
X174699482Y-80285812D01*
X174713953Y-80281422D01*
X181550738Y-80281422D01*
X181550738Y-80718578D01*
X181636023Y-81147335D01*
X181803316Y-81551215D01*
X182046187Y-81914697D01*
X182355303Y-82223813D01*
X182718785Y-82466684D01*
X183122665Y-82633977D01*
X183551422Y-82719262D01*
X183988578Y-82719262D01*
X184417335Y-82633977D01*
X184821215Y-82466684D01*
X185184697Y-82223813D01*
X185493813Y-81914697D01*
X185736684Y-81551215D01*
X185903977Y-81147335D01*
X185989262Y-80718578D01*
X185989262Y-80281422D01*
X185903977Y-79852665D01*
X185736684Y-79448785D01*
X185493813Y-79085303D01*
X185184697Y-78776187D01*
X184821215Y-78533316D01*
X184417335Y-78366023D01*
X183988578Y-78280738D01*
X183551422Y-78280738D01*
X183122665Y-78366023D01*
X182718785Y-78533316D01*
X182355303Y-78776187D01*
X182046187Y-79085303D01*
X181803316Y-79448785D01*
X181636023Y-79852665D01*
X181550738Y-80281422D01*
X174713953Y-80281422D01*
X174819180Y-80249502D01*
X174929494Y-80190537D01*
X175026185Y-80111185D01*
X175105537Y-80014494D01*
X175164502Y-79904180D01*
X175200812Y-79784482D01*
X175213072Y-79660000D01*
X175213072Y-78660000D01*
X175200812Y-78535518D01*
X175164502Y-78415820D01*
X175105537Y-78305506D01*
X175026185Y-78208815D01*
X174929494Y-78129463D01*
X174819180Y-78070498D01*
X174699482Y-78034188D01*
X174575000Y-78021928D01*
X171773507Y-78021928D01*
X171509650Y-77758072D01*
X174575000Y-77758072D01*
X174699482Y-77745812D01*
X174819180Y-77709502D01*
X174929494Y-77650537D01*
X175026185Y-77571185D01*
X175105537Y-77474494D01*
X175164502Y-77364180D01*
X175200812Y-77244482D01*
X175213072Y-77120000D01*
X175213072Y-76120000D01*
X175200812Y-75995518D01*
X175164502Y-75875820D01*
X175105537Y-75765506D01*
X175026185Y-75668815D01*
X174929494Y-75589463D01*
X174819180Y-75530498D01*
X174699482Y-75494188D01*
X174575000Y-75481928D01*
X171425000Y-75481928D01*
X171300518Y-75494188D01*
X171180820Y-75530498D01*
X171167447Y-75537646D01*
X170610001Y-74980200D01*
X170610001Y-74589803D01*
X170611201Y-74591003D01*
X170634999Y-74620001D01*
X170750724Y-74714974D01*
X170812366Y-74747923D01*
X170835498Y-74824180D01*
X170894463Y-74934494D01*
X170973815Y-75031185D01*
X171070506Y-75110537D01*
X171180820Y-75169502D01*
X171300518Y-75205812D01*
X171425000Y-75218072D01*
X174575000Y-75218072D01*
X174699482Y-75205812D01*
X174819180Y-75169502D01*
X174929494Y-75110537D01*
X175026185Y-75031185D01*
X175105537Y-74934494D01*
X175164502Y-74824180D01*
X175200812Y-74704482D01*
X175213072Y-74580000D01*
X175213072Y-73580000D01*
X175200812Y-73455518D01*
X175164502Y-73335820D01*
X175105537Y-73225506D01*
X175026185Y-73128815D01*
X174929494Y-73049463D01*
X174819180Y-72990498D01*
X174699482Y-72954188D01*
X174575000Y-72941928D01*
X171425000Y-72941928D01*
X171300518Y-72954188D01*
X171180820Y-72990498D01*
X171167447Y-72997646D01*
X171060011Y-72890210D01*
X171060011Y-72561924D01*
X171070506Y-72570537D01*
X171180820Y-72629502D01*
X171300518Y-72665812D01*
X171425000Y-72678072D01*
X174575000Y-72678072D01*
X174699482Y-72665812D01*
X174819180Y-72629502D01*
X174929494Y-72570537D01*
X175026185Y-72491185D01*
X175105537Y-72394494D01*
X175164502Y-72284180D01*
X175200812Y-72164482D01*
X175213072Y-72040000D01*
X175213072Y-71040000D01*
X175200812Y-70915518D01*
X175164502Y-70795820D01*
X175105537Y-70685506D01*
X175026185Y-70588815D01*
X174929494Y-70509463D01*
X174819180Y-70450498D01*
X174699482Y-70414188D01*
X174575000Y-70401928D01*
X172936730Y-70401928D01*
X172672874Y-70138072D01*
X174575000Y-70138072D01*
X174699482Y-70125812D01*
X174819180Y-70089502D01*
X174929494Y-70030537D01*
X175026185Y-69951185D01*
X175105537Y-69854494D01*
X175164502Y-69744180D01*
X175200812Y-69624482D01*
X175213072Y-69500000D01*
X175213072Y-68500000D01*
X175200812Y-68375518D01*
X175164502Y-68255820D01*
X175105537Y-68145506D01*
X175026185Y-68048815D01*
X174929494Y-67969463D01*
X174819180Y-67910498D01*
X174699482Y-67874188D01*
X174575000Y-67861928D01*
X172455962Y-67861928D01*
X166955745Y-62361712D01*
X167257583Y-62489469D01*
X169534033Y-63623006D01*
X171736384Y-64894534D01*
X173856281Y-66299229D01*
X175885684Y-67831763D01*
X177816893Y-69486322D01*
X179642583Y-71256629D01*
X181355829Y-73135970D01*
X182950131Y-75117216D01*
X184419442Y-77192850D01*
X185758189Y-79355000D01*
X186961292Y-81595463D01*
X188024189Y-83905741D01*
X188942847Y-86277070D01*
X189713781Y-88700455D01*
X190334067Y-91166703D01*
X190801352Y-93666459D01*
X191113864Y-96190239D01*
X191270417Y-98728472D01*
X191270417Y-101271528D01*
X191113864Y-103809761D01*
X190801352Y-106333541D01*
X190334067Y-108833297D01*
X189713781Y-111299545D01*
X188942847Y-113722930D01*
X188024189Y-116094259D01*
X186961292Y-118404537D01*
X185758189Y-120645000D01*
X184419442Y-122807150D01*
X182950131Y-124882784D01*
X181355829Y-126864030D01*
X179642583Y-128743371D01*
X177816893Y-130513678D01*
X175885684Y-132168237D01*
X173856281Y-133700771D01*
X172842950Y-134372229D01*
X172828885Y-134338273D01*
X172676000Y-134109465D01*
X172481415Y-133914880D01*
X172252607Y-133761995D01*
X171998370Y-133656686D01*
X171728472Y-133603000D01*
X171453288Y-133603000D01*
X171183390Y-133656686D01*
X170929153Y-133761995D01*
X170700345Y-133914880D01*
X170505760Y-134109465D01*
X170352875Y-134338273D01*
X170320880Y-134415515D01*
X170288885Y-134338273D01*
X170136000Y-134109465D01*
X169941415Y-133914880D01*
X169712607Y-133761995D01*
X169458370Y-133656686D01*
X169188472Y-133603000D01*
X168913288Y-133603000D01*
X168643390Y-133656686D01*
X168389153Y-133761995D01*
X168160345Y-133914880D01*
X167965760Y-134109465D01*
X167812875Y-134338273D01*
X167780880Y-134415515D01*
X167748885Y-134338273D01*
X167596000Y-134109465D01*
X167401415Y-133914880D01*
X167172607Y-133761995D01*
X166918370Y-133656686D01*
X166648472Y-133603000D01*
X166373288Y-133603000D01*
X166103390Y-133656686D01*
X165849153Y-133761995D01*
X165620345Y-133914880D01*
X165425760Y-134109465D01*
X165272875Y-134338273D01*
X165240880Y-134415515D01*
X165208885Y-134338273D01*
X165056000Y-134109465D01*
X164861415Y-133914880D01*
X164632607Y-133761995D01*
X164378370Y-133656686D01*
X164108472Y-133603000D01*
X163833288Y-133603000D01*
X163563390Y-133656686D01*
X163309153Y-133761995D01*
X163080345Y-133914880D01*
X162885760Y-134109465D01*
X162732875Y-134338273D01*
X162700880Y-134415515D01*
X162668885Y-134338273D01*
X162516000Y-134109465D01*
X162321415Y-133914880D01*
X162092607Y-133761995D01*
X161838370Y-133656686D01*
X161568472Y-133603000D01*
X161293288Y-133603000D01*
X161023390Y-133656686D01*
X160769153Y-133761995D01*
X160540345Y-133914880D01*
X160345760Y-134109465D01*
X160192875Y-134338273D01*
X160160880Y-134415515D01*
X160128885Y-134338273D01*
X159976000Y-134109465D01*
X159781415Y-133914880D01*
X159552607Y-133761995D01*
X159298370Y-133656686D01*
X159028472Y-133603000D01*
X158753288Y-133603000D01*
X158483390Y-133656686D01*
X158229153Y-133761995D01*
X158000345Y-133914880D01*
X157805760Y-134109465D01*
X157652875Y-134338273D01*
X157620880Y-134415515D01*
X157588885Y-134338273D01*
X157436000Y-134109465D01*
X157241415Y-133914880D01*
X157012607Y-133761995D01*
X156758370Y-133656686D01*
X156488472Y-133603000D01*
X156213288Y-133603000D01*
X155943390Y-133656686D01*
X155689153Y-133761995D01*
X155460345Y-133914880D01*
X155265760Y-134109465D01*
X155112875Y-134338273D01*
X155080880Y-134415515D01*
X155048885Y-134338273D01*
X154896000Y-134109465D01*
X154701415Y-133914880D01*
X154472607Y-133761995D01*
X154218370Y-133656686D01*
X153948472Y-133603000D01*
X153673288Y-133603000D01*
X153403390Y-133656686D01*
X153149153Y-133761995D01*
X152920345Y-133914880D01*
X152725760Y-134109465D01*
X152572875Y-134338273D01*
X152540880Y-134415515D01*
X152508885Y-134338273D01*
X152356000Y-134109465D01*
X152161415Y-133914880D01*
X151932607Y-133761995D01*
X151678370Y-133656686D01*
X151408472Y-133603000D01*
X151133288Y-133603000D01*
X150863390Y-133656686D01*
X150609153Y-133761995D01*
X150380345Y-133914880D01*
X150185760Y-134109465D01*
X150032875Y-134338273D01*
X150000880Y-134415515D01*
X149968885Y-134338273D01*
X149816000Y-134109465D01*
X149621415Y-133914880D01*
X149392607Y-133761995D01*
X149138370Y-133656686D01*
X148868472Y-133603000D01*
X148593288Y-133603000D01*
X148323390Y-133656686D01*
X148069153Y-133761995D01*
X147840345Y-133914880D01*
X147645760Y-134109465D01*
X147492875Y-134338273D01*
X147460880Y-134415515D01*
X147428885Y-134338273D01*
X147276000Y-134109465D01*
X147081415Y-133914880D01*
X146852607Y-133761995D01*
X146598370Y-133656686D01*
X146328472Y-133603000D01*
X146053288Y-133603000D01*
X145783390Y-133656686D01*
X145529153Y-133761995D01*
X145300345Y-133914880D01*
X145105760Y-134109465D01*
X144952875Y-134338273D01*
X144920880Y-134415515D01*
X144888885Y-134338273D01*
X144736000Y-134109465D01*
X144541415Y-133914880D01*
X144312607Y-133761995D01*
X144058370Y-133656686D01*
X143788472Y-133603000D01*
X143513288Y-133603000D01*
X143243390Y-133656686D01*
X142989153Y-133761995D01*
X142760345Y-133914880D01*
X142565760Y-134109465D01*
X142412875Y-134338273D01*
X142380880Y-134415515D01*
X142348885Y-134338273D01*
X142196000Y-134109465D01*
X142001415Y-133914880D01*
X141772607Y-133761995D01*
X141518370Y-133656686D01*
X141248472Y-133603000D01*
X140973288Y-133603000D01*
X140703390Y-133656686D01*
X140449153Y-133761995D01*
X140220345Y-133914880D01*
X140025760Y-134109465D01*
X139872875Y-134338273D01*
X139840880Y-134415515D01*
X139808885Y-134338273D01*
X139656000Y-134109465D01*
X139461415Y-133914880D01*
X139232607Y-133761995D01*
X138978370Y-133656686D01*
X138708472Y-133603000D01*
X138433288Y-133603000D01*
X138163390Y-133656686D01*
X137909153Y-133761995D01*
X137680345Y-133914880D01*
X137485760Y-134109465D01*
X137332875Y-134338273D01*
X137300880Y-134415515D01*
X137268885Y-134338273D01*
X137116000Y-134109465D01*
X136921415Y-133914880D01*
X136692607Y-133761995D01*
X136438370Y-133656686D01*
X136168472Y-133603000D01*
X135893288Y-133603000D01*
X135623390Y-133656686D01*
X135369153Y-133761995D01*
X135140345Y-133914880D01*
X134945760Y-134109465D01*
X134792875Y-134338273D01*
X134760880Y-134415515D01*
X134728885Y-134338273D01*
X134576000Y-134109465D01*
X134381415Y-133914880D01*
X134152607Y-133761995D01*
X133898370Y-133656686D01*
X133628472Y-133603000D01*
X133353288Y-133603000D01*
X133083390Y-133656686D01*
X132829153Y-133761995D01*
X132600345Y-133914880D01*
X132405760Y-134109465D01*
X132252875Y-134338273D01*
X132220880Y-134415515D01*
X132188885Y-134338273D01*
X132036000Y-134109465D01*
X131841415Y-133914880D01*
X131612607Y-133761995D01*
X131358370Y-133656686D01*
X131088472Y-133603000D01*
X130813288Y-133603000D01*
X130543390Y-133656686D01*
X130289153Y-133761995D01*
X130060345Y-133914880D01*
X129865760Y-134109465D01*
X129712875Y-134338273D01*
X129680880Y-134415515D01*
X129648885Y-134338273D01*
X129496000Y-134109465D01*
X129301415Y-133914880D01*
X129072607Y-133761995D01*
X128818370Y-133656686D01*
X128548472Y-133603000D01*
X128273288Y-133603000D01*
X128003390Y-133656686D01*
X127749153Y-133761995D01*
X127520345Y-133914880D01*
X127325760Y-134109465D01*
X127172875Y-134338273D01*
X127158431Y-134373144D01*
X126143719Y-133700771D01*
X124114316Y-132168237D01*
X122183107Y-130513678D01*
X120357417Y-128743371D01*
X118644171Y-126864030D01*
X117049869Y-124882784D01*
X115580558Y-122807150D01*
X114241811Y-120645000D01*
X113038708Y-118404537D01*
X111975811Y-116094259D01*
X111057153Y-113722930D01*
X110784142Y-112864736D01*
X117626645Y-112864736D01*
X117626645Y-113135264D01*
X117679422Y-113400593D01*
X117782949Y-113650527D01*
X117933246Y-113875463D01*
X118124537Y-114066754D01*
X118349473Y-114217051D01*
X118599407Y-114320578D01*
X118864736Y-114373355D01*
X119135264Y-114373355D01*
X119400593Y-114320578D01*
X119650527Y-114217051D01*
X119875463Y-114066754D01*
X120066754Y-113875463D01*
X120217051Y-113650527D01*
X120320578Y-113400593D01*
X120373355Y-113135264D01*
X120373355Y-112864736D01*
X120320578Y-112599407D01*
X120217051Y-112349473D01*
X120066754Y-112124537D01*
X119875463Y-111933246D01*
X119650527Y-111782949D01*
X119400593Y-111679422D01*
X119135264Y-111626645D01*
X118864736Y-111626645D01*
X118599407Y-111679422D01*
X118349473Y-111782949D01*
X118124537Y-111933246D01*
X117933246Y-112124537D01*
X117782949Y-112349473D01*
X117679422Y-112599407D01*
X117626645Y-112864736D01*
X110784142Y-112864736D01*
X110286219Y-111299545D01*
X109665933Y-108833297D01*
X109198648Y-106333541D01*
X108886136Y-103809761D01*
X108729583Y-101271528D01*
X108729583Y-98728472D01*
X108826939Y-97150000D01*
X114511928Y-97150000D01*
X114511928Y-98850000D01*
X114524188Y-98974482D01*
X114560498Y-99094180D01*
X114619463Y-99204494D01*
X114698815Y-99301185D01*
X114795506Y-99380537D01*
X114905820Y-99439502D01*
X114978380Y-99461513D01*
X114846525Y-99593368D01*
X114684010Y-99836589D01*
X114572068Y-100106842D01*
X114515000Y-100393740D01*
X114515000Y-100686260D01*
X114572068Y-100973158D01*
X114684010Y-101243411D01*
X114846525Y-101486632D01*
X115053368Y-101693475D01*
X115227760Y-101810000D01*
X115053368Y-101926525D01*
X114846525Y-102133368D01*
X114684010Y-102376589D01*
X114572068Y-102646842D01*
X114515000Y-102933740D01*
X114515000Y-103226260D01*
X114572068Y-103513158D01*
X114684010Y-103783411D01*
X114846525Y-104026632D01*
X115053368Y-104233475D01*
X115296589Y-104395990D01*
X115566842Y-104507932D01*
X115853740Y-104565000D01*
X116146260Y-104565000D01*
X116433158Y-104507932D01*
X116703411Y-104395990D01*
X116946632Y-104233475D01*
X117153475Y-104026632D01*
X117271100Y-103850594D01*
X117442412Y-104080269D01*
X117658645Y-104275178D01*
X117908748Y-104424157D01*
X118183109Y-104521481D01*
X118413000Y-104400814D01*
X118413000Y-103207000D01*
X118667000Y-103207000D01*
X118667000Y-104400814D01*
X118896891Y-104521481D01*
X119171252Y-104424157D01*
X119421355Y-104275178D01*
X119637588Y-104080269D01*
X119811641Y-103846920D01*
X119936825Y-103584099D01*
X119981476Y-103436890D01*
X119860155Y-103207000D01*
X118667000Y-103207000D01*
X118413000Y-103207000D01*
X118393000Y-103207000D01*
X118393000Y-102953000D01*
X118413000Y-102953000D01*
X118413000Y-102933000D01*
X118667000Y-102933000D01*
X118667000Y-102953000D01*
X119860155Y-102953000D01*
X119981476Y-102723110D01*
X119936825Y-102575901D01*
X119811641Y-102313080D01*
X119637588Y-102079731D01*
X119421355Y-101884822D01*
X119304466Y-101815195D01*
X119486632Y-101693475D01*
X119693475Y-101486632D01*
X119855990Y-101243411D01*
X119967932Y-100973158D01*
X120025000Y-100686260D01*
X120025000Y-100393740D01*
X119967932Y-100106842D01*
X119855990Y-99836589D01*
X119693475Y-99593368D01*
X119486632Y-99386525D01*
X119312240Y-99270000D01*
X119486632Y-99153475D01*
X119693475Y-98946632D01*
X119855990Y-98703411D01*
X119967932Y-98433158D01*
X120025000Y-98146260D01*
X120025000Y-97853740D01*
X119967932Y-97566842D01*
X119855990Y-97296589D01*
X119693475Y-97053368D01*
X119486632Y-96846525D01*
X119243411Y-96684010D01*
X118973158Y-96572068D01*
X118686260Y-96515000D01*
X118393740Y-96515000D01*
X118106842Y-96572068D01*
X117836589Y-96684010D01*
X117593368Y-96846525D01*
X117461513Y-96978380D01*
X117439502Y-96905820D01*
X117380537Y-96795506D01*
X117301185Y-96698815D01*
X117204494Y-96619463D01*
X117094180Y-96560498D01*
X116974482Y-96524188D01*
X116850000Y-96511928D01*
X115150000Y-96511928D01*
X115025518Y-96524188D01*
X114905820Y-96560498D01*
X114795506Y-96619463D01*
X114698815Y-96698815D01*
X114619463Y-96795506D01*
X114560498Y-96905820D01*
X114524188Y-97025518D01*
X114511928Y-97150000D01*
X108826939Y-97150000D01*
X108886136Y-96190239D01*
X109198648Y-93666459D01*
X109665933Y-91166703D01*
X110286219Y-88700455D01*
X111057153Y-86277070D01*
X111975811Y-83905741D01*
X113038708Y-81595463D01*
X113744332Y-80281422D01*
X114000738Y-80281422D01*
X114000738Y-80718578D01*
X114086023Y-81147335D01*
X114253316Y-81551215D01*
X114496187Y-81914697D01*
X114805303Y-82223813D01*
X115168785Y-82466684D01*
X115572665Y-82633977D01*
X116001422Y-82719262D01*
X116438578Y-82719262D01*
X116867335Y-82633977D01*
X117271215Y-82466684D01*
X117634697Y-82223813D01*
X117943813Y-81914697D01*
X118186684Y-81551215D01*
X118353977Y-81147335D01*
X118439262Y-80718578D01*
X118439262Y-80281422D01*
X118353977Y-79852665D01*
X118186684Y-79448785D01*
X117943813Y-79085303D01*
X117634697Y-78776187D01*
X117271215Y-78533316D01*
X116867335Y-78366023D01*
X116438578Y-78280738D01*
X116001422Y-78280738D01*
X115572665Y-78366023D01*
X115168785Y-78533316D01*
X114805303Y-78776187D01*
X114496187Y-79085303D01*
X114253316Y-79448785D01*
X114086023Y-79852665D01*
X114000738Y-80281422D01*
X113744332Y-80281422D01*
X114241811Y-79355000D01*
X115580558Y-77192850D01*
X117049869Y-75117216D01*
X118644171Y-73135970D01*
X120357417Y-71256629D01*
X120370864Y-71243589D01*
X133615000Y-71243589D01*
X133615000Y-71516411D01*
X133668225Y-71783989D01*
X133772629Y-72036043D01*
X133924201Y-72262886D01*
X134117114Y-72455799D01*
X134343957Y-72607371D01*
X134596011Y-72711775D01*
X134863589Y-72765000D01*
X135136411Y-72765000D01*
X135403989Y-72711775D01*
X135656043Y-72607371D01*
X135882886Y-72455799D01*
X136075799Y-72262886D01*
X136227371Y-72036043D01*
X136331775Y-71783989D01*
X136385000Y-71516411D01*
X136385000Y-71243589D01*
X136331775Y-70976011D01*
X136227371Y-70723957D01*
X136075799Y-70497114D01*
X135882886Y-70304201D01*
X135656043Y-70152629D01*
X135403989Y-70048225D01*
X135136411Y-69995000D01*
X134863589Y-69995000D01*
X134596011Y-70048225D01*
X134343957Y-70152629D01*
X134117114Y-70304201D01*
X133924201Y-70497114D01*
X133772629Y-70723957D01*
X133668225Y-70976011D01*
X133615000Y-71243589D01*
X120370864Y-71243589D01*
X122183107Y-69486322D01*
X124114316Y-67831763D01*
X126058492Y-66363589D01*
X133615000Y-66363589D01*
X133615000Y-66636411D01*
X133668225Y-66903989D01*
X133772629Y-67156043D01*
X133924201Y-67382886D01*
X134117114Y-67575799D01*
X134343957Y-67727371D01*
X134596011Y-67831775D01*
X134863589Y-67885000D01*
X135136411Y-67885000D01*
X135403989Y-67831775D01*
X135656043Y-67727371D01*
X135882886Y-67575799D01*
X136075799Y-67382886D01*
X136227371Y-67156043D01*
X136331775Y-66903989D01*
X136385000Y-66636411D01*
X136385000Y-66363589D01*
X136331775Y-66096011D01*
X136227371Y-65843957D01*
X136075799Y-65617114D01*
X135882886Y-65424201D01*
X135656043Y-65272629D01*
X135403989Y-65168225D01*
X135136411Y-65115000D01*
X134863589Y-65115000D01*
X134596011Y-65168225D01*
X134343957Y-65272629D01*
X134117114Y-65424201D01*
X133924201Y-65617114D01*
X133772629Y-65843957D01*
X133668225Y-66096011D01*
X133615000Y-66363589D01*
X126058492Y-66363589D01*
X126143719Y-66299229D01*
X128263616Y-64894534D01*
X130465967Y-63623006D01*
X132742417Y-62489469D01*
X135084332Y-61498222D01*
X137482826Y-60653025D01*
X139928802Y-59957085D01*
X142412982Y-59413041D01*
X144925942Y-59022957D01*
X147458150Y-58788314D01*
X150000000Y-58710000D01*
X152541850Y-58788314D01*
%TA.AperFunction,Conductor*%
D19*
G36*
X152541850Y-58788314D02*
G01*
X155074058Y-59022957D01*
X157587018Y-59413041D01*
X160071198Y-59957085D01*
X162517174Y-60653025D01*
X162763991Y-60740000D01*
X157703711Y-60740000D01*
X157659774Y-60696063D01*
X157490256Y-60582795D01*
X157301898Y-60504774D01*
X157101939Y-60465000D01*
X156898061Y-60465000D01*
X156698102Y-60504774D01*
X156509744Y-60582795D01*
X156340226Y-60696063D01*
X156196063Y-60840226D01*
X156082795Y-61009744D01*
X156004774Y-61198102D01*
X155965000Y-61398061D01*
X155965000Y-61601939D01*
X156004774Y-61801898D01*
X156082795Y-61990256D01*
X156089306Y-62000000D01*
X156082795Y-62009744D01*
X156004774Y-62198102D01*
X155965000Y-62398061D01*
X155965000Y-62601939D01*
X156004774Y-62801898D01*
X156082795Y-62990256D01*
X156089306Y-63000000D01*
X156082795Y-63009744D01*
X156004774Y-63198102D01*
X155965000Y-63398061D01*
X155965000Y-63601939D01*
X156004774Y-63801898D01*
X156082795Y-63990256D01*
X156089306Y-64000000D01*
X156082795Y-64009744D01*
X156004774Y-64198102D01*
X155965000Y-64398061D01*
X155965000Y-64601939D01*
X156004774Y-64801898D01*
X156082795Y-64990256D01*
X156196063Y-65159774D01*
X156340226Y-65303937D01*
X156509744Y-65417205D01*
X156698102Y-65495226D01*
X156898061Y-65535000D01*
X157101939Y-65535000D01*
X157301898Y-65495226D01*
X157490256Y-65417205D01*
X157659774Y-65303937D01*
X157703711Y-65260000D01*
X165795201Y-65260000D01*
X168397128Y-67861928D01*
X166375000Y-67861928D01*
X166250518Y-67874188D01*
X166130820Y-67910498D01*
X166020506Y-67969463D01*
X165923815Y-68048815D01*
X165844463Y-68145506D01*
X165793954Y-68240000D01*
X154297035Y-68240000D01*
X151046036Y-64989003D01*
X151022233Y-64959999D01*
X150906508Y-64865026D01*
X150774479Y-64794454D01*
X150631218Y-64750997D01*
X150519565Y-64740000D01*
X150519554Y-64740000D01*
X150482232Y-64736324D01*
X150444910Y-64740000D01*
X148703711Y-64740000D01*
X148659774Y-64696063D01*
X148490256Y-64582795D01*
X148301898Y-64504774D01*
X148101939Y-64465000D01*
X147898061Y-64465000D01*
X147698102Y-64504774D01*
X147509744Y-64582795D01*
X147340226Y-64696063D01*
X147196063Y-64840226D01*
X147082795Y-65009744D01*
X147004774Y-65198102D01*
X146965000Y-65398061D01*
X146965000Y-65601939D01*
X147004774Y-65801898D01*
X147082795Y-65990256D01*
X147089306Y-66000000D01*
X147082795Y-66009744D01*
X147004774Y-66198102D01*
X146965000Y-66398061D01*
X146965000Y-66601939D01*
X147004774Y-66801898D01*
X147082795Y-66990256D01*
X147089306Y-67000000D01*
X147082795Y-67009744D01*
X147004774Y-67198102D01*
X146965000Y-67398061D01*
X146965000Y-67601939D01*
X147004774Y-67801898D01*
X147082795Y-67990256D01*
X147089306Y-68000000D01*
X147082795Y-68009744D01*
X147004774Y-68198102D01*
X146965000Y-68398061D01*
X146965000Y-68601939D01*
X147004774Y-68801898D01*
X147082795Y-68990256D01*
X147196063Y-69159774D01*
X147276289Y-69240000D01*
X146936732Y-69240000D01*
X146899399Y-69236323D01*
X146862066Y-69240000D01*
X146750413Y-69250997D01*
X146607152Y-69294454D01*
X146475123Y-69365026D01*
X146359398Y-69459999D01*
X146335600Y-69488997D01*
X135438703Y-80385896D01*
X135438697Y-80385901D01*
X125584599Y-90240000D01*
X124703711Y-90240000D01*
X124659774Y-90196063D01*
X124490256Y-90082795D01*
X124301898Y-90004774D01*
X124101939Y-89965000D01*
X123898061Y-89965000D01*
X123698102Y-90004774D01*
X123509744Y-90082795D01*
X123340226Y-90196063D01*
X123196063Y-90340226D01*
X123082795Y-90509744D01*
X123004774Y-90698102D01*
X122965000Y-90898061D01*
X122965000Y-91101939D01*
X123004774Y-91301898D01*
X123082795Y-91490256D01*
X123196063Y-91659774D01*
X123340226Y-91803937D01*
X123509744Y-91917205D01*
X123698102Y-91995226D01*
X123898061Y-92035000D01*
X124101939Y-92035000D01*
X124301898Y-91995226D01*
X124490256Y-91917205D01*
X124659774Y-91803937D01*
X124703711Y-91760000D01*
X125066891Y-91760000D01*
X123439849Y-93387042D01*
X123410845Y-93410845D01*
X123357091Y-93476345D01*
X123315872Y-93526570D01*
X123245300Y-93658600D01*
X123201844Y-93801861D01*
X123187170Y-93950846D01*
X123201844Y-94099831D01*
X123240001Y-94225623D01*
X123240000Y-99296289D01*
X123196063Y-99340226D01*
X123082795Y-99509744D01*
X123004774Y-99698102D01*
X122965000Y-99898061D01*
X122965000Y-100101939D01*
X123004774Y-100301898D01*
X123082795Y-100490256D01*
X123196063Y-100659774D01*
X123240000Y-100703711D01*
X123240001Y-110889666D01*
X123236324Y-110926998D01*
X123250998Y-111075983D01*
X123294454Y-111219244D01*
X123365026Y-111351274D01*
X123424938Y-111424276D01*
X123460000Y-111466999D01*
X123488998Y-111490797D01*
X137509202Y-125511002D01*
X137533001Y-125540001D01*
X137561999Y-125563799D01*
X137648725Y-125634974D01*
X137761212Y-125695100D01*
X137780755Y-125705546D01*
X137924016Y-125749003D01*
X138035669Y-125760000D01*
X138035678Y-125760000D01*
X138073001Y-125763676D01*
X138110324Y-125760000D01*
X146659893Y-125760000D01*
X146952347Y-126052455D01*
X146952347Y-126114592D01*
X146992121Y-126314551D01*
X147070142Y-126502909D01*
X147183410Y-126672427D01*
X147327573Y-126816590D01*
X147497091Y-126929858D01*
X147685449Y-127007879D01*
X147885408Y-127047653D01*
X148089286Y-127047653D01*
X148289245Y-127007879D01*
X148477603Y-126929858D01*
X148503142Y-126912794D01*
X148509744Y-126917205D01*
X148698102Y-126995226D01*
X148898061Y-127035000D01*
X149101939Y-127035000D01*
X149301898Y-126995226D01*
X149490256Y-126917205D01*
X149515795Y-126900141D01*
X149522397Y-126904552D01*
X149710755Y-126982573D01*
X149910714Y-127022347D01*
X150114592Y-127022347D01*
X150314551Y-126982573D01*
X150502909Y-126904552D01*
X150672427Y-126791284D01*
X150816590Y-126647121D01*
X150929858Y-126477603D01*
X151007879Y-126289245D01*
X151047653Y-126089286D01*
X151047653Y-125885408D01*
X151007879Y-125685449D01*
X150929858Y-125497091D01*
X150816590Y-125327573D01*
X150672427Y-125183410D01*
X150502909Y-125070142D01*
X150314551Y-124992121D01*
X150114592Y-124952347D01*
X150052455Y-124952347D01*
X148589111Y-123489004D01*
X148565308Y-123460000D01*
X148449583Y-123365027D01*
X148317554Y-123294455D01*
X148174293Y-123250998D01*
X148062640Y-123240001D01*
X148062629Y-123240001D01*
X148025307Y-123236325D01*
X147987985Y-123240001D01*
X139314803Y-123240001D01*
X136972863Y-120898061D01*
X138965000Y-120898061D01*
X138965000Y-121101939D01*
X139004774Y-121301898D01*
X139082795Y-121490256D01*
X139196063Y-121659774D01*
X139340226Y-121803937D01*
X139509744Y-121917205D01*
X139698102Y-121995226D01*
X139898061Y-122035000D01*
X140101939Y-122035000D01*
X140301898Y-121995226D01*
X140490256Y-121917205D01*
X140659774Y-121803937D01*
X140703711Y-121760000D01*
X147296289Y-121760000D01*
X147340226Y-121803937D01*
X147509744Y-121917205D01*
X147698102Y-121995226D01*
X147898061Y-122035000D01*
X148101939Y-122035000D01*
X148301898Y-121995226D01*
X148490256Y-121917205D01*
X148659774Y-121803937D01*
X148803937Y-121659774D01*
X148917205Y-121490256D01*
X148995226Y-121301898D01*
X149035000Y-121101939D01*
X149035000Y-120898061D01*
X148995226Y-120698102D01*
X148917205Y-120509744D01*
X148803937Y-120340226D01*
X148659774Y-120196063D01*
X148490256Y-120082795D01*
X148301898Y-120004774D01*
X148101939Y-119965000D01*
X147898061Y-119965000D01*
X147698102Y-120004774D01*
X147509744Y-120082795D01*
X147340226Y-120196063D01*
X147296289Y-120240000D01*
X140703711Y-120240000D01*
X140659774Y-120196063D01*
X140490256Y-120082795D01*
X140301898Y-120004774D01*
X140101939Y-119965000D01*
X139898061Y-119965000D01*
X139698102Y-120004774D01*
X139509744Y-120082795D01*
X139340226Y-120196063D01*
X139196063Y-120340226D01*
X139082795Y-120509744D01*
X139004774Y-120698102D01*
X138965000Y-120898061D01*
X136972863Y-120898061D01*
X128498841Y-112424040D01*
X128548472Y-112424040D01*
X128818370Y-112370354D01*
X129072607Y-112265045D01*
X129301415Y-112112160D01*
X129496000Y-111917575D01*
X129648885Y-111688767D01*
X129680880Y-111611525D01*
X129712875Y-111688767D01*
X129865760Y-111917575D01*
X130060345Y-112112160D01*
X130289153Y-112265045D01*
X130543390Y-112370354D01*
X130813288Y-112424040D01*
X131088472Y-112424040D01*
X131358370Y-112370354D01*
X131612607Y-112265045D01*
X131841415Y-112112160D01*
X132036000Y-111917575D01*
X132188885Y-111688767D01*
X132220880Y-111611525D01*
X132252875Y-111688767D01*
X132405760Y-111917575D01*
X132600345Y-112112160D01*
X132829153Y-112265045D01*
X133083390Y-112370354D01*
X133353288Y-112424040D01*
X133628472Y-112424040D01*
X133898370Y-112370354D01*
X134152607Y-112265045D01*
X134381415Y-112112160D01*
X134576000Y-111917575D01*
X134728885Y-111688767D01*
X134760880Y-111611525D01*
X134792875Y-111688767D01*
X134945760Y-111917575D01*
X135140345Y-112112160D01*
X135369153Y-112265045D01*
X135623390Y-112370354D01*
X135893288Y-112424040D01*
X136168472Y-112424040D01*
X136438370Y-112370354D01*
X136692607Y-112265045D01*
X136921415Y-112112160D01*
X137116000Y-111917575D01*
X137268885Y-111688767D01*
X137300880Y-111611525D01*
X137332875Y-111688767D01*
X137485760Y-111917575D01*
X137680345Y-112112160D01*
X137909153Y-112265045D01*
X138163390Y-112370354D01*
X138433288Y-112424040D01*
X138708472Y-112424040D01*
X138978370Y-112370354D01*
X139232607Y-112265045D01*
X139461415Y-112112160D01*
X139656000Y-111917575D01*
X139808885Y-111688767D01*
X139840880Y-111611525D01*
X139872875Y-111688767D01*
X140025760Y-111917575D01*
X140220345Y-112112160D01*
X140449153Y-112265045D01*
X140703390Y-112370354D01*
X140973288Y-112424040D01*
X141248472Y-112424040D01*
X141518370Y-112370354D01*
X141772607Y-112265045D01*
X142001415Y-112112160D01*
X142196000Y-111917575D01*
X142348885Y-111688767D01*
X142380880Y-111611525D01*
X142412875Y-111688767D01*
X142565760Y-111917575D01*
X142760345Y-112112160D01*
X142989153Y-112265045D01*
X143243390Y-112370354D01*
X143513288Y-112424040D01*
X143788472Y-112424040D01*
X144058370Y-112370354D01*
X144312607Y-112265045D01*
X144541415Y-112112160D01*
X144736000Y-111917575D01*
X144888885Y-111688767D01*
X144920880Y-111611525D01*
X144952875Y-111688767D01*
X145105760Y-111917575D01*
X145300345Y-112112160D01*
X145529153Y-112265045D01*
X145783390Y-112370354D01*
X146053288Y-112424040D01*
X146328472Y-112424040D01*
X146598370Y-112370354D01*
X146852607Y-112265045D01*
X147081415Y-112112160D01*
X147276000Y-111917575D01*
X147428885Y-111688767D01*
X147460880Y-111611525D01*
X147492875Y-111688767D01*
X147645760Y-111917575D01*
X147840345Y-112112160D01*
X148069153Y-112265045D01*
X148323390Y-112370354D01*
X148593288Y-112424040D01*
X148868472Y-112424040D01*
X149138370Y-112370354D01*
X149392607Y-112265045D01*
X149621415Y-112112160D01*
X149816000Y-111917575D01*
X149968885Y-111688767D01*
X150000880Y-111611525D01*
X150032875Y-111688767D01*
X150185760Y-111917575D01*
X150380345Y-112112160D01*
X150609153Y-112265045D01*
X150863390Y-112370354D01*
X151133288Y-112424040D01*
X151408472Y-112424040D01*
X151678370Y-112370354D01*
X151932607Y-112265045D01*
X152161415Y-112112160D01*
X152356000Y-111917575D01*
X152508885Y-111688767D01*
X152540880Y-111611525D01*
X152572875Y-111688767D01*
X152725760Y-111917575D01*
X152920345Y-112112160D01*
X153149153Y-112265045D01*
X153403390Y-112370354D01*
X153673288Y-112424040D01*
X153948472Y-112424040D01*
X154218370Y-112370354D01*
X154253880Y-112355645D01*
X154253880Y-121282409D01*
X154196063Y-121340226D01*
X154082795Y-121509744D01*
X154004774Y-121698102D01*
X153965000Y-121898061D01*
X153965000Y-122101939D01*
X154004774Y-122301898D01*
X154082795Y-122490256D01*
X154196063Y-122659774D01*
X154340226Y-122803937D01*
X154509744Y-122917205D01*
X154698102Y-122995226D01*
X154898061Y-123035000D01*
X155101939Y-123035000D01*
X155301898Y-122995226D01*
X155490256Y-122917205D01*
X155659774Y-122803937D01*
X155803937Y-122659774D01*
X155917205Y-122490256D01*
X155995226Y-122301898D01*
X156035000Y-122101939D01*
X156035000Y-121898061D01*
X156027992Y-121862828D01*
X156028160Y-121861121D01*
X156023879Y-121817652D01*
X156023879Y-112386364D01*
X156213288Y-112424040D01*
X156488472Y-112424040D01*
X156758370Y-112370354D01*
X157012607Y-112265045D01*
X157241415Y-112112160D01*
X157436000Y-111917575D01*
X157588885Y-111688767D01*
X157620880Y-111611525D01*
X157652875Y-111688767D01*
X157805760Y-111917575D01*
X158000345Y-112112160D01*
X158229153Y-112265045D01*
X158483390Y-112370354D01*
X158753288Y-112424040D01*
X159028472Y-112424040D01*
X159298370Y-112370354D01*
X159552607Y-112265045D01*
X159781415Y-112112160D01*
X159976000Y-111917575D01*
X160128885Y-111688767D01*
X160160880Y-111611525D01*
X160192875Y-111688767D01*
X160345760Y-111917575D01*
X160540345Y-112112160D01*
X160769153Y-112265045D01*
X161023390Y-112370354D01*
X161293288Y-112424040D01*
X161568472Y-112424040D01*
X161838370Y-112370354D01*
X162092607Y-112265045D01*
X162321415Y-112112160D01*
X162516000Y-111917575D01*
X162668885Y-111688767D01*
X162700880Y-111611525D01*
X162732875Y-111688767D01*
X162885760Y-111917575D01*
X163080345Y-112112160D01*
X163309153Y-112265045D01*
X163563390Y-112370354D01*
X163833288Y-112424040D01*
X164108472Y-112424040D01*
X164378370Y-112370354D01*
X164632607Y-112265045D01*
X164861415Y-112112160D01*
X165056000Y-111917575D01*
X165208885Y-111688767D01*
X165240880Y-111611525D01*
X165272875Y-111688767D01*
X165425760Y-111917575D01*
X165620345Y-112112160D01*
X165849153Y-112265045D01*
X166103390Y-112370354D01*
X166373288Y-112424040D01*
X166648472Y-112424040D01*
X166918370Y-112370354D01*
X167172607Y-112265045D01*
X167401415Y-112112160D01*
X167596000Y-111917575D01*
X167748885Y-111688767D01*
X167780880Y-111611525D01*
X167812875Y-111688767D01*
X167965760Y-111917575D01*
X168160345Y-112112160D01*
X168290881Y-112199381D01*
X168290880Y-113634318D01*
X157960199Y-123965000D01*
X157898061Y-123965000D01*
X157698102Y-124004774D01*
X157509744Y-124082795D01*
X157340226Y-124196063D01*
X157196063Y-124340226D01*
X157082795Y-124509744D01*
X157004774Y-124698102D01*
X156965000Y-124898061D01*
X156965000Y-125101939D01*
X157004774Y-125301898D01*
X157082795Y-125490256D01*
X157148115Y-125588015D01*
X157097274Y-125710755D01*
X157057500Y-125910714D01*
X157057500Y-126114592D01*
X157097274Y-126314551D01*
X157175295Y-126502909D01*
X157288563Y-126672427D01*
X157432726Y-126816590D01*
X157602244Y-126929858D01*
X157790602Y-127007879D01*
X157990561Y-127047653D01*
X158194439Y-127047653D01*
X158394398Y-127007879D01*
X158582756Y-126929858D01*
X158752274Y-126816590D01*
X158896437Y-126672427D01*
X159009705Y-126502909D01*
X159087726Y-126314551D01*
X159127500Y-126114592D01*
X159127500Y-126052454D01*
X172101884Y-113078071D01*
X172130881Y-113054274D01*
X172157212Y-113022190D01*
X172225854Y-112938550D01*
X172296426Y-112806520D01*
X172296426Y-112806519D01*
X172339883Y-112663259D01*
X172350880Y-112551606D01*
X172350880Y-112551597D01*
X172354556Y-112514274D01*
X172350880Y-112476951D01*
X172350880Y-112199381D01*
X172481415Y-112112160D01*
X172676000Y-111917575D01*
X172828885Y-111688767D01*
X172934194Y-111434530D01*
X172987880Y-111164632D01*
X172987880Y-110889448D01*
X172934194Y-110619550D01*
X172828885Y-110365313D01*
X172676000Y-110136505D01*
X172481415Y-109941920D01*
X172252607Y-109789035D01*
X171998370Y-109683726D01*
X171728472Y-109630040D01*
X171453288Y-109630040D01*
X171183390Y-109683726D01*
X170929153Y-109789035D01*
X170700345Y-109941920D01*
X170505760Y-110136505D01*
X170352875Y-110365313D01*
X170320880Y-110442555D01*
X170288885Y-110365313D01*
X170136000Y-110136505D01*
X169941415Y-109941920D01*
X169712607Y-109789035D01*
X169458370Y-109683726D01*
X169188472Y-109630040D01*
X168913288Y-109630040D01*
X168643390Y-109683726D01*
X168389153Y-109789035D01*
X168160345Y-109941920D01*
X167965760Y-110136505D01*
X167812875Y-110365313D01*
X167780880Y-110442555D01*
X167748885Y-110365313D01*
X167596000Y-110136505D01*
X167401415Y-109941920D01*
X167172607Y-109789035D01*
X166918370Y-109683726D01*
X166648472Y-109630040D01*
X166373288Y-109630040D01*
X166103390Y-109683726D01*
X165849153Y-109789035D01*
X165620345Y-109941920D01*
X165425760Y-110136505D01*
X165272875Y-110365313D01*
X165240880Y-110442555D01*
X165208885Y-110365313D01*
X165056000Y-110136505D01*
X164861415Y-109941920D01*
X164632607Y-109789035D01*
X164378370Y-109683726D01*
X164108472Y-109630040D01*
X163833288Y-109630040D01*
X163563390Y-109683726D01*
X163309153Y-109789035D01*
X163080345Y-109941920D01*
X162885760Y-110136505D01*
X162732875Y-110365313D01*
X162700880Y-110442555D01*
X162668885Y-110365313D01*
X162516000Y-110136505D01*
X162321415Y-109941920D01*
X162092607Y-109789035D01*
X161838370Y-109683726D01*
X161568472Y-109630040D01*
X161293288Y-109630040D01*
X161023390Y-109683726D01*
X160769153Y-109789035D01*
X160540345Y-109941920D01*
X160345760Y-110136505D01*
X160192875Y-110365313D01*
X160160880Y-110442555D01*
X160128885Y-110365313D01*
X159976000Y-110136505D01*
X159781415Y-109941920D01*
X159552607Y-109789035D01*
X159298370Y-109683726D01*
X159028472Y-109630040D01*
X158753288Y-109630040D01*
X158483390Y-109683726D01*
X158229153Y-109789035D01*
X158000345Y-109941920D01*
X157805760Y-110136505D01*
X157652875Y-110365313D01*
X157620880Y-110442555D01*
X157588885Y-110365313D01*
X157436000Y-110136505D01*
X157241415Y-109941920D01*
X157012607Y-109789035D01*
X156758370Y-109683726D01*
X156488472Y-109630040D01*
X156213288Y-109630040D01*
X156023879Y-109667716D01*
X156023879Y-99513072D01*
X156487500Y-99513072D01*
X156660754Y-99496008D01*
X156827350Y-99445472D01*
X156980886Y-99363405D01*
X157115462Y-99252962D01*
X157225905Y-99118386D01*
X157307972Y-98964850D01*
X157358508Y-98798254D01*
X157375572Y-98625000D01*
X157375572Y-97375000D01*
X157649428Y-97375000D01*
X157649428Y-98625000D01*
X157666492Y-98798254D01*
X157717028Y-98964850D01*
X157799095Y-99118386D01*
X157909538Y-99252962D01*
X158044114Y-99363405D01*
X158197650Y-99445472D01*
X158364246Y-99496008D01*
X158537500Y-99513072D01*
X159462500Y-99513072D01*
X159635754Y-99496008D01*
X159802350Y-99445472D01*
X159955886Y-99363405D01*
X160090462Y-99252962D01*
X160200905Y-99118386D01*
X160282972Y-98964850D01*
X160333508Y-98798254D01*
X160337276Y-98760000D01*
X160404345Y-98760000D01*
X160539465Y-98895120D01*
X160768273Y-99048005D01*
X161022510Y-99153314D01*
X161292408Y-99207000D01*
X161567592Y-99207000D01*
X161837490Y-99153314D01*
X162091727Y-99048005D01*
X162320535Y-98895120D01*
X162455655Y-98760000D01*
X162662724Y-98760000D01*
X162666492Y-98798254D01*
X162717028Y-98964850D01*
X162799095Y-99118386D01*
X162909538Y-99252962D01*
X163044114Y-99363405D01*
X163197650Y-99445472D01*
X163364246Y-99496008D01*
X163537500Y-99513072D01*
X164462500Y-99513072D01*
X164635754Y-99496008D01*
X164802350Y-99445472D01*
X164955886Y-99363405D01*
X165090462Y-99252962D01*
X165200905Y-99118386D01*
X165282972Y-98964850D01*
X165310227Y-98875000D01*
X165624428Y-98875000D01*
X165636688Y-98999482D01*
X165672998Y-99119180D01*
X165731963Y-99229494D01*
X165811315Y-99326185D01*
X165908006Y-99405537D01*
X166018320Y-99464502D01*
X166138018Y-99500812D01*
X166262500Y-99513072D01*
X166689250Y-99510000D01*
X166848000Y-99351250D01*
X166848000Y-98127000D01*
X167102000Y-98127000D01*
X167102000Y-99351250D01*
X167260750Y-99510000D01*
X167687500Y-99513072D01*
X167811982Y-99500812D01*
X167931680Y-99464502D01*
X168041994Y-99405537D01*
X168138685Y-99326185D01*
X168218037Y-99229494D01*
X168277002Y-99119180D01*
X168313312Y-98999482D01*
X168325572Y-98875000D01*
X168322500Y-98285750D01*
X168163750Y-98127000D01*
X167102000Y-98127000D01*
X166848000Y-98127000D01*
X165786250Y-98127000D01*
X165627500Y-98285750D01*
X165624428Y-98875000D01*
X165310227Y-98875000D01*
X165333508Y-98798254D01*
X165350572Y-98625000D01*
X165350572Y-97375000D01*
X165333508Y-97201746D01*
X165310228Y-97125000D01*
X165624428Y-97125000D01*
X165627500Y-97714250D01*
X165786250Y-97873000D01*
X166848000Y-97873000D01*
X166848000Y-96648750D01*
X167102000Y-96648750D01*
X167102000Y-97873000D01*
X168163750Y-97873000D01*
X168322500Y-97714250D01*
X168325572Y-97125000D01*
X168313312Y-97000518D01*
X168277002Y-96880820D01*
X168218037Y-96770506D01*
X168138685Y-96673815D01*
X168041994Y-96594463D01*
X167931680Y-96535498D01*
X167811982Y-96499188D01*
X167687500Y-96486928D01*
X167260750Y-96490000D01*
X167102000Y-96648750D01*
X166848000Y-96648750D01*
X166689250Y-96490000D01*
X166262500Y-96486928D01*
X166138018Y-96499188D01*
X166018320Y-96535498D01*
X165908006Y-96594463D01*
X165811315Y-96673815D01*
X165731963Y-96770506D01*
X165672998Y-96880820D01*
X165636688Y-97000518D01*
X165624428Y-97125000D01*
X165310228Y-97125000D01*
X165282972Y-97035150D01*
X165200905Y-96881614D01*
X165090462Y-96747038D01*
X164955886Y-96636595D01*
X164802350Y-96554528D01*
X164635754Y-96503992D01*
X164462500Y-96486928D01*
X163537500Y-96486928D01*
X163364246Y-96503992D01*
X163197650Y-96554528D01*
X163044114Y-96636595D01*
X162909538Y-96747038D01*
X162799095Y-96881614D01*
X162717028Y-97035150D01*
X162676495Y-97168770D01*
X162668005Y-97148273D01*
X162515120Y-96919465D01*
X162320535Y-96724880D01*
X162091727Y-96571995D01*
X161837490Y-96466686D01*
X161567592Y-96413000D01*
X161292408Y-96413000D01*
X161022510Y-96466686D01*
X160768273Y-96571995D01*
X160539465Y-96724880D01*
X160344880Y-96919465D01*
X160276132Y-97022353D01*
X160200905Y-96881614D01*
X160090462Y-96747038D01*
X159955886Y-96636595D01*
X159802350Y-96554528D01*
X159635754Y-96503992D01*
X159462500Y-96486928D01*
X158537500Y-96486928D01*
X158364246Y-96503992D01*
X158197650Y-96554528D01*
X158044114Y-96636595D01*
X157909538Y-96747038D01*
X157799095Y-96881614D01*
X157717028Y-97035150D01*
X157666492Y-97201746D01*
X157649428Y-97375000D01*
X157375572Y-97375000D01*
X157358508Y-97201746D01*
X157307972Y-97035150D01*
X157225905Y-96881614D01*
X157115462Y-96747038D01*
X156980886Y-96636595D01*
X156910000Y-96598706D01*
X156910000Y-94018476D01*
X156914282Y-93975000D01*
X156910000Y-93931523D01*
X156910000Y-91401294D01*
X156980886Y-91363405D01*
X157115462Y-91252962D01*
X157225905Y-91118386D01*
X157307972Y-90964850D01*
X157358508Y-90798254D01*
X157375572Y-90625000D01*
X157375572Y-89375000D01*
X157649428Y-89375000D01*
X157649428Y-90625000D01*
X157666492Y-90798254D01*
X157717028Y-90964850D01*
X157799095Y-91118386D01*
X157909538Y-91252962D01*
X158044114Y-91363405D01*
X158197650Y-91445472D01*
X158364246Y-91496008D01*
X158537500Y-91513072D01*
X159462500Y-91513072D01*
X159635754Y-91496008D01*
X159802350Y-91445472D01*
X159955886Y-91363405D01*
X160090462Y-91252962D01*
X160200905Y-91118386D01*
X160276132Y-90977647D01*
X160344880Y-91080535D01*
X160539465Y-91275120D01*
X160768273Y-91428005D01*
X161022510Y-91533314D01*
X161292408Y-91587000D01*
X161567592Y-91587000D01*
X161837490Y-91533314D01*
X162091727Y-91428005D01*
X162320535Y-91275120D01*
X162515120Y-91080535D01*
X162668005Y-90851727D01*
X162676495Y-90831230D01*
X162717028Y-90964850D01*
X162799095Y-91118386D01*
X162909538Y-91252962D01*
X163044114Y-91363405D01*
X163197650Y-91445472D01*
X163364246Y-91496008D01*
X163537500Y-91513072D01*
X164462500Y-91513072D01*
X164635754Y-91496008D01*
X164802350Y-91445472D01*
X164955886Y-91363405D01*
X165090462Y-91252962D01*
X165200905Y-91118386D01*
X165282972Y-90964850D01*
X165310227Y-90875000D01*
X165624428Y-90875000D01*
X165636688Y-90999482D01*
X165672998Y-91119180D01*
X165731963Y-91229494D01*
X165811315Y-91326185D01*
X165908006Y-91405537D01*
X166018320Y-91464502D01*
X166138018Y-91500812D01*
X166262500Y-91513072D01*
X166689250Y-91510000D01*
X166848000Y-91351250D01*
X166848000Y-90127000D01*
X167102000Y-90127000D01*
X167102000Y-91351250D01*
X167260750Y-91510000D01*
X167687500Y-91513072D01*
X167811982Y-91500812D01*
X167931680Y-91464502D01*
X168041994Y-91405537D01*
X168138685Y-91326185D01*
X168218037Y-91229494D01*
X168277002Y-91119180D01*
X168313312Y-90999482D01*
X168325572Y-90875000D01*
X168322500Y-90285750D01*
X168163750Y-90127000D01*
X167102000Y-90127000D01*
X166848000Y-90127000D01*
X165786250Y-90127000D01*
X165627500Y-90285750D01*
X165624428Y-90875000D01*
X165310227Y-90875000D01*
X165333508Y-90798254D01*
X165350572Y-90625000D01*
X165350572Y-89375000D01*
X165333508Y-89201746D01*
X165310228Y-89125000D01*
X165624428Y-89125000D01*
X165627500Y-89714250D01*
X165786250Y-89873000D01*
X166848000Y-89873000D01*
X166848000Y-88648750D01*
X167102000Y-88648750D01*
X167102000Y-89873000D01*
X168163750Y-89873000D01*
X168322500Y-89714250D01*
X168325572Y-89125000D01*
X168313312Y-89000518D01*
X168277002Y-88880820D01*
X168218037Y-88770506D01*
X168138685Y-88673815D01*
X168041994Y-88594463D01*
X167931680Y-88535498D01*
X167811982Y-88499188D01*
X167687500Y-88486928D01*
X167260750Y-88490000D01*
X167102000Y-88648750D01*
X166848000Y-88648750D01*
X166689250Y-88490000D01*
X166262500Y-88486928D01*
X166138018Y-88499188D01*
X166018320Y-88535498D01*
X165908006Y-88594463D01*
X165811315Y-88673815D01*
X165731963Y-88770506D01*
X165672998Y-88880820D01*
X165636688Y-89000518D01*
X165624428Y-89125000D01*
X165310228Y-89125000D01*
X165282972Y-89035150D01*
X165200905Y-88881614D01*
X165090462Y-88747038D01*
X164955886Y-88636595D01*
X164802350Y-88554528D01*
X164635754Y-88503992D01*
X164462500Y-88486928D01*
X163537500Y-88486928D01*
X163364246Y-88503992D01*
X163197650Y-88554528D01*
X163044114Y-88636595D01*
X162909538Y-88747038D01*
X162799095Y-88881614D01*
X162717028Y-89035150D01*
X162666492Y-89201746D01*
X162662724Y-89240000D01*
X162455655Y-89240000D01*
X162320535Y-89104880D01*
X162091727Y-88951995D01*
X161837490Y-88846686D01*
X161567592Y-88793000D01*
X161292408Y-88793000D01*
X161022510Y-88846686D01*
X160768273Y-88951995D01*
X160539465Y-89104880D01*
X160404345Y-89240000D01*
X160337276Y-89240000D01*
X160333508Y-89201746D01*
X160282972Y-89035150D01*
X160200905Y-88881614D01*
X160090462Y-88747038D01*
X159955886Y-88636595D01*
X159802350Y-88554528D01*
X159635754Y-88503992D01*
X159462500Y-88486928D01*
X158537500Y-88486928D01*
X158364246Y-88503992D01*
X158197650Y-88554528D01*
X158044114Y-88636595D01*
X157909538Y-88747038D01*
X157799095Y-88881614D01*
X157717028Y-89035150D01*
X157666492Y-89201746D01*
X157649428Y-89375000D01*
X157375572Y-89375000D01*
X157358508Y-89201746D01*
X157307972Y-89035150D01*
X157225905Y-88881614D01*
X157115462Y-88747038D01*
X156980886Y-88636595D01*
X156910000Y-88598706D01*
X156910000Y-84107081D01*
X157237042Y-84107081D01*
X157105258Y-84425236D01*
X157029534Y-84805926D01*
X157029534Y-85194074D01*
X157105258Y-85574764D01*
X157253796Y-85933366D01*
X157469439Y-86256099D01*
X157743901Y-86530561D01*
X158066634Y-86746204D01*
X158425236Y-86894742D01*
X158805926Y-86970466D01*
X159194074Y-86970466D01*
X159574764Y-86894742D01*
X159933366Y-86746204D01*
X160256099Y-86530561D01*
X160530561Y-86256099D01*
X160746204Y-85933366D01*
X160894742Y-85574764D01*
X160970466Y-85194074D01*
X160970466Y-84805926D01*
X160894742Y-84425236D01*
X160762958Y-84107081D01*
X169269452Y-84107081D01*
X169312921Y-84111362D01*
X169356390Y-84107081D01*
X169356398Y-84107081D01*
X169486411Y-84094276D01*
X169653234Y-84043670D01*
X169806980Y-83961492D01*
X169941738Y-83850898D01*
X169969455Y-83817125D01*
X170570050Y-83216531D01*
X170603818Y-83188818D01*
X170714412Y-83054060D01*
X170727521Y-83029534D01*
X170796590Y-82900315D01*
X170847196Y-82733491D01*
X170852489Y-82679751D01*
X170860001Y-82603478D01*
X170860001Y-82603470D01*
X170864282Y-82560001D01*
X170860001Y-82516532D01*
X170860001Y-82490021D01*
X170894463Y-82554494D01*
X170973815Y-82651185D01*
X171070506Y-82730537D01*
X171180820Y-82789502D01*
X171300518Y-82825812D01*
X171425000Y-82838072D01*
X172714250Y-82835000D01*
X172873000Y-82676250D01*
X172873000Y-81827000D01*
X173127000Y-81827000D01*
X173127000Y-82676250D01*
X173285750Y-82835000D01*
X174575000Y-82838072D01*
X174699482Y-82825812D01*
X174819180Y-82789502D01*
X174929494Y-82730537D01*
X175026185Y-82651185D01*
X175105537Y-82554494D01*
X175164502Y-82444180D01*
X175200812Y-82324482D01*
X175213072Y-82200000D01*
X175210000Y-81985750D01*
X175051250Y-81827000D01*
X173127000Y-81827000D01*
X172873000Y-81827000D01*
X172853000Y-81827000D01*
X172853000Y-81573000D01*
X172873000Y-81573000D01*
X172873000Y-80723750D01*
X173127000Y-80723750D01*
X173127000Y-81573000D01*
X175051250Y-81573000D01*
X175210000Y-81414250D01*
X175213072Y-81200000D01*
X175200812Y-81075518D01*
X175164502Y-80955820D01*
X175105537Y-80845506D01*
X175026185Y-80748815D01*
X174929494Y-80669463D01*
X174819180Y-80610498D01*
X174699482Y-80574188D01*
X174575000Y-80561928D01*
X173285750Y-80565000D01*
X173127000Y-80723750D01*
X172873000Y-80723750D01*
X172714250Y-80565000D01*
X171425000Y-80561928D01*
X171300518Y-80574188D01*
X171180820Y-80610498D01*
X171070506Y-80669463D01*
X170973815Y-80748815D01*
X170894463Y-80845506D01*
X170860001Y-80909979D01*
X170860001Y-80476577D01*
X171119730Y-80216848D01*
X171180820Y-80249502D01*
X171300518Y-80285812D01*
X171425000Y-80298072D01*
X174575000Y-80298072D01*
X174699482Y-80285812D01*
X174713953Y-80281422D01*
X181550738Y-80281422D01*
X181550738Y-80718578D01*
X181636023Y-81147335D01*
X181803316Y-81551215D01*
X182046187Y-81914697D01*
X182355303Y-82223813D01*
X182718785Y-82466684D01*
X183122665Y-82633977D01*
X183551422Y-82719262D01*
X183988578Y-82719262D01*
X184417335Y-82633977D01*
X184821215Y-82466684D01*
X185184697Y-82223813D01*
X185493813Y-81914697D01*
X185736684Y-81551215D01*
X185903977Y-81147335D01*
X185989262Y-80718578D01*
X185989262Y-80281422D01*
X185903977Y-79852665D01*
X185736684Y-79448785D01*
X185493813Y-79085303D01*
X185184697Y-78776187D01*
X184821215Y-78533316D01*
X184417335Y-78366023D01*
X183988578Y-78280738D01*
X183551422Y-78280738D01*
X183122665Y-78366023D01*
X182718785Y-78533316D01*
X182355303Y-78776187D01*
X182046187Y-79085303D01*
X181803316Y-79448785D01*
X181636023Y-79852665D01*
X181550738Y-80281422D01*
X174713953Y-80281422D01*
X174819180Y-80249502D01*
X174929494Y-80190537D01*
X175026185Y-80111185D01*
X175105537Y-80014494D01*
X175164502Y-79904180D01*
X175200812Y-79784482D01*
X175213072Y-79660000D01*
X175213072Y-78660000D01*
X175200812Y-78535518D01*
X175164502Y-78415820D01*
X175105537Y-78305506D01*
X175026185Y-78208815D01*
X174929494Y-78129463D01*
X174819180Y-78070498D01*
X174699482Y-78034188D01*
X174575000Y-78021928D01*
X171773507Y-78021928D01*
X171509650Y-77758072D01*
X174575000Y-77758072D01*
X174699482Y-77745812D01*
X174819180Y-77709502D01*
X174929494Y-77650537D01*
X175026185Y-77571185D01*
X175105537Y-77474494D01*
X175164502Y-77364180D01*
X175200812Y-77244482D01*
X175213072Y-77120000D01*
X175213072Y-76120000D01*
X175200812Y-75995518D01*
X175164502Y-75875820D01*
X175105537Y-75765506D01*
X175026185Y-75668815D01*
X174929494Y-75589463D01*
X174819180Y-75530498D01*
X174699482Y-75494188D01*
X174575000Y-75481928D01*
X171425000Y-75481928D01*
X171300518Y-75494188D01*
X171180820Y-75530498D01*
X171167447Y-75537646D01*
X170610001Y-74980200D01*
X170610001Y-74589803D01*
X170611201Y-74591003D01*
X170634999Y-74620001D01*
X170750724Y-74714974D01*
X170812366Y-74747923D01*
X170835498Y-74824180D01*
X170894463Y-74934494D01*
X170973815Y-75031185D01*
X171070506Y-75110537D01*
X171180820Y-75169502D01*
X171300518Y-75205812D01*
X171425000Y-75218072D01*
X174575000Y-75218072D01*
X174699482Y-75205812D01*
X174819180Y-75169502D01*
X174929494Y-75110537D01*
X175026185Y-75031185D01*
X175105537Y-74934494D01*
X175164502Y-74824180D01*
X175200812Y-74704482D01*
X175213072Y-74580000D01*
X175213072Y-73580000D01*
X175200812Y-73455518D01*
X175164502Y-73335820D01*
X175105537Y-73225506D01*
X175026185Y-73128815D01*
X174929494Y-73049463D01*
X174819180Y-72990498D01*
X174699482Y-72954188D01*
X174575000Y-72941928D01*
X171425000Y-72941928D01*
X171300518Y-72954188D01*
X171180820Y-72990498D01*
X171167447Y-72997646D01*
X171060011Y-72890210D01*
X171060011Y-72561924D01*
X171070506Y-72570537D01*
X171180820Y-72629502D01*
X171300518Y-72665812D01*
X171425000Y-72678072D01*
X174575000Y-72678072D01*
X174699482Y-72665812D01*
X174819180Y-72629502D01*
X174929494Y-72570537D01*
X175026185Y-72491185D01*
X175105537Y-72394494D01*
X175164502Y-72284180D01*
X175200812Y-72164482D01*
X175213072Y-72040000D01*
X175213072Y-71040000D01*
X175200812Y-70915518D01*
X175164502Y-70795820D01*
X175105537Y-70685506D01*
X175026185Y-70588815D01*
X174929494Y-70509463D01*
X174819180Y-70450498D01*
X174699482Y-70414188D01*
X174575000Y-70401928D01*
X172936730Y-70401928D01*
X172672874Y-70138072D01*
X174575000Y-70138072D01*
X174699482Y-70125812D01*
X174819180Y-70089502D01*
X174929494Y-70030537D01*
X175026185Y-69951185D01*
X175105537Y-69854494D01*
X175164502Y-69744180D01*
X175200812Y-69624482D01*
X175213072Y-69500000D01*
X175213072Y-68500000D01*
X175200812Y-68375518D01*
X175164502Y-68255820D01*
X175105537Y-68145506D01*
X175026185Y-68048815D01*
X174929494Y-67969463D01*
X174819180Y-67910498D01*
X174699482Y-67874188D01*
X174575000Y-67861928D01*
X172455962Y-67861928D01*
X166955745Y-62361712D01*
X167257583Y-62489469D01*
X169534033Y-63623006D01*
X171736384Y-64894534D01*
X173856281Y-66299229D01*
X175885684Y-67831763D01*
X177816893Y-69486322D01*
X179642583Y-71256629D01*
X181355829Y-73135970D01*
X182950131Y-75117216D01*
X184419442Y-77192850D01*
X185758189Y-79355000D01*
X186961292Y-81595463D01*
X188024189Y-83905741D01*
X188942847Y-86277070D01*
X189713781Y-88700455D01*
X190334067Y-91166703D01*
X190801352Y-93666459D01*
X191113864Y-96190239D01*
X191270417Y-98728472D01*
X191270417Y-101271528D01*
X191113864Y-103809761D01*
X190801352Y-106333541D01*
X190334067Y-108833297D01*
X189713781Y-111299545D01*
X188942847Y-113722930D01*
X188024189Y-116094259D01*
X186961292Y-118404537D01*
X185758189Y-120645000D01*
X184419442Y-122807150D01*
X182950131Y-124882784D01*
X181355829Y-126864030D01*
X179642583Y-128743371D01*
X177816893Y-130513678D01*
X175885684Y-132168237D01*
X173856281Y-133700771D01*
X172842950Y-134372229D01*
X172828885Y-134338273D01*
X172676000Y-134109465D01*
X172481415Y-133914880D01*
X172252607Y-133761995D01*
X171998370Y-133656686D01*
X171728472Y-133603000D01*
X171453288Y-133603000D01*
X171183390Y-133656686D01*
X170929153Y-133761995D01*
X170700345Y-133914880D01*
X170505760Y-134109465D01*
X170352875Y-134338273D01*
X170320880Y-134415515D01*
X170288885Y-134338273D01*
X170136000Y-134109465D01*
X169941415Y-133914880D01*
X169712607Y-133761995D01*
X169458370Y-133656686D01*
X169188472Y-133603000D01*
X168913288Y-133603000D01*
X168643390Y-133656686D01*
X168389153Y-133761995D01*
X168160345Y-133914880D01*
X167965760Y-134109465D01*
X167812875Y-134338273D01*
X167780880Y-134415515D01*
X167748885Y-134338273D01*
X167596000Y-134109465D01*
X167401415Y-133914880D01*
X167172607Y-133761995D01*
X166918370Y-133656686D01*
X166648472Y-133603000D01*
X166373288Y-133603000D01*
X166103390Y-133656686D01*
X165849153Y-133761995D01*
X165620345Y-133914880D01*
X165425760Y-134109465D01*
X165272875Y-134338273D01*
X165240880Y-134415515D01*
X165208885Y-134338273D01*
X165056000Y-134109465D01*
X164861415Y-133914880D01*
X164632607Y-133761995D01*
X164378370Y-133656686D01*
X164108472Y-133603000D01*
X163833288Y-133603000D01*
X163563390Y-133656686D01*
X163309153Y-133761995D01*
X163080345Y-133914880D01*
X162885760Y-134109465D01*
X162732875Y-134338273D01*
X162700880Y-134415515D01*
X162668885Y-134338273D01*
X162516000Y-134109465D01*
X162321415Y-133914880D01*
X162092607Y-133761995D01*
X161838370Y-133656686D01*
X161568472Y-133603000D01*
X161293288Y-133603000D01*
X161023390Y-133656686D01*
X160769153Y-133761995D01*
X160540345Y-133914880D01*
X160345760Y-134109465D01*
X160192875Y-134338273D01*
X160160880Y-134415515D01*
X160128885Y-134338273D01*
X159976000Y-134109465D01*
X159781415Y-133914880D01*
X159552607Y-133761995D01*
X159298370Y-133656686D01*
X159028472Y-133603000D01*
X158753288Y-133603000D01*
X158483390Y-133656686D01*
X158229153Y-133761995D01*
X158000345Y-133914880D01*
X157805760Y-134109465D01*
X157652875Y-134338273D01*
X157620880Y-134415515D01*
X157588885Y-134338273D01*
X157436000Y-134109465D01*
X157241415Y-133914880D01*
X157012607Y-133761995D01*
X156758370Y-133656686D01*
X156488472Y-133603000D01*
X156213288Y-133603000D01*
X155943390Y-133656686D01*
X155689153Y-133761995D01*
X155460345Y-133914880D01*
X155265760Y-134109465D01*
X155112875Y-134338273D01*
X155080880Y-134415515D01*
X155048885Y-134338273D01*
X154896000Y-134109465D01*
X154701415Y-133914880D01*
X154472607Y-133761995D01*
X154218370Y-133656686D01*
X153948472Y-133603000D01*
X153673288Y-133603000D01*
X153403390Y-133656686D01*
X153149153Y-133761995D01*
X152920345Y-133914880D01*
X152725760Y-134109465D01*
X152572875Y-134338273D01*
X152540880Y-134415515D01*
X152508885Y-134338273D01*
X152356000Y-134109465D01*
X152161415Y-133914880D01*
X151932607Y-133761995D01*
X151678370Y-133656686D01*
X151408472Y-133603000D01*
X151133288Y-133603000D01*
X150863390Y-133656686D01*
X150609153Y-133761995D01*
X150380345Y-133914880D01*
X150185760Y-134109465D01*
X150032875Y-134338273D01*
X150000880Y-134415515D01*
X149968885Y-134338273D01*
X149816000Y-134109465D01*
X149621415Y-133914880D01*
X149392607Y-133761995D01*
X149138370Y-133656686D01*
X148868472Y-133603000D01*
X148593288Y-133603000D01*
X148323390Y-133656686D01*
X148069153Y-133761995D01*
X147840345Y-133914880D01*
X147645760Y-134109465D01*
X147492875Y-134338273D01*
X147460880Y-134415515D01*
X147428885Y-134338273D01*
X147276000Y-134109465D01*
X147081415Y-133914880D01*
X146852607Y-133761995D01*
X146598370Y-133656686D01*
X146328472Y-133603000D01*
X146053288Y-133603000D01*
X145783390Y-133656686D01*
X145529153Y-133761995D01*
X145300345Y-133914880D01*
X145105760Y-134109465D01*
X144952875Y-134338273D01*
X144920880Y-134415515D01*
X144888885Y-134338273D01*
X144736000Y-134109465D01*
X144541415Y-133914880D01*
X144312607Y-133761995D01*
X144058370Y-133656686D01*
X143788472Y-133603000D01*
X143513288Y-133603000D01*
X143243390Y-133656686D01*
X142989153Y-133761995D01*
X142760345Y-133914880D01*
X142565760Y-134109465D01*
X142412875Y-134338273D01*
X142380880Y-134415515D01*
X142348885Y-134338273D01*
X142196000Y-134109465D01*
X142001415Y-133914880D01*
X141772607Y-133761995D01*
X141518370Y-133656686D01*
X141248472Y-133603000D01*
X140973288Y-133603000D01*
X140703390Y-133656686D01*
X140449153Y-133761995D01*
X140220345Y-133914880D01*
X140025760Y-134109465D01*
X139872875Y-134338273D01*
X139840880Y-134415515D01*
X139808885Y-134338273D01*
X139656000Y-134109465D01*
X139461415Y-133914880D01*
X139232607Y-133761995D01*
X138978370Y-133656686D01*
X138708472Y-133603000D01*
X138433288Y-133603000D01*
X138163390Y-133656686D01*
X137909153Y-133761995D01*
X137680345Y-133914880D01*
X137485760Y-134109465D01*
X137332875Y-134338273D01*
X137300880Y-134415515D01*
X137268885Y-134338273D01*
X137116000Y-134109465D01*
X136921415Y-133914880D01*
X136692607Y-133761995D01*
X136438370Y-133656686D01*
X136168472Y-133603000D01*
X135893288Y-133603000D01*
X135623390Y-133656686D01*
X135369153Y-133761995D01*
X135140345Y-133914880D01*
X134945760Y-134109465D01*
X134792875Y-134338273D01*
X134760880Y-134415515D01*
X134728885Y-134338273D01*
X134576000Y-134109465D01*
X134381415Y-133914880D01*
X134152607Y-133761995D01*
X133898370Y-133656686D01*
X133628472Y-133603000D01*
X133353288Y-133603000D01*
X133083390Y-133656686D01*
X132829153Y-133761995D01*
X132600345Y-133914880D01*
X132405760Y-134109465D01*
X132252875Y-134338273D01*
X132220880Y-134415515D01*
X132188885Y-134338273D01*
X132036000Y-134109465D01*
X131841415Y-133914880D01*
X131612607Y-133761995D01*
X131358370Y-133656686D01*
X131088472Y-133603000D01*
X130813288Y-133603000D01*
X130543390Y-133656686D01*
X130289153Y-133761995D01*
X130060345Y-133914880D01*
X129865760Y-134109465D01*
X129712875Y-134338273D01*
X129680880Y-134415515D01*
X129648885Y-134338273D01*
X129496000Y-134109465D01*
X129301415Y-133914880D01*
X129072607Y-133761995D01*
X128818370Y-133656686D01*
X128548472Y-133603000D01*
X128273288Y-133603000D01*
X128003390Y-133656686D01*
X127749153Y-133761995D01*
X127520345Y-133914880D01*
X127325760Y-134109465D01*
X127172875Y-134338273D01*
X127158431Y-134373144D01*
X126143719Y-133700771D01*
X124114316Y-132168237D01*
X122183107Y-130513678D01*
X120357417Y-128743371D01*
X118644171Y-126864030D01*
X117049869Y-124882784D01*
X115580558Y-122807150D01*
X114241811Y-120645000D01*
X113038708Y-118404537D01*
X111975811Y-116094259D01*
X111057153Y-113722930D01*
X110784142Y-112864736D01*
X117626645Y-112864736D01*
X117626645Y-113135264D01*
X117679422Y-113400593D01*
X117782949Y-113650527D01*
X117933246Y-113875463D01*
X118124537Y-114066754D01*
X118349473Y-114217051D01*
X118599407Y-114320578D01*
X118864736Y-114373355D01*
X119135264Y-114373355D01*
X119400593Y-114320578D01*
X119650527Y-114217051D01*
X119875463Y-114066754D01*
X120066754Y-113875463D01*
X120217051Y-113650527D01*
X120320578Y-113400593D01*
X120373355Y-113135264D01*
X120373355Y-112864736D01*
X120320578Y-112599407D01*
X120217051Y-112349473D01*
X120066754Y-112124537D01*
X119875463Y-111933246D01*
X119650527Y-111782949D01*
X119400593Y-111679422D01*
X119135264Y-111626645D01*
X118864736Y-111626645D01*
X118599407Y-111679422D01*
X118349473Y-111782949D01*
X118124537Y-111933246D01*
X117933246Y-112124537D01*
X117782949Y-112349473D01*
X117679422Y-112599407D01*
X117626645Y-112864736D01*
X110784142Y-112864736D01*
X110286219Y-111299545D01*
X109665933Y-108833297D01*
X109198648Y-106333541D01*
X108886136Y-103809761D01*
X108729583Y-101271528D01*
X108729583Y-98728472D01*
X108826939Y-97150000D01*
X114511928Y-97150000D01*
X114511928Y-98850000D01*
X114524188Y-98974482D01*
X114560498Y-99094180D01*
X114619463Y-99204494D01*
X114698815Y-99301185D01*
X114795506Y-99380537D01*
X114905820Y-99439502D01*
X114978380Y-99461513D01*
X114846525Y-99593368D01*
X114684010Y-99836589D01*
X114572068Y-100106842D01*
X114515000Y-100393740D01*
X114515000Y-100686260D01*
X114572068Y-100973158D01*
X114684010Y-101243411D01*
X114846525Y-101486632D01*
X115053368Y-101693475D01*
X115227760Y-101810000D01*
X115053368Y-101926525D01*
X114846525Y-102133368D01*
X114684010Y-102376589D01*
X114572068Y-102646842D01*
X114515000Y-102933740D01*
X114515000Y-103226260D01*
X114572068Y-103513158D01*
X114684010Y-103783411D01*
X114846525Y-104026632D01*
X115053368Y-104233475D01*
X115296589Y-104395990D01*
X115566842Y-104507932D01*
X115853740Y-104565000D01*
X116146260Y-104565000D01*
X116433158Y-104507932D01*
X116703411Y-104395990D01*
X116946632Y-104233475D01*
X117153475Y-104026632D01*
X117271100Y-103850594D01*
X117442412Y-104080269D01*
X117658645Y-104275178D01*
X117908748Y-104424157D01*
X118183109Y-104521481D01*
X118413000Y-104400814D01*
X118413000Y-103207000D01*
X118667000Y-103207000D01*
X118667000Y-104400814D01*
X118896891Y-104521481D01*
X119171252Y-104424157D01*
X119421355Y-104275178D01*
X119637588Y-104080269D01*
X119811641Y-103846920D01*
X119936825Y-103584099D01*
X119981476Y-103436890D01*
X119860155Y-103207000D01*
X118667000Y-103207000D01*
X118413000Y-103207000D01*
X118393000Y-103207000D01*
X118393000Y-102953000D01*
X118413000Y-102953000D01*
X118413000Y-102933000D01*
X118667000Y-102933000D01*
X118667000Y-102953000D01*
X119860155Y-102953000D01*
X119981476Y-102723110D01*
X119936825Y-102575901D01*
X119811641Y-102313080D01*
X119637588Y-102079731D01*
X119421355Y-101884822D01*
X119304466Y-101815195D01*
X119486632Y-101693475D01*
X119693475Y-101486632D01*
X119855990Y-101243411D01*
X119967932Y-100973158D01*
X120025000Y-100686260D01*
X120025000Y-100393740D01*
X119967932Y-100106842D01*
X119855990Y-99836589D01*
X119693475Y-99593368D01*
X119486632Y-99386525D01*
X119312240Y-99270000D01*
X119486632Y-99153475D01*
X119693475Y-98946632D01*
X119855990Y-98703411D01*
X119967932Y-98433158D01*
X120025000Y-98146260D01*
X120025000Y-97853740D01*
X119967932Y-97566842D01*
X119855990Y-97296589D01*
X119693475Y-97053368D01*
X119486632Y-96846525D01*
X119243411Y-96684010D01*
X118973158Y-96572068D01*
X118686260Y-96515000D01*
X118393740Y-96515000D01*
X118106842Y-96572068D01*
X117836589Y-96684010D01*
X117593368Y-96846525D01*
X117461513Y-96978380D01*
X117439502Y-96905820D01*
X117380537Y-96795506D01*
X117301185Y-96698815D01*
X117204494Y-96619463D01*
X117094180Y-96560498D01*
X116974482Y-96524188D01*
X116850000Y-96511928D01*
X115150000Y-96511928D01*
X115025518Y-96524188D01*
X114905820Y-96560498D01*
X114795506Y-96619463D01*
X114698815Y-96698815D01*
X114619463Y-96795506D01*
X114560498Y-96905820D01*
X114524188Y-97025518D01*
X114511928Y-97150000D01*
X108826939Y-97150000D01*
X108886136Y-96190239D01*
X109198648Y-93666459D01*
X109665933Y-91166703D01*
X110286219Y-88700455D01*
X111057153Y-86277070D01*
X111975811Y-83905741D01*
X113038708Y-81595463D01*
X113744332Y-80281422D01*
X114000738Y-80281422D01*
X114000738Y-80718578D01*
X114086023Y-81147335D01*
X114253316Y-81551215D01*
X114496187Y-81914697D01*
X114805303Y-82223813D01*
X115168785Y-82466684D01*
X115572665Y-82633977D01*
X116001422Y-82719262D01*
X116438578Y-82719262D01*
X116867335Y-82633977D01*
X117271215Y-82466684D01*
X117634697Y-82223813D01*
X117943813Y-81914697D01*
X118186684Y-81551215D01*
X118353977Y-81147335D01*
X118439262Y-80718578D01*
X118439262Y-80281422D01*
X118353977Y-79852665D01*
X118186684Y-79448785D01*
X117943813Y-79085303D01*
X117634697Y-78776187D01*
X117271215Y-78533316D01*
X116867335Y-78366023D01*
X116438578Y-78280738D01*
X116001422Y-78280738D01*
X115572665Y-78366023D01*
X115168785Y-78533316D01*
X114805303Y-78776187D01*
X114496187Y-79085303D01*
X114253316Y-79448785D01*
X114086023Y-79852665D01*
X114000738Y-80281422D01*
X113744332Y-80281422D01*
X114241811Y-79355000D01*
X115580558Y-77192850D01*
X117049869Y-75117216D01*
X118644171Y-73135970D01*
X120357417Y-71256629D01*
X120370864Y-71243589D01*
X133615000Y-71243589D01*
X133615000Y-71516411D01*
X133668225Y-71783989D01*
X133772629Y-72036043D01*
X133924201Y-72262886D01*
X134117114Y-72455799D01*
X134343957Y-72607371D01*
X134596011Y-72711775D01*
X134863589Y-72765000D01*
X135136411Y-72765000D01*
X135403989Y-72711775D01*
X135656043Y-72607371D01*
X135882886Y-72455799D01*
X136075799Y-72262886D01*
X136227371Y-72036043D01*
X136331775Y-71783989D01*
X136385000Y-71516411D01*
X136385000Y-71243589D01*
X136331775Y-70976011D01*
X136227371Y-70723957D01*
X136075799Y-70497114D01*
X135882886Y-70304201D01*
X135656043Y-70152629D01*
X135403989Y-70048225D01*
X135136411Y-69995000D01*
X134863589Y-69995000D01*
X134596011Y-70048225D01*
X134343957Y-70152629D01*
X134117114Y-70304201D01*
X133924201Y-70497114D01*
X133772629Y-70723957D01*
X133668225Y-70976011D01*
X133615000Y-71243589D01*
X120370864Y-71243589D01*
X122183107Y-69486322D01*
X124114316Y-67831763D01*
X126058492Y-66363589D01*
X133615000Y-66363589D01*
X133615000Y-66636411D01*
X133668225Y-66903989D01*
X133772629Y-67156043D01*
X133924201Y-67382886D01*
X134117114Y-67575799D01*
X134343957Y-67727371D01*
X134596011Y-67831775D01*
X134863589Y-67885000D01*
X135136411Y-67885000D01*
X135403989Y-67831775D01*
X135656043Y-67727371D01*
X135882886Y-67575799D01*
X136075799Y-67382886D01*
X136227371Y-67156043D01*
X136331775Y-66903989D01*
X136385000Y-66636411D01*
X136385000Y-66363589D01*
X136331775Y-66096011D01*
X136227371Y-65843957D01*
X136075799Y-65617114D01*
X135882886Y-65424201D01*
X135656043Y-65272629D01*
X135403989Y-65168225D01*
X135136411Y-65115000D01*
X134863589Y-65115000D01*
X134596011Y-65168225D01*
X134343957Y-65272629D01*
X134117114Y-65424201D01*
X133924201Y-65617114D01*
X133772629Y-65843957D01*
X133668225Y-66096011D01*
X133615000Y-66363589D01*
X126058492Y-66363589D01*
X126143719Y-66299229D01*
X128263616Y-64894534D01*
X130465967Y-63623006D01*
X132742417Y-62489469D01*
X135084332Y-61498222D01*
X137482826Y-60653025D01*
X139928802Y-59957085D01*
X142412982Y-59413041D01*
X144925942Y-59022957D01*
X147458150Y-58788314D01*
X150000000Y-58710000D01*
X152541850Y-58788314D01*
G37*
%TD.AperFunction*%
D18*
X159129203Y-77131003D02*
X159153001Y-77160001D01*
X159181999Y-77183799D01*
X159268725Y-77254974D01*
X159400755Y-77325546D01*
X159544016Y-77369003D01*
X159655669Y-77380000D01*
X159655678Y-77380000D01*
X159693001Y-77383676D01*
X159730324Y-77380000D01*
X165793954Y-77380000D01*
X165844463Y-77474494D01*
X165923815Y-77571185D01*
X166020506Y-77650537D01*
X166130820Y-77709502D01*
X166250518Y-77745812D01*
X166375000Y-77758072D01*
X169492845Y-77758072D01*
X169465000Y-77898061D01*
X169465000Y-78021928D01*
X166375000Y-78021928D01*
X166250518Y-78034188D01*
X166130820Y-78070498D01*
X166020506Y-78129463D01*
X165923815Y-78208815D01*
X165844463Y-78305506D01*
X165793954Y-78400000D01*
X154827538Y-78400000D01*
X152310000Y-75882463D01*
X152310000Y-75820325D01*
X152270226Y-75620366D01*
X152192205Y-75432008D01*
X152078937Y-75262490D01*
X151934774Y-75118327D01*
X151765256Y-75005059D01*
X151576898Y-74927038D01*
X151376939Y-74887264D01*
X151173061Y-74887264D01*
X150973102Y-74927038D01*
X150784744Y-75005059D01*
X150615226Y-75118327D01*
X150586470Y-75147083D01*
X150490256Y-75082795D01*
X150301898Y-75004774D01*
X150101939Y-74965000D01*
X149898061Y-74965000D01*
X149698102Y-75004774D01*
X149509744Y-75082795D01*
X149340226Y-75196063D01*
X149196063Y-75340226D01*
X149082795Y-75509744D01*
X149004774Y-75698102D01*
X149000000Y-75722103D01*
X148995226Y-75698102D01*
X148917205Y-75509744D01*
X148803937Y-75340226D01*
X148659774Y-75196063D01*
X148490256Y-75082795D01*
X148301898Y-75004774D01*
X148101939Y-74965000D01*
X147898061Y-74965000D01*
X147698102Y-75004774D01*
X147509744Y-75082795D01*
X147340226Y-75196063D01*
X147196063Y-75340226D01*
X147082795Y-75509744D01*
X147004774Y-75698102D01*
X146965000Y-75898061D01*
X146965000Y-76101939D01*
X147004774Y-76301898D01*
X147082795Y-76490256D01*
X147196063Y-76659774D01*
X147340226Y-76803937D01*
X147509744Y-76917205D01*
X147698102Y-76995226D01*
X147754957Y-77006535D01*
X154565551Y-83817130D01*
X154593264Y-83850898D01*
X154627032Y-83878611D01*
X154627034Y-83878613D01*
X154669204Y-83913221D01*
X154728022Y-83961492D01*
X154881768Y-84043670D01*
X155048591Y-84094276D01*
X155140001Y-84103279D01*
X155140000Y-88598705D01*
X155069114Y-88636595D01*
X154934538Y-88747038D01*
X154824095Y-88881614D01*
X154742028Y-89035150D01*
X154691492Y-89201746D01*
X154674428Y-89375000D01*
X154674428Y-90625000D01*
X154691492Y-90798254D01*
X154742028Y-90964850D01*
X154824095Y-91118386D01*
X154934538Y-91252962D01*
X155069114Y-91363405D01*
X155140001Y-91401295D01*
X155140000Y-93090000D01*
X144860000Y-93090000D01*
X144860000Y-91401294D01*
X144930886Y-91363405D01*
X145065462Y-91252962D01*
X145175905Y-91118386D01*
X145257972Y-90964850D01*
X145308508Y-90798254D01*
X145325572Y-90625000D01*
X145325572Y-89375000D01*
X145308508Y-89201746D01*
X145257972Y-89035150D01*
X145175905Y-88881614D01*
X145065462Y-88747038D01*
X144930886Y-88636595D01*
X144777350Y-88554528D01*
X144610754Y-88503992D01*
X144437500Y-88486928D01*
X143512500Y-88486928D01*
X143339246Y-88503992D01*
X143172650Y-88554528D01*
X143019114Y-88636595D01*
X142884538Y-88747038D01*
X142774095Y-88881614D01*
X142692028Y-89035150D01*
X142641492Y-89201746D01*
X142624428Y-89375000D01*
X142624428Y-90625000D01*
X142641492Y-90798254D01*
X142692028Y-90964850D01*
X142774095Y-91118386D01*
X142884538Y-91252962D01*
X143019114Y-91363405D01*
X143090001Y-91401295D01*
X143090000Y-93090000D01*
X129501039Y-93090000D01*
X129490256Y-93082795D01*
X129301898Y-93004774D01*
X129101939Y-92965000D01*
X128898061Y-92965000D01*
X128698102Y-93004774D01*
X128509744Y-93082795D01*
X128340226Y-93196063D01*
X128196063Y-93340226D01*
X128082795Y-93509744D01*
X128004774Y-93698102D01*
X127965000Y-93898061D01*
X127965000Y-94101939D01*
X128004774Y-94301898D01*
X128082795Y-94490256D01*
X128196063Y-94659774D01*
X128340226Y-94803937D01*
X128509744Y-94917205D01*
X128698102Y-94995226D01*
X128898061Y-95035000D01*
X129101939Y-95035000D01*
X129301898Y-94995226D01*
X129490256Y-94917205D01*
X129575870Y-94860000D01*
X143090001Y-94860000D01*
X143090000Y-96598705D01*
X143019114Y-96636595D01*
X142884538Y-96747038D01*
X142774095Y-96881614D01*
X142692028Y-97035150D01*
X142641492Y-97201746D01*
X142624428Y-97375000D01*
X142624428Y-98625000D01*
X142641492Y-98798254D01*
X142692028Y-98964850D01*
X142774095Y-99118386D01*
X142884538Y-99252962D01*
X143019114Y-99363405D01*
X143172650Y-99445472D01*
X143339246Y-99496008D01*
X143512500Y-99513072D01*
X144437500Y-99513072D01*
X144610754Y-99496008D01*
X144777350Y-99445472D01*
X144930886Y-99363405D01*
X145065462Y-99252962D01*
X145175905Y-99118386D01*
X145257972Y-98964850D01*
X145308508Y-98798254D01*
X145325572Y-98625000D01*
X145325572Y-97375000D01*
X145308508Y-97201746D01*
X145257972Y-97035150D01*
X145175905Y-96881614D01*
X145065462Y-96747038D01*
X144930886Y-96636595D01*
X144860000Y-96598706D01*
X144860000Y-94860000D01*
X155140001Y-94860000D01*
X155140000Y-96598705D01*
X155069114Y-96636595D01*
X154934538Y-96747038D01*
X154824095Y-96881614D01*
X154742028Y-97035150D01*
X154691492Y-97201746D01*
X154674428Y-97375000D01*
X154674428Y-98098994D01*
X154543835Y-98229587D01*
X154510062Y-98257304D01*
X154399468Y-98392063D01*
X154317290Y-98545809D01*
X154290242Y-98634974D01*
X154268164Y-98707754D01*
X154266684Y-98712632D01*
X154253879Y-98842645D01*
X154253879Y-98842652D01*
X154249598Y-98886121D01*
X154253879Y-98929590D01*
X154253879Y-109698435D01*
X154218370Y-109683726D01*
X153948472Y-109630040D01*
X153673288Y-109630040D01*
X153403390Y-109683726D01*
X153149153Y-109789035D01*
X152920345Y-109941920D01*
X152725760Y-110136505D01*
X152572875Y-110365313D01*
X152540880Y-110442555D01*
X152508885Y-110365313D01*
X152356000Y-110136505D01*
X152161415Y-109941920D01*
X151932607Y-109789035D01*
X151678370Y-109683726D01*
X151408472Y-109630040D01*
X151133288Y-109630040D01*
X150863390Y-109683726D01*
X150609153Y-109789035D01*
X150380345Y-109941920D01*
X150185760Y-110136505D01*
X150032875Y-110365313D01*
X150000880Y-110442555D01*
X149968885Y-110365313D01*
X149816000Y-110136505D01*
X149621415Y-109941920D01*
X149392607Y-109789035D01*
X149138370Y-109683726D01*
X148868472Y-109630040D01*
X148593288Y-109630040D01*
X148323390Y-109683726D01*
X148069153Y-109789035D01*
X147840345Y-109941920D01*
X147645760Y-110136505D01*
X147492875Y-110365313D01*
X147460880Y-110442555D01*
X147428885Y-110365313D01*
X147276000Y-110136505D01*
X147081415Y-109941920D01*
X146852607Y-109789035D01*
X146598370Y-109683726D01*
X146328472Y-109630040D01*
X146053288Y-109630040D01*
X145783390Y-109683726D01*
X145529153Y-109789035D01*
X145300345Y-109941920D01*
X145105760Y-110136505D01*
X144952875Y-110365313D01*
X144920880Y-110442555D01*
X144888885Y-110365313D01*
X144736000Y-110136505D01*
X144541415Y-109941920D01*
X144312607Y-109789035D01*
X144058370Y-109683726D01*
X143788472Y-109630040D01*
X143513288Y-109630040D01*
X143243390Y-109683726D01*
X142989153Y-109789035D01*
X142760345Y-109941920D01*
X142565760Y-110136505D01*
X142412875Y-110365313D01*
X142380880Y-110442555D01*
X142348885Y-110365313D01*
X142196000Y-110136505D01*
X142001415Y-109941920D01*
X141772607Y-109789035D01*
X141518370Y-109683726D01*
X141248472Y-109630040D01*
X140973288Y-109630040D01*
X140703390Y-109683726D01*
X140449153Y-109789035D01*
X140220345Y-109941920D01*
X140025760Y-110136505D01*
X139872875Y-110365313D01*
X139840880Y-110442555D01*
X139808885Y-110365313D01*
X139656000Y-110136505D01*
X139461415Y-109941920D01*
X139232607Y-109789035D01*
X138978370Y-109683726D01*
X138708472Y-109630040D01*
X138433288Y-109630040D01*
X138163390Y-109683726D01*
X137909153Y-109789035D01*
X137680345Y-109941920D01*
X137485760Y-110136505D01*
X137332875Y-110365313D01*
X137300880Y-110442555D01*
X137268885Y-110365313D01*
X137116000Y-110136505D01*
X136921415Y-109941920D01*
X136692607Y-109789035D01*
X136438370Y-109683726D01*
X136168472Y-109630040D01*
X135893288Y-109630040D01*
X135623390Y-109683726D01*
X135369153Y-109789035D01*
X135140345Y-109941920D01*
X134945760Y-110136505D01*
X134792875Y-110365313D01*
X134760880Y-110442555D01*
X134728885Y-110365313D01*
X134576000Y-110136505D01*
X134381415Y-109941920D01*
X134152607Y-109789035D01*
X133898370Y-109683726D01*
X133628472Y-109630040D01*
X133353288Y-109630040D01*
X133083390Y-109683726D01*
X132829153Y-109789035D01*
X132600345Y-109941920D01*
X132405760Y-110136505D01*
X132252875Y-110365313D01*
X132220880Y-110442555D01*
X132188885Y-110365313D01*
X132036000Y-110136505D01*
X131841415Y-109941920D01*
X131612607Y-109789035D01*
X131358370Y-109683726D01*
X131088472Y-109630040D01*
X130813288Y-109630040D01*
X130543390Y-109683726D01*
X130289153Y-109789035D01*
X130060345Y-109941920D01*
X129865760Y-110136505D01*
X129712875Y-110365313D01*
X129680880Y-110442555D01*
X129648885Y-110365313D01*
X129496000Y-110136505D01*
X129301415Y-109941920D01*
X129072607Y-109789035D01*
X128818370Y-109683726D01*
X128548472Y-109630040D01*
X128273288Y-109630040D01*
X128003390Y-109683726D01*
X127749153Y-109789035D01*
X127520345Y-109941920D01*
X127325760Y-110136505D01*
X127172875Y-110365313D01*
X127067566Y-110619550D01*
X127013880Y-110889448D01*
X127013880Y-110939079D01*
X126760000Y-110685199D01*
X126760000Y-103742215D01*
X147382664Y-103742215D01*
X147382664Y-104257785D01*
X147483247Y-104763449D01*
X147680547Y-105239773D01*
X147966983Y-105668454D01*
X148331546Y-106033017D01*
X148760227Y-106319453D01*
X149236551Y-106516753D01*
X149742215Y-106617336D01*
X150257785Y-106617336D01*
X150763449Y-106516753D01*
X151239773Y-106319453D01*
X151668454Y-106033017D01*
X152033017Y-105668454D01*
X152319453Y-105239773D01*
X152516753Y-104763449D01*
X152617336Y-104257785D01*
X152617336Y-103742215D01*
X152516753Y-103236551D01*
X152319453Y-102760227D01*
X152033017Y-102331546D01*
X151668454Y-101966983D01*
X151239773Y-101680547D01*
X150763449Y-101483247D01*
X150257785Y-101382664D01*
X149742215Y-101382664D01*
X149236551Y-101483247D01*
X148760227Y-101680547D01*
X148331546Y-101966983D01*
X147966983Y-102331546D01*
X147680547Y-102760227D01*
X147483247Y-103236551D01*
X147382664Y-103742215D01*
X126760000Y-103742215D01*
X126760000Y-102703711D01*
X126803937Y-102659774D01*
X126917205Y-102490256D01*
X126995226Y-102301898D01*
X127035000Y-102101939D01*
X127035000Y-101898061D01*
X126995226Y-101698102D01*
X126917205Y-101509744D01*
X126803937Y-101340226D01*
X126760000Y-101296289D01*
X126760000Y-98875000D01*
X131674428Y-98875000D01*
X131686688Y-98999482D01*
X131722998Y-99119180D01*
X131781963Y-99229494D01*
X131861315Y-99326185D01*
X131958006Y-99405537D01*
X132068320Y-99464502D01*
X132188018Y-99500812D01*
X132312500Y-99513072D01*
X132739250Y-99510000D01*
X132898000Y-99351250D01*
X132898000Y-98127000D01*
X133152000Y-98127000D01*
X133152000Y-99351250D01*
X133310750Y-99510000D01*
X133737500Y-99513072D01*
X133861982Y-99500812D01*
X133981680Y-99464502D01*
X134091994Y-99405537D01*
X134188685Y-99326185D01*
X134268037Y-99229494D01*
X134327002Y-99119180D01*
X134363312Y-98999482D01*
X134375572Y-98875000D01*
X134372500Y-98285750D01*
X134213750Y-98127000D01*
X133152000Y-98127000D01*
X132898000Y-98127000D01*
X131836250Y-98127000D01*
X131677500Y-98285750D01*
X131674428Y-98875000D01*
X126760000Y-98875000D01*
X126760000Y-97125000D01*
X131674428Y-97125000D01*
X131677500Y-97714250D01*
X131836250Y-97873000D01*
X132898000Y-97873000D01*
X132898000Y-96648750D01*
X133152000Y-96648750D01*
X133152000Y-97873000D01*
X134213750Y-97873000D01*
X134372500Y-97714250D01*
X134374268Y-97375000D01*
X134649428Y-97375000D01*
X134649428Y-98625000D01*
X134666492Y-98798254D01*
X134717028Y-98964850D01*
X134799095Y-99118386D01*
X134909538Y-99252962D01*
X135044114Y-99363405D01*
X135197650Y-99445472D01*
X135364246Y-99496008D01*
X135537500Y-99513072D01*
X136462500Y-99513072D01*
X136635754Y-99496008D01*
X136802350Y-99445472D01*
X136955886Y-99363405D01*
X137090462Y-99252962D01*
X137200905Y-99118386D01*
X137282972Y-98964850D01*
X137333508Y-98798254D01*
X137337276Y-98760000D01*
X137544345Y-98760000D01*
X137679465Y-98895120D01*
X137908273Y-99048005D01*
X138162510Y-99153314D01*
X138432408Y-99207000D01*
X138707592Y-99207000D01*
X138977490Y-99153314D01*
X139231727Y-99048005D01*
X139460535Y-98895120D01*
X139595655Y-98760000D01*
X139662724Y-98760000D01*
X139666492Y-98798254D01*
X139717028Y-98964850D01*
X139799095Y-99118386D01*
X139909538Y-99252962D01*
X140044114Y-99363405D01*
X140197650Y-99445472D01*
X140364246Y-99496008D01*
X140537500Y-99513072D01*
X141462500Y-99513072D01*
X141635754Y-99496008D01*
X141802350Y-99445472D01*
X141955886Y-99363405D01*
X142090462Y-99252962D01*
X142200905Y-99118386D01*
X142282972Y-98964850D01*
X142333508Y-98798254D01*
X142350572Y-98625000D01*
X142350572Y-97375000D01*
X142333508Y-97201746D01*
X142282972Y-97035150D01*
X142200905Y-96881614D01*
X142090462Y-96747038D01*
X141955886Y-96636595D01*
X141802350Y-96554528D01*
X141635754Y-96503992D01*
X141462500Y-96486928D01*
X140537500Y-96486928D01*
X140364246Y-96503992D01*
X140197650Y-96554528D01*
X140044114Y-96636595D01*
X139909538Y-96747038D01*
X139799095Y-96881614D01*
X139723868Y-97022353D01*
X139655120Y-96919465D01*
X139460535Y-96724880D01*
X139231727Y-96571995D01*
X138977490Y-96466686D01*
X138707592Y-96413000D01*
X138432408Y-96413000D01*
X138162510Y-96466686D01*
X137908273Y-96571995D01*
X137679465Y-96724880D01*
X137484880Y-96919465D01*
X137331995Y-97148273D01*
X137323505Y-97168770D01*
X137282972Y-97035150D01*
X137200905Y-96881614D01*
X137090462Y-96747038D01*
X136955886Y-96636595D01*
X136802350Y-96554528D01*
X136635754Y-96503992D01*
X136462500Y-96486928D01*
X135537500Y-96486928D01*
X135364246Y-96503992D01*
X135197650Y-96554528D01*
X135044114Y-96636595D01*
X134909538Y-96747038D01*
X134799095Y-96881614D01*
X134717028Y-97035150D01*
X134666492Y-97201746D01*
X134649428Y-97375000D01*
X134374268Y-97375000D01*
X134375572Y-97125000D01*
X134363312Y-97000518D01*
X134327002Y-96880820D01*
X134268037Y-96770506D01*
X134188685Y-96673815D01*
X134091994Y-96594463D01*
X133981680Y-96535498D01*
X133861982Y-96499188D01*
X133737500Y-96486928D01*
X133310750Y-96490000D01*
X133152000Y-96648750D01*
X132898000Y-96648750D01*
X132739250Y-96490000D01*
X132312500Y-96486928D01*
X132188018Y-96499188D01*
X132068320Y-96535498D01*
X131958006Y-96594463D01*
X131861315Y-96673815D01*
X131781963Y-96770506D01*
X131722998Y-96880820D01*
X131686688Y-97000518D01*
X131674428Y-97125000D01*
X126760000Y-97125000D01*
X126760000Y-94314801D01*
X130199801Y-90875000D01*
X131674428Y-90875000D01*
X131686688Y-90999482D01*
X131722998Y-91119180D01*
X131781963Y-91229494D01*
X131861315Y-91326185D01*
X131958006Y-91405537D01*
X132068320Y-91464502D01*
X132188018Y-91500812D01*
X132312500Y-91513072D01*
X132739250Y-91510000D01*
X132898000Y-91351250D01*
X132898000Y-90127000D01*
X133152000Y-90127000D01*
X133152000Y-91351250D01*
X133310750Y-91510000D01*
X133737500Y-91513072D01*
X133861982Y-91500812D01*
X133981680Y-91464502D01*
X134091994Y-91405537D01*
X134188685Y-91326185D01*
X134268037Y-91229494D01*
X134327002Y-91119180D01*
X134363312Y-90999482D01*
X134375572Y-90875000D01*
X134372500Y-90285750D01*
X134213750Y-90127000D01*
X133152000Y-90127000D01*
X132898000Y-90127000D01*
X131836250Y-90127000D01*
X131677500Y-90285750D01*
X131674428Y-90875000D01*
X130199801Y-90875000D01*
X131675856Y-89398945D01*
X131677500Y-89714250D01*
X131836250Y-89873000D01*
X132898000Y-89873000D01*
X132898000Y-88648750D01*
X133152000Y-88648750D01*
X133152000Y-89873000D01*
X134213750Y-89873000D01*
X134372500Y-89714250D01*
X134374268Y-89375000D01*
X134649428Y-89375000D01*
X134649428Y-90625000D01*
X134666492Y-90798254D01*
X134717028Y-90964850D01*
X134799095Y-91118386D01*
X134909538Y-91252962D01*
X135044114Y-91363405D01*
X135197650Y-91445472D01*
X135364246Y-91496008D01*
X135537500Y-91513072D01*
X136462500Y-91513072D01*
X136635754Y-91496008D01*
X136802350Y-91445472D01*
X136955886Y-91363405D01*
X137090462Y-91252962D01*
X137200905Y-91118386D01*
X137282972Y-90964850D01*
X137323505Y-90831230D01*
X137331995Y-90851727D01*
X137484880Y-91080535D01*
X137679465Y-91275120D01*
X137908273Y-91428005D01*
X138162510Y-91533314D01*
X138432408Y-91587000D01*
X138707592Y-91587000D01*
X138977490Y-91533314D01*
X139231727Y-91428005D01*
X139460535Y-91275120D01*
X139655120Y-91080535D01*
X139723868Y-90977647D01*
X139799095Y-91118386D01*
X139909538Y-91252962D01*
X140044114Y-91363405D01*
X140197650Y-91445472D01*
X140364246Y-91496008D01*
X140537500Y-91513072D01*
X141462500Y-91513072D01*
X141635754Y-91496008D01*
X141802350Y-91445472D01*
X141955886Y-91363405D01*
X142090462Y-91252962D01*
X142200905Y-91118386D01*
X142282972Y-90964850D01*
X142333508Y-90798254D01*
X142350572Y-90625000D01*
X142350572Y-89375000D01*
X142333508Y-89201746D01*
X142282972Y-89035150D01*
X142200905Y-88881614D01*
X142090462Y-88747038D01*
X141955886Y-88636595D01*
X141802350Y-88554528D01*
X141635754Y-88503992D01*
X141462500Y-88486928D01*
X140537500Y-88486928D01*
X140364246Y-88503992D01*
X140197650Y-88554528D01*
X140044114Y-88636595D01*
X139909538Y-88747038D01*
X139799095Y-88881614D01*
X139717028Y-89035150D01*
X139666492Y-89201746D01*
X139662724Y-89240000D01*
X139595655Y-89240000D01*
X139460535Y-89104880D01*
X139231727Y-88951995D01*
X138977490Y-88846686D01*
X138707592Y-88793000D01*
X138432408Y-88793000D01*
X138162510Y-88846686D01*
X137908273Y-88951995D01*
X137679465Y-89104880D01*
X137544345Y-89240000D01*
X137337276Y-89240000D01*
X137333508Y-89201746D01*
X137282972Y-89035150D01*
X137200905Y-88881614D01*
X137090462Y-88747038D01*
X136955886Y-88636595D01*
X136802350Y-88554528D01*
X136635754Y-88503992D01*
X136462500Y-88486928D01*
X135537500Y-88486928D01*
X135364246Y-88503992D01*
X135197650Y-88554528D01*
X135044114Y-88636595D01*
X134909538Y-88747038D01*
X134799095Y-88881614D01*
X134717028Y-89035150D01*
X134666492Y-89201746D01*
X134649428Y-89375000D01*
X134374268Y-89375000D01*
X134375572Y-89125000D01*
X134363312Y-89000518D01*
X134327002Y-88880820D01*
X134268037Y-88770506D01*
X134188685Y-88673815D01*
X134091994Y-88594463D01*
X133981680Y-88535498D01*
X133861982Y-88499188D01*
X133737500Y-88486928D01*
X133310750Y-88490000D01*
X133152000Y-88648750D01*
X132898000Y-88648750D01*
X132739250Y-88490000D01*
X132585905Y-88488896D01*
X144039802Y-77035000D01*
X144101939Y-77035000D01*
X144301898Y-76995226D01*
X144490256Y-76917205D01*
X144659774Y-76803937D01*
X144803937Y-76659774D01*
X144917205Y-76490256D01*
X144995226Y-76301898D01*
X145035000Y-76101939D01*
X145035000Y-75898061D01*
X144995226Y-75698102D01*
X144917205Y-75509744D01*
X144900141Y-75484205D01*
X144904552Y-75477603D01*
X144982573Y-75289245D01*
X145022347Y-75089286D01*
X145022347Y-74885408D01*
X144982573Y-74685449D01*
X144904552Y-74497091D01*
X144898413Y-74487903D01*
X144911409Y-74468453D01*
X144989430Y-74280095D01*
X145029204Y-74080136D01*
X145029204Y-73876258D01*
X144989430Y-73676299D01*
X144911409Y-73487941D01*
X144798141Y-73318423D01*
X144726960Y-73247242D01*
X147214201Y-70760000D01*
X151296289Y-70760000D01*
X151340226Y-70803937D01*
X151509744Y-70917205D01*
X151698102Y-70995226D01*
X151898061Y-71035000D01*
X152101939Y-71035000D01*
X152301898Y-70995226D01*
X152490256Y-70917205D01*
X152659774Y-70803937D01*
X152730956Y-70732755D01*
X159129203Y-77131003D01*
%TA.AperFunction,Conductor*%
D19*
G36*
X159129203Y-77131003D02*
G01*
X159153001Y-77160001D01*
X159181999Y-77183799D01*
X159268725Y-77254974D01*
X159400755Y-77325546D01*
X159544016Y-77369003D01*
X159655669Y-77380000D01*
X159655678Y-77380000D01*
X159693001Y-77383676D01*
X159730324Y-77380000D01*
X165793954Y-77380000D01*
X165844463Y-77474494D01*
X165923815Y-77571185D01*
X166020506Y-77650537D01*
X166130820Y-77709502D01*
X166250518Y-77745812D01*
X166375000Y-77758072D01*
X169492845Y-77758072D01*
X169465000Y-77898061D01*
X169465000Y-78021928D01*
X166375000Y-78021928D01*
X166250518Y-78034188D01*
X166130820Y-78070498D01*
X166020506Y-78129463D01*
X165923815Y-78208815D01*
X165844463Y-78305506D01*
X165793954Y-78400000D01*
X154827538Y-78400000D01*
X152310000Y-75882463D01*
X152310000Y-75820325D01*
X152270226Y-75620366D01*
X152192205Y-75432008D01*
X152078937Y-75262490D01*
X151934774Y-75118327D01*
X151765256Y-75005059D01*
X151576898Y-74927038D01*
X151376939Y-74887264D01*
X151173061Y-74887264D01*
X150973102Y-74927038D01*
X150784744Y-75005059D01*
X150615226Y-75118327D01*
X150586470Y-75147083D01*
X150490256Y-75082795D01*
X150301898Y-75004774D01*
X150101939Y-74965000D01*
X149898061Y-74965000D01*
X149698102Y-75004774D01*
X149509744Y-75082795D01*
X149340226Y-75196063D01*
X149196063Y-75340226D01*
X149082795Y-75509744D01*
X149004774Y-75698102D01*
X149000000Y-75722103D01*
X148995226Y-75698102D01*
X148917205Y-75509744D01*
X148803937Y-75340226D01*
X148659774Y-75196063D01*
X148490256Y-75082795D01*
X148301898Y-75004774D01*
X148101939Y-74965000D01*
X147898061Y-74965000D01*
X147698102Y-75004774D01*
X147509744Y-75082795D01*
X147340226Y-75196063D01*
X147196063Y-75340226D01*
X147082795Y-75509744D01*
X147004774Y-75698102D01*
X146965000Y-75898061D01*
X146965000Y-76101939D01*
X147004774Y-76301898D01*
X147082795Y-76490256D01*
X147196063Y-76659774D01*
X147340226Y-76803937D01*
X147509744Y-76917205D01*
X147698102Y-76995226D01*
X147754957Y-77006535D01*
X154565551Y-83817130D01*
X154593264Y-83850898D01*
X154627032Y-83878611D01*
X154627034Y-83878613D01*
X154669204Y-83913221D01*
X154728022Y-83961492D01*
X154881768Y-84043670D01*
X155048591Y-84094276D01*
X155140001Y-84103279D01*
X155140000Y-88598705D01*
X155069114Y-88636595D01*
X154934538Y-88747038D01*
X154824095Y-88881614D01*
X154742028Y-89035150D01*
X154691492Y-89201746D01*
X154674428Y-89375000D01*
X154674428Y-90625000D01*
X154691492Y-90798254D01*
X154742028Y-90964850D01*
X154824095Y-91118386D01*
X154934538Y-91252962D01*
X155069114Y-91363405D01*
X155140001Y-91401295D01*
X155140000Y-93090000D01*
X144860000Y-93090000D01*
X144860000Y-91401294D01*
X144930886Y-91363405D01*
X145065462Y-91252962D01*
X145175905Y-91118386D01*
X145257972Y-90964850D01*
X145308508Y-90798254D01*
X145325572Y-90625000D01*
X145325572Y-89375000D01*
X145308508Y-89201746D01*
X145257972Y-89035150D01*
X145175905Y-88881614D01*
X145065462Y-88747038D01*
X144930886Y-88636595D01*
X144777350Y-88554528D01*
X144610754Y-88503992D01*
X144437500Y-88486928D01*
X143512500Y-88486928D01*
X143339246Y-88503992D01*
X143172650Y-88554528D01*
X143019114Y-88636595D01*
X142884538Y-88747038D01*
X142774095Y-88881614D01*
X142692028Y-89035150D01*
X142641492Y-89201746D01*
X142624428Y-89375000D01*
X142624428Y-90625000D01*
X142641492Y-90798254D01*
X142692028Y-90964850D01*
X142774095Y-91118386D01*
X142884538Y-91252962D01*
X143019114Y-91363405D01*
X143090001Y-91401295D01*
X143090000Y-93090000D01*
X129501039Y-93090000D01*
X129490256Y-93082795D01*
X129301898Y-93004774D01*
X129101939Y-92965000D01*
X128898061Y-92965000D01*
X128698102Y-93004774D01*
X128509744Y-93082795D01*
X128340226Y-93196063D01*
X128196063Y-93340226D01*
X128082795Y-93509744D01*
X128004774Y-93698102D01*
X127965000Y-93898061D01*
X127965000Y-94101939D01*
X128004774Y-94301898D01*
X128082795Y-94490256D01*
X128196063Y-94659774D01*
X128340226Y-94803937D01*
X128509744Y-94917205D01*
X128698102Y-94995226D01*
X128898061Y-95035000D01*
X129101939Y-95035000D01*
X129301898Y-94995226D01*
X129490256Y-94917205D01*
X129575870Y-94860000D01*
X143090001Y-94860000D01*
X143090000Y-96598705D01*
X143019114Y-96636595D01*
X142884538Y-96747038D01*
X142774095Y-96881614D01*
X142692028Y-97035150D01*
X142641492Y-97201746D01*
X142624428Y-97375000D01*
X142624428Y-98625000D01*
X142641492Y-98798254D01*
X142692028Y-98964850D01*
X142774095Y-99118386D01*
X142884538Y-99252962D01*
X143019114Y-99363405D01*
X143172650Y-99445472D01*
X143339246Y-99496008D01*
X143512500Y-99513072D01*
X144437500Y-99513072D01*
X144610754Y-99496008D01*
X144777350Y-99445472D01*
X144930886Y-99363405D01*
X145065462Y-99252962D01*
X145175905Y-99118386D01*
X145257972Y-98964850D01*
X145308508Y-98798254D01*
X145325572Y-98625000D01*
X145325572Y-97375000D01*
X145308508Y-97201746D01*
X145257972Y-97035150D01*
X145175905Y-96881614D01*
X145065462Y-96747038D01*
X144930886Y-96636595D01*
X144860000Y-96598706D01*
X144860000Y-94860000D01*
X155140001Y-94860000D01*
X155140000Y-96598705D01*
X155069114Y-96636595D01*
X154934538Y-96747038D01*
X154824095Y-96881614D01*
X154742028Y-97035150D01*
X154691492Y-97201746D01*
X154674428Y-97375000D01*
X154674428Y-98098994D01*
X154543835Y-98229587D01*
X154510062Y-98257304D01*
X154399468Y-98392063D01*
X154317290Y-98545809D01*
X154290242Y-98634974D01*
X154268164Y-98707754D01*
X154266684Y-98712632D01*
X154253879Y-98842645D01*
X154253879Y-98842652D01*
X154249598Y-98886121D01*
X154253879Y-98929590D01*
X154253879Y-109698435D01*
X154218370Y-109683726D01*
X153948472Y-109630040D01*
X153673288Y-109630040D01*
X153403390Y-109683726D01*
X153149153Y-109789035D01*
X152920345Y-109941920D01*
X152725760Y-110136505D01*
X152572875Y-110365313D01*
X152540880Y-110442555D01*
X152508885Y-110365313D01*
X152356000Y-110136505D01*
X152161415Y-109941920D01*
X151932607Y-109789035D01*
X151678370Y-109683726D01*
X151408472Y-109630040D01*
X151133288Y-109630040D01*
X150863390Y-109683726D01*
X150609153Y-109789035D01*
X150380345Y-109941920D01*
X150185760Y-110136505D01*
X150032875Y-110365313D01*
X150000880Y-110442555D01*
X149968885Y-110365313D01*
X149816000Y-110136505D01*
X149621415Y-109941920D01*
X149392607Y-109789035D01*
X149138370Y-109683726D01*
X148868472Y-109630040D01*
X148593288Y-109630040D01*
X148323390Y-109683726D01*
X148069153Y-109789035D01*
X147840345Y-109941920D01*
X147645760Y-110136505D01*
X147492875Y-110365313D01*
X147460880Y-110442555D01*
X147428885Y-110365313D01*
X147276000Y-110136505D01*
X147081415Y-109941920D01*
X146852607Y-109789035D01*
X146598370Y-109683726D01*
X146328472Y-109630040D01*
X146053288Y-109630040D01*
X145783390Y-109683726D01*
X145529153Y-109789035D01*
X145300345Y-109941920D01*
X145105760Y-110136505D01*
X144952875Y-110365313D01*
X144920880Y-110442555D01*
X144888885Y-110365313D01*
X144736000Y-110136505D01*
X144541415Y-109941920D01*
X144312607Y-109789035D01*
X144058370Y-109683726D01*
X143788472Y-109630040D01*
X143513288Y-109630040D01*
X143243390Y-109683726D01*
X142989153Y-109789035D01*
X142760345Y-109941920D01*
X142565760Y-110136505D01*
X142412875Y-110365313D01*
X142380880Y-110442555D01*
X142348885Y-110365313D01*
X142196000Y-110136505D01*
X142001415Y-109941920D01*
X141772607Y-109789035D01*
X141518370Y-109683726D01*
X141248472Y-109630040D01*
X140973288Y-109630040D01*
X140703390Y-109683726D01*
X140449153Y-109789035D01*
X140220345Y-109941920D01*
X140025760Y-110136505D01*
X139872875Y-110365313D01*
X139840880Y-110442555D01*
X139808885Y-110365313D01*
X139656000Y-110136505D01*
X139461415Y-109941920D01*
X139232607Y-109789035D01*
X138978370Y-109683726D01*
X138708472Y-109630040D01*
X138433288Y-109630040D01*
X138163390Y-109683726D01*
X137909153Y-109789035D01*
X137680345Y-109941920D01*
X137485760Y-110136505D01*
X137332875Y-110365313D01*
X137300880Y-110442555D01*
X137268885Y-110365313D01*
X137116000Y-110136505D01*
X136921415Y-109941920D01*
X136692607Y-109789035D01*
X136438370Y-109683726D01*
X136168472Y-109630040D01*
X135893288Y-109630040D01*
X135623390Y-109683726D01*
X135369153Y-109789035D01*
X135140345Y-109941920D01*
X134945760Y-110136505D01*
X134792875Y-110365313D01*
X134760880Y-110442555D01*
X134728885Y-110365313D01*
X134576000Y-110136505D01*
X134381415Y-109941920D01*
X134152607Y-109789035D01*
X133898370Y-109683726D01*
X133628472Y-109630040D01*
X133353288Y-109630040D01*
X133083390Y-109683726D01*
X132829153Y-109789035D01*
X132600345Y-109941920D01*
X132405760Y-110136505D01*
X132252875Y-110365313D01*
X132220880Y-110442555D01*
X132188885Y-110365313D01*
X132036000Y-110136505D01*
X131841415Y-109941920D01*
X131612607Y-109789035D01*
X131358370Y-109683726D01*
X131088472Y-109630040D01*
X130813288Y-109630040D01*
X130543390Y-109683726D01*
X130289153Y-109789035D01*
X130060345Y-109941920D01*
X129865760Y-110136505D01*
X129712875Y-110365313D01*
X129680880Y-110442555D01*
X129648885Y-110365313D01*
X129496000Y-110136505D01*
X129301415Y-109941920D01*
X129072607Y-109789035D01*
X128818370Y-109683726D01*
X128548472Y-109630040D01*
X128273288Y-109630040D01*
X128003390Y-109683726D01*
X127749153Y-109789035D01*
X127520345Y-109941920D01*
X127325760Y-110136505D01*
X127172875Y-110365313D01*
X127067566Y-110619550D01*
X127013880Y-110889448D01*
X127013880Y-110939079D01*
X126760000Y-110685199D01*
X126760000Y-103742215D01*
X147382664Y-103742215D01*
X147382664Y-104257785D01*
X147483247Y-104763449D01*
X147680547Y-105239773D01*
X147966983Y-105668454D01*
X148331546Y-106033017D01*
X148760227Y-106319453D01*
X149236551Y-106516753D01*
X149742215Y-106617336D01*
X150257785Y-106617336D01*
X150763449Y-106516753D01*
X151239773Y-106319453D01*
X151668454Y-106033017D01*
X152033017Y-105668454D01*
X152319453Y-105239773D01*
X152516753Y-104763449D01*
X152617336Y-104257785D01*
X152617336Y-103742215D01*
X152516753Y-103236551D01*
X152319453Y-102760227D01*
X152033017Y-102331546D01*
X151668454Y-101966983D01*
X151239773Y-101680547D01*
X150763449Y-101483247D01*
X150257785Y-101382664D01*
X149742215Y-101382664D01*
X149236551Y-101483247D01*
X148760227Y-101680547D01*
X148331546Y-101966983D01*
X147966983Y-102331546D01*
X147680547Y-102760227D01*
X147483247Y-103236551D01*
X147382664Y-103742215D01*
X126760000Y-103742215D01*
X126760000Y-102703711D01*
X126803937Y-102659774D01*
X126917205Y-102490256D01*
X126995226Y-102301898D01*
X127035000Y-102101939D01*
X127035000Y-101898061D01*
X126995226Y-101698102D01*
X126917205Y-101509744D01*
X126803937Y-101340226D01*
X126760000Y-101296289D01*
X126760000Y-98875000D01*
X131674428Y-98875000D01*
X131686688Y-98999482D01*
X131722998Y-99119180D01*
X131781963Y-99229494D01*
X131861315Y-99326185D01*
X131958006Y-99405537D01*
X132068320Y-99464502D01*
X132188018Y-99500812D01*
X132312500Y-99513072D01*
X132739250Y-99510000D01*
X132898000Y-99351250D01*
X132898000Y-98127000D01*
X133152000Y-98127000D01*
X133152000Y-99351250D01*
X133310750Y-99510000D01*
X133737500Y-99513072D01*
X133861982Y-99500812D01*
X133981680Y-99464502D01*
X134091994Y-99405537D01*
X134188685Y-99326185D01*
X134268037Y-99229494D01*
X134327002Y-99119180D01*
X134363312Y-98999482D01*
X134375572Y-98875000D01*
X134372500Y-98285750D01*
X134213750Y-98127000D01*
X133152000Y-98127000D01*
X132898000Y-98127000D01*
X131836250Y-98127000D01*
X131677500Y-98285750D01*
X131674428Y-98875000D01*
X126760000Y-98875000D01*
X126760000Y-97125000D01*
X131674428Y-97125000D01*
X131677500Y-97714250D01*
X131836250Y-97873000D01*
X132898000Y-97873000D01*
X132898000Y-96648750D01*
X133152000Y-96648750D01*
X133152000Y-97873000D01*
X134213750Y-97873000D01*
X134372500Y-97714250D01*
X134374268Y-97375000D01*
X134649428Y-97375000D01*
X134649428Y-98625000D01*
X134666492Y-98798254D01*
X134717028Y-98964850D01*
X134799095Y-99118386D01*
X134909538Y-99252962D01*
X135044114Y-99363405D01*
X135197650Y-99445472D01*
X135364246Y-99496008D01*
X135537500Y-99513072D01*
X136462500Y-99513072D01*
X136635754Y-99496008D01*
X136802350Y-99445472D01*
X136955886Y-99363405D01*
X137090462Y-99252962D01*
X137200905Y-99118386D01*
X137282972Y-98964850D01*
X137333508Y-98798254D01*
X137337276Y-98760000D01*
X137544345Y-98760000D01*
X137679465Y-98895120D01*
X137908273Y-99048005D01*
X138162510Y-99153314D01*
X138432408Y-99207000D01*
X138707592Y-99207000D01*
X138977490Y-99153314D01*
X139231727Y-99048005D01*
X139460535Y-98895120D01*
X139595655Y-98760000D01*
X139662724Y-98760000D01*
X139666492Y-98798254D01*
X139717028Y-98964850D01*
X139799095Y-99118386D01*
X139909538Y-99252962D01*
X140044114Y-99363405D01*
X140197650Y-99445472D01*
X140364246Y-99496008D01*
X140537500Y-99513072D01*
X141462500Y-99513072D01*
X141635754Y-99496008D01*
X141802350Y-99445472D01*
X141955886Y-99363405D01*
X142090462Y-99252962D01*
X142200905Y-99118386D01*
X142282972Y-98964850D01*
X142333508Y-98798254D01*
X142350572Y-98625000D01*
X142350572Y-97375000D01*
X142333508Y-97201746D01*
X142282972Y-97035150D01*
X142200905Y-96881614D01*
X142090462Y-96747038D01*
X141955886Y-96636595D01*
X141802350Y-96554528D01*
X141635754Y-96503992D01*
X141462500Y-96486928D01*
X140537500Y-96486928D01*
X140364246Y-96503992D01*
X140197650Y-96554528D01*
X140044114Y-96636595D01*
X139909538Y-96747038D01*
X139799095Y-96881614D01*
X139723868Y-97022353D01*
X139655120Y-96919465D01*
X139460535Y-96724880D01*
X139231727Y-96571995D01*
X138977490Y-96466686D01*
X138707592Y-96413000D01*
X138432408Y-96413000D01*
X138162510Y-96466686D01*
X137908273Y-96571995D01*
X137679465Y-96724880D01*
X137484880Y-96919465D01*
X137331995Y-97148273D01*
X137323505Y-97168770D01*
X137282972Y-97035150D01*
X137200905Y-96881614D01*
X137090462Y-96747038D01*
X136955886Y-96636595D01*
X136802350Y-96554528D01*
X136635754Y-96503992D01*
X136462500Y-96486928D01*
X135537500Y-96486928D01*
X135364246Y-96503992D01*
X135197650Y-96554528D01*
X135044114Y-96636595D01*
X134909538Y-96747038D01*
X134799095Y-96881614D01*
X134717028Y-97035150D01*
X134666492Y-97201746D01*
X134649428Y-97375000D01*
X134374268Y-97375000D01*
X134375572Y-97125000D01*
X134363312Y-97000518D01*
X134327002Y-96880820D01*
X134268037Y-96770506D01*
X134188685Y-96673815D01*
X134091994Y-96594463D01*
X133981680Y-96535498D01*
X133861982Y-96499188D01*
X133737500Y-96486928D01*
X133310750Y-96490000D01*
X133152000Y-96648750D01*
X132898000Y-96648750D01*
X132739250Y-96490000D01*
X132312500Y-96486928D01*
X132188018Y-96499188D01*
X132068320Y-96535498D01*
X131958006Y-96594463D01*
X131861315Y-96673815D01*
X131781963Y-96770506D01*
X131722998Y-96880820D01*
X131686688Y-97000518D01*
X131674428Y-97125000D01*
X126760000Y-97125000D01*
X126760000Y-94314801D01*
X130199801Y-90875000D01*
X131674428Y-90875000D01*
X131686688Y-90999482D01*
X131722998Y-91119180D01*
X131781963Y-91229494D01*
X131861315Y-91326185D01*
X131958006Y-91405537D01*
X132068320Y-91464502D01*
X132188018Y-91500812D01*
X132312500Y-91513072D01*
X132739250Y-91510000D01*
X132898000Y-91351250D01*
X132898000Y-90127000D01*
X133152000Y-90127000D01*
X133152000Y-91351250D01*
X133310750Y-91510000D01*
X133737500Y-91513072D01*
X133861982Y-91500812D01*
X133981680Y-91464502D01*
X134091994Y-91405537D01*
X134188685Y-91326185D01*
X134268037Y-91229494D01*
X134327002Y-91119180D01*
X134363312Y-90999482D01*
X134375572Y-90875000D01*
X134372500Y-90285750D01*
X134213750Y-90127000D01*
X133152000Y-90127000D01*
X132898000Y-90127000D01*
X131836250Y-90127000D01*
X131677500Y-90285750D01*
X131674428Y-90875000D01*
X130199801Y-90875000D01*
X131675856Y-89398945D01*
X131677500Y-89714250D01*
X131836250Y-89873000D01*
X132898000Y-89873000D01*
X132898000Y-88648750D01*
X133152000Y-88648750D01*
X133152000Y-89873000D01*
X134213750Y-89873000D01*
X134372500Y-89714250D01*
X134374268Y-89375000D01*
X134649428Y-89375000D01*
X134649428Y-90625000D01*
X134666492Y-90798254D01*
X134717028Y-90964850D01*
X134799095Y-91118386D01*
X134909538Y-91252962D01*
X135044114Y-91363405D01*
X135197650Y-91445472D01*
X135364246Y-91496008D01*
X135537500Y-91513072D01*
X136462500Y-91513072D01*
X136635754Y-91496008D01*
X136802350Y-91445472D01*
X136955886Y-91363405D01*
X137090462Y-91252962D01*
X137200905Y-91118386D01*
X137282972Y-90964850D01*
X137323505Y-90831230D01*
X137331995Y-90851727D01*
X137484880Y-91080535D01*
X137679465Y-91275120D01*
X137908273Y-91428005D01*
X138162510Y-91533314D01*
X138432408Y-91587000D01*
X138707592Y-91587000D01*
X138977490Y-91533314D01*
X139231727Y-91428005D01*
X139460535Y-91275120D01*
X139655120Y-91080535D01*
X139723868Y-90977647D01*
X139799095Y-91118386D01*
X139909538Y-91252962D01*
X140044114Y-91363405D01*
X140197650Y-91445472D01*
X140364246Y-91496008D01*
X140537500Y-91513072D01*
X141462500Y-91513072D01*
X141635754Y-91496008D01*
X141802350Y-91445472D01*
X141955886Y-91363405D01*
X142090462Y-91252962D01*
X142200905Y-91118386D01*
X142282972Y-90964850D01*
X142333508Y-90798254D01*
X142350572Y-90625000D01*
X142350572Y-89375000D01*
X142333508Y-89201746D01*
X142282972Y-89035150D01*
X142200905Y-88881614D01*
X142090462Y-88747038D01*
X141955886Y-88636595D01*
X141802350Y-88554528D01*
X141635754Y-88503992D01*
X141462500Y-88486928D01*
X140537500Y-88486928D01*
X140364246Y-88503992D01*
X140197650Y-88554528D01*
X140044114Y-88636595D01*
X139909538Y-88747038D01*
X139799095Y-88881614D01*
X139717028Y-89035150D01*
X139666492Y-89201746D01*
X139662724Y-89240000D01*
X139595655Y-89240000D01*
X139460535Y-89104880D01*
X139231727Y-88951995D01*
X138977490Y-88846686D01*
X138707592Y-88793000D01*
X138432408Y-88793000D01*
X138162510Y-88846686D01*
X137908273Y-88951995D01*
X137679465Y-89104880D01*
X137544345Y-89240000D01*
X137337276Y-89240000D01*
X137333508Y-89201746D01*
X137282972Y-89035150D01*
X137200905Y-88881614D01*
X137090462Y-88747038D01*
X136955886Y-88636595D01*
X136802350Y-88554528D01*
X136635754Y-88503992D01*
X136462500Y-88486928D01*
X135537500Y-88486928D01*
X135364246Y-88503992D01*
X135197650Y-88554528D01*
X135044114Y-88636595D01*
X134909538Y-88747038D01*
X134799095Y-88881614D01*
X134717028Y-89035150D01*
X134666492Y-89201746D01*
X134649428Y-89375000D01*
X134374268Y-89375000D01*
X134375572Y-89125000D01*
X134363312Y-89000518D01*
X134327002Y-88880820D01*
X134268037Y-88770506D01*
X134188685Y-88673815D01*
X134091994Y-88594463D01*
X133981680Y-88535498D01*
X133861982Y-88499188D01*
X133737500Y-88486928D01*
X133310750Y-88490000D01*
X133152000Y-88648750D01*
X132898000Y-88648750D01*
X132739250Y-88490000D01*
X132585905Y-88488896D01*
X144039802Y-77035000D01*
X144101939Y-77035000D01*
X144301898Y-76995226D01*
X144490256Y-76917205D01*
X144659774Y-76803937D01*
X144803937Y-76659774D01*
X144917205Y-76490256D01*
X144995226Y-76301898D01*
X145035000Y-76101939D01*
X145035000Y-75898061D01*
X144995226Y-75698102D01*
X144917205Y-75509744D01*
X144900141Y-75484205D01*
X144904552Y-75477603D01*
X144982573Y-75289245D01*
X145022347Y-75089286D01*
X145022347Y-74885408D01*
X144982573Y-74685449D01*
X144904552Y-74497091D01*
X144898413Y-74487903D01*
X144911409Y-74468453D01*
X144989430Y-74280095D01*
X145029204Y-74080136D01*
X145029204Y-73876258D01*
X144989430Y-73676299D01*
X144911409Y-73487941D01*
X144798141Y-73318423D01*
X144726960Y-73247242D01*
X147214201Y-70760000D01*
X151296289Y-70760000D01*
X151340226Y-70803937D01*
X151509744Y-70917205D01*
X151698102Y-70995226D01*
X151898061Y-71035000D01*
X152101939Y-71035000D01*
X152301898Y-70995226D01*
X152490256Y-70917205D01*
X152659774Y-70803937D01*
X152730956Y-70732755D01*
X159129203Y-77131003D01*
G37*
%TD.AperFunction*%
%TD*%
M02*
