%TF.GenerationSoftware,KiCad,Pcbnew,5.1.10*%
%TF.CreationDate,2021-09-26T09:19:48+10:00*%
%TF.ProjectId,pcb-main,7063622d-6d61-4696-9e2e-6b696361645f,rev?*%
%TF.SameCoordinates,Original*%
%TF.FileFunction,Soldermask,Bot*%
%TF.FilePolarity,Negative*%
%FSLAX46Y46*%
G04 Gerber Fmt 4.6, Leading zero omitted, Abs format (unit mm)*
G04 Created by KiCad (PCBNEW 5.1.10) date 2021-09-26 09:19:48*
%MOMM*%
%LPD*%
G01*
G04 APERTURE LIST*
%ADD10O,1.700000X1.700000*%
%ADD11R,1.700000X1.700000*%
%ADD12C,1.524000*%
%ADD13R,3.150000X1.000000*%
%ADD14C,1.500000*%
G04 APERTURE END LIST*
D10*
%TO.C,J1*%
X118540000Y-103080000D03*
X116000000Y-103080000D03*
X118540000Y-100540000D03*
X116000000Y-100540000D03*
X118540000Y-98000000D03*
D11*
X116000000Y-98000000D03*
%TD*%
D12*
%TO.C,U3*%
X128410880Y-111027040D03*
X130950880Y-111027040D03*
X133490880Y-111027040D03*
X136030880Y-111027040D03*
X138570880Y-111027040D03*
X141110880Y-111027040D03*
X143650880Y-111027040D03*
X146190880Y-111027040D03*
X148730880Y-111027040D03*
X151270880Y-111027040D03*
X153810880Y-111027040D03*
X156350880Y-111027040D03*
X158890880Y-111027040D03*
X161430880Y-111027040D03*
X163970880Y-111027040D03*
X166510880Y-111027040D03*
X169050880Y-111027040D03*
X171590880Y-111027040D03*
X171590880Y-135000000D03*
X169050880Y-135000000D03*
X166510880Y-135000000D03*
X163970880Y-135000000D03*
X161430880Y-135000000D03*
X158890880Y-135000000D03*
X156350880Y-135000000D03*
X153810880Y-135000000D03*
X151270880Y-135000000D03*
X148730880Y-135000000D03*
X146190880Y-135000000D03*
X143650880Y-135000000D03*
X141110880Y-135000000D03*
X138570880Y-135000000D03*
X136030880Y-135000000D03*
X133490880Y-135000000D03*
X130950880Y-135000000D03*
X128410880Y-135000000D03*
%TD*%
%TO.C,M1*%
X161430000Y-97810000D03*
X161430000Y-90190000D03*
X138570000Y-90190000D03*
X138570000Y-97810000D03*
%TD*%
D13*
%TO.C,J2*%
X167950000Y-81700000D03*
X173000000Y-81700000D03*
X167950000Y-79160000D03*
X173000000Y-79160000D03*
X167950000Y-76620000D03*
X173000000Y-76620000D03*
X167950000Y-74080000D03*
X173000000Y-74080000D03*
X167950000Y-71540000D03*
X173000000Y-71540000D03*
X167950000Y-69000000D03*
X173000000Y-69000000D03*
%TD*%
D14*
%TO.C,Y1*%
X135000000Y-71380000D03*
X135000000Y-66500000D03*
%TD*%
%TO.C,D8*%
G36*
G01*
X133737500Y-97375000D02*
X133737500Y-98625000D01*
G75*
G02*
X133487500Y-98875000I-250000J0D01*
G01*
X132562500Y-98875000D01*
G75*
G02*
X132312500Y-98625000I0J250000D01*
G01*
X132312500Y-97375000D01*
G75*
G02*
X132562500Y-97125000I250000J0D01*
G01*
X133487500Y-97125000D01*
G75*
G02*
X133737500Y-97375000I0J-250000D01*
G01*
G37*
G36*
G01*
X136712500Y-97375000D02*
X136712500Y-98625000D01*
G75*
G02*
X136462500Y-98875000I-250000J0D01*
G01*
X135537500Y-98875000D01*
G75*
G02*
X135287500Y-98625000I0J250000D01*
G01*
X135287500Y-97375000D01*
G75*
G02*
X135537500Y-97125000I250000J0D01*
G01*
X136462500Y-97125000D01*
G75*
G02*
X136712500Y-97375000I0J-250000D01*
G01*
G37*
%TD*%
%TO.C,D7*%
G36*
G01*
X141712500Y-97375000D02*
X141712500Y-98625000D01*
G75*
G02*
X141462500Y-98875000I-250000J0D01*
G01*
X140537500Y-98875000D01*
G75*
G02*
X140287500Y-98625000I0J250000D01*
G01*
X140287500Y-97375000D01*
G75*
G02*
X140537500Y-97125000I250000J0D01*
G01*
X141462500Y-97125000D01*
G75*
G02*
X141712500Y-97375000I0J-250000D01*
G01*
G37*
G36*
G01*
X144687500Y-97375000D02*
X144687500Y-98625000D01*
G75*
G02*
X144437500Y-98875000I-250000J0D01*
G01*
X143512500Y-98875000D01*
G75*
G02*
X143262500Y-98625000I0J250000D01*
G01*
X143262500Y-97375000D01*
G75*
G02*
X143512500Y-97125000I250000J0D01*
G01*
X144437500Y-97125000D01*
G75*
G02*
X144687500Y-97375000I0J-250000D01*
G01*
G37*
%TD*%
%TO.C,D6*%
G36*
G01*
X133737500Y-89375000D02*
X133737500Y-90625000D01*
G75*
G02*
X133487500Y-90875000I-250000J0D01*
G01*
X132562500Y-90875000D01*
G75*
G02*
X132312500Y-90625000I0J250000D01*
G01*
X132312500Y-89375000D01*
G75*
G02*
X132562500Y-89125000I250000J0D01*
G01*
X133487500Y-89125000D01*
G75*
G02*
X133737500Y-89375000I0J-250000D01*
G01*
G37*
G36*
G01*
X136712500Y-89375000D02*
X136712500Y-90625000D01*
G75*
G02*
X136462500Y-90875000I-250000J0D01*
G01*
X135537500Y-90875000D01*
G75*
G02*
X135287500Y-90625000I0J250000D01*
G01*
X135287500Y-89375000D01*
G75*
G02*
X135537500Y-89125000I250000J0D01*
G01*
X136462500Y-89125000D01*
G75*
G02*
X136712500Y-89375000I0J-250000D01*
G01*
G37*
%TD*%
%TO.C,D5*%
G36*
G01*
X141712500Y-89375000D02*
X141712500Y-90625000D01*
G75*
G02*
X141462500Y-90875000I-250000J0D01*
G01*
X140537500Y-90875000D01*
G75*
G02*
X140287500Y-90625000I0J250000D01*
G01*
X140287500Y-89375000D01*
G75*
G02*
X140537500Y-89125000I250000J0D01*
G01*
X141462500Y-89125000D01*
G75*
G02*
X141712500Y-89375000I0J-250000D01*
G01*
G37*
G36*
G01*
X144687500Y-89375000D02*
X144687500Y-90625000D01*
G75*
G02*
X144437500Y-90875000I-250000J0D01*
G01*
X143512500Y-90875000D01*
G75*
G02*
X143262500Y-90625000I0J250000D01*
G01*
X143262500Y-89375000D01*
G75*
G02*
X143512500Y-89125000I250000J0D01*
G01*
X144437500Y-89125000D01*
G75*
G02*
X144687500Y-89375000I0J-250000D01*
G01*
G37*
%TD*%
%TO.C,D4*%
G36*
G01*
X166262500Y-98625000D02*
X166262500Y-97375000D01*
G75*
G02*
X166512500Y-97125000I250000J0D01*
G01*
X167437500Y-97125000D01*
G75*
G02*
X167687500Y-97375000I0J-250000D01*
G01*
X167687500Y-98625000D01*
G75*
G02*
X167437500Y-98875000I-250000J0D01*
G01*
X166512500Y-98875000D01*
G75*
G02*
X166262500Y-98625000I0J250000D01*
G01*
G37*
G36*
G01*
X163287500Y-98625000D02*
X163287500Y-97375000D01*
G75*
G02*
X163537500Y-97125000I250000J0D01*
G01*
X164462500Y-97125000D01*
G75*
G02*
X164712500Y-97375000I0J-250000D01*
G01*
X164712500Y-98625000D01*
G75*
G02*
X164462500Y-98875000I-250000J0D01*
G01*
X163537500Y-98875000D01*
G75*
G02*
X163287500Y-98625000I0J250000D01*
G01*
G37*
%TD*%
%TO.C,D3*%
G36*
G01*
X158287500Y-98625000D02*
X158287500Y-97375000D01*
G75*
G02*
X158537500Y-97125000I250000J0D01*
G01*
X159462500Y-97125000D01*
G75*
G02*
X159712500Y-97375000I0J-250000D01*
G01*
X159712500Y-98625000D01*
G75*
G02*
X159462500Y-98875000I-250000J0D01*
G01*
X158537500Y-98875000D01*
G75*
G02*
X158287500Y-98625000I0J250000D01*
G01*
G37*
G36*
G01*
X155312500Y-98625000D02*
X155312500Y-97375000D01*
G75*
G02*
X155562500Y-97125000I250000J0D01*
G01*
X156487500Y-97125000D01*
G75*
G02*
X156737500Y-97375000I0J-250000D01*
G01*
X156737500Y-98625000D01*
G75*
G02*
X156487500Y-98875000I-250000J0D01*
G01*
X155562500Y-98875000D01*
G75*
G02*
X155312500Y-98625000I0J250000D01*
G01*
G37*
%TD*%
%TO.C,D2*%
G36*
G01*
X166262500Y-90625000D02*
X166262500Y-89375000D01*
G75*
G02*
X166512500Y-89125000I250000J0D01*
G01*
X167437500Y-89125000D01*
G75*
G02*
X167687500Y-89375000I0J-250000D01*
G01*
X167687500Y-90625000D01*
G75*
G02*
X167437500Y-90875000I-250000J0D01*
G01*
X166512500Y-90875000D01*
G75*
G02*
X166262500Y-90625000I0J250000D01*
G01*
G37*
G36*
G01*
X163287500Y-90625000D02*
X163287500Y-89375000D01*
G75*
G02*
X163537500Y-89125000I250000J0D01*
G01*
X164462500Y-89125000D01*
G75*
G02*
X164712500Y-89375000I0J-250000D01*
G01*
X164712500Y-90625000D01*
G75*
G02*
X164462500Y-90875000I-250000J0D01*
G01*
X163537500Y-90875000D01*
G75*
G02*
X163287500Y-90625000I0J250000D01*
G01*
G37*
%TD*%
%TO.C,D1*%
G36*
G01*
X158287500Y-90625000D02*
X158287500Y-89375000D01*
G75*
G02*
X158537500Y-89125000I250000J0D01*
G01*
X159462500Y-89125000D01*
G75*
G02*
X159712500Y-89375000I0J-250000D01*
G01*
X159712500Y-90625000D01*
G75*
G02*
X159462500Y-90875000I-250000J0D01*
G01*
X158537500Y-90875000D01*
G75*
G02*
X158287500Y-90625000I0J250000D01*
G01*
G37*
G36*
G01*
X155312500Y-90625000D02*
X155312500Y-89375000D01*
G75*
G02*
X155562500Y-89125000I250000J0D01*
G01*
X156487500Y-89125000D01*
G75*
G02*
X156737500Y-89375000I0J-250000D01*
G01*
X156737500Y-90625000D01*
G75*
G02*
X156487500Y-90875000I-250000J0D01*
G01*
X155562500Y-90875000D01*
G75*
G02*
X155312500Y-90625000I0J250000D01*
G01*
G37*
%TD*%
M02*
