%TF.GenerationSoftware,KiCad,Pcbnew,5.1.10*%
%TF.CreationDate,2021-09-26T09:19:48+10:00*%
%TF.ProjectId,pcb-main,7063622d-6d61-4696-9e2e-6b696361645f,rev?*%
%TF.SameCoordinates,Original*%
%TF.FileFunction,Legend,Bot*%
%TF.FilePolarity,Positive*%
%FSLAX46Y46*%
G04 Gerber Fmt 4.6, Leading zero omitted, Abs format (unit mm)*
G04 Created by KiCad (PCBNEW 5.1.10) date 2021-09-26 09:19:48*
%MOMM*%
%LPD*%
G01*
G04 APERTURE LIST*
%ADD10C,0.150000*%
%ADD11C,0.120000*%
G04 APERTURE END LIST*
D10*
X165712023Y-81866666D02*
X165235833Y-81866666D01*
X165807261Y-82152380D02*
X165473928Y-81152380D01*
X165140595Y-82152380D01*
X164807261Y-82152380D02*
X164807261Y-81152380D01*
X164569166Y-81152380D01*
X164426309Y-81200000D01*
X164331071Y-81295238D01*
X164283452Y-81390476D01*
X164235833Y-81580952D01*
X164235833Y-81723809D01*
X164283452Y-81914285D01*
X164331071Y-82009523D01*
X164426309Y-82104761D01*
X164569166Y-82152380D01*
X164807261Y-82152380D01*
X163235833Y-82057142D02*
X163283452Y-82104761D01*
X163426309Y-82152380D01*
X163521547Y-82152380D01*
X163664404Y-82104761D01*
X163759642Y-82009523D01*
X163807261Y-81914285D01*
X163854880Y-81723809D01*
X163854880Y-81580952D01*
X163807261Y-81390476D01*
X163759642Y-81295238D01*
X163664404Y-81200000D01*
X163521547Y-81152380D01*
X163426309Y-81152380D01*
X163283452Y-81200000D01*
X163235833Y-81247619D01*
X162378690Y-81152380D02*
X162569166Y-81152380D01*
X162664404Y-81200000D01*
X162712023Y-81247619D01*
X162807261Y-81390476D01*
X162854880Y-81580952D01*
X162854880Y-81961904D01*
X162807261Y-82057142D01*
X162759642Y-82104761D01*
X162664404Y-82152380D01*
X162473928Y-82152380D01*
X162378690Y-82104761D01*
X162331071Y-82057142D01*
X162283452Y-81961904D01*
X162283452Y-81723809D01*
X162331071Y-81628571D01*
X162378690Y-81580952D01*
X162473928Y-81533333D01*
X162664404Y-81533333D01*
X162759642Y-81580952D01*
X162807261Y-81628571D01*
X162854880Y-81723809D01*
X165712023Y-79326666D02*
X165235833Y-79326666D01*
X165807261Y-79612380D02*
X165473928Y-78612380D01*
X165140595Y-79612380D01*
X164807261Y-79612380D02*
X164807261Y-78612380D01*
X164569166Y-78612380D01*
X164426309Y-78660000D01*
X164331071Y-78755238D01*
X164283452Y-78850476D01*
X164235833Y-79040952D01*
X164235833Y-79183809D01*
X164283452Y-79374285D01*
X164331071Y-79469523D01*
X164426309Y-79564761D01*
X164569166Y-79612380D01*
X164807261Y-79612380D01*
X163235833Y-79517142D02*
X163283452Y-79564761D01*
X163426309Y-79612380D01*
X163521547Y-79612380D01*
X163664404Y-79564761D01*
X163759642Y-79469523D01*
X163807261Y-79374285D01*
X163854880Y-79183809D01*
X163854880Y-79040952D01*
X163807261Y-78850476D01*
X163759642Y-78755238D01*
X163664404Y-78660000D01*
X163521547Y-78612380D01*
X163426309Y-78612380D01*
X163283452Y-78660000D01*
X163235833Y-78707619D01*
X162902500Y-78612380D02*
X162235833Y-78612380D01*
X162664404Y-79612380D01*
X165664404Y-77072380D02*
X165664404Y-76072380D01*
X165283452Y-76072380D01*
X165188214Y-76120000D01*
X165140595Y-76167619D01*
X165092976Y-76262857D01*
X165092976Y-76405714D01*
X165140595Y-76500952D01*
X165188214Y-76548571D01*
X165283452Y-76596190D01*
X165664404Y-76596190D01*
X164331071Y-76548571D02*
X164188214Y-76596190D01*
X164140595Y-76643809D01*
X164092976Y-76739047D01*
X164092976Y-76881904D01*
X164140595Y-76977142D01*
X164188214Y-77024761D01*
X164283452Y-77072380D01*
X164664404Y-77072380D01*
X164664404Y-76072380D01*
X164331071Y-76072380D01*
X164235833Y-76120000D01*
X164188214Y-76167619D01*
X164140595Y-76262857D01*
X164140595Y-76358095D01*
X164188214Y-76453333D01*
X164235833Y-76500952D01*
X164331071Y-76548571D01*
X164664404Y-76548571D01*
X163473928Y-76072380D02*
X163378690Y-76072380D01*
X163283452Y-76120000D01*
X163235833Y-76167619D01*
X163188214Y-76262857D01*
X163140595Y-76453333D01*
X163140595Y-76691428D01*
X163188214Y-76881904D01*
X163235833Y-76977142D01*
X163283452Y-77024761D01*
X163378690Y-77072380D01*
X163473928Y-77072380D01*
X163569166Y-77024761D01*
X163616785Y-76977142D01*
X163664404Y-76881904D01*
X163712023Y-76691428D01*
X163712023Y-76453333D01*
X163664404Y-76262857D01*
X163616785Y-76167619D01*
X163569166Y-76120000D01*
X163473928Y-76072380D01*
X165664404Y-74532380D02*
X165664404Y-73532380D01*
X165283452Y-73532380D01*
X165188214Y-73580000D01*
X165140595Y-73627619D01*
X165092976Y-73722857D01*
X165092976Y-73865714D01*
X165140595Y-73960952D01*
X165188214Y-74008571D01*
X165283452Y-74056190D01*
X165664404Y-74056190D01*
X164664404Y-74532380D02*
X164664404Y-73532380D01*
X164426309Y-73532380D01*
X164283452Y-73580000D01*
X164188214Y-73675238D01*
X164140595Y-73770476D01*
X164092976Y-73960952D01*
X164092976Y-74103809D01*
X164140595Y-74294285D01*
X164188214Y-74389523D01*
X164283452Y-74484761D01*
X164426309Y-74532380D01*
X164664404Y-74532380D01*
X163759642Y-73532380D02*
X163092976Y-73532380D01*
X163521547Y-74532380D01*
X165664404Y-71992380D02*
X165664404Y-70992380D01*
X165283452Y-70992380D01*
X165188214Y-71040000D01*
X165140595Y-71087619D01*
X165092976Y-71182857D01*
X165092976Y-71325714D01*
X165140595Y-71420952D01*
X165188214Y-71468571D01*
X165283452Y-71516190D01*
X165664404Y-71516190D01*
X164664404Y-71992380D02*
X164664404Y-70992380D01*
X164426309Y-70992380D01*
X164283452Y-71040000D01*
X164188214Y-71135238D01*
X164140595Y-71230476D01*
X164092976Y-71420952D01*
X164092976Y-71563809D01*
X164140595Y-71754285D01*
X164188214Y-71849523D01*
X164283452Y-71944761D01*
X164426309Y-71992380D01*
X164664404Y-71992380D01*
X163235833Y-70992380D02*
X163426309Y-70992380D01*
X163521547Y-71040000D01*
X163569166Y-71087619D01*
X163664404Y-71230476D01*
X163712023Y-71420952D01*
X163712023Y-71801904D01*
X163664404Y-71897142D01*
X163616785Y-71944761D01*
X163521547Y-71992380D01*
X163331071Y-71992380D01*
X163235833Y-71944761D01*
X163188214Y-71897142D01*
X163140595Y-71801904D01*
X163140595Y-71563809D01*
X163188214Y-71468571D01*
X163235833Y-71420952D01*
X163331071Y-71373333D01*
X163521547Y-71373333D01*
X163616785Y-71420952D01*
X163664404Y-71468571D01*
X163712023Y-71563809D01*
X165664404Y-69452380D02*
X165664404Y-68452380D01*
X165283452Y-68452380D01*
X165188214Y-68500000D01*
X165140595Y-68547619D01*
X165092976Y-68642857D01*
X165092976Y-68785714D01*
X165140595Y-68880952D01*
X165188214Y-68928571D01*
X165283452Y-68976190D01*
X165664404Y-68976190D01*
X164664404Y-69452380D02*
X164664404Y-68452380D01*
X164426309Y-68452380D01*
X164283452Y-68500000D01*
X164188214Y-68595238D01*
X164140595Y-68690476D01*
X164092976Y-68880952D01*
X164092976Y-69023809D01*
X164140595Y-69214285D01*
X164188214Y-69309523D01*
X164283452Y-69404761D01*
X164426309Y-69452380D01*
X164664404Y-69452380D01*
X163188214Y-68452380D02*
X163664404Y-68452380D01*
X163712023Y-68928571D01*
X163664404Y-68880952D01*
X163569166Y-68833333D01*
X163331071Y-68833333D01*
X163235833Y-68880952D01*
X163188214Y-68928571D01*
X163140595Y-69023809D01*
X163140595Y-69261904D01*
X163188214Y-69357142D01*
X163235833Y-69404761D01*
X163331071Y-69452380D01*
X163569166Y-69452380D01*
X163664404Y-69404761D01*
X163712023Y-69357142D01*
X177811785Y-69452380D02*
X177811785Y-68452380D01*
X177430833Y-68452380D01*
X177335595Y-68500000D01*
X177287976Y-68547619D01*
X177240357Y-68642857D01*
X177240357Y-68785714D01*
X177287976Y-68880952D01*
X177335595Y-68928571D01*
X177430833Y-68976190D01*
X177811785Y-68976190D01*
X176811785Y-69452380D02*
X176811785Y-68452380D01*
X176573690Y-68452380D01*
X176430833Y-68500000D01*
X176335595Y-68595238D01*
X176287976Y-68690476D01*
X176240357Y-68880952D01*
X176240357Y-69023809D01*
X176287976Y-69214285D01*
X176335595Y-69309523D01*
X176430833Y-69404761D01*
X176573690Y-69452380D01*
X176811785Y-69452380D01*
X175383214Y-68785714D02*
X175383214Y-69452380D01*
X175621309Y-68404761D02*
X175859404Y-69119047D01*
X175240357Y-69119047D01*
X177811785Y-71992380D02*
X177811785Y-70992380D01*
X177430833Y-70992380D01*
X177335595Y-71040000D01*
X177287976Y-71087619D01*
X177240357Y-71182857D01*
X177240357Y-71325714D01*
X177287976Y-71420952D01*
X177335595Y-71468571D01*
X177430833Y-71516190D01*
X177811785Y-71516190D01*
X176811785Y-71992380D02*
X176811785Y-70992380D01*
X176573690Y-70992380D01*
X176430833Y-71040000D01*
X176335595Y-71135238D01*
X176287976Y-71230476D01*
X176240357Y-71420952D01*
X176240357Y-71563809D01*
X176287976Y-71754285D01*
X176335595Y-71849523D01*
X176430833Y-71944761D01*
X176573690Y-71992380D01*
X176811785Y-71992380D01*
X175907023Y-70992380D02*
X175287976Y-70992380D01*
X175621309Y-71373333D01*
X175478452Y-71373333D01*
X175383214Y-71420952D01*
X175335595Y-71468571D01*
X175287976Y-71563809D01*
X175287976Y-71801904D01*
X175335595Y-71897142D01*
X175383214Y-71944761D01*
X175478452Y-71992380D01*
X175764166Y-71992380D01*
X175859404Y-71944761D01*
X175907023Y-71897142D01*
X177811785Y-74532380D02*
X177811785Y-73532380D01*
X177430833Y-73532380D01*
X177335595Y-73580000D01*
X177287976Y-73627619D01*
X177240357Y-73722857D01*
X177240357Y-73865714D01*
X177287976Y-73960952D01*
X177335595Y-74008571D01*
X177430833Y-74056190D01*
X177811785Y-74056190D01*
X176811785Y-74532380D02*
X176811785Y-73532380D01*
X176573690Y-73532380D01*
X176430833Y-73580000D01*
X176335595Y-73675238D01*
X176287976Y-73770476D01*
X176240357Y-73960952D01*
X176240357Y-74103809D01*
X176287976Y-74294285D01*
X176335595Y-74389523D01*
X176430833Y-74484761D01*
X176573690Y-74532380D01*
X176811785Y-74532380D01*
X175859404Y-73627619D02*
X175811785Y-73580000D01*
X175716547Y-73532380D01*
X175478452Y-73532380D01*
X175383214Y-73580000D01*
X175335595Y-73627619D01*
X175287976Y-73722857D01*
X175287976Y-73818095D01*
X175335595Y-73960952D01*
X175907023Y-74532380D01*
X175287976Y-74532380D01*
X177811785Y-77072380D02*
X177811785Y-76072380D01*
X177430833Y-76072380D01*
X177335595Y-76120000D01*
X177287976Y-76167619D01*
X177240357Y-76262857D01*
X177240357Y-76405714D01*
X177287976Y-76500952D01*
X177335595Y-76548571D01*
X177430833Y-76596190D01*
X177811785Y-76596190D01*
X176811785Y-77072380D02*
X176811785Y-76072380D01*
X176573690Y-76072380D01*
X176430833Y-76120000D01*
X176335595Y-76215238D01*
X176287976Y-76310476D01*
X176240357Y-76500952D01*
X176240357Y-76643809D01*
X176287976Y-76834285D01*
X176335595Y-76929523D01*
X176430833Y-77024761D01*
X176573690Y-77072380D01*
X176811785Y-77072380D01*
X175287976Y-77072380D02*
X175859404Y-77072380D01*
X175573690Y-77072380D02*
X175573690Y-76072380D01*
X175668928Y-76215238D01*
X175764166Y-76310476D01*
X175859404Y-76358095D01*
X176192738Y-78612380D02*
X176668928Y-78612380D01*
X176716547Y-79088571D01*
X176668928Y-79040952D01*
X176573690Y-78993333D01*
X176335595Y-78993333D01*
X176240357Y-79040952D01*
X176192738Y-79088571D01*
X176145119Y-79183809D01*
X176145119Y-79421904D01*
X176192738Y-79517142D01*
X176240357Y-79564761D01*
X176335595Y-79612380D01*
X176573690Y-79612380D01*
X176668928Y-79564761D01*
X176716547Y-79517142D01*
X175859404Y-78612380D02*
X175526071Y-79612380D01*
X175192738Y-78612380D01*
X177383214Y-81200000D02*
X177478452Y-81152380D01*
X177621309Y-81152380D01*
X177764166Y-81200000D01*
X177859404Y-81295238D01*
X177907023Y-81390476D01*
X177954642Y-81580952D01*
X177954642Y-81723809D01*
X177907023Y-81914285D01*
X177859404Y-82009523D01*
X177764166Y-82104761D01*
X177621309Y-82152380D01*
X177526071Y-82152380D01*
X177383214Y-82104761D01*
X177335595Y-82057142D01*
X177335595Y-81723809D01*
X177526071Y-81723809D01*
X176907023Y-82152380D02*
X176907023Y-81152380D01*
X176335595Y-82152380D01*
X176335595Y-81152380D01*
X175859404Y-82152380D02*
X175859404Y-81152380D01*
X175621309Y-81152380D01*
X175478452Y-81200000D01*
X175383214Y-81295238D01*
X175335595Y-81390476D01*
X175287976Y-81580952D01*
X175287976Y-81723809D01*
X175335595Y-81914285D01*
X175383214Y-82009523D01*
X175478452Y-82104761D01*
X175621309Y-82152380D01*
X175859404Y-82152380D01*
D11*
%TO.C,J2*%
X173075000Y-67670000D02*
X167875000Y-67670000D01*
X173075000Y-83030000D02*
X167875000Y-83030000D01*
X174515000Y-68240000D02*
X173075000Y-68240000D01*
X173075000Y-67670000D02*
X173075000Y-68240000D01*
X167875000Y-67670000D02*
X167875000Y-68240000D01*
X173075000Y-82460000D02*
X173075000Y-83030000D01*
X167875000Y-82460000D02*
X167875000Y-83030000D01*
X173075000Y-69760000D02*
X173075000Y-70780000D01*
X167875000Y-69760000D02*
X167875000Y-70780000D01*
X173075000Y-72300000D02*
X173075000Y-73320000D01*
X167875000Y-72300000D02*
X167875000Y-73320000D01*
X173075000Y-74840000D02*
X173075000Y-75860000D01*
X167875000Y-74840000D02*
X167875000Y-75860000D01*
X173075000Y-77380000D02*
X173075000Y-78400000D01*
X167875000Y-77380000D02*
X167875000Y-78400000D01*
X173075000Y-79920000D02*
X173075000Y-80940000D01*
X167875000Y-79920000D02*
X167875000Y-80940000D01*
%TO.C,D8*%
X132912500Y-96865000D02*
X136972500Y-96865000D01*
X136972500Y-96865000D02*
X136972500Y-99135000D01*
X136972500Y-99135000D02*
X132912500Y-99135000D01*
%TO.C,D7*%
X140887500Y-96865000D02*
X144947500Y-96865000D01*
X144947500Y-96865000D02*
X144947500Y-99135000D01*
X144947500Y-99135000D02*
X140887500Y-99135000D01*
%TO.C,D6*%
X132912500Y-88865000D02*
X136972500Y-88865000D01*
X136972500Y-88865000D02*
X136972500Y-91135000D01*
X136972500Y-91135000D02*
X132912500Y-91135000D01*
%TO.C,D5*%
X140887500Y-88865000D02*
X144947500Y-88865000D01*
X144947500Y-88865000D02*
X144947500Y-91135000D01*
X144947500Y-91135000D02*
X140887500Y-91135000D01*
%TO.C,D4*%
X167087500Y-99135000D02*
X163027500Y-99135000D01*
X163027500Y-99135000D02*
X163027500Y-96865000D01*
X163027500Y-96865000D02*
X167087500Y-96865000D01*
%TO.C,D3*%
X159112500Y-99135000D02*
X155052500Y-99135000D01*
X155052500Y-99135000D02*
X155052500Y-96865000D01*
X155052500Y-96865000D02*
X159112500Y-96865000D01*
%TO.C,D2*%
X167087500Y-91135000D02*
X163027500Y-91135000D01*
X163027500Y-91135000D02*
X163027500Y-88865000D01*
X163027500Y-88865000D02*
X167087500Y-88865000D01*
%TO.C,D1*%
X159112500Y-91135000D02*
X155052500Y-91135000D01*
X155052500Y-91135000D02*
X155052500Y-88865000D01*
X155052500Y-88865000D02*
X159112500Y-88865000D01*
%TO.C,J2*%
D10*
X170808333Y-66122380D02*
X170808333Y-66836666D01*
X170855952Y-66979523D01*
X170951190Y-67074761D01*
X171094047Y-67122380D01*
X171189285Y-67122380D01*
X170379761Y-66217619D02*
X170332142Y-66170000D01*
X170236904Y-66122380D01*
X169998809Y-66122380D01*
X169903571Y-66170000D01*
X169855952Y-66217619D01*
X169808333Y-66312857D01*
X169808333Y-66408095D01*
X169855952Y-66550952D01*
X170427380Y-67122380D01*
X169808333Y-67122380D01*
%TO.C,D8*%
X135250595Y-100452380D02*
X135250595Y-99452380D01*
X135012500Y-99452380D01*
X134869642Y-99500000D01*
X134774404Y-99595238D01*
X134726785Y-99690476D01*
X134679166Y-99880952D01*
X134679166Y-100023809D01*
X134726785Y-100214285D01*
X134774404Y-100309523D01*
X134869642Y-100404761D01*
X135012500Y-100452380D01*
X135250595Y-100452380D01*
X134107738Y-99880952D02*
X134202976Y-99833333D01*
X134250595Y-99785714D01*
X134298214Y-99690476D01*
X134298214Y-99642857D01*
X134250595Y-99547619D01*
X134202976Y-99500000D01*
X134107738Y-99452380D01*
X133917261Y-99452380D01*
X133822023Y-99500000D01*
X133774404Y-99547619D01*
X133726785Y-99642857D01*
X133726785Y-99690476D01*
X133774404Y-99785714D01*
X133822023Y-99833333D01*
X133917261Y-99880952D01*
X134107738Y-99880952D01*
X134202976Y-99928571D01*
X134250595Y-99976190D01*
X134298214Y-100071428D01*
X134298214Y-100261904D01*
X134250595Y-100357142D01*
X134202976Y-100404761D01*
X134107738Y-100452380D01*
X133917261Y-100452380D01*
X133822023Y-100404761D01*
X133774404Y-100357142D01*
X133726785Y-100261904D01*
X133726785Y-100071428D01*
X133774404Y-99976190D01*
X133822023Y-99928571D01*
X133917261Y-99880952D01*
%TO.C,D7*%
X143225595Y-100452380D02*
X143225595Y-99452380D01*
X142987500Y-99452380D01*
X142844642Y-99500000D01*
X142749404Y-99595238D01*
X142701785Y-99690476D01*
X142654166Y-99880952D01*
X142654166Y-100023809D01*
X142701785Y-100214285D01*
X142749404Y-100309523D01*
X142844642Y-100404761D01*
X142987500Y-100452380D01*
X143225595Y-100452380D01*
X142320833Y-99452380D02*
X141654166Y-99452380D01*
X142082738Y-100452380D01*
%TO.C,D6*%
X135250595Y-92452380D02*
X135250595Y-91452380D01*
X135012500Y-91452380D01*
X134869642Y-91500000D01*
X134774404Y-91595238D01*
X134726785Y-91690476D01*
X134679166Y-91880952D01*
X134679166Y-92023809D01*
X134726785Y-92214285D01*
X134774404Y-92309523D01*
X134869642Y-92404761D01*
X135012500Y-92452380D01*
X135250595Y-92452380D01*
X133822023Y-91452380D02*
X134012500Y-91452380D01*
X134107738Y-91500000D01*
X134155357Y-91547619D01*
X134250595Y-91690476D01*
X134298214Y-91880952D01*
X134298214Y-92261904D01*
X134250595Y-92357142D01*
X134202976Y-92404761D01*
X134107738Y-92452380D01*
X133917261Y-92452380D01*
X133822023Y-92404761D01*
X133774404Y-92357142D01*
X133726785Y-92261904D01*
X133726785Y-92023809D01*
X133774404Y-91928571D01*
X133822023Y-91880952D01*
X133917261Y-91833333D01*
X134107738Y-91833333D01*
X134202976Y-91880952D01*
X134250595Y-91928571D01*
X134298214Y-92023809D01*
%TO.C,D5*%
X143225595Y-92452380D02*
X143225595Y-91452380D01*
X142987500Y-91452380D01*
X142844642Y-91500000D01*
X142749404Y-91595238D01*
X142701785Y-91690476D01*
X142654166Y-91880952D01*
X142654166Y-92023809D01*
X142701785Y-92214285D01*
X142749404Y-92309523D01*
X142844642Y-92404761D01*
X142987500Y-92452380D01*
X143225595Y-92452380D01*
X141749404Y-91452380D02*
X142225595Y-91452380D01*
X142273214Y-91928571D01*
X142225595Y-91880952D01*
X142130357Y-91833333D01*
X141892261Y-91833333D01*
X141797023Y-91880952D01*
X141749404Y-91928571D01*
X141701785Y-92023809D01*
X141701785Y-92261904D01*
X141749404Y-92357142D01*
X141797023Y-92404761D01*
X141892261Y-92452380D01*
X142130357Y-92452380D01*
X142225595Y-92404761D01*
X142273214Y-92357142D01*
%TO.C,D4*%
X166225595Y-100452380D02*
X166225595Y-99452380D01*
X165987500Y-99452380D01*
X165844642Y-99500000D01*
X165749404Y-99595238D01*
X165701785Y-99690476D01*
X165654166Y-99880952D01*
X165654166Y-100023809D01*
X165701785Y-100214285D01*
X165749404Y-100309523D01*
X165844642Y-100404761D01*
X165987500Y-100452380D01*
X166225595Y-100452380D01*
X164797023Y-99785714D02*
X164797023Y-100452380D01*
X165035119Y-99404761D02*
X165273214Y-100119047D01*
X164654166Y-100119047D01*
%TO.C,D3*%
X158250595Y-100452380D02*
X158250595Y-99452380D01*
X158012500Y-99452380D01*
X157869642Y-99500000D01*
X157774404Y-99595238D01*
X157726785Y-99690476D01*
X157679166Y-99880952D01*
X157679166Y-100023809D01*
X157726785Y-100214285D01*
X157774404Y-100309523D01*
X157869642Y-100404761D01*
X158012500Y-100452380D01*
X158250595Y-100452380D01*
X157345833Y-99452380D02*
X156726785Y-99452380D01*
X157060119Y-99833333D01*
X156917261Y-99833333D01*
X156822023Y-99880952D01*
X156774404Y-99928571D01*
X156726785Y-100023809D01*
X156726785Y-100261904D01*
X156774404Y-100357142D01*
X156822023Y-100404761D01*
X156917261Y-100452380D01*
X157202976Y-100452380D01*
X157298214Y-100404761D01*
X157345833Y-100357142D01*
%TO.C,D2*%
X166225595Y-92452380D02*
X166225595Y-91452380D01*
X165987500Y-91452380D01*
X165844642Y-91500000D01*
X165749404Y-91595238D01*
X165701785Y-91690476D01*
X165654166Y-91880952D01*
X165654166Y-92023809D01*
X165701785Y-92214285D01*
X165749404Y-92309523D01*
X165844642Y-92404761D01*
X165987500Y-92452380D01*
X166225595Y-92452380D01*
X165273214Y-91547619D02*
X165225595Y-91500000D01*
X165130357Y-91452380D01*
X164892261Y-91452380D01*
X164797023Y-91500000D01*
X164749404Y-91547619D01*
X164701785Y-91642857D01*
X164701785Y-91738095D01*
X164749404Y-91880952D01*
X165320833Y-92452380D01*
X164701785Y-92452380D01*
%TO.C,D1*%
X158250595Y-92452380D02*
X158250595Y-91452380D01*
X158012500Y-91452380D01*
X157869642Y-91500000D01*
X157774404Y-91595238D01*
X157726785Y-91690476D01*
X157679166Y-91880952D01*
X157679166Y-92023809D01*
X157726785Y-92214285D01*
X157774404Y-92309523D01*
X157869642Y-92404761D01*
X158012500Y-92452380D01*
X158250595Y-92452380D01*
X156726785Y-92452380D02*
X157298214Y-92452380D01*
X157012500Y-92452380D02*
X157012500Y-91452380D01*
X157107738Y-91595238D01*
X157202976Y-91690476D01*
X157298214Y-91738095D01*
%TD*%
M02*
