%TF.GenerationSoftware,KiCad,Pcbnew,5.1.10*%
%TF.CreationDate,2021-09-26T09:19:48+10:00*%
%TF.ProjectId,pcb-main,7063622d-6d61-4696-9e2e-6b696361645f,rev?*%
%TF.SameCoordinates,Original*%
%TF.FileFunction,Legend,Top*%
%TF.FilePolarity,Positive*%
%FSLAX46Y46*%
G04 Gerber Fmt 4.6, Leading zero omitted, Abs format (unit mm)*
G04 Created by KiCad (PCBNEW 5.1.10) date 2021-09-26 09:19:48*
%MOMM*%
%LPD*%
G01*
G04 APERTURE LIST*
%ADD10C,0.150000*%
%ADD11C,0.120000*%
G04 APERTURE END LIST*
D10*
X177380952Y-114452380D02*
X177380952Y-115166666D01*
X177333333Y-115309523D01*
X177238095Y-115404761D01*
X177095238Y-115452380D01*
X177000000Y-115452380D01*
X178333333Y-115452380D02*
X177857142Y-115452380D01*
X177857142Y-114452380D01*
X179238095Y-115357142D02*
X179190476Y-115404761D01*
X179047619Y-115452380D01*
X178952380Y-115452380D01*
X178809523Y-115404761D01*
X178714285Y-115309523D01*
X178666666Y-115214285D01*
X178619047Y-115023809D01*
X178619047Y-114880952D01*
X178666666Y-114690476D01*
X178714285Y-114595238D01*
X178809523Y-114500000D01*
X178952380Y-114452380D01*
X179047619Y-114452380D01*
X179190476Y-114500000D01*
X179238095Y-114547619D01*
X179952380Y-114452380D02*
X179952380Y-115166666D01*
X179904761Y-115309523D01*
X179809523Y-115404761D01*
X179666666Y-115452380D01*
X179571428Y-115452380D01*
X180904761Y-115452380D02*
X180428571Y-115452380D01*
X180428571Y-114452380D01*
X181809523Y-115357142D02*
X181761904Y-115404761D01*
X181619047Y-115452380D01*
X181523809Y-115452380D01*
X181380952Y-115404761D01*
X181285714Y-115309523D01*
X181238095Y-115214285D01*
X181190476Y-115023809D01*
X181190476Y-114880952D01*
X181238095Y-114690476D01*
X181285714Y-114595238D01*
X181380952Y-114500000D01*
X181523809Y-114452380D01*
X181619047Y-114452380D01*
X181761904Y-114500000D01*
X181809523Y-114547619D01*
X182523809Y-114452380D02*
X182523809Y-115166666D01*
X182476190Y-115309523D01*
X182380952Y-115404761D01*
X182238095Y-115452380D01*
X182142857Y-115452380D01*
X183476190Y-115452380D02*
X183000000Y-115452380D01*
X183000000Y-114452380D01*
X184380952Y-115357142D02*
X184333333Y-115404761D01*
X184190476Y-115452380D01*
X184095238Y-115452380D01*
X183952380Y-115404761D01*
X183857142Y-115309523D01*
X183809523Y-115214285D01*
X183761904Y-115023809D01*
X183761904Y-114880952D01*
X183809523Y-114690476D01*
X183857142Y-114595238D01*
X183952380Y-114500000D01*
X184095238Y-114452380D01*
X184190476Y-114452380D01*
X184333333Y-114500000D01*
X184380952Y-114547619D01*
X185095238Y-114452380D02*
X185095238Y-115166666D01*
X185047619Y-115309523D01*
X184952380Y-115404761D01*
X184809523Y-115452380D01*
X184714285Y-115452380D01*
X186047619Y-115452380D02*
X185571428Y-115452380D01*
X185571428Y-114452380D01*
X186952380Y-115357142D02*
X186904761Y-115404761D01*
X186761904Y-115452380D01*
X186666666Y-115452380D01*
X186523809Y-115404761D01*
X186428571Y-115309523D01*
X186380952Y-115214285D01*
X186333333Y-115023809D01*
X186333333Y-114880952D01*
X186380952Y-114690476D01*
X186428571Y-114595238D01*
X186523809Y-114500000D01*
X186666666Y-114452380D01*
X186761904Y-114452380D01*
X186904761Y-114500000D01*
X186952380Y-114547619D01*
X175690476Y-111627380D02*
X175690476Y-110627380D01*
X176023809Y-111341666D01*
X176357142Y-110627380D01*
X176357142Y-111627380D01*
X176976190Y-111627380D02*
X176880952Y-111579761D01*
X176833333Y-111532142D01*
X176785714Y-111436904D01*
X176785714Y-111151190D01*
X176833333Y-111055952D01*
X176880952Y-111008333D01*
X176976190Y-110960714D01*
X177119047Y-110960714D01*
X177214285Y-111008333D01*
X177261904Y-111055952D01*
X177309523Y-111151190D01*
X177309523Y-111436904D01*
X177261904Y-111532142D01*
X177214285Y-111579761D01*
X177119047Y-111627380D01*
X176976190Y-111627380D01*
X177595238Y-110960714D02*
X177976190Y-110960714D01*
X177738095Y-110627380D02*
X177738095Y-111484523D01*
X177785714Y-111579761D01*
X177880952Y-111627380D01*
X177976190Y-111627380D01*
X178452380Y-111627380D02*
X178357142Y-111579761D01*
X178309523Y-111532142D01*
X178261904Y-111436904D01*
X178261904Y-111151190D01*
X178309523Y-111055952D01*
X178357142Y-111008333D01*
X178452380Y-110960714D01*
X178595238Y-110960714D01*
X178690476Y-111008333D01*
X178738095Y-111055952D01*
X178785714Y-111151190D01*
X178785714Y-111436904D01*
X178738095Y-111532142D01*
X178690476Y-111579761D01*
X178595238Y-111627380D01*
X178452380Y-111627380D01*
X179214285Y-111627380D02*
X179214285Y-110960714D01*
X179214285Y-111151190D02*
X179261904Y-111055952D01*
X179309523Y-111008333D01*
X179404761Y-110960714D01*
X179500000Y-110960714D01*
X180261904Y-111579761D02*
X180166666Y-111627380D01*
X179976190Y-111627380D01*
X179880952Y-111579761D01*
X179833333Y-111532142D01*
X179785714Y-111436904D01*
X179785714Y-111151190D01*
X179833333Y-111055952D01*
X179880952Y-111008333D01*
X179976190Y-110960714D01*
X180166666Y-110960714D01*
X180261904Y-111008333D01*
X180595238Y-110960714D02*
X180833333Y-111627380D01*
X181071428Y-110960714D02*
X180833333Y-111627380D01*
X180738095Y-111865476D01*
X180690476Y-111913095D01*
X180595238Y-111960714D01*
X181880952Y-111579761D02*
X181785714Y-111627380D01*
X181595238Y-111627380D01*
X181500000Y-111579761D01*
X181452380Y-111532142D01*
X181404761Y-111436904D01*
X181404761Y-111151190D01*
X181452380Y-111055952D01*
X181500000Y-111008333D01*
X181595238Y-110960714D01*
X181785714Y-110960714D01*
X181880952Y-111008333D01*
X182452380Y-111627380D02*
X182357142Y-111579761D01*
X182309523Y-111484523D01*
X182309523Y-110627380D01*
X183214285Y-111579761D02*
X183119047Y-111627380D01*
X182928571Y-111627380D01*
X182833333Y-111579761D01*
X182785714Y-111484523D01*
X182785714Y-111103571D01*
X182833333Y-111008333D01*
X182928571Y-110960714D01*
X183119047Y-110960714D01*
X183214285Y-111008333D01*
X183261904Y-111103571D01*
X183261904Y-111198809D01*
X182785714Y-111294047D01*
X184309523Y-110627380D02*
X184880952Y-110627380D01*
X184595238Y-111627380D02*
X184595238Y-110627380D01*
X185642857Y-111627380D02*
X185642857Y-111103571D01*
X185595238Y-111008333D01*
X185500000Y-110960714D01*
X185309523Y-110960714D01*
X185214285Y-111008333D01*
X185642857Y-111579761D02*
X185547619Y-111627380D01*
X185309523Y-111627380D01*
X185214285Y-111579761D01*
X185166666Y-111484523D01*
X185166666Y-111389285D01*
X185214285Y-111294047D01*
X185309523Y-111246428D01*
X185547619Y-111246428D01*
X185642857Y-111198809D01*
X186547619Y-111579761D02*
X186452380Y-111627380D01*
X186261904Y-111627380D01*
X186166666Y-111579761D01*
X186119047Y-111532142D01*
X186071428Y-111436904D01*
X186071428Y-111151190D01*
X186119047Y-111055952D01*
X186166666Y-111008333D01*
X186261904Y-110960714D01*
X186452380Y-110960714D01*
X186547619Y-111008333D01*
X186976190Y-111627380D02*
X186976190Y-110627380D01*
X187404761Y-111627380D02*
X187404761Y-111103571D01*
X187357142Y-111008333D01*
X187261904Y-110960714D01*
X187119047Y-110960714D01*
X187023809Y-111008333D01*
X186976190Y-111055952D01*
X188023809Y-111627380D02*
X187928571Y-111579761D01*
X187880952Y-111532142D01*
X187833333Y-111436904D01*
X187833333Y-111151190D01*
X187880952Y-111055952D01*
X187928571Y-111008333D01*
X188023809Y-110960714D01*
X188166666Y-110960714D01*
X188261904Y-111008333D01*
X188309523Y-111055952D01*
X188357142Y-111151190D01*
X188357142Y-111436904D01*
X188309523Y-111532142D01*
X188261904Y-111579761D01*
X188166666Y-111627380D01*
X188023809Y-111627380D01*
X180571428Y-112610714D02*
X180809523Y-113277380D01*
X181047619Y-112610714D01*
X181952380Y-113277380D02*
X181380952Y-113277380D01*
X181666666Y-113277380D02*
X181666666Y-112277380D01*
X181571428Y-112420238D01*
X181476190Y-112515476D01*
X181380952Y-112563095D01*
X182380952Y-113182142D02*
X182428571Y-113229761D01*
X182380952Y-113277380D01*
X182333333Y-113229761D01*
X182380952Y-113182142D01*
X182380952Y-113277380D01*
X183047619Y-112277380D02*
X183142857Y-112277380D01*
X183238095Y-112325000D01*
X183285714Y-112372619D01*
X183333333Y-112467857D01*
X183380952Y-112658333D01*
X183380952Y-112896428D01*
X183333333Y-113086904D01*
X183285714Y-113182142D01*
X183238095Y-113229761D01*
X183142857Y-113277380D01*
X183047619Y-113277380D01*
X182952380Y-113229761D01*
X182904761Y-113182142D01*
X182857142Y-113086904D01*
X182809523Y-112896428D01*
X182809523Y-112658333D01*
X182857142Y-112467857D01*
X182904761Y-112372619D01*
X182952380Y-112325000D01*
X183047619Y-112277380D01*
X163188214Y-71992380D02*
X163188214Y-70992380D01*
X163569166Y-70992380D01*
X163664404Y-71040000D01*
X163712023Y-71087619D01*
X163759642Y-71182857D01*
X163759642Y-71325714D01*
X163712023Y-71420952D01*
X163664404Y-71468571D01*
X163569166Y-71516190D01*
X163188214Y-71516190D01*
X164188214Y-71992380D02*
X164188214Y-70992380D01*
X164426309Y-70992380D01*
X164569166Y-71040000D01*
X164664404Y-71135238D01*
X164712023Y-71230476D01*
X164759642Y-71420952D01*
X164759642Y-71563809D01*
X164712023Y-71754285D01*
X164664404Y-71849523D01*
X164569166Y-71944761D01*
X164426309Y-71992380D01*
X164188214Y-71992380D01*
X165378690Y-70992380D02*
X165473928Y-70992380D01*
X165569166Y-71040000D01*
X165616785Y-71087619D01*
X165664404Y-71182857D01*
X165712023Y-71373333D01*
X165712023Y-71611428D01*
X165664404Y-71801904D01*
X165616785Y-71897142D01*
X165569166Y-71944761D01*
X165473928Y-71992380D01*
X165378690Y-71992380D01*
X165283452Y-71944761D01*
X165235833Y-71897142D01*
X165188214Y-71801904D01*
X165140595Y-71611428D01*
X165140595Y-71373333D01*
X165188214Y-71182857D01*
X165235833Y-71087619D01*
X165283452Y-71040000D01*
X165378690Y-70992380D01*
X164807261Y-68452380D02*
X164331071Y-68452380D01*
X164283452Y-68928571D01*
X164331071Y-68880952D01*
X164426309Y-68833333D01*
X164664404Y-68833333D01*
X164759642Y-68880952D01*
X164807261Y-68928571D01*
X164854880Y-69023809D01*
X164854880Y-69261904D01*
X164807261Y-69357142D01*
X164759642Y-69404761D01*
X164664404Y-69452380D01*
X164426309Y-69452380D01*
X164331071Y-69404761D01*
X164283452Y-69357142D01*
X165140595Y-68452380D02*
X165473928Y-69452380D01*
X165807261Y-68452380D01*
X175859404Y-68500000D02*
X175764166Y-68452380D01*
X175621309Y-68452380D01*
X175478452Y-68500000D01*
X175383214Y-68595238D01*
X175335595Y-68690476D01*
X175287976Y-68880952D01*
X175287976Y-69023809D01*
X175335595Y-69214285D01*
X175383214Y-69309523D01*
X175478452Y-69404761D01*
X175621309Y-69452380D01*
X175716547Y-69452380D01*
X175859404Y-69404761D01*
X175907023Y-69357142D01*
X175907023Y-69023809D01*
X175716547Y-69023809D01*
X176335595Y-69452380D02*
X176335595Y-68452380D01*
X176907023Y-69452380D01*
X176907023Y-68452380D01*
X177383214Y-69452380D02*
X177383214Y-68452380D01*
X177621309Y-68452380D01*
X177764166Y-68500000D01*
X177859404Y-68595238D01*
X177907023Y-68690476D01*
X177954642Y-68880952D01*
X177954642Y-69023809D01*
X177907023Y-69214285D01*
X177859404Y-69309523D01*
X177764166Y-69404761D01*
X177621309Y-69452380D01*
X177383214Y-69452380D01*
X120835595Y-100992380D02*
X120835595Y-99992380D01*
X121168928Y-100706666D01*
X121502261Y-99992380D01*
X121502261Y-100992380D01*
X122168928Y-99992380D02*
X122359404Y-99992380D01*
X122454642Y-100040000D01*
X122549880Y-100135238D01*
X122597500Y-100325714D01*
X122597500Y-100659047D01*
X122549880Y-100849523D01*
X122454642Y-100944761D01*
X122359404Y-100992380D01*
X122168928Y-100992380D01*
X122073690Y-100944761D01*
X121978452Y-100849523D01*
X121930833Y-100659047D01*
X121930833Y-100325714D01*
X121978452Y-100135238D01*
X122073690Y-100040000D01*
X122168928Y-99992380D01*
X122978452Y-100944761D02*
X123121309Y-100992380D01*
X123359404Y-100992380D01*
X123454642Y-100944761D01*
X123502261Y-100897142D01*
X123549880Y-100801904D01*
X123549880Y-100706666D01*
X123502261Y-100611428D01*
X123454642Y-100563809D01*
X123359404Y-100516190D01*
X123168928Y-100468571D01*
X123073690Y-100420952D01*
X123026071Y-100373333D01*
X122978452Y-100278095D01*
X122978452Y-100182857D01*
X123026071Y-100087619D01*
X123073690Y-100040000D01*
X123168928Y-99992380D01*
X123407023Y-99992380D01*
X123549880Y-100040000D01*
X123978452Y-100992380D02*
X123978452Y-99992380D01*
X111140595Y-100944761D02*
X111283452Y-100992380D01*
X111521547Y-100992380D01*
X111616785Y-100944761D01*
X111664404Y-100897142D01*
X111712023Y-100801904D01*
X111712023Y-100706666D01*
X111664404Y-100611428D01*
X111616785Y-100563809D01*
X111521547Y-100516190D01*
X111331071Y-100468571D01*
X111235833Y-100420952D01*
X111188214Y-100373333D01*
X111140595Y-100278095D01*
X111140595Y-100182857D01*
X111188214Y-100087619D01*
X111235833Y-100040000D01*
X111331071Y-99992380D01*
X111569166Y-99992380D01*
X111712023Y-100040000D01*
X112712023Y-100897142D02*
X112664404Y-100944761D01*
X112521547Y-100992380D01*
X112426309Y-100992380D01*
X112283452Y-100944761D01*
X112188214Y-100849523D01*
X112140595Y-100754285D01*
X112092976Y-100563809D01*
X112092976Y-100420952D01*
X112140595Y-100230476D01*
X112188214Y-100135238D01*
X112283452Y-100040000D01*
X112426309Y-99992380D01*
X112521547Y-99992380D01*
X112664404Y-100040000D01*
X112712023Y-100087619D01*
X113140595Y-100992380D02*
X113140595Y-99992380D01*
X113712023Y-100992380D02*
X113283452Y-100420952D01*
X113712023Y-99992380D02*
X113140595Y-100563809D01*
X110521547Y-98452380D02*
X110521547Y-97452380D01*
X110854880Y-98166666D01*
X111188214Y-97452380D01*
X111188214Y-98452380D01*
X111664404Y-98452380D02*
X111664404Y-97452380D01*
X112092976Y-98404761D02*
X112235833Y-98452380D01*
X112473928Y-98452380D01*
X112569166Y-98404761D01*
X112616785Y-98357142D01*
X112664404Y-98261904D01*
X112664404Y-98166666D01*
X112616785Y-98071428D01*
X112569166Y-98023809D01*
X112473928Y-97976190D01*
X112283452Y-97928571D01*
X112188214Y-97880952D01*
X112140595Y-97833333D01*
X112092976Y-97738095D01*
X112092976Y-97642857D01*
X112140595Y-97547619D01*
X112188214Y-97500000D01*
X112283452Y-97452380D01*
X112521547Y-97452380D01*
X112664404Y-97500000D01*
X113283452Y-97452380D02*
X113473928Y-97452380D01*
X113569166Y-97500000D01*
X113664404Y-97595238D01*
X113712023Y-97785714D01*
X113712023Y-98119047D01*
X113664404Y-98309523D01*
X113569166Y-98404761D01*
X113473928Y-98452380D01*
X113283452Y-98452380D01*
X113188214Y-98404761D01*
X113092976Y-98309523D01*
X113045357Y-98119047D01*
X113045357Y-97785714D01*
X113092976Y-97595238D01*
X113188214Y-97500000D01*
X113283452Y-97452380D01*
X120692738Y-97452380D02*
X121026071Y-98452380D01*
X121359404Y-97452380D01*
X122264166Y-98357142D02*
X122216547Y-98404761D01*
X122073690Y-98452380D01*
X121978452Y-98452380D01*
X121835595Y-98404761D01*
X121740357Y-98309523D01*
X121692738Y-98214285D01*
X121645119Y-98023809D01*
X121645119Y-97880952D01*
X121692738Y-97690476D01*
X121740357Y-97595238D01*
X121835595Y-97500000D01*
X121978452Y-97452380D01*
X122073690Y-97452380D01*
X122216547Y-97500000D01*
X122264166Y-97547619D01*
X123264166Y-98357142D02*
X123216547Y-98404761D01*
X123073690Y-98452380D01*
X122978452Y-98452380D01*
X122835595Y-98404761D01*
X122740357Y-98309523D01*
X122692738Y-98214285D01*
X122645119Y-98023809D01*
X122645119Y-97880952D01*
X122692738Y-97690476D01*
X122740357Y-97595238D01*
X122835595Y-97500000D01*
X122978452Y-97452380D01*
X123073690Y-97452380D01*
X123216547Y-97500000D01*
X123264166Y-97547619D01*
X121359404Y-102580000D02*
X121264166Y-102532380D01*
X121121309Y-102532380D01*
X120978452Y-102580000D01*
X120883214Y-102675238D01*
X120835595Y-102770476D01*
X120787976Y-102960952D01*
X120787976Y-103103809D01*
X120835595Y-103294285D01*
X120883214Y-103389523D01*
X120978452Y-103484761D01*
X121121309Y-103532380D01*
X121216547Y-103532380D01*
X121359404Y-103484761D01*
X121407023Y-103437142D01*
X121407023Y-103103809D01*
X121216547Y-103103809D01*
X121835595Y-103532380D02*
X121835595Y-102532380D01*
X122407023Y-103532380D01*
X122407023Y-102532380D01*
X122883214Y-103532380D02*
X122883214Y-102532380D01*
X123121309Y-102532380D01*
X123264166Y-102580000D01*
X123359404Y-102675238D01*
X123407023Y-102770476D01*
X123454642Y-102960952D01*
X123454642Y-103103809D01*
X123407023Y-103294285D01*
X123359404Y-103389523D01*
X123264166Y-103484761D01*
X123121309Y-103532380D01*
X122883214Y-103532380D01*
X111997738Y-103532380D02*
X111664404Y-103056190D01*
X111426309Y-103532380D02*
X111426309Y-102532380D01*
X111807261Y-102532380D01*
X111902500Y-102580000D01*
X111950119Y-102627619D01*
X111997738Y-102722857D01*
X111997738Y-102865714D01*
X111950119Y-102960952D01*
X111902500Y-103008571D01*
X111807261Y-103056190D01*
X111426309Y-103056190D01*
X112378690Y-103484761D02*
X112521547Y-103532380D01*
X112759642Y-103532380D01*
X112854880Y-103484761D01*
X112902500Y-103437142D01*
X112950119Y-103341904D01*
X112950119Y-103246666D01*
X112902500Y-103151428D01*
X112854880Y-103103809D01*
X112759642Y-103056190D01*
X112569166Y-103008571D01*
X112473928Y-102960952D01*
X112426309Y-102913333D01*
X112378690Y-102818095D01*
X112378690Y-102722857D01*
X112426309Y-102627619D01*
X112473928Y-102580000D01*
X112569166Y-102532380D01*
X112807261Y-102532380D01*
X112950119Y-102580000D01*
X113235833Y-102532380D02*
X113807261Y-102532380D01*
X113521547Y-103532380D02*
X113521547Y-102532380D01*
D11*
%TO.C,U4*%
X116200000Y-111000000D02*
G75*
G03*
X116200000Y-111000000I-100000J0D01*
G01*
X120000000Y-110500000D02*
X120000000Y-115500000D01*
X120000000Y-115500000D02*
X115000000Y-115500000D01*
X115000000Y-115500000D02*
X115000000Y-110500000D01*
X115000000Y-110500000D02*
X120000000Y-110500000D01*
%TO.C,J1*%
X114670000Y-104410000D02*
X119870000Y-104410000D01*
X114670000Y-99270000D02*
X114670000Y-104410000D01*
X119870000Y-96670000D02*
X119870000Y-104410000D01*
X114670000Y-99270000D02*
X117270000Y-99270000D01*
X117270000Y-99270000D02*
X117270000Y-96670000D01*
X117270000Y-96670000D02*
X119870000Y-96670000D01*
X114670000Y-98000000D02*
X114670000Y-96670000D01*
X114670000Y-96670000D02*
X116000000Y-96670000D01*
D10*
%TO.C,U3*%
X124000000Y-132500000D02*
X124000000Y-113500000D01*
X176000000Y-132500000D02*
X124000000Y-132500000D01*
X176000000Y-113500000D02*
X176000000Y-132500000D01*
X124000000Y-113500000D02*
X176000000Y-113500000D01*
D11*
X128600000Y-131500000D02*
G75*
G03*
X128600000Y-131500000I-100000J0D01*
G01*
D10*
%TO.C,U2*%
X142625000Y-126925000D02*
X142875000Y-126925000D01*
X142625000Y-119175000D02*
X142972500Y-119175000D01*
X158775000Y-119175000D02*
X158427500Y-119175000D01*
X158775000Y-126925000D02*
X158427500Y-126925000D01*
X142625000Y-126925000D02*
X142625000Y-119175000D01*
X158775000Y-126925000D02*
X158775000Y-119175000D01*
X142875000Y-126925000D02*
X142875000Y-128350000D01*
D11*
%TO.C,J3*%
X167925000Y-67670000D02*
X173125000Y-67670000D01*
X167925000Y-72870000D02*
X173125000Y-72870000D01*
X166485000Y-68240000D02*
X167925000Y-68240000D01*
X167925000Y-67670000D02*
X167925000Y-68240000D01*
X173125000Y-67670000D02*
X173125000Y-68240000D01*
X167925000Y-72300000D02*
X167925000Y-72870000D01*
X173125000Y-72300000D02*
X173125000Y-72870000D01*
X167925000Y-69760000D02*
X167925000Y-70780000D01*
X173125000Y-69760000D02*
X173125000Y-70780000D01*
D10*
%TO.C,M1*%
X165200000Y-94000000D02*
G75*
G03*
X165200000Y-94000000I-15200000J0D01*
G01*
X151000000Y-100000000D02*
G75*
G03*
X151000000Y-100000000I-1000000J0D01*
G01*
X151900000Y-104000000D02*
G75*
G03*
X151900000Y-104000000I-1900000J0D01*
G01*
X160250000Y-85000000D02*
G75*
G03*
X160250000Y-85000000I-1250000J0D01*
G01*
D11*
%TO.C,C4*%
X164851248Y-126090000D02*
X166273752Y-126090000D01*
X164851248Y-127910000D02*
X166273752Y-127910000D01*
%TO.C,Y1*%
X132475000Y-72140000D02*
G75*
G03*
X137525000Y-72140000I2525000J0D01*
G01*
X132475000Y-65740000D02*
G75*
G02*
X137525000Y-65740000I2525000J0D01*
G01*
X137525000Y-65740000D02*
X137525000Y-72140000D01*
X132475000Y-65740000D02*
X132475000Y-72140000D01*
%TO.C,R7*%
X120910000Y-91822936D02*
X120910000Y-93277064D01*
X119090000Y-91822936D02*
X119090000Y-93277064D01*
%TO.C,C3*%
X130148752Y-72410000D02*
X128726248Y-72410000D01*
X130148752Y-70590000D02*
X128726248Y-70590000D01*
%TO.C,C2*%
X130148752Y-67410000D02*
X128726248Y-67410000D01*
X130148752Y-65590000D02*
X128726248Y-65590000D01*
%TO.C,C1*%
X149851248Y-59090000D02*
X151273752Y-59090000D01*
X149851248Y-60910000D02*
X151273752Y-60910000D01*
%TO.C,R6*%
X168090000Y-123177064D02*
X168090000Y-121722936D01*
X169910000Y-123177064D02*
X169910000Y-121722936D01*
%TO.C,R3*%
X130090000Y-123177064D02*
X130090000Y-121722936D01*
X131910000Y-123177064D02*
X131910000Y-121722936D01*
%TO.C,D14*%
X163065000Y-120912500D02*
X163065000Y-124972500D01*
X163065000Y-124972500D02*
X165335000Y-124972500D01*
X165335000Y-124972500D02*
X165335000Y-120912500D01*
%TO.C,D11*%
X134865000Y-120912500D02*
X134865000Y-124972500D01*
X134865000Y-124972500D02*
X137135000Y-124972500D01*
X137135000Y-124972500D02*
X137135000Y-120912500D01*
D10*
%TO.C,U1*%
X153625000Y-64575000D02*
X153400000Y-64575000D01*
X153625000Y-71825000D02*
X153300000Y-71825000D01*
X146375000Y-71825000D02*
X146700000Y-71825000D01*
X146375000Y-64575000D02*
X146700000Y-64575000D01*
X153625000Y-64575000D02*
X153625000Y-64900000D01*
X146375000Y-64575000D02*
X146375000Y-64900000D01*
X146375000Y-71825000D02*
X146375000Y-71500000D01*
X153625000Y-71825000D02*
X153625000Y-71500000D01*
X153400000Y-64575000D02*
X153400000Y-63150000D01*
%TO.C,U4*%
X115452380Y-113761904D02*
X116261904Y-113761904D01*
X116357142Y-113714285D01*
X116404761Y-113666666D01*
X116452380Y-113571428D01*
X116452380Y-113380952D01*
X116404761Y-113285714D01*
X116357142Y-113238095D01*
X116261904Y-113190476D01*
X115452380Y-113190476D01*
X115785714Y-112285714D02*
X116452380Y-112285714D01*
X115404761Y-112523809D02*
X116119047Y-112761904D01*
X116119047Y-112142857D01*
%TO.C,J1*%
X116936666Y-95122380D02*
X116936666Y-95836666D01*
X116889047Y-95979523D01*
X116793809Y-96074761D01*
X116650952Y-96122380D01*
X116555714Y-96122380D01*
X117936666Y-96122380D02*
X117365238Y-96122380D01*
X117650952Y-96122380D02*
X117650952Y-95122380D01*
X117555714Y-95265238D01*
X117460476Y-95360476D01*
X117365238Y-95408095D01*
%TO.C,U3*%
X147968975Y-121979420D02*
X147968975Y-122788944D01*
X148016594Y-122884182D01*
X148064213Y-122931801D01*
X148159451Y-122979420D01*
X148349927Y-122979420D01*
X148445165Y-122931801D01*
X148492784Y-122884182D01*
X148540403Y-122788944D01*
X148540403Y-121979420D01*
X148921356Y-121979420D02*
X149540403Y-121979420D01*
X149207070Y-122360373D01*
X149349927Y-122360373D01*
X149445165Y-122407992D01*
X149492784Y-122455611D01*
X149540403Y-122550849D01*
X149540403Y-122788944D01*
X149492784Y-122884182D01*
X149445165Y-122931801D01*
X149349927Y-122979420D01*
X149064213Y-122979420D01*
X148968975Y-122931801D01*
X148921356Y-122884182D01*
%TO.C,U2*%
X141152380Y-123811904D02*
X141961904Y-123811904D01*
X142057142Y-123764285D01*
X142104761Y-123716666D01*
X142152380Y-123621428D01*
X142152380Y-123430952D01*
X142104761Y-123335714D01*
X142057142Y-123288095D01*
X141961904Y-123240476D01*
X141152380Y-123240476D01*
X141247619Y-122811904D02*
X141200000Y-122764285D01*
X141152380Y-122669047D01*
X141152380Y-122430952D01*
X141200000Y-122335714D01*
X141247619Y-122288095D01*
X141342857Y-122240476D01*
X141438095Y-122240476D01*
X141580952Y-122288095D01*
X142152380Y-122859523D01*
X142152380Y-122240476D01*
%TO.C,J3*%
X170191666Y-66122380D02*
X170191666Y-66836666D01*
X170144047Y-66979523D01*
X170048809Y-67074761D01*
X169905952Y-67122380D01*
X169810714Y-67122380D01*
X170572619Y-66122380D02*
X171191666Y-66122380D01*
X170858333Y-66503333D01*
X171001190Y-66503333D01*
X171096428Y-66550952D01*
X171144047Y-66598571D01*
X171191666Y-66693809D01*
X171191666Y-66931904D01*
X171144047Y-67027142D01*
X171096428Y-67074761D01*
X171001190Y-67122380D01*
X170715476Y-67122380D01*
X170620238Y-67074761D01*
X170572619Y-67027142D01*
%TO.C,M1*%
X149190476Y-94952380D02*
X149190476Y-93952380D01*
X149523809Y-94666666D01*
X149857142Y-93952380D01*
X149857142Y-94952380D01*
X150857142Y-94952380D02*
X150285714Y-94952380D01*
X150571428Y-94952380D02*
X150571428Y-93952380D01*
X150476190Y-94095238D01*
X150380952Y-94190476D01*
X150285714Y-94238095D01*
%TO.C,C4*%
X165833333Y-129357142D02*
X165785714Y-129404761D01*
X165642857Y-129452380D01*
X165547619Y-129452380D01*
X165404761Y-129404761D01*
X165309523Y-129309523D01*
X165261904Y-129214285D01*
X165214285Y-129023809D01*
X165214285Y-128880952D01*
X165261904Y-128690476D01*
X165309523Y-128595238D01*
X165404761Y-128500000D01*
X165547619Y-128452380D01*
X165642857Y-128452380D01*
X165785714Y-128500000D01*
X165833333Y-128547619D01*
X166690476Y-128785714D02*
X166690476Y-129452380D01*
X166452380Y-128404761D02*
X166214285Y-129119047D01*
X166833333Y-129119047D01*
%TO.C,Y1*%
X138501190Y-69416190D02*
X138977380Y-69416190D01*
X137977380Y-69749523D02*
X138501190Y-69416190D01*
X137977380Y-69082857D01*
X138977380Y-68225714D02*
X138977380Y-68797142D01*
X138977380Y-68511428D02*
X137977380Y-68511428D01*
X138120238Y-68606666D01*
X138215476Y-68701904D01*
X138263095Y-68797142D01*
%TO.C,R7*%
X122272380Y-92716666D02*
X121796190Y-93050000D01*
X122272380Y-93288095D02*
X121272380Y-93288095D01*
X121272380Y-92907142D01*
X121320000Y-92811904D01*
X121367619Y-92764285D01*
X121462857Y-92716666D01*
X121605714Y-92716666D01*
X121700952Y-92764285D01*
X121748571Y-92811904D01*
X121796190Y-92907142D01*
X121796190Y-93288095D01*
X121272380Y-92383333D02*
X121272380Y-91716666D01*
X122272380Y-92145238D01*
%TO.C,C3*%
X129270833Y-73707142D02*
X129223214Y-73754761D01*
X129080357Y-73802380D01*
X128985119Y-73802380D01*
X128842261Y-73754761D01*
X128747023Y-73659523D01*
X128699404Y-73564285D01*
X128651785Y-73373809D01*
X128651785Y-73230952D01*
X128699404Y-73040476D01*
X128747023Y-72945238D01*
X128842261Y-72850000D01*
X128985119Y-72802380D01*
X129080357Y-72802380D01*
X129223214Y-72850000D01*
X129270833Y-72897619D01*
X129604166Y-72802380D02*
X130223214Y-72802380D01*
X129889880Y-73183333D01*
X130032738Y-73183333D01*
X130127976Y-73230952D01*
X130175595Y-73278571D01*
X130223214Y-73373809D01*
X130223214Y-73611904D01*
X130175595Y-73707142D01*
X130127976Y-73754761D01*
X130032738Y-73802380D01*
X129747023Y-73802380D01*
X129651785Y-73754761D01*
X129604166Y-73707142D01*
%TO.C,C2*%
X129270833Y-68707142D02*
X129223214Y-68754761D01*
X129080357Y-68802380D01*
X128985119Y-68802380D01*
X128842261Y-68754761D01*
X128747023Y-68659523D01*
X128699404Y-68564285D01*
X128651785Y-68373809D01*
X128651785Y-68230952D01*
X128699404Y-68040476D01*
X128747023Y-67945238D01*
X128842261Y-67850000D01*
X128985119Y-67802380D01*
X129080357Y-67802380D01*
X129223214Y-67850000D01*
X129270833Y-67897619D01*
X129651785Y-67897619D02*
X129699404Y-67850000D01*
X129794642Y-67802380D01*
X130032738Y-67802380D01*
X130127976Y-67850000D01*
X130175595Y-67897619D01*
X130223214Y-67992857D01*
X130223214Y-68088095D01*
X130175595Y-68230952D01*
X129604166Y-68802380D01*
X130223214Y-68802380D01*
%TO.C,C1*%
X146833333Y-60357142D02*
X146785714Y-60404761D01*
X146642857Y-60452380D01*
X146547619Y-60452380D01*
X146404761Y-60404761D01*
X146309523Y-60309523D01*
X146261904Y-60214285D01*
X146214285Y-60023809D01*
X146214285Y-59880952D01*
X146261904Y-59690476D01*
X146309523Y-59595238D01*
X146404761Y-59500000D01*
X146547619Y-59452380D01*
X146642857Y-59452380D01*
X146785714Y-59500000D01*
X146833333Y-59547619D01*
X147785714Y-60452380D02*
X147214285Y-60452380D01*
X147500000Y-60452380D02*
X147500000Y-59452380D01*
X147404761Y-59595238D01*
X147309523Y-59690476D01*
X147214285Y-59738095D01*
%TO.C,R6*%
X167632380Y-122616666D02*
X167156190Y-122950000D01*
X167632380Y-123188095D02*
X166632380Y-123188095D01*
X166632380Y-122807142D01*
X166680000Y-122711904D01*
X166727619Y-122664285D01*
X166822857Y-122616666D01*
X166965714Y-122616666D01*
X167060952Y-122664285D01*
X167108571Y-122711904D01*
X167156190Y-122807142D01*
X167156190Y-123188095D01*
X166632380Y-121759523D02*
X166632380Y-121950000D01*
X166680000Y-122045238D01*
X166727619Y-122092857D01*
X166870476Y-122188095D01*
X167060952Y-122235714D01*
X167441904Y-122235714D01*
X167537142Y-122188095D01*
X167584761Y-122140476D01*
X167632380Y-122045238D01*
X167632380Y-121854761D01*
X167584761Y-121759523D01*
X167537142Y-121711904D01*
X167441904Y-121664285D01*
X167203809Y-121664285D01*
X167108571Y-121711904D01*
X167060952Y-121759523D01*
X167013333Y-121854761D01*
X167013333Y-122045238D01*
X167060952Y-122140476D01*
X167108571Y-122188095D01*
X167203809Y-122235714D01*
%TO.C,R3*%
X129632380Y-122616666D02*
X129156190Y-122950000D01*
X129632380Y-123188095D02*
X128632380Y-123188095D01*
X128632380Y-122807142D01*
X128680000Y-122711904D01*
X128727619Y-122664285D01*
X128822857Y-122616666D01*
X128965714Y-122616666D01*
X129060952Y-122664285D01*
X129108571Y-122711904D01*
X129156190Y-122807142D01*
X129156190Y-123188095D01*
X128632380Y-122283333D02*
X128632380Y-121664285D01*
X129013333Y-121997619D01*
X129013333Y-121854761D01*
X129060952Y-121759523D01*
X129108571Y-121711904D01*
X129203809Y-121664285D01*
X129441904Y-121664285D01*
X129537142Y-121711904D01*
X129584761Y-121759523D01*
X129632380Y-121854761D01*
X129632380Y-122140476D01*
X129584761Y-122235714D01*
X129537142Y-122283333D01*
%TO.C,D14*%
X162832380Y-123726785D02*
X161832380Y-123726785D01*
X161832380Y-123488690D01*
X161880000Y-123345833D01*
X161975238Y-123250595D01*
X162070476Y-123202976D01*
X162260952Y-123155357D01*
X162403809Y-123155357D01*
X162594285Y-123202976D01*
X162689523Y-123250595D01*
X162784761Y-123345833D01*
X162832380Y-123488690D01*
X162832380Y-123726785D01*
X162832380Y-122202976D02*
X162832380Y-122774404D01*
X162832380Y-122488690D02*
X161832380Y-122488690D01*
X161975238Y-122583928D01*
X162070476Y-122679166D01*
X162118095Y-122774404D01*
X162165714Y-121345833D02*
X162832380Y-121345833D01*
X161784761Y-121583928D02*
X162499047Y-121822023D01*
X162499047Y-121202976D01*
%TO.C,D11*%
X134632380Y-123726785D02*
X133632380Y-123726785D01*
X133632380Y-123488690D01*
X133680000Y-123345833D01*
X133775238Y-123250595D01*
X133870476Y-123202976D01*
X134060952Y-123155357D01*
X134203809Y-123155357D01*
X134394285Y-123202976D01*
X134489523Y-123250595D01*
X134584761Y-123345833D01*
X134632380Y-123488690D01*
X134632380Y-123726785D01*
X134632380Y-122202976D02*
X134632380Y-122774404D01*
X134632380Y-122488690D02*
X133632380Y-122488690D01*
X133775238Y-122583928D01*
X133870476Y-122679166D01*
X133918095Y-122774404D01*
X134632380Y-121250595D02*
X134632380Y-121822023D01*
X134632380Y-121536309D02*
X133632380Y-121536309D01*
X133775238Y-121631547D01*
X133870476Y-121726785D01*
X133918095Y-121822023D01*
%TO.C,U1*%
X155502380Y-68961904D02*
X156311904Y-68961904D01*
X156407142Y-68914285D01*
X156454761Y-68866666D01*
X156502380Y-68771428D01*
X156502380Y-68580952D01*
X156454761Y-68485714D01*
X156407142Y-68438095D01*
X156311904Y-68390476D01*
X155502380Y-68390476D01*
X156502380Y-67390476D02*
X156502380Y-67961904D01*
X156502380Y-67676190D02*
X155502380Y-67676190D01*
X155645238Y-67771428D01*
X155740476Y-67866666D01*
X155788095Y-67961904D01*
%TD*%
M02*
