%TF.GenerationSoftware,KiCad,Pcbnew,5.1.10*%
%TF.CreationDate,2021-09-26T09:19:48+10:00*%
%TF.ProjectId,pcb-main,7063622d-6d61-4696-9e2e-6b696361645f,rev?*%
%TF.SameCoordinates,Original*%
%TF.FileFunction,Soldermask,Top*%
%TF.FilePolarity,Negative*%
%FSLAX46Y46*%
G04 Gerber Fmt 4.6, Leading zero omitted, Abs format (unit mm)*
G04 Created by KiCad (PCBNEW 5.1.10) date 2021-09-26 09:19:48*
%MOMM*%
%LPD*%
G01*
G04 APERTURE LIST*
%ADD10R,1.400000X3.100000*%
%ADD11O,1.700000X1.700000*%
%ADD12R,1.700000X1.700000*%
%ADD13C,1.524000*%
%ADD14R,0.400000X2.400000*%
%ADD15R,3.150000X1.000000*%
%ADD16C,1.500000*%
%ADD17R,1.600000X0.550000*%
%ADD18R,0.550000X1.600000*%
G04 APERTURE END LIST*
D10*
%TO.C,U4*%
X119200000Y-117450000D03*
X116000000Y-117450000D03*
X116000000Y-108550000D03*
X119200000Y-108550000D03*
%TD*%
D11*
%TO.C,J1*%
X118540000Y-103080000D03*
X116000000Y-103080000D03*
X118540000Y-100540000D03*
X116000000Y-100540000D03*
X118540000Y-98000000D03*
D12*
X116000000Y-98000000D03*
%TD*%
D13*
%TO.C,U3*%
X128410880Y-111027040D03*
X130950880Y-111027040D03*
X133490880Y-111027040D03*
X136030880Y-111027040D03*
X138570880Y-111027040D03*
X141110880Y-111027040D03*
X143650880Y-111027040D03*
X146190880Y-111027040D03*
X148730880Y-111027040D03*
X151270880Y-111027040D03*
X153810880Y-111027040D03*
X156350880Y-111027040D03*
X158890880Y-111027040D03*
X161430880Y-111027040D03*
X163970880Y-111027040D03*
X166510880Y-111027040D03*
X169050880Y-111027040D03*
X171590880Y-111027040D03*
X171590880Y-135000000D03*
X169050880Y-135000000D03*
X166510880Y-135000000D03*
X163970880Y-135000000D03*
X161430880Y-135000000D03*
X158890880Y-135000000D03*
X156350880Y-135000000D03*
X153810880Y-135000000D03*
X151270880Y-135000000D03*
X148730880Y-135000000D03*
X146190880Y-135000000D03*
X143650880Y-135000000D03*
X141110880Y-135000000D03*
X138570880Y-135000000D03*
X136030880Y-135000000D03*
X133490880Y-135000000D03*
X130950880Y-135000000D03*
X128410880Y-135000000D03*
%TD*%
D14*
%TO.C,U2*%
X143397500Y-128350000D03*
X144032500Y-128350000D03*
X144667500Y-128350000D03*
X145302500Y-128350000D03*
X145937500Y-128350000D03*
X146572500Y-128350000D03*
X147207500Y-128350000D03*
X147842500Y-128350000D03*
X148477500Y-128350000D03*
X149112500Y-128350000D03*
X149747500Y-128350000D03*
X150382500Y-128350000D03*
X151017500Y-128350000D03*
X151652500Y-128350000D03*
X152287500Y-128350000D03*
X152922500Y-128350000D03*
X153557500Y-128350000D03*
X154192500Y-128350000D03*
X154827500Y-128350000D03*
X155462500Y-128350000D03*
X156097500Y-128350000D03*
X156732500Y-128350000D03*
X157367500Y-128350000D03*
X158002500Y-128350000D03*
X158002500Y-117750000D03*
X157367500Y-117750000D03*
X156732500Y-117750000D03*
X156097500Y-117750000D03*
X155462500Y-117750000D03*
X154827500Y-117750000D03*
X154192500Y-117750000D03*
X153557500Y-117750000D03*
X152922500Y-117750000D03*
X152287500Y-117750000D03*
X151652500Y-117750000D03*
X151017500Y-117750000D03*
X150382500Y-117750000D03*
X149747500Y-117750000D03*
X149112500Y-117750000D03*
X148477500Y-117750000D03*
X147842500Y-117750000D03*
X147207500Y-117750000D03*
X146572500Y-117750000D03*
X145937500Y-117750000D03*
X145302500Y-117750000D03*
X144667500Y-117750000D03*
X144032500Y-117750000D03*
X143397500Y-117750000D03*
%TD*%
D15*
%TO.C,J3*%
X173050000Y-71540000D03*
X168000000Y-71540000D03*
X173050000Y-69000000D03*
X168000000Y-69000000D03*
%TD*%
D13*
%TO.C,M1*%
X161430000Y-97810000D03*
X161430000Y-90190000D03*
X138570000Y-90190000D03*
X138570000Y-97810000D03*
%TD*%
%TO.C,C4*%
G36*
G01*
X166462500Y-127650001D02*
X166462500Y-126349999D01*
G75*
G02*
X166712499Y-126100000I249999J0D01*
G01*
X167537501Y-126100000D01*
G75*
G02*
X167787500Y-126349999I0J-249999D01*
G01*
X167787500Y-127650001D01*
G75*
G02*
X167537501Y-127900000I-249999J0D01*
G01*
X166712499Y-127900000D01*
G75*
G02*
X166462500Y-127650001I0J249999D01*
G01*
G37*
G36*
G01*
X163337500Y-127650001D02*
X163337500Y-126349999D01*
G75*
G02*
X163587499Y-126100000I249999J0D01*
G01*
X164412501Y-126100000D01*
G75*
G02*
X164662500Y-126349999I0J-249999D01*
G01*
X164662500Y-127650001D01*
G75*
G02*
X164412501Y-127900000I-249999J0D01*
G01*
X163587499Y-127900000D01*
G75*
G02*
X163337500Y-127650001I0J249999D01*
G01*
G37*
%TD*%
D16*
%TO.C,Y1*%
X135000000Y-71380000D03*
X135000000Y-66500000D03*
%TD*%
%TO.C,R7*%
G36*
G01*
X119375000Y-93450000D02*
X120625000Y-93450000D01*
G75*
G02*
X120875000Y-93700000I0J-250000D01*
G01*
X120875000Y-94500000D01*
G75*
G02*
X120625000Y-94750000I-250000J0D01*
G01*
X119375000Y-94750000D01*
G75*
G02*
X119125000Y-94500000I0J250000D01*
G01*
X119125000Y-93700000D01*
G75*
G02*
X119375000Y-93450000I250000J0D01*
G01*
G37*
G36*
G01*
X119375000Y-90350000D02*
X120625000Y-90350000D01*
G75*
G02*
X120875000Y-90600000I0J-250000D01*
G01*
X120875000Y-91400000D01*
G75*
G02*
X120625000Y-91650000I-250000J0D01*
G01*
X119375000Y-91650000D01*
G75*
G02*
X119125000Y-91400000I0J250000D01*
G01*
X119125000Y-90600000D01*
G75*
G02*
X119375000Y-90350000I250000J0D01*
G01*
G37*
%TD*%
%TO.C,C3*%
G36*
G01*
X128537500Y-70849999D02*
X128537500Y-72150001D01*
G75*
G02*
X128287501Y-72400000I-249999J0D01*
G01*
X127462499Y-72400000D01*
G75*
G02*
X127212500Y-72150001I0J249999D01*
G01*
X127212500Y-70849999D01*
G75*
G02*
X127462499Y-70600000I249999J0D01*
G01*
X128287501Y-70600000D01*
G75*
G02*
X128537500Y-70849999I0J-249999D01*
G01*
G37*
G36*
G01*
X131662500Y-70849999D02*
X131662500Y-72150001D01*
G75*
G02*
X131412501Y-72400000I-249999J0D01*
G01*
X130587499Y-72400000D01*
G75*
G02*
X130337500Y-72150001I0J249999D01*
G01*
X130337500Y-70849999D01*
G75*
G02*
X130587499Y-70600000I249999J0D01*
G01*
X131412501Y-70600000D01*
G75*
G02*
X131662500Y-70849999I0J-249999D01*
G01*
G37*
%TD*%
%TO.C,C2*%
G36*
G01*
X128537500Y-65849999D02*
X128537500Y-67150001D01*
G75*
G02*
X128287501Y-67400000I-249999J0D01*
G01*
X127462499Y-67400000D01*
G75*
G02*
X127212500Y-67150001I0J249999D01*
G01*
X127212500Y-65849999D01*
G75*
G02*
X127462499Y-65600000I249999J0D01*
G01*
X128287501Y-65600000D01*
G75*
G02*
X128537500Y-65849999I0J-249999D01*
G01*
G37*
G36*
G01*
X131662500Y-65849999D02*
X131662500Y-67150001D01*
G75*
G02*
X131412501Y-67400000I-249999J0D01*
G01*
X130587499Y-67400000D01*
G75*
G02*
X130337500Y-67150001I0J249999D01*
G01*
X130337500Y-65849999D01*
G75*
G02*
X130587499Y-65600000I249999J0D01*
G01*
X131412501Y-65600000D01*
G75*
G02*
X131662500Y-65849999I0J-249999D01*
G01*
G37*
%TD*%
%TO.C,C1*%
G36*
G01*
X151462500Y-60650001D02*
X151462500Y-59349999D01*
G75*
G02*
X151712499Y-59100000I249999J0D01*
G01*
X152537501Y-59100000D01*
G75*
G02*
X152787500Y-59349999I0J-249999D01*
G01*
X152787500Y-60650001D01*
G75*
G02*
X152537501Y-60900000I-249999J0D01*
G01*
X151712499Y-60900000D01*
G75*
G02*
X151462500Y-60650001I0J249999D01*
G01*
G37*
G36*
G01*
X148337500Y-60650001D02*
X148337500Y-59349999D01*
G75*
G02*
X148587499Y-59100000I249999J0D01*
G01*
X149412501Y-59100000D01*
G75*
G02*
X149662500Y-59349999I0J-249999D01*
G01*
X149662500Y-60650001D01*
G75*
G02*
X149412501Y-60900000I-249999J0D01*
G01*
X148587499Y-60900000D01*
G75*
G02*
X148337500Y-60650001I0J249999D01*
G01*
G37*
%TD*%
%TO.C,R6*%
G36*
G01*
X169625000Y-121550000D02*
X168375000Y-121550000D01*
G75*
G02*
X168125000Y-121300000I0J250000D01*
G01*
X168125000Y-120500000D01*
G75*
G02*
X168375000Y-120250000I250000J0D01*
G01*
X169625000Y-120250000D01*
G75*
G02*
X169875000Y-120500000I0J-250000D01*
G01*
X169875000Y-121300000D01*
G75*
G02*
X169625000Y-121550000I-250000J0D01*
G01*
G37*
G36*
G01*
X169625000Y-124650000D02*
X168375000Y-124650000D01*
G75*
G02*
X168125000Y-124400000I0J250000D01*
G01*
X168125000Y-123600000D01*
G75*
G02*
X168375000Y-123350000I250000J0D01*
G01*
X169625000Y-123350000D01*
G75*
G02*
X169875000Y-123600000I0J-250000D01*
G01*
X169875000Y-124400000D01*
G75*
G02*
X169625000Y-124650000I-250000J0D01*
G01*
G37*
%TD*%
%TO.C,R3*%
G36*
G01*
X131625000Y-121550000D02*
X130375000Y-121550000D01*
G75*
G02*
X130125000Y-121300000I0J250000D01*
G01*
X130125000Y-120500000D01*
G75*
G02*
X130375000Y-120250000I250000J0D01*
G01*
X131625000Y-120250000D01*
G75*
G02*
X131875000Y-120500000I0J-250000D01*
G01*
X131875000Y-121300000D01*
G75*
G02*
X131625000Y-121550000I-250000J0D01*
G01*
G37*
G36*
G01*
X131625000Y-124650000D02*
X130375000Y-124650000D01*
G75*
G02*
X130125000Y-124400000I0J250000D01*
G01*
X130125000Y-123600000D01*
G75*
G02*
X130375000Y-123350000I250000J0D01*
G01*
X131625000Y-123350000D01*
G75*
G02*
X131875000Y-123600000I0J-250000D01*
G01*
X131875000Y-124400000D01*
G75*
G02*
X131625000Y-124650000I-250000J0D01*
G01*
G37*
%TD*%
%TO.C,D14*%
G36*
G01*
X164825000Y-121737500D02*
X163575000Y-121737500D01*
G75*
G02*
X163325000Y-121487500I0J250000D01*
G01*
X163325000Y-120562500D01*
G75*
G02*
X163575000Y-120312500I250000J0D01*
G01*
X164825000Y-120312500D01*
G75*
G02*
X165075000Y-120562500I0J-250000D01*
G01*
X165075000Y-121487500D01*
G75*
G02*
X164825000Y-121737500I-250000J0D01*
G01*
G37*
G36*
G01*
X164825000Y-124712500D02*
X163575000Y-124712500D01*
G75*
G02*
X163325000Y-124462500I0J250000D01*
G01*
X163325000Y-123537500D01*
G75*
G02*
X163575000Y-123287500I250000J0D01*
G01*
X164825000Y-123287500D01*
G75*
G02*
X165075000Y-123537500I0J-250000D01*
G01*
X165075000Y-124462500D01*
G75*
G02*
X164825000Y-124712500I-250000J0D01*
G01*
G37*
%TD*%
%TO.C,D11*%
G36*
G01*
X136625000Y-121737500D02*
X135375000Y-121737500D01*
G75*
G02*
X135125000Y-121487500I0J250000D01*
G01*
X135125000Y-120562500D01*
G75*
G02*
X135375000Y-120312500I250000J0D01*
G01*
X136625000Y-120312500D01*
G75*
G02*
X136875000Y-120562500I0J-250000D01*
G01*
X136875000Y-121487500D01*
G75*
G02*
X136625000Y-121737500I-250000J0D01*
G01*
G37*
G36*
G01*
X136625000Y-124712500D02*
X135375000Y-124712500D01*
G75*
G02*
X135125000Y-124462500I0J250000D01*
G01*
X135125000Y-123537500D01*
G75*
G02*
X135375000Y-123287500I250000J0D01*
G01*
X136625000Y-123287500D01*
G75*
G02*
X136875000Y-123537500I0J-250000D01*
G01*
X136875000Y-124462500D01*
G75*
G02*
X136625000Y-124712500I-250000J0D01*
G01*
G37*
%TD*%
D17*
%TO.C,U1*%
X154250000Y-65400000D03*
X154250000Y-66200000D03*
X154250000Y-67000000D03*
X154250000Y-67800000D03*
X154250000Y-68600000D03*
X154250000Y-69400000D03*
X154250000Y-70200000D03*
X154250000Y-71000000D03*
D18*
X152800000Y-72450000D03*
X152000000Y-72450000D03*
X151200000Y-72450000D03*
X150400000Y-72450000D03*
X149600000Y-72450000D03*
X148800000Y-72450000D03*
X148000000Y-72450000D03*
X147200000Y-72450000D03*
D17*
X145750000Y-71000000D03*
X145750000Y-70200000D03*
X145750000Y-69400000D03*
X145750000Y-68600000D03*
X145750000Y-67800000D03*
X145750000Y-67000000D03*
X145750000Y-66200000D03*
X145750000Y-65400000D03*
D18*
X147200000Y-63950000D03*
X148000000Y-63950000D03*
X148800000Y-63950000D03*
X149600000Y-63950000D03*
X150400000Y-63950000D03*
X151200000Y-63950000D03*
X152000000Y-63950000D03*
X152800000Y-63950000D03*
%TD*%
M02*
