M48
; DRILL file {KiCad 5.1.10} date Sun Sep 26 09:19:58 2021
; FORMAT={-:-/ absolute / inch / decimal}
; #@! TF.CreationDate,2021-09-26T09:19:58+10:00
; #@! TF.GenerationSoftware,Kicad,Pcbnew,5.1.10
FMAT,2
INCH
T1C0.0157
T2C0.0300
T3C0.0315
T4C0.0394
%
G90
G05
T1
X4.8819Y-3.5827
X4.8819Y-3.937
X4.9213Y-3.8976
X4.9606Y-4.0157
X5.0394Y-2.7165
X5.0787Y-3.7008
X5.1575Y-4.685
X5.5118Y-4.7638
X5.6688Y-2.9523
X5.6691Y-2.9125
X5.6693Y-2.9921
X5.8263Y-4.9611
X5.8268Y-2.5787
X5.8268Y-2.6181
X5.8268Y-2.6575
X5.8268Y-2.6969
X5.8268Y-2.9921
X5.8268Y-4.7638
X5.8661Y-4.9606
X5.9055Y-2.9921
X5.906Y-4.9601
X5.9454Y-4.9606
X5.9557Y-2.9891
X5.9843Y-2.7559
X6.0236Y-4.0551
X6.063Y-2.3622
X6.1024Y-4.8031
X6.1811Y-2.4213
X6.1811Y-2.4606
X6.1811Y-2.5
X6.1811Y-2.5394
X6.1811Y-4.0551
X6.2205Y-4.9213
X6.2241Y-4.9611
X6.6535Y-4.685
X6.6535Y-5.0
X6.7126Y-3.0709
X6.9291Y-2.7165
T2
X5.0555Y-4.3711
X5.0555Y-5.315
X5.1555Y-4.3711
X5.1555Y-5.315
X5.2555Y-4.3711
X5.2555Y-5.315
X5.3555Y-4.3711
X5.3555Y-5.315
X5.4555Y-3.5508
X5.4555Y-3.8508
X5.4555Y-4.3711
X5.4555Y-5.315
X5.5555Y-4.3711
X5.5555Y-5.315
X5.6555Y-4.3711
X5.6555Y-5.315
X5.7555Y-4.3711
X5.7555Y-5.315
X5.8555Y-4.3711
X5.8555Y-5.315
X5.9555Y-4.3711
X5.9555Y-5.315
X6.0555Y-4.3711
X6.0555Y-5.315
X6.1555Y-4.3711
X6.1555Y-5.315
X6.2555Y-4.3711
X6.2555Y-5.315
X6.3555Y-3.5508
X6.3555Y-3.8508
X6.3555Y-4.3711
X6.3555Y-5.315
X6.4555Y-4.3711
X6.4555Y-5.315
X6.5555Y-4.3711
X6.5555Y-5.315
X6.6555Y-4.3711
X6.6555Y-5.315
X6.7555Y-4.3711
X6.7555Y-5.315
T3
X5.315Y-2.6181
X5.315Y-2.8102
T4
X4.5669Y-3.8583
X4.5669Y-3.9583
X4.5669Y-4.0583
X4.6669Y-3.8583
X4.6669Y-3.9583
X4.6669Y-4.0583
T0
M30
