%TF.GenerationSoftware,KiCad,Pcbnew,5.1.10*%
%TF.CreationDate,2021-09-26T09:29:56+10:00*%
%TF.ProjectId,pcb-sensor,7063622d-7365-46e7-936f-722e6b696361,rev?*%
%TF.SameCoordinates,Original*%
%TF.FileFunction,Copper,L2,Bot*%
%TF.FilePolarity,Positive*%
%FSLAX46Y46*%
G04 Gerber Fmt 4.6, Leading zero omitted, Abs format (unit mm)*
G04 Created by KiCad (PCBNEW 5.1.10) date 2021-09-26 09:29:56*
%MOMM*%
%LPD*%
G01*
G04 APERTURE LIST*
%TA.AperFunction,ComponentPad*%
%ADD10O,1.700000X1.700000*%
%TD*%
%TA.AperFunction,ComponentPad*%
%ADD11R,1.700000X1.700000*%
%TD*%
%TA.AperFunction,ViaPad*%
%ADD12C,0.800000*%
%TD*%
%TA.AperFunction,Conductor*%
%ADD13C,0.500000*%
%TD*%
%TA.AperFunction,Conductor*%
%ADD14C,0.250000*%
%TD*%
%TA.AperFunction,Conductor*%
%ADD15C,0.254000*%
%TD*%
%TA.AperFunction,Conductor*%
%ADD16C,0.100000*%
%TD*%
G04 APERTURE END LIST*
D10*
%TO.P,J3,2*%
%TO.N,GND*%
X179100000Y-103300000D03*
D11*
%TO.P,J3,1*%
%TO.N,/PD1*%
X176560000Y-103300000D03*
%TD*%
D10*
%TO.P,J2,12*%
%TO.N,GND*%
X163940000Y-122000000D03*
%TO.P,J2,11*%
%TO.N,+5V*%
X161400000Y-122000000D03*
%TO.P,J2,10*%
%TO.N,/PD2*%
X158860000Y-122000000D03*
%TO.P,J2,9*%
%TO.N,+12V*%
X156320000Y-122000000D03*
%TO.P,J2,8*%
%TO.N,/COIL*%
X153780000Y-122000000D03*
%TO.P,J2,7*%
%TO.N,/NEUTRAL*%
X151240000Y-122000000D03*
%TO.P,J2,6*%
%TO.N,/OIL_PRESSURE*%
X148700000Y-122000000D03*
%TO.P,J2,5*%
%TO.N,/KEY_12V*%
X146160000Y-122000000D03*
%TO.P,J2,4*%
%TO.N,/TURN_SIGNAL_LEFT*%
X143620000Y-122000000D03*
%TO.P,J2,3*%
%TO.N,/TURN_SIGNAL_RIGHT*%
X141080000Y-122000000D03*
%TO.P,J2,2*%
%TO.N,/HIGH_BEAM*%
X138540000Y-122000000D03*
D11*
%TO.P,J2,1*%
%TO.N,GND*%
X136000000Y-122000000D03*
%TD*%
D12*
%TO.N,GND*%
X176000000Y-82000000D03*
X184000000Y-116000000D03*
X172000000Y-116000000D03*
X132900000Y-106100000D03*
X141080000Y-76920000D03*
X142000000Y-61000000D03*
X157000000Y-61000000D03*
X138000000Y-93000000D03*
%TO.N,+5V*%
X160000000Y-85000000D03*
X165000000Y-85000000D03*
X160000000Y-70000000D03*
%TO.N,/KEY_12V*%
X146000000Y-71000000D03*
X131000000Y-95000000D03*
%TO.N,/TURN_SIGNAL_LEFT*%
X128000000Y-83000000D03*
%TO.N,/TURN_SIGNAL_RIGHT*%
X128000000Y-80000000D03*
%TO.N,/NEUTRAL*%
X154000000Y-90000000D03*
%TO.N,/HIGH_BEAM*%
X131000000Y-71000000D03*
%TO.N,/COIL*%
X154000000Y-77000000D03*
%TO.N,/OIL_PRESSURE*%
X150000000Y-90000000D03*
%TO.N,+12V*%
X172000000Y-114000000D03*
%TO.N,/PD2*%
X162000000Y-90000000D03*
%TD*%
D13*
%TO.N,+5V*%
X160000000Y-85000000D02*
X165000000Y-85000000D01*
X160000000Y-85000000D02*
X160000000Y-70000000D01*
D14*
%TO.N,/KEY_12V*%
X146000000Y-80000000D02*
X131000000Y-95000000D01*
X146000000Y-71000000D02*
X146000000Y-80000000D01*
X131000000Y-105000000D02*
X131000000Y-95000000D01*
X131000000Y-106840000D02*
X131000000Y-105000000D01*
X146160000Y-122000000D02*
X131000000Y-106840000D01*
%TO.N,/TURN_SIGNAL_LEFT*%
X128000000Y-83000000D02*
X126900020Y-84099980D01*
X143620000Y-122000000D02*
X143620000Y-120096410D01*
X143620000Y-120096410D02*
X126900020Y-103376430D01*
X126900020Y-103376430D02*
X126900020Y-101299980D01*
X126900020Y-84099980D02*
X126900020Y-101299980D01*
%TO.N,/TURN_SIGNAL_RIGHT*%
X128000000Y-80000000D02*
X126450010Y-81549990D01*
X141080000Y-122000000D02*
X141080000Y-118192820D01*
X126450010Y-103562830D02*
X126450010Y-101850010D01*
X141080000Y-118192820D02*
X126450010Y-103562830D01*
X126450010Y-81549990D02*
X126450010Y-101850010D01*
%TO.N,/NEUTRAL*%
X154000000Y-90000000D02*
X154000000Y-93000000D01*
X154000000Y-93000000D02*
X158000000Y-97000000D01*
X158000000Y-97000000D02*
X158000000Y-103000000D01*
X151240000Y-109760000D02*
X151240000Y-122000000D01*
X158000000Y-103000000D02*
X151240000Y-109760000D01*
%TO.N,/HIGH_BEAM*%
X131000000Y-71000000D02*
X126000000Y-76000000D01*
X138540000Y-122000000D02*
X138540000Y-118540000D01*
X138540000Y-118540000D02*
X138540000Y-116289230D01*
X126000000Y-103749230D02*
X126000000Y-102600000D01*
X138540000Y-116289230D02*
X126000000Y-103749230D01*
X126000000Y-76000000D02*
X126000000Y-102600000D01*
%TO.N,/COIL*%
X153780000Y-122000000D02*
X153780000Y-107856410D01*
X153780000Y-107856410D02*
X158450010Y-103186400D01*
X158450010Y-81450010D02*
X154000000Y-77000000D01*
X158450010Y-103186400D02*
X158450010Y-81450010D01*
%TO.N,/OIL_PRESSURE*%
X141591192Y-114891192D02*
X148700000Y-122000000D01*
X141591192Y-97843123D02*
X141591192Y-114891192D01*
X149434315Y-90000000D02*
X141591192Y-97843123D01*
X150000000Y-90000000D02*
X149434315Y-90000000D01*
D13*
%TO.N,+12V*%
X157620001Y-123300001D02*
X156320000Y-122000000D01*
X164564001Y-123300001D02*
X157620001Y-123300001D01*
X165240001Y-122624001D02*
X164564001Y-123300001D01*
X165240001Y-120759999D02*
X165240001Y-122624001D01*
X172000000Y-114000000D02*
X165240001Y-120759999D01*
D14*
%TO.N,/PD2*%
X162000000Y-118860000D02*
X158860000Y-122000000D01*
X162000000Y-90000000D02*
X162000000Y-118860000D01*
%TD*%
D15*
%TO.N,GND*%
X152541850Y-58788314D02*
X155074058Y-59022957D01*
X157587018Y-59413041D01*
X160071198Y-59957085D01*
X162517174Y-60653025D01*
X164915668Y-61498222D01*
X167257583Y-62489469D01*
X169534033Y-63623006D01*
X171736384Y-64894534D01*
X173856281Y-66299229D01*
X175885684Y-67831763D01*
X177816893Y-69486322D01*
X179642583Y-71256629D01*
X181355829Y-73135970D01*
X182950131Y-75117216D01*
X184419442Y-77192850D01*
X185758189Y-79355000D01*
X186961292Y-81595463D01*
X188024189Y-83905741D01*
X188942847Y-86277070D01*
X189713781Y-88700455D01*
X190334067Y-91166703D01*
X190801352Y-93666459D01*
X191113864Y-96190239D01*
X191270417Y-98728472D01*
X191270417Y-101271528D01*
X191113864Y-103809761D01*
X190801352Y-106333541D01*
X190334067Y-108833297D01*
X189713781Y-111299545D01*
X188942847Y-113722930D01*
X188024189Y-116094259D01*
X186961292Y-118404537D01*
X185758189Y-120645000D01*
X184419442Y-122807150D01*
X182950131Y-124882784D01*
X181355829Y-126864030D01*
X179642583Y-128743371D01*
X177816893Y-130513678D01*
X175885684Y-132168237D01*
X173856281Y-133700771D01*
X171736384Y-135105466D01*
X169534033Y-136376994D01*
X167257583Y-137510531D01*
X164915668Y-138501778D01*
X162517174Y-139346975D01*
X160071198Y-140042915D01*
X157587018Y-140586959D01*
X155074058Y-140977043D01*
X152541850Y-141211686D01*
X150000000Y-141290000D01*
X147458150Y-141211686D01*
X144925942Y-140977043D01*
X142412982Y-140586959D01*
X139928802Y-140042915D01*
X137482826Y-139346975D01*
X135877904Y-138781422D01*
X147780738Y-138781422D01*
X147780738Y-139218578D01*
X147866023Y-139647335D01*
X148033316Y-140051215D01*
X148276187Y-140414697D01*
X148585303Y-140723813D01*
X148948785Y-140966684D01*
X149352665Y-141133977D01*
X149781422Y-141219262D01*
X150218578Y-141219262D01*
X150647335Y-141133977D01*
X151051215Y-140966684D01*
X151414697Y-140723813D01*
X151723813Y-140414697D01*
X151966684Y-140051215D01*
X152133977Y-139647335D01*
X152219262Y-139218578D01*
X152219262Y-138781422D01*
X152133977Y-138352665D01*
X151966684Y-137948785D01*
X151723813Y-137585303D01*
X151414697Y-137276187D01*
X151051215Y-137033316D01*
X150647335Y-136866023D01*
X150218578Y-136780738D01*
X149781422Y-136780738D01*
X149352665Y-136866023D01*
X148948785Y-137033316D01*
X148585303Y-137276187D01*
X148276187Y-137585303D01*
X148033316Y-137948785D01*
X147866023Y-138352665D01*
X147780738Y-138781422D01*
X135877904Y-138781422D01*
X135084332Y-138501778D01*
X132742417Y-137510531D01*
X130465967Y-136376994D01*
X128263616Y-135105466D01*
X126143719Y-133700771D01*
X124114316Y-132168237D01*
X122183107Y-130513678D01*
X120357417Y-128743371D01*
X118644171Y-126864030D01*
X117049869Y-124882784D01*
X115610891Y-122850000D01*
X134511928Y-122850000D01*
X134524188Y-122974482D01*
X134560498Y-123094180D01*
X134619463Y-123204494D01*
X134698815Y-123301185D01*
X134795506Y-123380537D01*
X134905820Y-123439502D01*
X135025518Y-123475812D01*
X135150000Y-123488072D01*
X135714250Y-123485000D01*
X135873000Y-123326250D01*
X135873000Y-122127000D01*
X134673750Y-122127000D01*
X134515000Y-122285750D01*
X134511928Y-122850000D01*
X115610891Y-122850000D01*
X115580558Y-122807150D01*
X114554494Y-121150000D01*
X134511928Y-121150000D01*
X134515000Y-121714250D01*
X134673750Y-121873000D01*
X135873000Y-121873000D01*
X135873000Y-120673750D01*
X135714250Y-120515000D01*
X135150000Y-120511928D01*
X135025518Y-120524188D01*
X134905820Y-120560498D01*
X134795506Y-120619463D01*
X134698815Y-120698815D01*
X134619463Y-120795506D01*
X134560498Y-120905820D01*
X134524188Y-121025518D01*
X134511928Y-121150000D01*
X114554494Y-121150000D01*
X114241811Y-120645000D01*
X113038708Y-118404537D01*
X111975811Y-116094259D01*
X111057153Y-113722930D01*
X110286219Y-111299545D01*
X109665933Y-108833297D01*
X109198648Y-106333541D01*
X108886136Y-103809761D01*
X108729583Y-101271528D01*
X108729583Y-98728472D01*
X108886136Y-96190239D01*
X109198648Y-93666459D01*
X109665933Y-91166703D01*
X110286219Y-88700455D01*
X111057153Y-86277070D01*
X111975811Y-83905741D01*
X113038708Y-81595463D01*
X113744332Y-80281422D01*
X114000738Y-80281422D01*
X114000738Y-80718578D01*
X114086023Y-81147335D01*
X114253316Y-81551215D01*
X114496187Y-81914697D01*
X114805303Y-82223813D01*
X115168785Y-82466684D01*
X115572665Y-82633977D01*
X116001422Y-82719262D01*
X116438578Y-82719262D01*
X116867335Y-82633977D01*
X117271215Y-82466684D01*
X117634697Y-82223813D01*
X117943813Y-81914697D01*
X118186684Y-81551215D01*
X118353977Y-81147335D01*
X118439262Y-80718578D01*
X118439262Y-80281422D01*
X118353977Y-79852665D01*
X118186684Y-79448785D01*
X117943813Y-79085303D01*
X117634697Y-78776187D01*
X117271215Y-78533316D01*
X116867335Y-78366023D01*
X116438578Y-78280738D01*
X116001422Y-78280738D01*
X115572665Y-78366023D01*
X115168785Y-78533316D01*
X114805303Y-78776187D01*
X114496187Y-79085303D01*
X114253316Y-79448785D01*
X114086023Y-79852665D01*
X114000738Y-80281422D01*
X113744332Y-80281422D01*
X114241811Y-79355000D01*
X115580558Y-77192850D01*
X116424959Y-76000000D01*
X125236324Y-76000000D01*
X125240000Y-76037322D01*
X125240001Y-102562667D01*
X125240000Y-103711907D01*
X125236324Y-103749230D01*
X125240000Y-103786552D01*
X125240000Y-103786562D01*
X125250997Y-103898215D01*
X125285332Y-104011404D01*
X125294454Y-104041476D01*
X125365026Y-104173506D01*
X125384967Y-104197804D01*
X125459999Y-104289231D01*
X125489003Y-104313034D01*
X137780001Y-116604033D01*
X137780000Y-118577332D01*
X137780001Y-118577342D01*
X137780000Y-120721821D01*
X137593368Y-120846525D01*
X137461513Y-120978380D01*
X137439502Y-120905820D01*
X137380537Y-120795506D01*
X137301185Y-120698815D01*
X137204494Y-120619463D01*
X137094180Y-120560498D01*
X136974482Y-120524188D01*
X136850000Y-120511928D01*
X136285750Y-120515000D01*
X136127000Y-120673750D01*
X136127000Y-121873000D01*
X136147000Y-121873000D01*
X136147000Y-122127000D01*
X136127000Y-122127000D01*
X136127000Y-123326250D01*
X136285750Y-123485000D01*
X136850000Y-123488072D01*
X136974482Y-123475812D01*
X137094180Y-123439502D01*
X137204494Y-123380537D01*
X137301185Y-123301185D01*
X137380537Y-123204494D01*
X137439502Y-123094180D01*
X137461513Y-123021620D01*
X137593368Y-123153475D01*
X137836589Y-123315990D01*
X138106842Y-123427932D01*
X138393740Y-123485000D01*
X138686260Y-123485000D01*
X138973158Y-123427932D01*
X139243411Y-123315990D01*
X139486632Y-123153475D01*
X139693475Y-122946632D01*
X139810000Y-122772240D01*
X139926525Y-122946632D01*
X140133368Y-123153475D01*
X140376589Y-123315990D01*
X140646842Y-123427932D01*
X140933740Y-123485000D01*
X141226260Y-123485000D01*
X141513158Y-123427932D01*
X141783411Y-123315990D01*
X142026632Y-123153475D01*
X142233475Y-122946632D01*
X142350000Y-122772240D01*
X142466525Y-122946632D01*
X142673368Y-123153475D01*
X142916589Y-123315990D01*
X143186842Y-123427932D01*
X143473740Y-123485000D01*
X143766260Y-123485000D01*
X144053158Y-123427932D01*
X144323411Y-123315990D01*
X144566632Y-123153475D01*
X144773475Y-122946632D01*
X144890000Y-122772240D01*
X145006525Y-122946632D01*
X145213368Y-123153475D01*
X145456589Y-123315990D01*
X145726842Y-123427932D01*
X146013740Y-123485000D01*
X146306260Y-123485000D01*
X146593158Y-123427932D01*
X146863411Y-123315990D01*
X147106632Y-123153475D01*
X147313475Y-122946632D01*
X147430000Y-122772240D01*
X147546525Y-122946632D01*
X147753368Y-123153475D01*
X147996589Y-123315990D01*
X148266842Y-123427932D01*
X148553740Y-123485000D01*
X148846260Y-123485000D01*
X149133158Y-123427932D01*
X149403411Y-123315990D01*
X149646632Y-123153475D01*
X149853475Y-122946632D01*
X149970000Y-122772240D01*
X150086525Y-122946632D01*
X150293368Y-123153475D01*
X150536589Y-123315990D01*
X150806842Y-123427932D01*
X151093740Y-123485000D01*
X151386260Y-123485000D01*
X151673158Y-123427932D01*
X151943411Y-123315990D01*
X152186632Y-123153475D01*
X152393475Y-122946632D01*
X152510000Y-122772240D01*
X152626525Y-122946632D01*
X152833368Y-123153475D01*
X153076589Y-123315990D01*
X153346842Y-123427932D01*
X153633740Y-123485000D01*
X153926260Y-123485000D01*
X154213158Y-123427932D01*
X154483411Y-123315990D01*
X154726632Y-123153475D01*
X154933475Y-122946632D01*
X155050000Y-122772240D01*
X155166525Y-122946632D01*
X155373368Y-123153475D01*
X155616589Y-123315990D01*
X155886842Y-123427932D01*
X156173740Y-123485000D01*
X156466260Y-123485000D01*
X156538960Y-123470539D01*
X156963471Y-123895050D01*
X156991184Y-123928818D01*
X157024952Y-123956531D01*
X157024954Y-123956533D01*
X157096453Y-124015211D01*
X157125942Y-124039412D01*
X157279688Y-124121590D01*
X157446511Y-124172196D01*
X157576524Y-124185001D01*
X157576534Y-124185001D01*
X157620000Y-124189282D01*
X157663467Y-124185001D01*
X164520532Y-124185001D01*
X164564001Y-124189282D01*
X164607470Y-124185001D01*
X164607478Y-124185001D01*
X164737491Y-124172196D01*
X164904314Y-124121590D01*
X165058060Y-124039412D01*
X165192818Y-123928818D01*
X165220535Y-123895045D01*
X165835050Y-123280531D01*
X165868818Y-123252818D01*
X165979412Y-123118060D01*
X166061590Y-122964314D01*
X166112196Y-122797491D01*
X166125001Y-122667478D01*
X166125001Y-122667468D01*
X166129282Y-122624002D01*
X166125001Y-122580536D01*
X166125001Y-121126577D01*
X172245044Y-115006535D01*
X172301898Y-114995226D01*
X172490256Y-114917205D01*
X172659774Y-114803937D01*
X172803937Y-114659774D01*
X172917205Y-114490256D01*
X172995226Y-114301898D01*
X173035000Y-114101939D01*
X173035000Y-113898061D01*
X172995226Y-113698102D01*
X172917205Y-113509744D01*
X172803937Y-113340226D01*
X172659774Y-113196063D01*
X172490256Y-113082795D01*
X172301898Y-113004774D01*
X172101939Y-112965000D01*
X171898061Y-112965000D01*
X171698102Y-113004774D01*
X171509744Y-113082795D01*
X171340226Y-113196063D01*
X171196063Y-113340226D01*
X171082795Y-113509744D01*
X171004774Y-113698102D01*
X170993465Y-113754956D01*
X164644957Y-120103465D01*
X164611184Y-120131182D01*
X164500590Y-120265941D01*
X164418412Y-120419687D01*
X164383158Y-120535903D01*
X164376296Y-120558524D01*
X164369605Y-120580580D01*
X164296890Y-120558524D01*
X164067000Y-120679845D01*
X164067000Y-121873000D01*
X164087000Y-121873000D01*
X164087000Y-122127000D01*
X164067000Y-122127000D01*
X164067000Y-122147000D01*
X163813000Y-122147000D01*
X163813000Y-122127000D01*
X163793000Y-122127000D01*
X163793000Y-121873000D01*
X163813000Y-121873000D01*
X163813000Y-120679845D01*
X163583110Y-120558524D01*
X163435901Y-120603175D01*
X163173080Y-120728359D01*
X162939731Y-120902412D01*
X162744822Y-121118645D01*
X162675195Y-121235534D01*
X162553475Y-121053368D01*
X162346632Y-120846525D01*
X162103411Y-120684010D01*
X161833158Y-120572068D01*
X161546260Y-120515000D01*
X161419802Y-120515000D01*
X162511003Y-119423799D01*
X162540001Y-119400001D01*
X162634974Y-119284276D01*
X162705546Y-119152247D01*
X162749003Y-119008986D01*
X162760000Y-118897333D01*
X162763677Y-118860000D01*
X162760000Y-118822667D01*
X162760000Y-102450000D01*
X175071928Y-102450000D01*
X175071928Y-104150000D01*
X175084188Y-104274482D01*
X175120498Y-104394180D01*
X175179463Y-104504494D01*
X175258815Y-104601185D01*
X175355506Y-104680537D01*
X175465820Y-104739502D01*
X175585518Y-104775812D01*
X175710000Y-104788072D01*
X177410000Y-104788072D01*
X177534482Y-104775812D01*
X177654180Y-104739502D01*
X177764494Y-104680537D01*
X177861185Y-104601185D01*
X177940537Y-104504494D01*
X177999502Y-104394180D01*
X178022498Y-104318374D01*
X178218645Y-104495178D01*
X178468748Y-104644157D01*
X178743109Y-104741481D01*
X178973000Y-104620814D01*
X178973000Y-103427000D01*
X179227000Y-103427000D01*
X179227000Y-104620814D01*
X179456891Y-104741481D01*
X179731252Y-104644157D01*
X179981355Y-104495178D01*
X180197588Y-104300269D01*
X180371641Y-104066920D01*
X180496825Y-103804099D01*
X180541476Y-103656890D01*
X180420155Y-103427000D01*
X179227000Y-103427000D01*
X178973000Y-103427000D01*
X178953000Y-103427000D01*
X178953000Y-103173000D01*
X178973000Y-103173000D01*
X178973000Y-101979186D01*
X179227000Y-101979186D01*
X179227000Y-103173000D01*
X180420155Y-103173000D01*
X180541476Y-102943110D01*
X180496825Y-102795901D01*
X180371641Y-102533080D01*
X180197588Y-102299731D01*
X179981355Y-102104822D01*
X179731252Y-101955843D01*
X179456891Y-101858519D01*
X179227000Y-101979186D01*
X178973000Y-101979186D01*
X178743109Y-101858519D01*
X178468748Y-101955843D01*
X178218645Y-102104822D01*
X178022498Y-102281626D01*
X177999502Y-102205820D01*
X177940537Y-102095506D01*
X177861185Y-101998815D01*
X177764494Y-101919463D01*
X177654180Y-101860498D01*
X177534482Y-101824188D01*
X177410000Y-101811928D01*
X175710000Y-101811928D01*
X175585518Y-101824188D01*
X175465820Y-101860498D01*
X175355506Y-101919463D01*
X175258815Y-101998815D01*
X175179463Y-102095506D01*
X175120498Y-102205820D01*
X175084188Y-102325518D01*
X175071928Y-102450000D01*
X162760000Y-102450000D01*
X162760000Y-99864736D01*
X183626645Y-99864736D01*
X183626645Y-100135264D01*
X183679422Y-100400593D01*
X183782949Y-100650527D01*
X183933246Y-100875463D01*
X184124537Y-101066754D01*
X184349473Y-101217051D01*
X184599407Y-101320578D01*
X184864736Y-101373355D01*
X185135264Y-101373355D01*
X185400593Y-101320578D01*
X185650527Y-101217051D01*
X185875463Y-101066754D01*
X186066754Y-100875463D01*
X186217051Y-100650527D01*
X186320578Y-100400593D01*
X186373355Y-100135264D01*
X186373355Y-99864736D01*
X186320578Y-99599407D01*
X186217051Y-99349473D01*
X186066754Y-99124537D01*
X185875463Y-98933246D01*
X185650527Y-98782949D01*
X185400593Y-98679422D01*
X185135264Y-98626645D01*
X184864736Y-98626645D01*
X184599407Y-98679422D01*
X184349473Y-98782949D01*
X184124537Y-98933246D01*
X183933246Y-99124537D01*
X183782949Y-99349473D01*
X183679422Y-99599407D01*
X183626645Y-99864736D01*
X162760000Y-99864736D01*
X162760000Y-90703711D01*
X162803937Y-90659774D01*
X162917205Y-90490256D01*
X162995226Y-90301898D01*
X163035000Y-90101939D01*
X163035000Y-89898061D01*
X162995226Y-89698102D01*
X162917205Y-89509744D01*
X162803937Y-89340226D01*
X162659774Y-89196063D01*
X162490256Y-89082795D01*
X162301898Y-89004774D01*
X162101939Y-88965000D01*
X161898061Y-88965000D01*
X161698102Y-89004774D01*
X161509744Y-89082795D01*
X161340226Y-89196063D01*
X161196063Y-89340226D01*
X161082795Y-89509744D01*
X161004774Y-89698102D01*
X160965000Y-89898061D01*
X160965000Y-90101939D01*
X161004774Y-90301898D01*
X161082795Y-90490256D01*
X161196063Y-90659774D01*
X161240000Y-90703711D01*
X161240001Y-118545197D01*
X159226408Y-120558791D01*
X159006260Y-120515000D01*
X158713740Y-120515000D01*
X158426842Y-120572068D01*
X158156589Y-120684010D01*
X157913368Y-120846525D01*
X157706525Y-121053368D01*
X157590000Y-121227760D01*
X157473475Y-121053368D01*
X157266632Y-120846525D01*
X157023411Y-120684010D01*
X156753158Y-120572068D01*
X156466260Y-120515000D01*
X156173740Y-120515000D01*
X155886842Y-120572068D01*
X155616589Y-120684010D01*
X155373368Y-120846525D01*
X155166525Y-121053368D01*
X155050000Y-121227760D01*
X154933475Y-121053368D01*
X154726632Y-120846525D01*
X154540000Y-120721822D01*
X154540000Y-113883894D01*
X154552710Y-113907013D01*
X154589060Y-113960100D01*
X154624676Y-114013707D01*
X154630995Y-114021345D01*
X154756445Y-114170851D01*
X154802392Y-114215846D01*
X154847767Y-114261539D01*
X154855449Y-114267804D01*
X155007549Y-114390095D01*
X155061385Y-114425324D01*
X155114742Y-114461314D01*
X155123495Y-114465967D01*
X155123498Y-114465969D01*
X155123502Y-114465970D01*
X155296450Y-114556387D01*
X155356081Y-114580480D01*
X155415442Y-114605433D01*
X155424933Y-114608298D01*
X155612158Y-114663400D01*
X155675323Y-114675449D01*
X155738401Y-114688398D01*
X155748267Y-114689365D01*
X155942629Y-114707054D01*
X156006980Y-114706605D01*
X156071332Y-114707054D01*
X156081187Y-114706087D01*
X156081193Y-114706087D01*
X156081198Y-114706086D01*
X156275295Y-114685685D01*
X156338310Y-114672750D01*
X156401540Y-114660688D01*
X156411030Y-114657823D01*
X156597468Y-114600111D01*
X156656797Y-114575171D01*
X156716455Y-114551068D01*
X156725208Y-114546414D01*
X156896885Y-114453589D01*
X156950198Y-114417629D01*
X157004083Y-114382367D01*
X157011765Y-114376102D01*
X157162143Y-114251698D01*
X157207480Y-114206043D01*
X157253463Y-114161013D01*
X157259782Y-114153375D01*
X157383132Y-114002133D01*
X157418757Y-113948513D01*
X157455099Y-113895436D01*
X157459814Y-113886716D01*
X157551439Y-113714394D01*
X157575951Y-113654924D01*
X157601312Y-113595752D01*
X157604243Y-113586282D01*
X157660652Y-113399446D01*
X157673152Y-113336316D01*
X157686530Y-113273377D01*
X157687566Y-113263519D01*
X157706611Y-113069285D01*
X157710000Y-113034877D01*
X157710000Y-109965123D01*
X157706515Y-109929738D01*
X157706515Y-109916754D01*
X157705478Y-109906895D01*
X157683723Y-109712945D01*
X157670347Y-109650016D01*
X157657844Y-109586873D01*
X157654913Y-109577403D01*
X157595900Y-109391373D01*
X157570560Y-109332252D01*
X157546028Y-109272733D01*
X157541313Y-109264012D01*
X157447290Y-109092987D01*
X157410940Y-109039900D01*
X157375324Y-108986293D01*
X157369005Y-108978655D01*
X157243555Y-108829149D01*
X157197608Y-108784154D01*
X157152233Y-108738461D01*
X157144556Y-108732201D01*
X157144553Y-108732198D01*
X157144550Y-108732196D01*
X156992451Y-108609905D01*
X156938599Y-108574666D01*
X156885258Y-108538686D01*
X156876505Y-108534032D01*
X156703549Y-108443613D01*
X156643930Y-108419525D01*
X156584557Y-108394567D01*
X156575067Y-108391702D01*
X156387841Y-108336599D01*
X156324639Y-108324543D01*
X156261598Y-108311602D01*
X156251732Y-108310635D01*
X156057371Y-108292946D01*
X155993019Y-108293395D01*
X155928667Y-108292946D01*
X155918812Y-108293913D01*
X155918807Y-108293913D01*
X155918803Y-108293914D01*
X155918801Y-108293914D01*
X155724705Y-108314315D01*
X155661690Y-108327250D01*
X155598460Y-108339312D01*
X155588970Y-108342177D01*
X155402532Y-108399889D01*
X155343203Y-108424829D01*
X155283545Y-108448932D01*
X155274792Y-108453586D01*
X155103115Y-108546411D01*
X155049787Y-108582381D01*
X154995917Y-108617633D01*
X154988235Y-108623899D01*
X154837857Y-108748302D01*
X154792520Y-108793957D01*
X154746537Y-108838987D01*
X154740218Y-108846625D01*
X154616868Y-108997867D01*
X154581266Y-109051454D01*
X154544901Y-109104563D01*
X154540186Y-109113284D01*
X154540000Y-109113634D01*
X154540000Y-108171211D01*
X158961019Y-103750194D01*
X158990011Y-103726401D01*
X159013805Y-103697408D01*
X159013809Y-103697404D01*
X159084983Y-103610677D01*
X159084984Y-103610676D01*
X159155556Y-103478647D01*
X159199013Y-103335386D01*
X159210010Y-103223733D01*
X159210010Y-103223724D01*
X159213686Y-103186401D01*
X159210010Y-103149078D01*
X159210010Y-85673721D01*
X159340226Y-85803937D01*
X159509744Y-85917205D01*
X159698102Y-85995226D01*
X159898061Y-86035000D01*
X160101939Y-86035000D01*
X160301898Y-85995226D01*
X160490256Y-85917205D01*
X160538454Y-85885000D01*
X164461546Y-85885000D01*
X164509744Y-85917205D01*
X164698102Y-85995226D01*
X164898061Y-86035000D01*
X165101939Y-86035000D01*
X165301898Y-85995226D01*
X165490256Y-85917205D01*
X165659774Y-85803937D01*
X165803937Y-85659774D01*
X165917205Y-85490256D01*
X165995226Y-85301898D01*
X166035000Y-85101939D01*
X166035000Y-84898061D01*
X165995226Y-84698102D01*
X165917205Y-84509744D01*
X165803937Y-84340226D01*
X165659774Y-84196063D01*
X165490256Y-84082795D01*
X165301898Y-84004774D01*
X165101939Y-83965000D01*
X164898061Y-83965000D01*
X164698102Y-84004774D01*
X164509744Y-84082795D01*
X164461546Y-84115000D01*
X160885000Y-84115000D01*
X160885000Y-80281422D01*
X181550738Y-80281422D01*
X181550738Y-80718578D01*
X181636023Y-81147335D01*
X181803316Y-81551215D01*
X182046187Y-81914697D01*
X182355303Y-82223813D01*
X182718785Y-82466684D01*
X183122665Y-82633977D01*
X183551422Y-82719262D01*
X183988578Y-82719262D01*
X184417335Y-82633977D01*
X184821215Y-82466684D01*
X185184697Y-82223813D01*
X185493813Y-81914697D01*
X185736684Y-81551215D01*
X185903977Y-81147335D01*
X185989262Y-80718578D01*
X185989262Y-80281422D01*
X185903977Y-79852665D01*
X185736684Y-79448785D01*
X185493813Y-79085303D01*
X185184697Y-78776187D01*
X184821215Y-78533316D01*
X184417335Y-78366023D01*
X183988578Y-78280738D01*
X183551422Y-78280738D01*
X183122665Y-78366023D01*
X182718785Y-78533316D01*
X182355303Y-78776187D01*
X182046187Y-79085303D01*
X181803316Y-79448785D01*
X181636023Y-79852665D01*
X181550738Y-80281422D01*
X160885000Y-80281422D01*
X160885000Y-70538454D01*
X160917205Y-70490256D01*
X160995226Y-70301898D01*
X161035000Y-70101939D01*
X161035000Y-69898061D01*
X160995226Y-69698102D01*
X160917205Y-69509744D01*
X160803937Y-69340226D01*
X160659774Y-69196063D01*
X160490256Y-69082795D01*
X160301898Y-69004774D01*
X160101939Y-68965000D01*
X159898061Y-68965000D01*
X159698102Y-69004774D01*
X159509744Y-69082795D01*
X159340226Y-69196063D01*
X159196063Y-69340226D01*
X159082795Y-69509744D01*
X159004774Y-69698102D01*
X158965000Y-69898061D01*
X158965000Y-70101939D01*
X159004774Y-70301898D01*
X159082795Y-70490256D01*
X159115001Y-70538456D01*
X159115000Y-81081890D01*
X159084984Y-81025734D01*
X159059947Y-80995226D01*
X159013809Y-80939006D01*
X159013805Y-80939002D01*
X158990011Y-80910009D01*
X158961018Y-80886215D01*
X155035000Y-76960199D01*
X155035000Y-76898061D01*
X154995226Y-76698102D01*
X154917205Y-76509744D01*
X154803937Y-76340226D01*
X154659774Y-76196063D01*
X154490256Y-76082795D01*
X154301898Y-76004774D01*
X154101939Y-75965000D01*
X153898061Y-75965000D01*
X153698102Y-76004774D01*
X153509744Y-76082795D01*
X153340226Y-76196063D01*
X153196063Y-76340226D01*
X153082795Y-76509744D01*
X153004774Y-76698102D01*
X152965000Y-76898061D01*
X152965000Y-77101939D01*
X153004774Y-77301898D01*
X153082795Y-77490256D01*
X153196063Y-77659774D01*
X153340226Y-77803937D01*
X153509744Y-77917205D01*
X153698102Y-77995226D01*
X153898061Y-78035000D01*
X153960199Y-78035000D01*
X157690011Y-81764814D01*
X157690010Y-95615209D01*
X154760000Y-92685199D01*
X154760000Y-90703711D01*
X154803937Y-90659774D01*
X154917205Y-90490256D01*
X154995226Y-90301898D01*
X155035000Y-90101939D01*
X155035000Y-89898061D01*
X154995226Y-89698102D01*
X154917205Y-89509744D01*
X154803937Y-89340226D01*
X154659774Y-89196063D01*
X154490256Y-89082795D01*
X154301898Y-89004774D01*
X154101939Y-88965000D01*
X153898061Y-88965000D01*
X153698102Y-89004774D01*
X153509744Y-89082795D01*
X153340226Y-89196063D01*
X153196063Y-89340226D01*
X153082795Y-89509744D01*
X153004774Y-89698102D01*
X152965000Y-89898061D01*
X152965000Y-90101939D01*
X153004774Y-90301898D01*
X153082795Y-90490256D01*
X153196063Y-90659774D01*
X153240000Y-90703711D01*
X153240001Y-92962668D01*
X153237333Y-92989754D01*
X152278457Y-92613422D01*
X151152097Y-92356338D01*
X150000000Y-92270000D01*
X148847903Y-92356338D01*
X147947199Y-92561917D01*
X149567845Y-90941272D01*
X149698102Y-90995226D01*
X149898061Y-91035000D01*
X150101939Y-91035000D01*
X150301898Y-90995226D01*
X150490256Y-90917205D01*
X150659774Y-90803937D01*
X150803937Y-90659774D01*
X150917205Y-90490256D01*
X150995226Y-90301898D01*
X151035000Y-90101939D01*
X151035000Y-89898061D01*
X150995226Y-89698102D01*
X150917205Y-89509744D01*
X150803937Y-89340226D01*
X150659774Y-89196063D01*
X150490256Y-89082795D01*
X150301898Y-89004774D01*
X150101939Y-88965000D01*
X149898061Y-88965000D01*
X149698102Y-89004774D01*
X149509744Y-89082795D01*
X149340226Y-89196063D01*
X149285276Y-89251013D01*
X149142068Y-89294454D01*
X149010038Y-89365026D01*
X148926398Y-89433668D01*
X148894314Y-89459999D01*
X148870516Y-89488997D01*
X141080195Y-97279319D01*
X141051191Y-97303122D01*
X140996063Y-97370297D01*
X140956218Y-97418847D01*
X140953317Y-97424275D01*
X140885646Y-97550877D01*
X140842189Y-97694138D01*
X140831192Y-97805791D01*
X140831192Y-97805801D01*
X140827516Y-97843123D01*
X140831192Y-97880445D01*
X140831193Y-114853859D01*
X140827516Y-114891192D01*
X140842190Y-115040177D01*
X140885646Y-115183438D01*
X140956218Y-115315468D01*
X141027393Y-115402194D01*
X141051192Y-115431193D01*
X141080190Y-115454991D01*
X146140198Y-120515000D01*
X146013740Y-120515000D01*
X145793592Y-120558790D01*
X131760000Y-106525199D01*
X131760000Y-95703711D01*
X131803937Y-95659774D01*
X131917205Y-95490256D01*
X131995226Y-95301898D01*
X132035000Y-95101939D01*
X132035000Y-95039801D01*
X146511008Y-80563795D01*
X146540001Y-80540001D01*
X146563795Y-80511008D01*
X146563799Y-80511004D01*
X146634973Y-80424277D01*
X146635888Y-80422566D01*
X146705546Y-80292247D01*
X146749003Y-80148986D01*
X146760000Y-80037333D01*
X146760000Y-80037324D01*
X146763676Y-80000001D01*
X146760000Y-79962678D01*
X146760000Y-71703711D01*
X146803937Y-71659774D01*
X146917205Y-71490256D01*
X146995226Y-71301898D01*
X147035000Y-71101939D01*
X147035000Y-70898061D01*
X146995226Y-70698102D01*
X146917205Y-70509744D01*
X146803937Y-70340226D01*
X146659774Y-70196063D01*
X146490256Y-70082795D01*
X146301898Y-70004774D01*
X146101939Y-69965000D01*
X145898061Y-69965000D01*
X145698102Y-70004774D01*
X145509744Y-70082795D01*
X145340226Y-70196063D01*
X145196063Y-70340226D01*
X145082795Y-70509744D01*
X145004774Y-70698102D01*
X144965000Y-70898061D01*
X144965000Y-71101939D01*
X145004774Y-71301898D01*
X145082795Y-71490256D01*
X145196063Y-71659774D01*
X145240000Y-71703711D01*
X145240001Y-79685196D01*
X130960199Y-93965000D01*
X130898061Y-93965000D01*
X130698102Y-94004774D01*
X130509744Y-94082795D01*
X130340226Y-94196063D01*
X130196063Y-94340226D01*
X130082795Y-94509744D01*
X130004774Y-94698102D01*
X129965000Y-94898061D01*
X129965000Y-95101939D01*
X130004774Y-95301898D01*
X130082795Y-95490256D01*
X130196063Y-95659774D01*
X130240001Y-95703712D01*
X130240000Y-105037332D01*
X130240001Y-105037342D01*
X130240001Y-105641609D01*
X127660020Y-103061629D01*
X127660020Y-84414781D01*
X128039802Y-84035000D01*
X128101939Y-84035000D01*
X128301898Y-83995226D01*
X128490256Y-83917205D01*
X128659774Y-83803937D01*
X128803937Y-83659774D01*
X128917205Y-83490256D01*
X128995226Y-83301898D01*
X129035000Y-83101939D01*
X129035000Y-82898061D01*
X128995226Y-82698102D01*
X128917205Y-82509744D01*
X128803937Y-82340226D01*
X128659774Y-82196063D01*
X128490256Y-82082795D01*
X128301898Y-82004774D01*
X128101939Y-81965000D01*
X127898061Y-81965000D01*
X127698102Y-82004774D01*
X127509744Y-82082795D01*
X127340226Y-82196063D01*
X127210010Y-82326279D01*
X127210010Y-81864791D01*
X128039802Y-81035000D01*
X128101939Y-81035000D01*
X128301898Y-80995226D01*
X128490256Y-80917205D01*
X128659774Y-80803937D01*
X128803937Y-80659774D01*
X128917205Y-80490256D01*
X128995226Y-80301898D01*
X129035000Y-80101939D01*
X129035000Y-79898061D01*
X128995226Y-79698102D01*
X128917205Y-79509744D01*
X128803937Y-79340226D01*
X128659774Y-79196063D01*
X128490256Y-79082795D01*
X128301898Y-79004774D01*
X128101939Y-78965000D01*
X127898061Y-78965000D01*
X127698102Y-79004774D01*
X127509744Y-79082795D01*
X127340226Y-79196063D01*
X127196063Y-79340226D01*
X127082795Y-79509744D01*
X127004774Y-79698102D01*
X126965000Y-79898061D01*
X126965000Y-79960198D01*
X126760000Y-80165198D01*
X126760000Y-76314801D01*
X131039802Y-72035000D01*
X131101939Y-72035000D01*
X131301898Y-71995226D01*
X131490256Y-71917205D01*
X131659774Y-71803937D01*
X131803937Y-71659774D01*
X131917205Y-71490256D01*
X131995226Y-71301898D01*
X132035000Y-71101939D01*
X132035000Y-70898061D01*
X131995226Y-70698102D01*
X131917205Y-70509744D01*
X131803937Y-70340226D01*
X131659774Y-70196063D01*
X131490256Y-70082795D01*
X131301898Y-70004774D01*
X131101939Y-69965000D01*
X130898061Y-69965000D01*
X130698102Y-70004774D01*
X130509744Y-70082795D01*
X130340226Y-70196063D01*
X130196063Y-70340226D01*
X130082795Y-70509744D01*
X130004774Y-70698102D01*
X129965000Y-70898061D01*
X129965000Y-70960198D01*
X125489003Y-75436196D01*
X125459999Y-75459999D01*
X125404871Y-75527174D01*
X125365026Y-75575724D01*
X125294455Y-75707753D01*
X125294454Y-75707754D01*
X125250997Y-75851015D01*
X125240000Y-75962668D01*
X125240000Y-75962678D01*
X125236324Y-76000000D01*
X116424959Y-76000000D01*
X117049869Y-75117216D01*
X118644171Y-73135970D01*
X120357417Y-71256629D01*
X122183107Y-69486322D01*
X124114316Y-67831763D01*
X126143719Y-66299229D01*
X128263616Y-64894534D01*
X130465967Y-63623006D01*
X132742417Y-62489469D01*
X135084332Y-61498222D01*
X137482826Y-60653025D01*
X139928802Y-59957085D01*
X142412982Y-59413041D01*
X144925942Y-59022957D01*
X147458150Y-58788314D01*
X150000000Y-58710000D01*
X152541850Y-58788314D01*
%TA.AperFunction,Conductor*%
D16*
G36*
X152541850Y-58788314D02*
G01*
X155074058Y-59022957D01*
X157587018Y-59413041D01*
X160071198Y-59957085D01*
X162517174Y-60653025D01*
X164915668Y-61498222D01*
X167257583Y-62489469D01*
X169534033Y-63623006D01*
X171736384Y-64894534D01*
X173856281Y-66299229D01*
X175885684Y-67831763D01*
X177816893Y-69486322D01*
X179642583Y-71256629D01*
X181355829Y-73135970D01*
X182950131Y-75117216D01*
X184419442Y-77192850D01*
X185758189Y-79355000D01*
X186961292Y-81595463D01*
X188024189Y-83905741D01*
X188942847Y-86277070D01*
X189713781Y-88700455D01*
X190334067Y-91166703D01*
X190801352Y-93666459D01*
X191113864Y-96190239D01*
X191270417Y-98728472D01*
X191270417Y-101271528D01*
X191113864Y-103809761D01*
X190801352Y-106333541D01*
X190334067Y-108833297D01*
X189713781Y-111299545D01*
X188942847Y-113722930D01*
X188024189Y-116094259D01*
X186961292Y-118404537D01*
X185758189Y-120645000D01*
X184419442Y-122807150D01*
X182950131Y-124882784D01*
X181355829Y-126864030D01*
X179642583Y-128743371D01*
X177816893Y-130513678D01*
X175885684Y-132168237D01*
X173856281Y-133700771D01*
X171736384Y-135105466D01*
X169534033Y-136376994D01*
X167257583Y-137510531D01*
X164915668Y-138501778D01*
X162517174Y-139346975D01*
X160071198Y-140042915D01*
X157587018Y-140586959D01*
X155074058Y-140977043D01*
X152541850Y-141211686D01*
X150000000Y-141290000D01*
X147458150Y-141211686D01*
X144925942Y-140977043D01*
X142412982Y-140586959D01*
X139928802Y-140042915D01*
X137482826Y-139346975D01*
X135877904Y-138781422D01*
X147780738Y-138781422D01*
X147780738Y-139218578D01*
X147866023Y-139647335D01*
X148033316Y-140051215D01*
X148276187Y-140414697D01*
X148585303Y-140723813D01*
X148948785Y-140966684D01*
X149352665Y-141133977D01*
X149781422Y-141219262D01*
X150218578Y-141219262D01*
X150647335Y-141133977D01*
X151051215Y-140966684D01*
X151414697Y-140723813D01*
X151723813Y-140414697D01*
X151966684Y-140051215D01*
X152133977Y-139647335D01*
X152219262Y-139218578D01*
X152219262Y-138781422D01*
X152133977Y-138352665D01*
X151966684Y-137948785D01*
X151723813Y-137585303D01*
X151414697Y-137276187D01*
X151051215Y-137033316D01*
X150647335Y-136866023D01*
X150218578Y-136780738D01*
X149781422Y-136780738D01*
X149352665Y-136866023D01*
X148948785Y-137033316D01*
X148585303Y-137276187D01*
X148276187Y-137585303D01*
X148033316Y-137948785D01*
X147866023Y-138352665D01*
X147780738Y-138781422D01*
X135877904Y-138781422D01*
X135084332Y-138501778D01*
X132742417Y-137510531D01*
X130465967Y-136376994D01*
X128263616Y-135105466D01*
X126143719Y-133700771D01*
X124114316Y-132168237D01*
X122183107Y-130513678D01*
X120357417Y-128743371D01*
X118644171Y-126864030D01*
X117049869Y-124882784D01*
X115610891Y-122850000D01*
X134511928Y-122850000D01*
X134524188Y-122974482D01*
X134560498Y-123094180D01*
X134619463Y-123204494D01*
X134698815Y-123301185D01*
X134795506Y-123380537D01*
X134905820Y-123439502D01*
X135025518Y-123475812D01*
X135150000Y-123488072D01*
X135714250Y-123485000D01*
X135873000Y-123326250D01*
X135873000Y-122127000D01*
X134673750Y-122127000D01*
X134515000Y-122285750D01*
X134511928Y-122850000D01*
X115610891Y-122850000D01*
X115580558Y-122807150D01*
X114554494Y-121150000D01*
X134511928Y-121150000D01*
X134515000Y-121714250D01*
X134673750Y-121873000D01*
X135873000Y-121873000D01*
X135873000Y-120673750D01*
X135714250Y-120515000D01*
X135150000Y-120511928D01*
X135025518Y-120524188D01*
X134905820Y-120560498D01*
X134795506Y-120619463D01*
X134698815Y-120698815D01*
X134619463Y-120795506D01*
X134560498Y-120905820D01*
X134524188Y-121025518D01*
X134511928Y-121150000D01*
X114554494Y-121150000D01*
X114241811Y-120645000D01*
X113038708Y-118404537D01*
X111975811Y-116094259D01*
X111057153Y-113722930D01*
X110286219Y-111299545D01*
X109665933Y-108833297D01*
X109198648Y-106333541D01*
X108886136Y-103809761D01*
X108729583Y-101271528D01*
X108729583Y-98728472D01*
X108886136Y-96190239D01*
X109198648Y-93666459D01*
X109665933Y-91166703D01*
X110286219Y-88700455D01*
X111057153Y-86277070D01*
X111975811Y-83905741D01*
X113038708Y-81595463D01*
X113744332Y-80281422D01*
X114000738Y-80281422D01*
X114000738Y-80718578D01*
X114086023Y-81147335D01*
X114253316Y-81551215D01*
X114496187Y-81914697D01*
X114805303Y-82223813D01*
X115168785Y-82466684D01*
X115572665Y-82633977D01*
X116001422Y-82719262D01*
X116438578Y-82719262D01*
X116867335Y-82633977D01*
X117271215Y-82466684D01*
X117634697Y-82223813D01*
X117943813Y-81914697D01*
X118186684Y-81551215D01*
X118353977Y-81147335D01*
X118439262Y-80718578D01*
X118439262Y-80281422D01*
X118353977Y-79852665D01*
X118186684Y-79448785D01*
X117943813Y-79085303D01*
X117634697Y-78776187D01*
X117271215Y-78533316D01*
X116867335Y-78366023D01*
X116438578Y-78280738D01*
X116001422Y-78280738D01*
X115572665Y-78366023D01*
X115168785Y-78533316D01*
X114805303Y-78776187D01*
X114496187Y-79085303D01*
X114253316Y-79448785D01*
X114086023Y-79852665D01*
X114000738Y-80281422D01*
X113744332Y-80281422D01*
X114241811Y-79355000D01*
X115580558Y-77192850D01*
X116424959Y-76000000D01*
X125236324Y-76000000D01*
X125240000Y-76037322D01*
X125240001Y-102562667D01*
X125240000Y-103711907D01*
X125236324Y-103749230D01*
X125240000Y-103786552D01*
X125240000Y-103786562D01*
X125250997Y-103898215D01*
X125285332Y-104011404D01*
X125294454Y-104041476D01*
X125365026Y-104173506D01*
X125384967Y-104197804D01*
X125459999Y-104289231D01*
X125489003Y-104313034D01*
X137780001Y-116604033D01*
X137780000Y-118577332D01*
X137780001Y-118577342D01*
X137780000Y-120721821D01*
X137593368Y-120846525D01*
X137461513Y-120978380D01*
X137439502Y-120905820D01*
X137380537Y-120795506D01*
X137301185Y-120698815D01*
X137204494Y-120619463D01*
X137094180Y-120560498D01*
X136974482Y-120524188D01*
X136850000Y-120511928D01*
X136285750Y-120515000D01*
X136127000Y-120673750D01*
X136127000Y-121873000D01*
X136147000Y-121873000D01*
X136147000Y-122127000D01*
X136127000Y-122127000D01*
X136127000Y-123326250D01*
X136285750Y-123485000D01*
X136850000Y-123488072D01*
X136974482Y-123475812D01*
X137094180Y-123439502D01*
X137204494Y-123380537D01*
X137301185Y-123301185D01*
X137380537Y-123204494D01*
X137439502Y-123094180D01*
X137461513Y-123021620D01*
X137593368Y-123153475D01*
X137836589Y-123315990D01*
X138106842Y-123427932D01*
X138393740Y-123485000D01*
X138686260Y-123485000D01*
X138973158Y-123427932D01*
X139243411Y-123315990D01*
X139486632Y-123153475D01*
X139693475Y-122946632D01*
X139810000Y-122772240D01*
X139926525Y-122946632D01*
X140133368Y-123153475D01*
X140376589Y-123315990D01*
X140646842Y-123427932D01*
X140933740Y-123485000D01*
X141226260Y-123485000D01*
X141513158Y-123427932D01*
X141783411Y-123315990D01*
X142026632Y-123153475D01*
X142233475Y-122946632D01*
X142350000Y-122772240D01*
X142466525Y-122946632D01*
X142673368Y-123153475D01*
X142916589Y-123315990D01*
X143186842Y-123427932D01*
X143473740Y-123485000D01*
X143766260Y-123485000D01*
X144053158Y-123427932D01*
X144323411Y-123315990D01*
X144566632Y-123153475D01*
X144773475Y-122946632D01*
X144890000Y-122772240D01*
X145006525Y-122946632D01*
X145213368Y-123153475D01*
X145456589Y-123315990D01*
X145726842Y-123427932D01*
X146013740Y-123485000D01*
X146306260Y-123485000D01*
X146593158Y-123427932D01*
X146863411Y-123315990D01*
X147106632Y-123153475D01*
X147313475Y-122946632D01*
X147430000Y-122772240D01*
X147546525Y-122946632D01*
X147753368Y-123153475D01*
X147996589Y-123315990D01*
X148266842Y-123427932D01*
X148553740Y-123485000D01*
X148846260Y-123485000D01*
X149133158Y-123427932D01*
X149403411Y-123315990D01*
X149646632Y-123153475D01*
X149853475Y-122946632D01*
X149970000Y-122772240D01*
X150086525Y-122946632D01*
X150293368Y-123153475D01*
X150536589Y-123315990D01*
X150806842Y-123427932D01*
X151093740Y-123485000D01*
X151386260Y-123485000D01*
X151673158Y-123427932D01*
X151943411Y-123315990D01*
X152186632Y-123153475D01*
X152393475Y-122946632D01*
X152510000Y-122772240D01*
X152626525Y-122946632D01*
X152833368Y-123153475D01*
X153076589Y-123315990D01*
X153346842Y-123427932D01*
X153633740Y-123485000D01*
X153926260Y-123485000D01*
X154213158Y-123427932D01*
X154483411Y-123315990D01*
X154726632Y-123153475D01*
X154933475Y-122946632D01*
X155050000Y-122772240D01*
X155166525Y-122946632D01*
X155373368Y-123153475D01*
X155616589Y-123315990D01*
X155886842Y-123427932D01*
X156173740Y-123485000D01*
X156466260Y-123485000D01*
X156538960Y-123470539D01*
X156963471Y-123895050D01*
X156991184Y-123928818D01*
X157024952Y-123956531D01*
X157024954Y-123956533D01*
X157096453Y-124015211D01*
X157125942Y-124039412D01*
X157279688Y-124121590D01*
X157446511Y-124172196D01*
X157576524Y-124185001D01*
X157576534Y-124185001D01*
X157620000Y-124189282D01*
X157663467Y-124185001D01*
X164520532Y-124185001D01*
X164564001Y-124189282D01*
X164607470Y-124185001D01*
X164607478Y-124185001D01*
X164737491Y-124172196D01*
X164904314Y-124121590D01*
X165058060Y-124039412D01*
X165192818Y-123928818D01*
X165220535Y-123895045D01*
X165835050Y-123280531D01*
X165868818Y-123252818D01*
X165979412Y-123118060D01*
X166061590Y-122964314D01*
X166112196Y-122797491D01*
X166125001Y-122667478D01*
X166125001Y-122667468D01*
X166129282Y-122624002D01*
X166125001Y-122580536D01*
X166125001Y-121126577D01*
X172245044Y-115006535D01*
X172301898Y-114995226D01*
X172490256Y-114917205D01*
X172659774Y-114803937D01*
X172803937Y-114659774D01*
X172917205Y-114490256D01*
X172995226Y-114301898D01*
X173035000Y-114101939D01*
X173035000Y-113898061D01*
X172995226Y-113698102D01*
X172917205Y-113509744D01*
X172803937Y-113340226D01*
X172659774Y-113196063D01*
X172490256Y-113082795D01*
X172301898Y-113004774D01*
X172101939Y-112965000D01*
X171898061Y-112965000D01*
X171698102Y-113004774D01*
X171509744Y-113082795D01*
X171340226Y-113196063D01*
X171196063Y-113340226D01*
X171082795Y-113509744D01*
X171004774Y-113698102D01*
X170993465Y-113754956D01*
X164644957Y-120103465D01*
X164611184Y-120131182D01*
X164500590Y-120265941D01*
X164418412Y-120419687D01*
X164383158Y-120535903D01*
X164376296Y-120558524D01*
X164369605Y-120580580D01*
X164296890Y-120558524D01*
X164067000Y-120679845D01*
X164067000Y-121873000D01*
X164087000Y-121873000D01*
X164087000Y-122127000D01*
X164067000Y-122127000D01*
X164067000Y-122147000D01*
X163813000Y-122147000D01*
X163813000Y-122127000D01*
X163793000Y-122127000D01*
X163793000Y-121873000D01*
X163813000Y-121873000D01*
X163813000Y-120679845D01*
X163583110Y-120558524D01*
X163435901Y-120603175D01*
X163173080Y-120728359D01*
X162939731Y-120902412D01*
X162744822Y-121118645D01*
X162675195Y-121235534D01*
X162553475Y-121053368D01*
X162346632Y-120846525D01*
X162103411Y-120684010D01*
X161833158Y-120572068D01*
X161546260Y-120515000D01*
X161419802Y-120515000D01*
X162511003Y-119423799D01*
X162540001Y-119400001D01*
X162634974Y-119284276D01*
X162705546Y-119152247D01*
X162749003Y-119008986D01*
X162760000Y-118897333D01*
X162763677Y-118860000D01*
X162760000Y-118822667D01*
X162760000Y-102450000D01*
X175071928Y-102450000D01*
X175071928Y-104150000D01*
X175084188Y-104274482D01*
X175120498Y-104394180D01*
X175179463Y-104504494D01*
X175258815Y-104601185D01*
X175355506Y-104680537D01*
X175465820Y-104739502D01*
X175585518Y-104775812D01*
X175710000Y-104788072D01*
X177410000Y-104788072D01*
X177534482Y-104775812D01*
X177654180Y-104739502D01*
X177764494Y-104680537D01*
X177861185Y-104601185D01*
X177940537Y-104504494D01*
X177999502Y-104394180D01*
X178022498Y-104318374D01*
X178218645Y-104495178D01*
X178468748Y-104644157D01*
X178743109Y-104741481D01*
X178973000Y-104620814D01*
X178973000Y-103427000D01*
X179227000Y-103427000D01*
X179227000Y-104620814D01*
X179456891Y-104741481D01*
X179731252Y-104644157D01*
X179981355Y-104495178D01*
X180197588Y-104300269D01*
X180371641Y-104066920D01*
X180496825Y-103804099D01*
X180541476Y-103656890D01*
X180420155Y-103427000D01*
X179227000Y-103427000D01*
X178973000Y-103427000D01*
X178953000Y-103427000D01*
X178953000Y-103173000D01*
X178973000Y-103173000D01*
X178973000Y-101979186D01*
X179227000Y-101979186D01*
X179227000Y-103173000D01*
X180420155Y-103173000D01*
X180541476Y-102943110D01*
X180496825Y-102795901D01*
X180371641Y-102533080D01*
X180197588Y-102299731D01*
X179981355Y-102104822D01*
X179731252Y-101955843D01*
X179456891Y-101858519D01*
X179227000Y-101979186D01*
X178973000Y-101979186D01*
X178743109Y-101858519D01*
X178468748Y-101955843D01*
X178218645Y-102104822D01*
X178022498Y-102281626D01*
X177999502Y-102205820D01*
X177940537Y-102095506D01*
X177861185Y-101998815D01*
X177764494Y-101919463D01*
X177654180Y-101860498D01*
X177534482Y-101824188D01*
X177410000Y-101811928D01*
X175710000Y-101811928D01*
X175585518Y-101824188D01*
X175465820Y-101860498D01*
X175355506Y-101919463D01*
X175258815Y-101998815D01*
X175179463Y-102095506D01*
X175120498Y-102205820D01*
X175084188Y-102325518D01*
X175071928Y-102450000D01*
X162760000Y-102450000D01*
X162760000Y-99864736D01*
X183626645Y-99864736D01*
X183626645Y-100135264D01*
X183679422Y-100400593D01*
X183782949Y-100650527D01*
X183933246Y-100875463D01*
X184124537Y-101066754D01*
X184349473Y-101217051D01*
X184599407Y-101320578D01*
X184864736Y-101373355D01*
X185135264Y-101373355D01*
X185400593Y-101320578D01*
X185650527Y-101217051D01*
X185875463Y-101066754D01*
X186066754Y-100875463D01*
X186217051Y-100650527D01*
X186320578Y-100400593D01*
X186373355Y-100135264D01*
X186373355Y-99864736D01*
X186320578Y-99599407D01*
X186217051Y-99349473D01*
X186066754Y-99124537D01*
X185875463Y-98933246D01*
X185650527Y-98782949D01*
X185400593Y-98679422D01*
X185135264Y-98626645D01*
X184864736Y-98626645D01*
X184599407Y-98679422D01*
X184349473Y-98782949D01*
X184124537Y-98933246D01*
X183933246Y-99124537D01*
X183782949Y-99349473D01*
X183679422Y-99599407D01*
X183626645Y-99864736D01*
X162760000Y-99864736D01*
X162760000Y-90703711D01*
X162803937Y-90659774D01*
X162917205Y-90490256D01*
X162995226Y-90301898D01*
X163035000Y-90101939D01*
X163035000Y-89898061D01*
X162995226Y-89698102D01*
X162917205Y-89509744D01*
X162803937Y-89340226D01*
X162659774Y-89196063D01*
X162490256Y-89082795D01*
X162301898Y-89004774D01*
X162101939Y-88965000D01*
X161898061Y-88965000D01*
X161698102Y-89004774D01*
X161509744Y-89082795D01*
X161340226Y-89196063D01*
X161196063Y-89340226D01*
X161082795Y-89509744D01*
X161004774Y-89698102D01*
X160965000Y-89898061D01*
X160965000Y-90101939D01*
X161004774Y-90301898D01*
X161082795Y-90490256D01*
X161196063Y-90659774D01*
X161240000Y-90703711D01*
X161240001Y-118545197D01*
X159226408Y-120558791D01*
X159006260Y-120515000D01*
X158713740Y-120515000D01*
X158426842Y-120572068D01*
X158156589Y-120684010D01*
X157913368Y-120846525D01*
X157706525Y-121053368D01*
X157590000Y-121227760D01*
X157473475Y-121053368D01*
X157266632Y-120846525D01*
X157023411Y-120684010D01*
X156753158Y-120572068D01*
X156466260Y-120515000D01*
X156173740Y-120515000D01*
X155886842Y-120572068D01*
X155616589Y-120684010D01*
X155373368Y-120846525D01*
X155166525Y-121053368D01*
X155050000Y-121227760D01*
X154933475Y-121053368D01*
X154726632Y-120846525D01*
X154540000Y-120721822D01*
X154540000Y-113883894D01*
X154552710Y-113907013D01*
X154589060Y-113960100D01*
X154624676Y-114013707D01*
X154630995Y-114021345D01*
X154756445Y-114170851D01*
X154802392Y-114215846D01*
X154847767Y-114261539D01*
X154855449Y-114267804D01*
X155007549Y-114390095D01*
X155061385Y-114425324D01*
X155114742Y-114461314D01*
X155123495Y-114465967D01*
X155123498Y-114465969D01*
X155123502Y-114465970D01*
X155296450Y-114556387D01*
X155356081Y-114580480D01*
X155415442Y-114605433D01*
X155424933Y-114608298D01*
X155612158Y-114663400D01*
X155675323Y-114675449D01*
X155738401Y-114688398D01*
X155748267Y-114689365D01*
X155942629Y-114707054D01*
X156006980Y-114706605D01*
X156071332Y-114707054D01*
X156081187Y-114706087D01*
X156081193Y-114706087D01*
X156081198Y-114706086D01*
X156275295Y-114685685D01*
X156338310Y-114672750D01*
X156401540Y-114660688D01*
X156411030Y-114657823D01*
X156597468Y-114600111D01*
X156656797Y-114575171D01*
X156716455Y-114551068D01*
X156725208Y-114546414D01*
X156896885Y-114453589D01*
X156950198Y-114417629D01*
X157004083Y-114382367D01*
X157011765Y-114376102D01*
X157162143Y-114251698D01*
X157207480Y-114206043D01*
X157253463Y-114161013D01*
X157259782Y-114153375D01*
X157383132Y-114002133D01*
X157418757Y-113948513D01*
X157455099Y-113895436D01*
X157459814Y-113886716D01*
X157551439Y-113714394D01*
X157575951Y-113654924D01*
X157601312Y-113595752D01*
X157604243Y-113586282D01*
X157660652Y-113399446D01*
X157673152Y-113336316D01*
X157686530Y-113273377D01*
X157687566Y-113263519D01*
X157706611Y-113069285D01*
X157710000Y-113034877D01*
X157710000Y-109965123D01*
X157706515Y-109929738D01*
X157706515Y-109916754D01*
X157705478Y-109906895D01*
X157683723Y-109712945D01*
X157670347Y-109650016D01*
X157657844Y-109586873D01*
X157654913Y-109577403D01*
X157595900Y-109391373D01*
X157570560Y-109332252D01*
X157546028Y-109272733D01*
X157541313Y-109264012D01*
X157447290Y-109092987D01*
X157410940Y-109039900D01*
X157375324Y-108986293D01*
X157369005Y-108978655D01*
X157243555Y-108829149D01*
X157197608Y-108784154D01*
X157152233Y-108738461D01*
X157144556Y-108732201D01*
X157144553Y-108732198D01*
X157144550Y-108732196D01*
X156992451Y-108609905D01*
X156938599Y-108574666D01*
X156885258Y-108538686D01*
X156876505Y-108534032D01*
X156703549Y-108443613D01*
X156643930Y-108419525D01*
X156584557Y-108394567D01*
X156575067Y-108391702D01*
X156387841Y-108336599D01*
X156324639Y-108324543D01*
X156261598Y-108311602D01*
X156251732Y-108310635D01*
X156057371Y-108292946D01*
X155993019Y-108293395D01*
X155928667Y-108292946D01*
X155918812Y-108293913D01*
X155918807Y-108293913D01*
X155918803Y-108293914D01*
X155918801Y-108293914D01*
X155724705Y-108314315D01*
X155661690Y-108327250D01*
X155598460Y-108339312D01*
X155588970Y-108342177D01*
X155402532Y-108399889D01*
X155343203Y-108424829D01*
X155283545Y-108448932D01*
X155274792Y-108453586D01*
X155103115Y-108546411D01*
X155049787Y-108582381D01*
X154995917Y-108617633D01*
X154988235Y-108623899D01*
X154837857Y-108748302D01*
X154792520Y-108793957D01*
X154746537Y-108838987D01*
X154740218Y-108846625D01*
X154616868Y-108997867D01*
X154581266Y-109051454D01*
X154544901Y-109104563D01*
X154540186Y-109113284D01*
X154540000Y-109113634D01*
X154540000Y-108171211D01*
X158961019Y-103750194D01*
X158990011Y-103726401D01*
X159013805Y-103697408D01*
X159013809Y-103697404D01*
X159084983Y-103610677D01*
X159084984Y-103610676D01*
X159155556Y-103478647D01*
X159199013Y-103335386D01*
X159210010Y-103223733D01*
X159210010Y-103223724D01*
X159213686Y-103186401D01*
X159210010Y-103149078D01*
X159210010Y-85673721D01*
X159340226Y-85803937D01*
X159509744Y-85917205D01*
X159698102Y-85995226D01*
X159898061Y-86035000D01*
X160101939Y-86035000D01*
X160301898Y-85995226D01*
X160490256Y-85917205D01*
X160538454Y-85885000D01*
X164461546Y-85885000D01*
X164509744Y-85917205D01*
X164698102Y-85995226D01*
X164898061Y-86035000D01*
X165101939Y-86035000D01*
X165301898Y-85995226D01*
X165490256Y-85917205D01*
X165659774Y-85803937D01*
X165803937Y-85659774D01*
X165917205Y-85490256D01*
X165995226Y-85301898D01*
X166035000Y-85101939D01*
X166035000Y-84898061D01*
X165995226Y-84698102D01*
X165917205Y-84509744D01*
X165803937Y-84340226D01*
X165659774Y-84196063D01*
X165490256Y-84082795D01*
X165301898Y-84004774D01*
X165101939Y-83965000D01*
X164898061Y-83965000D01*
X164698102Y-84004774D01*
X164509744Y-84082795D01*
X164461546Y-84115000D01*
X160885000Y-84115000D01*
X160885000Y-80281422D01*
X181550738Y-80281422D01*
X181550738Y-80718578D01*
X181636023Y-81147335D01*
X181803316Y-81551215D01*
X182046187Y-81914697D01*
X182355303Y-82223813D01*
X182718785Y-82466684D01*
X183122665Y-82633977D01*
X183551422Y-82719262D01*
X183988578Y-82719262D01*
X184417335Y-82633977D01*
X184821215Y-82466684D01*
X185184697Y-82223813D01*
X185493813Y-81914697D01*
X185736684Y-81551215D01*
X185903977Y-81147335D01*
X185989262Y-80718578D01*
X185989262Y-80281422D01*
X185903977Y-79852665D01*
X185736684Y-79448785D01*
X185493813Y-79085303D01*
X185184697Y-78776187D01*
X184821215Y-78533316D01*
X184417335Y-78366023D01*
X183988578Y-78280738D01*
X183551422Y-78280738D01*
X183122665Y-78366023D01*
X182718785Y-78533316D01*
X182355303Y-78776187D01*
X182046187Y-79085303D01*
X181803316Y-79448785D01*
X181636023Y-79852665D01*
X181550738Y-80281422D01*
X160885000Y-80281422D01*
X160885000Y-70538454D01*
X160917205Y-70490256D01*
X160995226Y-70301898D01*
X161035000Y-70101939D01*
X161035000Y-69898061D01*
X160995226Y-69698102D01*
X160917205Y-69509744D01*
X160803937Y-69340226D01*
X160659774Y-69196063D01*
X160490256Y-69082795D01*
X160301898Y-69004774D01*
X160101939Y-68965000D01*
X159898061Y-68965000D01*
X159698102Y-69004774D01*
X159509744Y-69082795D01*
X159340226Y-69196063D01*
X159196063Y-69340226D01*
X159082795Y-69509744D01*
X159004774Y-69698102D01*
X158965000Y-69898061D01*
X158965000Y-70101939D01*
X159004774Y-70301898D01*
X159082795Y-70490256D01*
X159115001Y-70538456D01*
X159115000Y-81081890D01*
X159084984Y-81025734D01*
X159059947Y-80995226D01*
X159013809Y-80939006D01*
X159013805Y-80939002D01*
X158990011Y-80910009D01*
X158961018Y-80886215D01*
X155035000Y-76960199D01*
X155035000Y-76898061D01*
X154995226Y-76698102D01*
X154917205Y-76509744D01*
X154803937Y-76340226D01*
X154659774Y-76196063D01*
X154490256Y-76082795D01*
X154301898Y-76004774D01*
X154101939Y-75965000D01*
X153898061Y-75965000D01*
X153698102Y-76004774D01*
X153509744Y-76082795D01*
X153340226Y-76196063D01*
X153196063Y-76340226D01*
X153082795Y-76509744D01*
X153004774Y-76698102D01*
X152965000Y-76898061D01*
X152965000Y-77101939D01*
X153004774Y-77301898D01*
X153082795Y-77490256D01*
X153196063Y-77659774D01*
X153340226Y-77803937D01*
X153509744Y-77917205D01*
X153698102Y-77995226D01*
X153898061Y-78035000D01*
X153960199Y-78035000D01*
X157690011Y-81764814D01*
X157690010Y-95615209D01*
X154760000Y-92685199D01*
X154760000Y-90703711D01*
X154803937Y-90659774D01*
X154917205Y-90490256D01*
X154995226Y-90301898D01*
X155035000Y-90101939D01*
X155035000Y-89898061D01*
X154995226Y-89698102D01*
X154917205Y-89509744D01*
X154803937Y-89340226D01*
X154659774Y-89196063D01*
X154490256Y-89082795D01*
X154301898Y-89004774D01*
X154101939Y-88965000D01*
X153898061Y-88965000D01*
X153698102Y-89004774D01*
X153509744Y-89082795D01*
X153340226Y-89196063D01*
X153196063Y-89340226D01*
X153082795Y-89509744D01*
X153004774Y-89698102D01*
X152965000Y-89898061D01*
X152965000Y-90101939D01*
X153004774Y-90301898D01*
X153082795Y-90490256D01*
X153196063Y-90659774D01*
X153240000Y-90703711D01*
X153240001Y-92962668D01*
X153237333Y-92989754D01*
X152278457Y-92613422D01*
X151152097Y-92356338D01*
X150000000Y-92270000D01*
X148847903Y-92356338D01*
X147947199Y-92561917D01*
X149567845Y-90941272D01*
X149698102Y-90995226D01*
X149898061Y-91035000D01*
X150101939Y-91035000D01*
X150301898Y-90995226D01*
X150490256Y-90917205D01*
X150659774Y-90803937D01*
X150803937Y-90659774D01*
X150917205Y-90490256D01*
X150995226Y-90301898D01*
X151035000Y-90101939D01*
X151035000Y-89898061D01*
X150995226Y-89698102D01*
X150917205Y-89509744D01*
X150803937Y-89340226D01*
X150659774Y-89196063D01*
X150490256Y-89082795D01*
X150301898Y-89004774D01*
X150101939Y-88965000D01*
X149898061Y-88965000D01*
X149698102Y-89004774D01*
X149509744Y-89082795D01*
X149340226Y-89196063D01*
X149285276Y-89251013D01*
X149142068Y-89294454D01*
X149010038Y-89365026D01*
X148926398Y-89433668D01*
X148894314Y-89459999D01*
X148870516Y-89488997D01*
X141080195Y-97279319D01*
X141051191Y-97303122D01*
X140996063Y-97370297D01*
X140956218Y-97418847D01*
X140953317Y-97424275D01*
X140885646Y-97550877D01*
X140842189Y-97694138D01*
X140831192Y-97805791D01*
X140831192Y-97805801D01*
X140827516Y-97843123D01*
X140831192Y-97880445D01*
X140831193Y-114853859D01*
X140827516Y-114891192D01*
X140842190Y-115040177D01*
X140885646Y-115183438D01*
X140956218Y-115315468D01*
X141027393Y-115402194D01*
X141051192Y-115431193D01*
X141080190Y-115454991D01*
X146140198Y-120515000D01*
X146013740Y-120515000D01*
X145793592Y-120558790D01*
X131760000Y-106525199D01*
X131760000Y-95703711D01*
X131803937Y-95659774D01*
X131917205Y-95490256D01*
X131995226Y-95301898D01*
X132035000Y-95101939D01*
X132035000Y-95039801D01*
X146511008Y-80563795D01*
X146540001Y-80540001D01*
X146563795Y-80511008D01*
X146563799Y-80511004D01*
X146634973Y-80424277D01*
X146635888Y-80422566D01*
X146705546Y-80292247D01*
X146749003Y-80148986D01*
X146760000Y-80037333D01*
X146760000Y-80037324D01*
X146763676Y-80000001D01*
X146760000Y-79962678D01*
X146760000Y-71703711D01*
X146803937Y-71659774D01*
X146917205Y-71490256D01*
X146995226Y-71301898D01*
X147035000Y-71101939D01*
X147035000Y-70898061D01*
X146995226Y-70698102D01*
X146917205Y-70509744D01*
X146803937Y-70340226D01*
X146659774Y-70196063D01*
X146490256Y-70082795D01*
X146301898Y-70004774D01*
X146101939Y-69965000D01*
X145898061Y-69965000D01*
X145698102Y-70004774D01*
X145509744Y-70082795D01*
X145340226Y-70196063D01*
X145196063Y-70340226D01*
X145082795Y-70509744D01*
X145004774Y-70698102D01*
X144965000Y-70898061D01*
X144965000Y-71101939D01*
X145004774Y-71301898D01*
X145082795Y-71490256D01*
X145196063Y-71659774D01*
X145240000Y-71703711D01*
X145240001Y-79685196D01*
X130960199Y-93965000D01*
X130898061Y-93965000D01*
X130698102Y-94004774D01*
X130509744Y-94082795D01*
X130340226Y-94196063D01*
X130196063Y-94340226D01*
X130082795Y-94509744D01*
X130004774Y-94698102D01*
X129965000Y-94898061D01*
X129965000Y-95101939D01*
X130004774Y-95301898D01*
X130082795Y-95490256D01*
X130196063Y-95659774D01*
X130240001Y-95703712D01*
X130240000Y-105037332D01*
X130240001Y-105037342D01*
X130240001Y-105641609D01*
X127660020Y-103061629D01*
X127660020Y-84414781D01*
X128039802Y-84035000D01*
X128101939Y-84035000D01*
X128301898Y-83995226D01*
X128490256Y-83917205D01*
X128659774Y-83803937D01*
X128803937Y-83659774D01*
X128917205Y-83490256D01*
X128995226Y-83301898D01*
X129035000Y-83101939D01*
X129035000Y-82898061D01*
X128995226Y-82698102D01*
X128917205Y-82509744D01*
X128803937Y-82340226D01*
X128659774Y-82196063D01*
X128490256Y-82082795D01*
X128301898Y-82004774D01*
X128101939Y-81965000D01*
X127898061Y-81965000D01*
X127698102Y-82004774D01*
X127509744Y-82082795D01*
X127340226Y-82196063D01*
X127210010Y-82326279D01*
X127210010Y-81864791D01*
X128039802Y-81035000D01*
X128101939Y-81035000D01*
X128301898Y-80995226D01*
X128490256Y-80917205D01*
X128659774Y-80803937D01*
X128803937Y-80659774D01*
X128917205Y-80490256D01*
X128995226Y-80301898D01*
X129035000Y-80101939D01*
X129035000Y-79898061D01*
X128995226Y-79698102D01*
X128917205Y-79509744D01*
X128803937Y-79340226D01*
X128659774Y-79196063D01*
X128490256Y-79082795D01*
X128301898Y-79004774D01*
X128101939Y-78965000D01*
X127898061Y-78965000D01*
X127698102Y-79004774D01*
X127509744Y-79082795D01*
X127340226Y-79196063D01*
X127196063Y-79340226D01*
X127082795Y-79509744D01*
X127004774Y-79698102D01*
X126965000Y-79898061D01*
X126965000Y-79960198D01*
X126760000Y-80165198D01*
X126760000Y-76314801D01*
X131039802Y-72035000D01*
X131101939Y-72035000D01*
X131301898Y-71995226D01*
X131490256Y-71917205D01*
X131659774Y-71803937D01*
X131803937Y-71659774D01*
X131917205Y-71490256D01*
X131995226Y-71301898D01*
X132035000Y-71101939D01*
X132035000Y-70898061D01*
X131995226Y-70698102D01*
X131917205Y-70509744D01*
X131803937Y-70340226D01*
X131659774Y-70196063D01*
X131490256Y-70082795D01*
X131301898Y-70004774D01*
X131101939Y-69965000D01*
X130898061Y-69965000D01*
X130698102Y-70004774D01*
X130509744Y-70082795D01*
X130340226Y-70196063D01*
X130196063Y-70340226D01*
X130082795Y-70509744D01*
X130004774Y-70698102D01*
X129965000Y-70898061D01*
X129965000Y-70960198D01*
X125489003Y-75436196D01*
X125459999Y-75459999D01*
X125404871Y-75527174D01*
X125365026Y-75575724D01*
X125294455Y-75707753D01*
X125294454Y-75707754D01*
X125250997Y-75851015D01*
X125240000Y-75962668D01*
X125240000Y-75962678D01*
X125236324Y-76000000D01*
X116424959Y-76000000D01*
X117049869Y-75117216D01*
X118644171Y-73135970D01*
X120357417Y-71256629D01*
X122183107Y-69486322D01*
X124114316Y-67831763D01*
X126143719Y-66299229D01*
X128263616Y-64894534D01*
X130465967Y-63623006D01*
X132742417Y-62489469D01*
X135084332Y-61498222D01*
X137482826Y-60653025D01*
X139928802Y-59957085D01*
X142412982Y-59413041D01*
X144925942Y-59022957D01*
X147458150Y-58788314D01*
X150000000Y-58710000D01*
X152541850Y-58788314D01*
G37*
%TD.AperFunction*%
%TD*%
M02*
