%TF.GenerationSoftware,KiCad,Pcbnew,5.1.10*%
%TF.CreationDate,2021-09-26T09:29:56+10:00*%
%TF.ProjectId,pcb-sensor,7063622d-7365-46e7-936f-722e6b696361,rev?*%
%TF.SameCoordinates,Original*%
%TF.FileFunction,Legend,Top*%
%TF.FilePolarity,Positive*%
%FSLAX46Y46*%
G04 Gerber Fmt 4.6, Leading zero omitted, Abs format (unit mm)*
G04 Created by KiCad (PCBNEW 5.1.10) date 2021-09-26 09:29:56*
%MOMM*%
%LPD*%
G01*
G04 APERTURE LIST*
%ADD10C,0.300000*%
%ADD11C,0.150000*%
%ADD12C,0.120000*%
G04 APERTURE END LIST*
D10*
X117071428Y-120178571D02*
X117071428Y-121250000D01*
X117000000Y-121464285D01*
X116857142Y-121607142D01*
X116642857Y-121678571D01*
X116500000Y-121678571D01*
X118500000Y-121678571D02*
X117785714Y-121678571D01*
X117785714Y-120178571D01*
X119857142Y-121535714D02*
X119785714Y-121607142D01*
X119571428Y-121678571D01*
X119428571Y-121678571D01*
X119214285Y-121607142D01*
X119071428Y-121464285D01*
X119000000Y-121321428D01*
X118928571Y-121035714D01*
X118928571Y-120821428D01*
X119000000Y-120535714D01*
X119071428Y-120392857D01*
X119214285Y-120250000D01*
X119428571Y-120178571D01*
X119571428Y-120178571D01*
X119785714Y-120250000D01*
X119857142Y-120321428D01*
X120928571Y-120178571D02*
X120928571Y-121250000D01*
X120857142Y-121464285D01*
X120714285Y-121607142D01*
X120500000Y-121678571D01*
X120357142Y-121678571D01*
X122357142Y-121678571D02*
X121642857Y-121678571D01*
X121642857Y-120178571D01*
X123714285Y-121535714D02*
X123642857Y-121607142D01*
X123428571Y-121678571D01*
X123285714Y-121678571D01*
X123071428Y-121607142D01*
X122928571Y-121464285D01*
X122857142Y-121321428D01*
X122785714Y-121035714D01*
X122785714Y-120821428D01*
X122857142Y-120535714D01*
X122928571Y-120392857D01*
X123071428Y-120250000D01*
X123285714Y-120178571D01*
X123428571Y-120178571D01*
X123642857Y-120250000D01*
X123714285Y-120321428D01*
X124785714Y-120178571D02*
X124785714Y-121250000D01*
X124714285Y-121464285D01*
X124571428Y-121607142D01*
X124357142Y-121678571D01*
X124214285Y-121678571D01*
X126214285Y-121678571D02*
X125500000Y-121678571D01*
X125500000Y-120178571D01*
X127571428Y-121535714D02*
X127500000Y-121607142D01*
X127285714Y-121678571D01*
X127142857Y-121678571D01*
X126928571Y-121607142D01*
X126785714Y-121464285D01*
X126714285Y-121321428D01*
X126642857Y-121035714D01*
X126642857Y-120821428D01*
X126714285Y-120535714D01*
X126785714Y-120392857D01*
X126928571Y-120250000D01*
X127142857Y-120178571D01*
X127285714Y-120178571D01*
X127500000Y-120250000D01*
X127571428Y-120321428D01*
X128642857Y-120178571D02*
X128642857Y-121250000D01*
X128571428Y-121464285D01*
X128428571Y-121607142D01*
X128214285Y-121678571D01*
X128071428Y-121678571D01*
X130071428Y-121678571D02*
X129357142Y-121678571D01*
X129357142Y-120178571D01*
X131428571Y-121535714D02*
X131357142Y-121607142D01*
X131142857Y-121678571D01*
X131000000Y-121678571D01*
X130785714Y-121607142D01*
X130642857Y-121464285D01*
X130571428Y-121321428D01*
X130500000Y-121035714D01*
X130500000Y-120821428D01*
X130571428Y-120535714D01*
X130642857Y-120392857D01*
X130785714Y-120250000D01*
X131000000Y-120178571D01*
X131142857Y-120178571D01*
X131357142Y-120250000D01*
X131428571Y-120321428D01*
X114535714Y-115403571D02*
X114535714Y-113903571D01*
X115035714Y-114975000D01*
X115535714Y-113903571D01*
X115535714Y-115403571D01*
X116464285Y-115403571D02*
X116321428Y-115332142D01*
X116250000Y-115260714D01*
X116178571Y-115117857D01*
X116178571Y-114689285D01*
X116250000Y-114546428D01*
X116321428Y-114475000D01*
X116464285Y-114403571D01*
X116678571Y-114403571D01*
X116821428Y-114475000D01*
X116892857Y-114546428D01*
X116964285Y-114689285D01*
X116964285Y-115117857D01*
X116892857Y-115260714D01*
X116821428Y-115332142D01*
X116678571Y-115403571D01*
X116464285Y-115403571D01*
X117392857Y-114403571D02*
X117964285Y-114403571D01*
X117607142Y-113903571D02*
X117607142Y-115189285D01*
X117678571Y-115332142D01*
X117821428Y-115403571D01*
X117964285Y-115403571D01*
X118678571Y-115403571D02*
X118535714Y-115332142D01*
X118464285Y-115260714D01*
X118392857Y-115117857D01*
X118392857Y-114689285D01*
X118464285Y-114546428D01*
X118535714Y-114475000D01*
X118678571Y-114403571D01*
X118892857Y-114403571D01*
X119035714Y-114475000D01*
X119107142Y-114546428D01*
X119178571Y-114689285D01*
X119178571Y-115117857D01*
X119107142Y-115260714D01*
X119035714Y-115332142D01*
X118892857Y-115403571D01*
X118678571Y-115403571D01*
X119821428Y-115403571D02*
X119821428Y-114403571D01*
X119821428Y-114689285D02*
X119892857Y-114546428D01*
X119964285Y-114475000D01*
X120107142Y-114403571D01*
X120250000Y-114403571D01*
X121392857Y-115332142D02*
X121250000Y-115403571D01*
X120964285Y-115403571D01*
X120821428Y-115332142D01*
X120750000Y-115260714D01*
X120678571Y-115117857D01*
X120678571Y-114689285D01*
X120750000Y-114546428D01*
X120821428Y-114475000D01*
X120964285Y-114403571D01*
X121250000Y-114403571D01*
X121392857Y-114475000D01*
X121892857Y-114403571D02*
X122250000Y-115403571D01*
X122607142Y-114403571D02*
X122250000Y-115403571D01*
X122107142Y-115760714D01*
X122035714Y-115832142D01*
X121892857Y-115903571D01*
X123821428Y-115332142D02*
X123678571Y-115403571D01*
X123392857Y-115403571D01*
X123250000Y-115332142D01*
X123178571Y-115260714D01*
X123107142Y-115117857D01*
X123107142Y-114689285D01*
X123178571Y-114546428D01*
X123250000Y-114475000D01*
X123392857Y-114403571D01*
X123678571Y-114403571D01*
X123821428Y-114475000D01*
X124678571Y-115403571D02*
X124535714Y-115332142D01*
X124464285Y-115189285D01*
X124464285Y-113903571D01*
X125821428Y-115332142D02*
X125678571Y-115403571D01*
X125392857Y-115403571D01*
X125250000Y-115332142D01*
X125178571Y-115189285D01*
X125178571Y-114617857D01*
X125250000Y-114475000D01*
X125392857Y-114403571D01*
X125678571Y-114403571D01*
X125821428Y-114475000D01*
X125892857Y-114617857D01*
X125892857Y-114760714D01*
X125178571Y-114903571D01*
X127464285Y-113903571D02*
X128321428Y-113903571D01*
X127892857Y-115403571D02*
X127892857Y-113903571D01*
X129464285Y-115403571D02*
X129464285Y-114617857D01*
X129392857Y-114475000D01*
X129250000Y-114403571D01*
X128964285Y-114403571D01*
X128821428Y-114475000D01*
X129464285Y-115332142D02*
X129321428Y-115403571D01*
X128964285Y-115403571D01*
X128821428Y-115332142D01*
X128750000Y-115189285D01*
X128750000Y-115046428D01*
X128821428Y-114903571D01*
X128964285Y-114832142D01*
X129321428Y-114832142D01*
X129464285Y-114760714D01*
X130821428Y-115332142D02*
X130678571Y-115403571D01*
X130392857Y-115403571D01*
X130250000Y-115332142D01*
X130178571Y-115260714D01*
X130107142Y-115117857D01*
X130107142Y-114689285D01*
X130178571Y-114546428D01*
X130250000Y-114475000D01*
X130392857Y-114403571D01*
X130678571Y-114403571D01*
X130821428Y-114475000D01*
X131464285Y-115403571D02*
X131464285Y-113903571D01*
X132107142Y-115403571D02*
X132107142Y-114617857D01*
X132035714Y-114475000D01*
X131892857Y-114403571D01*
X131678571Y-114403571D01*
X131535714Y-114475000D01*
X131464285Y-114546428D01*
X133035714Y-115403571D02*
X132892857Y-115332142D01*
X132821428Y-115260714D01*
X132750000Y-115117857D01*
X132750000Y-114689285D01*
X132821428Y-114546428D01*
X132892857Y-114475000D01*
X133035714Y-114403571D01*
X133250000Y-114403571D01*
X133392857Y-114475000D01*
X133464285Y-114546428D01*
X133535714Y-114689285D01*
X133535714Y-115117857D01*
X133464285Y-115260714D01*
X133392857Y-115332142D01*
X133250000Y-115403571D01*
X133035714Y-115403571D01*
X121857142Y-116953571D02*
X122214285Y-117953571D01*
X122571428Y-116953571D01*
X123928571Y-117953571D02*
X123071428Y-117953571D01*
X123500000Y-117953571D02*
X123500000Y-116453571D01*
X123357142Y-116667857D01*
X123214285Y-116810714D01*
X123071428Y-116882142D01*
X124571428Y-117810714D02*
X124642857Y-117882142D01*
X124571428Y-117953571D01*
X124500000Y-117882142D01*
X124571428Y-117810714D01*
X124571428Y-117953571D01*
X125571428Y-116453571D02*
X125714285Y-116453571D01*
X125857142Y-116525000D01*
X125928571Y-116596428D01*
X126000000Y-116739285D01*
X126071428Y-117025000D01*
X126071428Y-117382142D01*
X126000000Y-117667857D01*
X125928571Y-117810714D01*
X125857142Y-117882142D01*
X125714285Y-117953571D01*
X125571428Y-117953571D01*
X125428571Y-117882142D01*
X125357142Y-117810714D01*
X125285714Y-117667857D01*
X125214285Y-117382142D01*
X125214285Y-117025000D01*
X125285714Y-116739285D01*
X125357142Y-116596428D01*
X125428571Y-116525000D01*
X125571428Y-116453571D01*
D11*
X175859404Y-81200000D02*
X175764166Y-81152380D01*
X175621309Y-81152380D01*
X175478452Y-81200000D01*
X175383214Y-81295238D01*
X175335595Y-81390476D01*
X175287976Y-81580952D01*
X175287976Y-81723809D01*
X175335595Y-81914285D01*
X175383214Y-82009523D01*
X175478452Y-82104761D01*
X175621309Y-82152380D01*
X175716547Y-82152380D01*
X175859404Y-82104761D01*
X175907023Y-82057142D01*
X175907023Y-81723809D01*
X175716547Y-81723809D01*
X176335595Y-82152380D02*
X176335595Y-81152380D01*
X176907023Y-82152380D01*
X176907023Y-81152380D01*
X177383214Y-82152380D02*
X177383214Y-81152380D01*
X177621309Y-81152380D01*
X177764166Y-81200000D01*
X177859404Y-81295238D01*
X177907023Y-81390476D01*
X177954642Y-81580952D01*
X177954642Y-81723809D01*
X177907023Y-81914285D01*
X177859404Y-82009523D01*
X177764166Y-82104761D01*
X177621309Y-82152380D01*
X177383214Y-82152380D01*
X175811785Y-78612380D02*
X175335595Y-78612380D01*
X175287976Y-79088571D01*
X175335595Y-79040952D01*
X175430833Y-78993333D01*
X175668928Y-78993333D01*
X175764166Y-79040952D01*
X175811785Y-79088571D01*
X175859404Y-79183809D01*
X175859404Y-79421904D01*
X175811785Y-79517142D01*
X175764166Y-79564761D01*
X175668928Y-79612380D01*
X175430833Y-79612380D01*
X175335595Y-79564761D01*
X175287976Y-79517142D01*
X176145119Y-78612380D02*
X176478452Y-79612380D01*
X176811785Y-78612380D01*
X175335595Y-77072380D02*
X175335595Y-76072380D01*
X175716547Y-76072380D01*
X175811785Y-76120000D01*
X175859404Y-76167619D01*
X175907023Y-76262857D01*
X175907023Y-76405714D01*
X175859404Y-76500952D01*
X175811785Y-76548571D01*
X175716547Y-76596190D01*
X175335595Y-76596190D01*
X176335595Y-77072380D02*
X176335595Y-76072380D01*
X176573690Y-76072380D01*
X176716547Y-76120000D01*
X176811785Y-76215238D01*
X176859404Y-76310476D01*
X176907023Y-76500952D01*
X176907023Y-76643809D01*
X176859404Y-76834285D01*
X176811785Y-76929523D01*
X176716547Y-77024761D01*
X176573690Y-77072380D01*
X176335595Y-77072380D01*
X177859404Y-77072380D02*
X177287976Y-77072380D01*
X177573690Y-77072380D02*
X177573690Y-76072380D01*
X177478452Y-76215238D01*
X177383214Y-76310476D01*
X177287976Y-76358095D01*
X175335595Y-74532380D02*
X175335595Y-73532380D01*
X175716547Y-73532380D01*
X175811785Y-73580000D01*
X175859404Y-73627619D01*
X175907023Y-73722857D01*
X175907023Y-73865714D01*
X175859404Y-73960952D01*
X175811785Y-74008571D01*
X175716547Y-74056190D01*
X175335595Y-74056190D01*
X176335595Y-74532380D02*
X176335595Y-73532380D01*
X176573690Y-73532380D01*
X176716547Y-73580000D01*
X176811785Y-73675238D01*
X176859404Y-73770476D01*
X176907023Y-73960952D01*
X176907023Y-74103809D01*
X176859404Y-74294285D01*
X176811785Y-74389523D01*
X176716547Y-74484761D01*
X176573690Y-74532380D01*
X176335595Y-74532380D01*
X177287976Y-73627619D02*
X177335595Y-73580000D01*
X177430833Y-73532380D01*
X177668928Y-73532380D01*
X177764166Y-73580000D01*
X177811785Y-73627619D01*
X177859404Y-73722857D01*
X177859404Y-73818095D01*
X177811785Y-73960952D01*
X177240357Y-74532380D01*
X177859404Y-74532380D01*
X175335595Y-71992380D02*
X175335595Y-70992380D01*
X175716547Y-70992380D01*
X175811785Y-71040000D01*
X175859404Y-71087619D01*
X175907023Y-71182857D01*
X175907023Y-71325714D01*
X175859404Y-71420952D01*
X175811785Y-71468571D01*
X175716547Y-71516190D01*
X175335595Y-71516190D01*
X176335595Y-71992380D02*
X176335595Y-70992380D01*
X176573690Y-70992380D01*
X176716547Y-71040000D01*
X176811785Y-71135238D01*
X176859404Y-71230476D01*
X176907023Y-71420952D01*
X176907023Y-71563809D01*
X176859404Y-71754285D01*
X176811785Y-71849523D01*
X176716547Y-71944761D01*
X176573690Y-71992380D01*
X176335595Y-71992380D01*
X177240357Y-70992380D02*
X177859404Y-70992380D01*
X177526071Y-71373333D01*
X177668928Y-71373333D01*
X177764166Y-71420952D01*
X177811785Y-71468571D01*
X177859404Y-71563809D01*
X177859404Y-71801904D01*
X177811785Y-71897142D01*
X177764166Y-71944761D01*
X177668928Y-71992380D01*
X177383214Y-71992380D01*
X177287976Y-71944761D01*
X177240357Y-71897142D01*
X175335595Y-69452380D02*
X175335595Y-68452380D01*
X175716547Y-68452380D01*
X175811785Y-68500000D01*
X175859404Y-68547619D01*
X175907023Y-68642857D01*
X175907023Y-68785714D01*
X175859404Y-68880952D01*
X175811785Y-68928571D01*
X175716547Y-68976190D01*
X175335595Y-68976190D01*
X176335595Y-69452380D02*
X176335595Y-68452380D01*
X176573690Y-68452380D01*
X176716547Y-68500000D01*
X176811785Y-68595238D01*
X176859404Y-68690476D01*
X176907023Y-68880952D01*
X176907023Y-69023809D01*
X176859404Y-69214285D01*
X176811785Y-69309523D01*
X176716547Y-69404761D01*
X176573690Y-69452380D01*
X176335595Y-69452380D01*
X177764166Y-68785714D02*
X177764166Y-69452380D01*
X177526071Y-68404761D02*
X177287976Y-69119047D01*
X177907023Y-69119047D01*
X162283452Y-81866666D02*
X162759642Y-81866666D01*
X162188214Y-82152380D02*
X162521547Y-81152380D01*
X162854880Y-82152380D01*
X163188214Y-82152380D02*
X163188214Y-81152380D01*
X163426309Y-81152380D01*
X163569166Y-81200000D01*
X163664404Y-81295238D01*
X163712023Y-81390476D01*
X163759642Y-81580952D01*
X163759642Y-81723809D01*
X163712023Y-81914285D01*
X163664404Y-82009523D01*
X163569166Y-82104761D01*
X163426309Y-82152380D01*
X163188214Y-82152380D01*
X164759642Y-82057142D02*
X164712023Y-82104761D01*
X164569166Y-82152380D01*
X164473928Y-82152380D01*
X164331071Y-82104761D01*
X164235833Y-82009523D01*
X164188214Y-81914285D01*
X164140595Y-81723809D01*
X164140595Y-81580952D01*
X164188214Y-81390476D01*
X164235833Y-81295238D01*
X164331071Y-81200000D01*
X164473928Y-81152380D01*
X164569166Y-81152380D01*
X164712023Y-81200000D01*
X164759642Y-81247619D01*
X165616785Y-81152380D02*
X165426309Y-81152380D01*
X165331071Y-81200000D01*
X165283452Y-81247619D01*
X165188214Y-81390476D01*
X165140595Y-81580952D01*
X165140595Y-81961904D01*
X165188214Y-82057142D01*
X165235833Y-82104761D01*
X165331071Y-82152380D01*
X165521547Y-82152380D01*
X165616785Y-82104761D01*
X165664404Y-82057142D01*
X165712023Y-81961904D01*
X165712023Y-81723809D01*
X165664404Y-81628571D01*
X165616785Y-81580952D01*
X165521547Y-81533333D01*
X165331071Y-81533333D01*
X165235833Y-81580952D01*
X165188214Y-81628571D01*
X165140595Y-81723809D01*
X162283452Y-79326666D02*
X162759642Y-79326666D01*
X162188214Y-79612380D02*
X162521547Y-78612380D01*
X162854880Y-79612380D01*
X163188214Y-79612380D02*
X163188214Y-78612380D01*
X163426309Y-78612380D01*
X163569166Y-78660000D01*
X163664404Y-78755238D01*
X163712023Y-78850476D01*
X163759642Y-79040952D01*
X163759642Y-79183809D01*
X163712023Y-79374285D01*
X163664404Y-79469523D01*
X163569166Y-79564761D01*
X163426309Y-79612380D01*
X163188214Y-79612380D01*
X164759642Y-79517142D02*
X164712023Y-79564761D01*
X164569166Y-79612380D01*
X164473928Y-79612380D01*
X164331071Y-79564761D01*
X164235833Y-79469523D01*
X164188214Y-79374285D01*
X164140595Y-79183809D01*
X164140595Y-79040952D01*
X164188214Y-78850476D01*
X164235833Y-78755238D01*
X164331071Y-78660000D01*
X164473928Y-78612380D01*
X164569166Y-78612380D01*
X164712023Y-78660000D01*
X164759642Y-78707619D01*
X165092976Y-78612380D02*
X165759642Y-78612380D01*
X165331071Y-79612380D01*
X163188214Y-77072380D02*
X163188214Y-76072380D01*
X163569166Y-76072380D01*
X163664404Y-76120000D01*
X163712023Y-76167619D01*
X163759642Y-76262857D01*
X163759642Y-76405714D01*
X163712023Y-76500952D01*
X163664404Y-76548571D01*
X163569166Y-76596190D01*
X163188214Y-76596190D01*
X164521547Y-76548571D02*
X164664404Y-76596190D01*
X164712023Y-76643809D01*
X164759642Y-76739047D01*
X164759642Y-76881904D01*
X164712023Y-76977142D01*
X164664404Y-77024761D01*
X164569166Y-77072380D01*
X164188214Y-77072380D01*
X164188214Y-76072380D01*
X164521547Y-76072380D01*
X164616785Y-76120000D01*
X164664404Y-76167619D01*
X164712023Y-76262857D01*
X164712023Y-76358095D01*
X164664404Y-76453333D01*
X164616785Y-76500952D01*
X164521547Y-76548571D01*
X164188214Y-76548571D01*
X165378690Y-76072380D02*
X165473928Y-76072380D01*
X165569166Y-76120000D01*
X165616785Y-76167619D01*
X165664404Y-76262857D01*
X165712023Y-76453333D01*
X165712023Y-76691428D01*
X165664404Y-76881904D01*
X165616785Y-76977142D01*
X165569166Y-77024761D01*
X165473928Y-77072380D01*
X165378690Y-77072380D01*
X165283452Y-77024761D01*
X165235833Y-76977142D01*
X165188214Y-76881904D01*
X165140595Y-76691428D01*
X165140595Y-76453333D01*
X165188214Y-76262857D01*
X165235833Y-76167619D01*
X165283452Y-76120000D01*
X165378690Y-76072380D01*
X163188214Y-74532380D02*
X163188214Y-73532380D01*
X163569166Y-73532380D01*
X163664404Y-73580000D01*
X163712023Y-73627619D01*
X163759642Y-73722857D01*
X163759642Y-73865714D01*
X163712023Y-73960952D01*
X163664404Y-74008571D01*
X163569166Y-74056190D01*
X163188214Y-74056190D01*
X164188214Y-74532380D02*
X164188214Y-73532380D01*
X164426309Y-73532380D01*
X164569166Y-73580000D01*
X164664404Y-73675238D01*
X164712023Y-73770476D01*
X164759642Y-73960952D01*
X164759642Y-74103809D01*
X164712023Y-74294285D01*
X164664404Y-74389523D01*
X164569166Y-74484761D01*
X164426309Y-74532380D01*
X164188214Y-74532380D01*
X165092976Y-73532380D02*
X165759642Y-73532380D01*
X165331071Y-74532380D01*
X163188214Y-71992380D02*
X163188214Y-70992380D01*
X163569166Y-70992380D01*
X163664404Y-71040000D01*
X163712023Y-71087619D01*
X163759642Y-71182857D01*
X163759642Y-71325714D01*
X163712023Y-71420952D01*
X163664404Y-71468571D01*
X163569166Y-71516190D01*
X163188214Y-71516190D01*
X164188214Y-71992380D02*
X164188214Y-70992380D01*
X164426309Y-70992380D01*
X164569166Y-71040000D01*
X164664404Y-71135238D01*
X164712023Y-71230476D01*
X164759642Y-71420952D01*
X164759642Y-71563809D01*
X164712023Y-71754285D01*
X164664404Y-71849523D01*
X164569166Y-71944761D01*
X164426309Y-71992380D01*
X164188214Y-71992380D01*
X165616785Y-70992380D02*
X165426309Y-70992380D01*
X165331071Y-71040000D01*
X165283452Y-71087619D01*
X165188214Y-71230476D01*
X165140595Y-71420952D01*
X165140595Y-71801904D01*
X165188214Y-71897142D01*
X165235833Y-71944761D01*
X165331071Y-71992380D01*
X165521547Y-71992380D01*
X165616785Y-71944761D01*
X165664404Y-71897142D01*
X165712023Y-71801904D01*
X165712023Y-71563809D01*
X165664404Y-71468571D01*
X165616785Y-71420952D01*
X165521547Y-71373333D01*
X165331071Y-71373333D01*
X165235833Y-71420952D01*
X165188214Y-71468571D01*
X165140595Y-71563809D01*
X163188214Y-69452380D02*
X163188214Y-68452380D01*
X163569166Y-68452380D01*
X163664404Y-68500000D01*
X163712023Y-68547619D01*
X163759642Y-68642857D01*
X163759642Y-68785714D01*
X163712023Y-68880952D01*
X163664404Y-68928571D01*
X163569166Y-68976190D01*
X163188214Y-68976190D01*
X164188214Y-69452380D02*
X164188214Y-68452380D01*
X164426309Y-68452380D01*
X164569166Y-68500000D01*
X164664404Y-68595238D01*
X164712023Y-68690476D01*
X164759642Y-68880952D01*
X164759642Y-69023809D01*
X164712023Y-69214285D01*
X164664404Y-69309523D01*
X164569166Y-69404761D01*
X164426309Y-69452380D01*
X164188214Y-69452380D01*
X165664404Y-68452380D02*
X165188214Y-68452380D01*
X165140595Y-68928571D01*
X165188214Y-68880952D01*
X165283452Y-68833333D01*
X165521547Y-68833333D01*
X165616785Y-68880952D01*
X165664404Y-68928571D01*
X165712023Y-69023809D01*
X165712023Y-69261904D01*
X165664404Y-69357142D01*
X165616785Y-69404761D01*
X165521547Y-69452380D01*
X165283452Y-69452380D01*
X165188214Y-69404761D01*
X165140595Y-69357142D01*
X163535238Y-124287976D02*
X163487619Y-124430833D01*
X163487619Y-124668928D01*
X163535238Y-124764166D01*
X163582857Y-124811785D01*
X163678095Y-124859404D01*
X163773333Y-124859404D01*
X163868571Y-124811785D01*
X163916190Y-124764166D01*
X163963809Y-124668928D01*
X164011428Y-124478452D01*
X164059047Y-124383214D01*
X164106666Y-124335595D01*
X164201904Y-124287976D01*
X164297142Y-124287976D01*
X164392380Y-124335595D01*
X164440000Y-124383214D01*
X164487619Y-124478452D01*
X164487619Y-124716547D01*
X164440000Y-124859404D01*
X163487619Y-125287976D02*
X164487619Y-125287976D01*
X164487619Y-125668928D01*
X164440000Y-125764166D01*
X164392380Y-125811785D01*
X164297142Y-125859404D01*
X164154285Y-125859404D01*
X164059047Y-125811785D01*
X164011428Y-125764166D01*
X163963809Y-125668928D01*
X163963809Y-125287976D01*
X164011428Y-126287976D02*
X164011428Y-126621309D01*
X163487619Y-126764166D02*
X163487619Y-126287976D01*
X164487619Y-126287976D01*
X164487619Y-126764166D01*
X164011428Y-127192738D02*
X164011428Y-127526071D01*
X163487619Y-127668928D02*
X163487619Y-127192738D01*
X164487619Y-127192738D01*
X164487619Y-127668928D01*
X163487619Y-128097500D02*
X164487619Y-128097500D01*
X164487619Y-128335595D01*
X164440000Y-128478452D01*
X164344761Y-128573690D01*
X164249523Y-128621309D01*
X164059047Y-128668928D01*
X163916190Y-128668928D01*
X163725714Y-128621309D01*
X163630476Y-128573690D01*
X163535238Y-128478452D01*
X163487619Y-128335595D01*
X163487619Y-128097500D01*
X163392380Y-128859404D02*
X163392380Y-129621309D01*
X164440000Y-130383214D02*
X164487619Y-130287976D01*
X164487619Y-130145119D01*
X164440000Y-130002261D01*
X164344761Y-129907023D01*
X164249523Y-129859404D01*
X164059047Y-129811785D01*
X163916190Y-129811785D01*
X163725714Y-129859404D01*
X163630476Y-129907023D01*
X163535238Y-130002261D01*
X163487619Y-130145119D01*
X163487619Y-130240357D01*
X163535238Y-130383214D01*
X163582857Y-130430833D01*
X163916190Y-130430833D01*
X163916190Y-130240357D01*
X163487619Y-130859404D02*
X164487619Y-130859404D01*
X163487619Y-131430833D01*
X164487619Y-131430833D01*
X163487619Y-131907023D02*
X164487619Y-131907023D01*
X164487619Y-132145119D01*
X164440000Y-132287976D01*
X164344761Y-132383214D01*
X164249523Y-132430833D01*
X164059047Y-132478452D01*
X163916190Y-132478452D01*
X163725714Y-132430833D01*
X163630476Y-132383214D01*
X163535238Y-132287976D01*
X163487619Y-132145119D01*
X163487619Y-131907023D01*
X160995238Y-124287976D02*
X160947619Y-124430833D01*
X160947619Y-124668928D01*
X160995238Y-124764166D01*
X161042857Y-124811785D01*
X161138095Y-124859404D01*
X161233333Y-124859404D01*
X161328571Y-124811785D01*
X161376190Y-124764166D01*
X161423809Y-124668928D01*
X161471428Y-124478452D01*
X161519047Y-124383214D01*
X161566666Y-124335595D01*
X161661904Y-124287976D01*
X161757142Y-124287976D01*
X161852380Y-124335595D01*
X161900000Y-124383214D01*
X161947619Y-124478452D01*
X161947619Y-124716547D01*
X161900000Y-124859404D01*
X160947619Y-125287976D02*
X161947619Y-125287976D01*
X161947619Y-125668928D01*
X161900000Y-125764166D01*
X161852380Y-125811785D01*
X161757142Y-125859404D01*
X161614285Y-125859404D01*
X161519047Y-125811785D01*
X161471428Y-125764166D01*
X161423809Y-125668928D01*
X161423809Y-125287976D01*
X161471428Y-126287976D02*
X161471428Y-126621309D01*
X160947619Y-126764166D02*
X160947619Y-126287976D01*
X161947619Y-126287976D01*
X161947619Y-126764166D01*
X161471428Y-127192738D02*
X161471428Y-127526071D01*
X160947619Y-127668928D02*
X160947619Y-127192738D01*
X161947619Y-127192738D01*
X161947619Y-127668928D01*
X160947619Y-128097500D02*
X161947619Y-128097500D01*
X161947619Y-128335595D01*
X161900000Y-128478452D01*
X161804761Y-128573690D01*
X161709523Y-128621309D01*
X161519047Y-128668928D01*
X161376190Y-128668928D01*
X161185714Y-128621309D01*
X161090476Y-128573690D01*
X160995238Y-128478452D01*
X160947619Y-128335595D01*
X160947619Y-128097500D01*
X160852380Y-128859404D02*
X160852380Y-129621309D01*
X161947619Y-130335595D02*
X161947619Y-129859404D01*
X161471428Y-129811785D01*
X161519047Y-129859404D01*
X161566666Y-129954642D01*
X161566666Y-130192738D01*
X161519047Y-130287976D01*
X161471428Y-130335595D01*
X161376190Y-130383214D01*
X161138095Y-130383214D01*
X161042857Y-130335595D01*
X160995238Y-130287976D01*
X160947619Y-130192738D01*
X160947619Y-129954642D01*
X160995238Y-129859404D01*
X161042857Y-129811785D01*
X161947619Y-130668928D02*
X160947619Y-131002261D01*
X161947619Y-131335595D01*
X153422857Y-124907023D02*
X153375238Y-124859404D01*
X153327619Y-124716547D01*
X153327619Y-124621309D01*
X153375238Y-124478452D01*
X153470476Y-124383214D01*
X153565714Y-124335595D01*
X153756190Y-124287976D01*
X153899047Y-124287976D01*
X154089523Y-124335595D01*
X154184761Y-124383214D01*
X154280000Y-124478452D01*
X154327619Y-124621309D01*
X154327619Y-124716547D01*
X154280000Y-124859404D01*
X154232380Y-124907023D01*
X154327619Y-125526071D02*
X154327619Y-125716547D01*
X154280000Y-125811785D01*
X154184761Y-125907023D01*
X153994285Y-125954642D01*
X153660952Y-125954642D01*
X153470476Y-125907023D01*
X153375238Y-125811785D01*
X153327619Y-125716547D01*
X153327619Y-125526071D01*
X153375238Y-125430833D01*
X153470476Y-125335595D01*
X153660952Y-125287976D01*
X153994285Y-125287976D01*
X154184761Y-125335595D01*
X154280000Y-125430833D01*
X154327619Y-125526071D01*
X153327619Y-126383214D02*
X154327619Y-126383214D01*
X153327619Y-127335595D02*
X153327619Y-126859404D01*
X154327619Y-126859404D01*
X156391428Y-124668928D02*
X156343809Y-124811785D01*
X156296190Y-124859404D01*
X156200952Y-124907023D01*
X156058095Y-124907023D01*
X155962857Y-124859404D01*
X155915238Y-124811785D01*
X155867619Y-124716547D01*
X155867619Y-124335595D01*
X156867619Y-124335595D01*
X156867619Y-124668928D01*
X156820000Y-124764166D01*
X156772380Y-124811785D01*
X156677142Y-124859404D01*
X156581904Y-124859404D01*
X156486666Y-124811785D01*
X156439047Y-124764166D01*
X156391428Y-124668928D01*
X156391428Y-124335595D01*
X156153333Y-125287976D02*
X156153333Y-125764166D01*
X155867619Y-125192738D02*
X156867619Y-125526071D01*
X155867619Y-125859404D01*
X156867619Y-126049880D02*
X156867619Y-126621309D01*
X155867619Y-126335595D02*
X156867619Y-126335595D01*
X156867619Y-126811785D02*
X156867619Y-127383214D01*
X155867619Y-127097500D02*
X156867619Y-127097500D01*
X155772380Y-127478452D02*
X155772380Y-128240357D01*
X155867619Y-129002261D02*
X155867619Y-128430833D01*
X155867619Y-128716547D02*
X156867619Y-128716547D01*
X156724761Y-128621309D01*
X156629523Y-128526071D01*
X156581904Y-128430833D01*
X156772380Y-129383214D02*
X156820000Y-129430833D01*
X156867619Y-129526071D01*
X156867619Y-129764166D01*
X156820000Y-129859404D01*
X156772380Y-129907023D01*
X156677142Y-129954642D01*
X156581904Y-129954642D01*
X156439047Y-129907023D01*
X155867619Y-129335595D01*
X155867619Y-129954642D01*
X156867619Y-130240357D02*
X155867619Y-130573690D01*
X156867619Y-130907023D01*
X144167619Y-124192738D02*
X144167619Y-124764166D01*
X143167619Y-124478452D02*
X144167619Y-124478452D01*
X144167619Y-125097500D02*
X143358095Y-125097500D01*
X143262857Y-125145119D01*
X143215238Y-125192738D01*
X143167619Y-125287976D01*
X143167619Y-125478452D01*
X143215238Y-125573690D01*
X143262857Y-125621309D01*
X143358095Y-125668928D01*
X144167619Y-125668928D01*
X143167619Y-126716547D02*
X143643809Y-126383214D01*
X143167619Y-126145119D02*
X144167619Y-126145119D01*
X144167619Y-126526071D01*
X144120000Y-126621309D01*
X144072380Y-126668928D01*
X143977142Y-126716547D01*
X143834285Y-126716547D01*
X143739047Y-126668928D01*
X143691428Y-126621309D01*
X143643809Y-126526071D01*
X143643809Y-126145119D01*
X143167619Y-127145119D02*
X144167619Y-127145119D01*
X143167619Y-127716547D01*
X144167619Y-127716547D01*
X143072380Y-127954642D02*
X143072380Y-128716547D01*
X143167619Y-129430833D02*
X143167619Y-128954642D01*
X144167619Y-128954642D01*
X143691428Y-129764166D02*
X143691428Y-130097500D01*
X143167619Y-130240357D02*
X143167619Y-129764166D01*
X144167619Y-129764166D01*
X144167619Y-130240357D01*
X143691428Y-131002261D02*
X143691428Y-130668928D01*
X143167619Y-130668928D02*
X144167619Y-130668928D01*
X144167619Y-131145119D01*
X144167619Y-131383214D02*
X144167619Y-131954642D01*
X143167619Y-131668928D02*
X144167619Y-131668928D01*
X141627619Y-124192738D02*
X141627619Y-124764166D01*
X140627619Y-124478452D02*
X141627619Y-124478452D01*
X141627619Y-125097500D02*
X140818095Y-125097500D01*
X140722857Y-125145119D01*
X140675238Y-125192738D01*
X140627619Y-125287976D01*
X140627619Y-125478452D01*
X140675238Y-125573690D01*
X140722857Y-125621309D01*
X140818095Y-125668928D01*
X141627619Y-125668928D01*
X140627619Y-126716547D02*
X141103809Y-126383214D01*
X140627619Y-126145119D02*
X141627619Y-126145119D01*
X141627619Y-126526071D01*
X141580000Y-126621309D01*
X141532380Y-126668928D01*
X141437142Y-126716547D01*
X141294285Y-126716547D01*
X141199047Y-126668928D01*
X141151428Y-126621309D01*
X141103809Y-126526071D01*
X141103809Y-126145119D01*
X140627619Y-127145119D02*
X141627619Y-127145119D01*
X140627619Y-127716547D01*
X141627619Y-127716547D01*
X140532380Y-127954642D02*
X140532380Y-128716547D01*
X140627619Y-129526071D02*
X141103809Y-129192738D01*
X140627619Y-128954642D02*
X141627619Y-128954642D01*
X141627619Y-129335595D01*
X141580000Y-129430833D01*
X141532380Y-129478452D01*
X141437142Y-129526071D01*
X141294285Y-129526071D01*
X141199047Y-129478452D01*
X141151428Y-129430833D01*
X141103809Y-129335595D01*
X141103809Y-128954642D01*
X140627619Y-129954642D02*
X141627619Y-129954642D01*
X141580000Y-130954642D02*
X141627619Y-130859404D01*
X141627619Y-130716547D01*
X141580000Y-130573690D01*
X141484761Y-130478452D01*
X141389523Y-130430833D01*
X141199047Y-130383214D01*
X141056190Y-130383214D01*
X140865714Y-130430833D01*
X140770476Y-130478452D01*
X140675238Y-130573690D01*
X140627619Y-130716547D01*
X140627619Y-130811785D01*
X140675238Y-130954642D01*
X140722857Y-131002261D01*
X141056190Y-131002261D01*
X141056190Y-130811785D01*
X140627619Y-131430833D02*
X141627619Y-131430833D01*
X141151428Y-131430833D02*
X141151428Y-132002261D01*
X140627619Y-132002261D02*
X141627619Y-132002261D01*
X141627619Y-132335595D02*
X141627619Y-132907023D01*
X140627619Y-132621309D02*
X141627619Y-132621309D01*
X149247619Y-124526071D02*
X149247619Y-124716547D01*
X149200000Y-124811785D01*
X149104761Y-124907023D01*
X148914285Y-124954642D01*
X148580952Y-124954642D01*
X148390476Y-124907023D01*
X148295238Y-124811785D01*
X148247619Y-124716547D01*
X148247619Y-124526071D01*
X148295238Y-124430833D01*
X148390476Y-124335595D01*
X148580952Y-124287976D01*
X148914285Y-124287976D01*
X149104761Y-124335595D01*
X149200000Y-124430833D01*
X149247619Y-124526071D01*
X148247619Y-125383214D02*
X149247619Y-125383214D01*
X148247619Y-126335595D02*
X148247619Y-125859404D01*
X149247619Y-125859404D01*
X148152380Y-126430833D02*
X148152380Y-127192738D01*
X148247619Y-127430833D02*
X149247619Y-127430833D01*
X149247619Y-127811785D01*
X149200000Y-127907023D01*
X149152380Y-127954642D01*
X149057142Y-128002261D01*
X148914285Y-128002261D01*
X148819047Y-127954642D01*
X148771428Y-127907023D01*
X148723809Y-127811785D01*
X148723809Y-127430833D01*
X148247619Y-129002261D02*
X148723809Y-128668928D01*
X148247619Y-128430833D02*
X149247619Y-128430833D01*
X149247619Y-128811785D01*
X149200000Y-128907023D01*
X149152380Y-128954642D01*
X149057142Y-129002261D01*
X148914285Y-129002261D01*
X148819047Y-128954642D01*
X148771428Y-128907023D01*
X148723809Y-128811785D01*
X148723809Y-128430833D01*
X148771428Y-129430833D02*
X148771428Y-129764166D01*
X148247619Y-129907023D02*
X148247619Y-129430833D01*
X149247619Y-129430833D01*
X149247619Y-129907023D01*
X148295238Y-130287976D02*
X148247619Y-130430833D01*
X148247619Y-130668928D01*
X148295238Y-130764166D01*
X148342857Y-130811785D01*
X148438095Y-130859404D01*
X148533333Y-130859404D01*
X148628571Y-130811785D01*
X148676190Y-130764166D01*
X148723809Y-130668928D01*
X148771428Y-130478452D01*
X148819047Y-130383214D01*
X148866666Y-130335595D01*
X148961904Y-130287976D01*
X149057142Y-130287976D01*
X149152380Y-130335595D01*
X149200000Y-130383214D01*
X149247619Y-130478452D01*
X149247619Y-130716547D01*
X149200000Y-130859404D01*
X150787619Y-124335595D02*
X151787619Y-124335595D01*
X150787619Y-124907023D01*
X151787619Y-124907023D01*
X151311428Y-125383214D02*
X151311428Y-125716547D01*
X150787619Y-125859404D02*
X150787619Y-125383214D01*
X151787619Y-125383214D01*
X151787619Y-125859404D01*
X151787619Y-126287976D02*
X150978095Y-126287976D01*
X150882857Y-126335595D01*
X150835238Y-126383214D01*
X150787619Y-126478452D01*
X150787619Y-126668928D01*
X150835238Y-126764166D01*
X150882857Y-126811785D01*
X150978095Y-126859404D01*
X151787619Y-126859404D01*
X151787619Y-127192738D02*
X151787619Y-127764166D01*
X150787619Y-127478452D02*
X151787619Y-127478452D01*
X150787619Y-128668928D02*
X151263809Y-128335595D01*
X150787619Y-128097500D02*
X151787619Y-128097500D01*
X151787619Y-128478452D01*
X151740000Y-128573690D01*
X151692380Y-128621309D01*
X151597142Y-128668928D01*
X151454285Y-128668928D01*
X151359047Y-128621309D01*
X151311428Y-128573690D01*
X151263809Y-128478452D01*
X151263809Y-128097500D01*
X151073333Y-129049880D02*
X151073333Y-129526071D01*
X150787619Y-128954642D02*
X151787619Y-129287976D01*
X150787619Y-129621309D01*
X150787619Y-130430833D02*
X150787619Y-129954642D01*
X151787619Y-129954642D01*
X138087619Y-124335595D02*
X139087619Y-124335595D01*
X138611428Y-124335595D02*
X138611428Y-124907023D01*
X138087619Y-124907023D02*
X139087619Y-124907023D01*
X138087619Y-125383214D02*
X139087619Y-125383214D01*
X139040000Y-126383214D02*
X139087619Y-126287976D01*
X139087619Y-126145119D01*
X139040000Y-126002261D01*
X138944761Y-125907023D01*
X138849523Y-125859404D01*
X138659047Y-125811785D01*
X138516190Y-125811785D01*
X138325714Y-125859404D01*
X138230476Y-125907023D01*
X138135238Y-126002261D01*
X138087619Y-126145119D01*
X138087619Y-126240357D01*
X138135238Y-126383214D01*
X138182857Y-126430833D01*
X138516190Y-126430833D01*
X138516190Y-126240357D01*
X138087619Y-126859404D02*
X139087619Y-126859404D01*
X138611428Y-126859404D02*
X138611428Y-127430833D01*
X138087619Y-127430833D02*
X139087619Y-127430833D01*
X137992380Y-127668928D02*
X137992380Y-128430833D01*
X138611428Y-129002261D02*
X138563809Y-129145119D01*
X138516190Y-129192738D01*
X138420952Y-129240357D01*
X138278095Y-129240357D01*
X138182857Y-129192738D01*
X138135238Y-129145119D01*
X138087619Y-129049880D01*
X138087619Y-128668928D01*
X139087619Y-128668928D01*
X139087619Y-129002261D01*
X139040000Y-129097500D01*
X138992380Y-129145119D01*
X138897142Y-129192738D01*
X138801904Y-129192738D01*
X138706666Y-129145119D01*
X138659047Y-129097500D01*
X138611428Y-129002261D01*
X138611428Y-128668928D01*
X138611428Y-129668928D02*
X138611428Y-130002261D01*
X138087619Y-130145119D02*
X138087619Y-129668928D01*
X139087619Y-129668928D01*
X139087619Y-130145119D01*
X138373333Y-130526071D02*
X138373333Y-131002261D01*
X138087619Y-130430833D02*
X139087619Y-130764166D01*
X138087619Y-131097500D01*
X138087619Y-131430833D02*
X139087619Y-131430833D01*
X138373333Y-131764166D01*
X139087619Y-132097500D01*
X138087619Y-132097500D01*
X145707619Y-124335595D02*
X146707619Y-124335595D01*
X145707619Y-124907023D02*
X146279047Y-124478452D01*
X146707619Y-124907023D02*
X146136190Y-124335595D01*
X146231428Y-125335595D02*
X146231428Y-125668928D01*
X145707619Y-125811785D02*
X145707619Y-125335595D01*
X146707619Y-125335595D01*
X146707619Y-125811785D01*
X146183809Y-126430833D02*
X145707619Y-126430833D01*
X146707619Y-126097500D02*
X146183809Y-126430833D01*
X146707619Y-126764166D01*
X145612380Y-126859404D02*
X145612380Y-127621309D01*
X145707619Y-128383214D02*
X145707619Y-127811785D01*
X145707619Y-128097500D02*
X146707619Y-128097500D01*
X146564761Y-128002261D01*
X146469523Y-127907023D01*
X146421904Y-127811785D01*
X146612380Y-128764166D02*
X146660000Y-128811785D01*
X146707619Y-128907023D01*
X146707619Y-129145119D01*
X146660000Y-129240357D01*
X146612380Y-129287976D01*
X146517142Y-129335595D01*
X146421904Y-129335595D01*
X146279047Y-129287976D01*
X145707619Y-128716547D01*
X145707619Y-129335595D01*
X146707619Y-129621309D02*
X145707619Y-129954642D01*
X146707619Y-130287976D01*
X158455238Y-124287976D02*
X158407619Y-124430833D01*
X158407619Y-124668928D01*
X158455238Y-124764166D01*
X158502857Y-124811785D01*
X158598095Y-124859404D01*
X158693333Y-124859404D01*
X158788571Y-124811785D01*
X158836190Y-124764166D01*
X158883809Y-124668928D01*
X158931428Y-124478452D01*
X158979047Y-124383214D01*
X159026666Y-124335595D01*
X159121904Y-124287976D01*
X159217142Y-124287976D01*
X159312380Y-124335595D01*
X159360000Y-124383214D01*
X159407619Y-124478452D01*
X159407619Y-124716547D01*
X159360000Y-124859404D01*
X158407619Y-125287976D02*
X159407619Y-125287976D01*
X159407619Y-125668928D01*
X159360000Y-125764166D01*
X159312380Y-125811785D01*
X159217142Y-125859404D01*
X159074285Y-125859404D01*
X158979047Y-125811785D01*
X158931428Y-125764166D01*
X158883809Y-125668928D01*
X158883809Y-125287976D01*
X158931428Y-126287976D02*
X158931428Y-126621309D01*
X158407619Y-126764166D02*
X158407619Y-126287976D01*
X159407619Y-126287976D01*
X159407619Y-126764166D01*
X158931428Y-127192738D02*
X158931428Y-127526071D01*
X158407619Y-127668928D02*
X158407619Y-127192738D01*
X159407619Y-127192738D01*
X159407619Y-127668928D01*
X158407619Y-128097500D02*
X159407619Y-128097500D01*
X159407619Y-128335595D01*
X159360000Y-128478452D01*
X159264761Y-128573690D01*
X159169523Y-128621309D01*
X158979047Y-128668928D01*
X158836190Y-128668928D01*
X158645714Y-128621309D01*
X158550476Y-128573690D01*
X158455238Y-128478452D01*
X158407619Y-128335595D01*
X158407619Y-128097500D01*
X158312380Y-128859404D02*
X158312380Y-129621309D01*
X159407619Y-130049880D02*
X159407619Y-130240357D01*
X159360000Y-130335595D01*
X159264761Y-130430833D01*
X159074285Y-130478452D01*
X158740952Y-130478452D01*
X158550476Y-130430833D01*
X158455238Y-130335595D01*
X158407619Y-130240357D01*
X158407619Y-130049880D01*
X158455238Y-129954642D01*
X158550476Y-129859404D01*
X158740952Y-129811785D01*
X159074285Y-129811785D01*
X159264761Y-129859404D01*
X159360000Y-129954642D01*
X159407619Y-130049880D01*
X159407619Y-130907023D02*
X158598095Y-130907023D01*
X158502857Y-130954642D01*
X158455238Y-131002261D01*
X158407619Y-131097500D01*
X158407619Y-131287976D01*
X158455238Y-131383214D01*
X158502857Y-131430833D01*
X158598095Y-131478452D01*
X159407619Y-131478452D01*
X159407619Y-131811785D02*
X159407619Y-132383214D01*
X158407619Y-132097500D02*
X159407619Y-132097500D01*
X136500000Y-124859404D02*
X136547619Y-124764166D01*
X136547619Y-124621309D01*
X136500000Y-124478452D01*
X136404761Y-124383214D01*
X136309523Y-124335595D01*
X136119047Y-124287976D01*
X135976190Y-124287976D01*
X135785714Y-124335595D01*
X135690476Y-124383214D01*
X135595238Y-124478452D01*
X135547619Y-124621309D01*
X135547619Y-124716547D01*
X135595238Y-124859404D01*
X135642857Y-124907023D01*
X135976190Y-124907023D01*
X135976190Y-124716547D01*
X135547619Y-125335595D02*
X136547619Y-125335595D01*
X135547619Y-125907023D01*
X136547619Y-125907023D01*
X135547619Y-126383214D02*
X136547619Y-126383214D01*
X136547619Y-126621309D01*
X136500000Y-126764166D01*
X136404761Y-126859404D01*
X136309523Y-126907023D01*
X136119047Y-126954642D01*
X135976190Y-126954642D01*
X135785714Y-126907023D01*
X135690476Y-126859404D01*
X135595238Y-126764166D01*
X135547619Y-126621309D01*
X135547619Y-126383214D01*
D12*
%TO.C,U2*%
X135640000Y-72000000D02*
G75*
G03*
X135640000Y-72000000I-100000J0D01*
G01*
X135040000Y-65500000D02*
X142040000Y-65500000D01*
X142040000Y-65500000D02*
X142040000Y-72500000D01*
X142040000Y-72500000D02*
X135040000Y-72500000D01*
X135040000Y-72500000D02*
X135040000Y-65500000D01*
%TO.C,U4*%
X135640000Y-88000000D02*
G75*
G03*
X135640000Y-88000000I-100000J0D01*
G01*
X135040000Y-81500000D02*
X142040000Y-81500000D01*
X142040000Y-81500000D02*
X142040000Y-88500000D01*
X142040000Y-88500000D02*
X135040000Y-88500000D01*
X135040000Y-88500000D02*
X135040000Y-81500000D01*
%TO.C,U3*%
X150640000Y-72000000D02*
G75*
G03*
X150640000Y-72000000I-100000J0D01*
G01*
X150040000Y-65500000D02*
X157040000Y-65500000D01*
X157040000Y-65500000D02*
X157040000Y-72500000D01*
X157040000Y-72500000D02*
X150040000Y-72500000D01*
X150040000Y-72500000D02*
X150040000Y-65500000D01*
%TO.C,U1*%
X179760000Y-119410000D02*
X179760000Y-118150000D01*
X179760000Y-112590000D02*
X179760000Y-113850000D01*
X176000000Y-119410000D02*
X179760000Y-119410000D01*
X173750000Y-112590000D02*
X179760000Y-112590000D01*
%TO.C,J3*%
X180430000Y-104630000D02*
X177830000Y-104630000D01*
X180430000Y-104630000D02*
X180430000Y-101970000D01*
X180430000Y-101970000D02*
X175230000Y-101970000D01*
X175230000Y-102030000D02*
X175230000Y-101970000D01*
X177830000Y-102030000D02*
X175230000Y-102030000D01*
X177830000Y-104630000D02*
X177830000Y-102030000D01*
X175230000Y-104630000D02*
X175230000Y-103300000D01*
X176560000Y-104630000D02*
X175230000Y-104630000D01*
%TO.C,D3*%
X136135000Y-100112500D02*
X136135000Y-96052500D01*
X136135000Y-96052500D02*
X133865000Y-96052500D01*
X133865000Y-96052500D02*
X133865000Y-100112500D01*
%TO.C,J2*%
X165270000Y-123330000D02*
X165270000Y-120670000D01*
X137270000Y-123330000D02*
X165270000Y-123330000D01*
X137270000Y-120670000D02*
X165270000Y-120670000D01*
X137270000Y-123330000D02*
X137270000Y-120670000D01*
X136000000Y-123330000D02*
X134670000Y-123330000D01*
X134670000Y-123330000D02*
X134670000Y-122000000D01*
%TO.C,U5*%
X188000000Y-102000000D02*
G75*
G03*
X188000000Y-102000000I-100000J0D01*
G01*
X184000000Y-102500000D02*
X184000000Y-97500000D01*
X184000000Y-97500000D02*
X189000000Y-97500000D01*
X189000000Y-97500000D02*
X189000000Y-102500000D01*
X189000000Y-102500000D02*
X184000000Y-102500000D01*
%TO.C,R12*%
X177822936Y-96390000D02*
X179277064Y-96390000D01*
X177822936Y-98210000D02*
X179277064Y-98210000D01*
%TO.C,R11*%
X160910000Y-87722936D02*
X160910000Y-89177064D01*
X159090000Y-87722936D02*
X159090000Y-89177064D01*
%TO.C,R10*%
X143090000Y-82277064D02*
X143090000Y-80822936D01*
X144910000Y-82277064D02*
X144910000Y-80822936D01*
%TO.C,R9*%
X157990000Y-66277064D02*
X157990000Y-64822936D01*
X159810000Y-66277064D02*
X159810000Y-64822936D01*
%TO.C,R8*%
X142990000Y-66277064D02*
X142990000Y-64822936D01*
X144810000Y-66277064D02*
X144810000Y-64822936D01*
%TO.C,R7*%
X148910000Y-71722936D02*
X148910000Y-73177064D01*
X147090000Y-71722936D02*
X147090000Y-73177064D01*
%TO.C,R4*%
X133910000Y-71722936D02*
X133910000Y-73177064D01*
X132090000Y-71722936D02*
X132090000Y-73177064D01*
%TO.C,R6*%
X131910000Y-103822936D02*
X131910000Y-105277064D01*
X130090000Y-103822936D02*
X130090000Y-105277064D01*
%TO.C,R5*%
X131910000Y-97722936D02*
X131910000Y-99177064D01*
X130090000Y-97722936D02*
X130090000Y-99177064D01*
%TO.C,C1*%
X135910000Y-103851248D02*
X135910000Y-105273752D01*
X134090000Y-103851248D02*
X134090000Y-105273752D01*
%TO.C,R3*%
X152910000Y-87722936D02*
X152910000Y-89177064D01*
X151090000Y-87722936D02*
X151090000Y-89177064D01*
%TO.C,R2*%
X156910000Y-87722936D02*
X156910000Y-89177064D01*
X155090000Y-87722936D02*
X155090000Y-89177064D01*
%TO.C,R1*%
X133910000Y-87722936D02*
X133910000Y-89177064D01*
X132090000Y-87722936D02*
X132090000Y-89177064D01*
%TO.C,D2*%
X129912500Y-81135000D02*
X133972500Y-81135000D01*
X133972500Y-81135000D02*
X133972500Y-78865000D01*
X133972500Y-78865000D02*
X129912500Y-78865000D01*
%TO.C,D1*%
X129912500Y-84135000D02*
X133972500Y-84135000D01*
X133972500Y-84135000D02*
X133972500Y-81865000D01*
X133972500Y-81865000D02*
X129912500Y-81865000D01*
%TO.C,J1*%
X167875000Y-67670000D02*
X173075000Y-67670000D01*
X173075000Y-67670000D02*
X173075000Y-68240000D01*
X173075000Y-69760000D02*
X173075000Y-70780000D01*
X173075000Y-72300000D02*
X173075000Y-73320000D01*
X173075000Y-74840000D02*
X173075000Y-75860000D01*
X173075000Y-77380000D02*
X173075000Y-78400000D01*
X173075000Y-79920000D02*
X173075000Y-80940000D01*
X173075000Y-82460000D02*
X173075000Y-83030000D01*
X167875000Y-83030000D02*
X173075000Y-83030000D01*
X167875000Y-67670000D02*
X167875000Y-68240000D01*
X167875000Y-69760000D02*
X167875000Y-70780000D01*
X167875000Y-72300000D02*
X167875000Y-73320000D01*
X167875000Y-74840000D02*
X167875000Y-75860000D01*
X167875000Y-77380000D02*
X167875000Y-78400000D01*
X167875000Y-79920000D02*
X167875000Y-80940000D01*
X167875000Y-82460000D02*
X167875000Y-83030000D01*
X173075000Y-68240000D02*
X174435000Y-68240000D01*
%TO.C,U2*%
D11*
X137778095Y-68952380D02*
X137778095Y-69761904D01*
X137825714Y-69857142D01*
X137873333Y-69904761D01*
X137968571Y-69952380D01*
X138159047Y-69952380D01*
X138254285Y-69904761D01*
X138301904Y-69857142D01*
X138349523Y-69761904D01*
X138349523Y-68952380D01*
X138778095Y-69047619D02*
X138825714Y-69000000D01*
X138920952Y-68952380D01*
X139159047Y-68952380D01*
X139254285Y-69000000D01*
X139301904Y-69047619D01*
X139349523Y-69142857D01*
X139349523Y-69238095D01*
X139301904Y-69380952D01*
X138730476Y-69952380D01*
X139349523Y-69952380D01*
%TO.C,U4*%
X137778095Y-85452380D02*
X137778095Y-86261904D01*
X137825714Y-86357142D01*
X137873333Y-86404761D01*
X137968571Y-86452380D01*
X138159047Y-86452380D01*
X138254285Y-86404761D01*
X138301904Y-86357142D01*
X138349523Y-86261904D01*
X138349523Y-85452380D01*
X139254285Y-85785714D02*
X139254285Y-86452380D01*
X139016190Y-85404761D02*
X138778095Y-86119047D01*
X139397142Y-86119047D01*
%TO.C,U3*%
X152778095Y-68952380D02*
X152778095Y-69761904D01*
X152825714Y-69857142D01*
X152873333Y-69904761D01*
X152968571Y-69952380D01*
X153159047Y-69952380D01*
X153254285Y-69904761D01*
X153301904Y-69857142D01*
X153349523Y-69761904D01*
X153349523Y-68952380D01*
X153730476Y-68952380D02*
X154349523Y-68952380D01*
X154016190Y-69333333D01*
X154159047Y-69333333D01*
X154254285Y-69380952D01*
X154301904Y-69428571D01*
X154349523Y-69523809D01*
X154349523Y-69761904D01*
X154301904Y-69857142D01*
X154254285Y-69904761D01*
X154159047Y-69952380D01*
X153873333Y-69952380D01*
X153778095Y-69904761D01*
X153730476Y-69857142D01*
%TO.C,U1*%
X177088095Y-110952380D02*
X177088095Y-111761904D01*
X177135714Y-111857142D01*
X177183333Y-111904761D01*
X177278571Y-111952380D01*
X177469047Y-111952380D01*
X177564285Y-111904761D01*
X177611904Y-111857142D01*
X177659523Y-111761904D01*
X177659523Y-110952380D01*
X178659523Y-111952380D02*
X178088095Y-111952380D01*
X178373809Y-111952380D02*
X178373809Y-110952380D01*
X178278571Y-111095238D01*
X178183333Y-111190476D01*
X178088095Y-111238095D01*
%TO.C,J3*%
X177496666Y-105522380D02*
X177496666Y-106236666D01*
X177449047Y-106379523D01*
X177353809Y-106474761D01*
X177210952Y-106522380D01*
X177115714Y-106522380D01*
X177877619Y-105522380D02*
X178496666Y-105522380D01*
X178163333Y-105903333D01*
X178306190Y-105903333D01*
X178401428Y-105950952D01*
X178449047Y-105998571D01*
X178496666Y-106093809D01*
X178496666Y-106331904D01*
X178449047Y-106427142D01*
X178401428Y-106474761D01*
X178306190Y-106522380D01*
X178020476Y-106522380D01*
X177925238Y-106474761D01*
X177877619Y-106427142D01*
%TO.C,D3*%
X137272380Y-99250595D02*
X136272380Y-99250595D01*
X136272380Y-99012500D01*
X136320000Y-98869642D01*
X136415238Y-98774404D01*
X136510476Y-98726785D01*
X136700952Y-98679166D01*
X136843809Y-98679166D01*
X137034285Y-98726785D01*
X137129523Y-98774404D01*
X137224761Y-98869642D01*
X137272380Y-99012500D01*
X137272380Y-99250595D01*
X136272380Y-98345833D02*
X136272380Y-97726785D01*
X136653333Y-98060119D01*
X136653333Y-97917261D01*
X136700952Y-97822023D01*
X136748571Y-97774404D01*
X136843809Y-97726785D01*
X137081904Y-97726785D01*
X137177142Y-97774404D01*
X137224761Y-97822023D01*
X137272380Y-97917261D01*
X137272380Y-98202976D01*
X137224761Y-98298214D01*
X137177142Y-98345833D01*
%TO.C,J2*%
X133122380Y-122333333D02*
X133836666Y-122333333D01*
X133979523Y-122380952D01*
X134074761Y-122476190D01*
X134122380Y-122619047D01*
X134122380Y-122714285D01*
X133217619Y-121904761D02*
X133170000Y-121857142D01*
X133122380Y-121761904D01*
X133122380Y-121523809D01*
X133170000Y-121428571D01*
X133217619Y-121380952D01*
X133312857Y-121333333D01*
X133408095Y-121333333D01*
X133550952Y-121380952D01*
X134122380Y-121952380D01*
X134122380Y-121333333D01*
%TO.C,U5*%
X187452380Y-100761904D02*
X188261904Y-100761904D01*
X188357142Y-100714285D01*
X188404761Y-100666666D01*
X188452380Y-100571428D01*
X188452380Y-100380952D01*
X188404761Y-100285714D01*
X188357142Y-100238095D01*
X188261904Y-100190476D01*
X187452380Y-100190476D01*
X187452380Y-99238095D02*
X187452380Y-99714285D01*
X187928571Y-99761904D01*
X187880952Y-99714285D01*
X187833333Y-99619047D01*
X187833333Y-99380952D01*
X187880952Y-99285714D01*
X187928571Y-99238095D01*
X188023809Y-99190476D01*
X188261904Y-99190476D01*
X188357142Y-99238095D01*
X188404761Y-99285714D01*
X188452380Y-99380952D01*
X188452380Y-99619047D01*
X188404761Y-99714285D01*
X188357142Y-99761904D01*
%TO.C,R12*%
X177907142Y-95932380D02*
X177573809Y-95456190D01*
X177335714Y-95932380D02*
X177335714Y-94932380D01*
X177716666Y-94932380D01*
X177811904Y-94980000D01*
X177859523Y-95027619D01*
X177907142Y-95122857D01*
X177907142Y-95265714D01*
X177859523Y-95360952D01*
X177811904Y-95408571D01*
X177716666Y-95456190D01*
X177335714Y-95456190D01*
X178859523Y-95932380D02*
X178288095Y-95932380D01*
X178573809Y-95932380D02*
X178573809Y-94932380D01*
X178478571Y-95075238D01*
X178383333Y-95170476D01*
X178288095Y-95218095D01*
X179240476Y-95027619D02*
X179288095Y-94980000D01*
X179383333Y-94932380D01*
X179621428Y-94932380D01*
X179716666Y-94980000D01*
X179764285Y-95027619D01*
X179811904Y-95122857D01*
X179811904Y-95218095D01*
X179764285Y-95360952D01*
X179192857Y-95932380D01*
X179811904Y-95932380D01*
%TO.C,R11*%
X162272380Y-89092857D02*
X161796190Y-89426190D01*
X162272380Y-89664285D02*
X161272380Y-89664285D01*
X161272380Y-89283333D01*
X161320000Y-89188095D01*
X161367619Y-89140476D01*
X161462857Y-89092857D01*
X161605714Y-89092857D01*
X161700952Y-89140476D01*
X161748571Y-89188095D01*
X161796190Y-89283333D01*
X161796190Y-89664285D01*
X162272380Y-88140476D02*
X162272380Y-88711904D01*
X162272380Y-88426190D02*
X161272380Y-88426190D01*
X161415238Y-88521428D01*
X161510476Y-88616666D01*
X161558095Y-88711904D01*
X162272380Y-87188095D02*
X162272380Y-87759523D01*
X162272380Y-87473809D02*
X161272380Y-87473809D01*
X161415238Y-87569047D01*
X161510476Y-87664285D01*
X161558095Y-87759523D01*
%TO.C,R10*%
X146452380Y-82192857D02*
X145976190Y-82526190D01*
X146452380Y-82764285D02*
X145452380Y-82764285D01*
X145452380Y-82383333D01*
X145500000Y-82288095D01*
X145547619Y-82240476D01*
X145642857Y-82192857D01*
X145785714Y-82192857D01*
X145880952Y-82240476D01*
X145928571Y-82288095D01*
X145976190Y-82383333D01*
X145976190Y-82764285D01*
X146452380Y-81240476D02*
X146452380Y-81811904D01*
X146452380Y-81526190D02*
X145452380Y-81526190D01*
X145595238Y-81621428D01*
X145690476Y-81716666D01*
X145738095Y-81811904D01*
X145452380Y-80621428D02*
X145452380Y-80526190D01*
X145500000Y-80430952D01*
X145547619Y-80383333D01*
X145642857Y-80335714D01*
X145833333Y-80288095D01*
X146071428Y-80288095D01*
X146261904Y-80335714D01*
X146357142Y-80383333D01*
X146404761Y-80430952D01*
X146452380Y-80526190D01*
X146452380Y-80621428D01*
X146404761Y-80716666D01*
X146357142Y-80764285D01*
X146261904Y-80811904D01*
X146071428Y-80859523D01*
X145833333Y-80859523D01*
X145642857Y-80811904D01*
X145547619Y-80764285D01*
X145500000Y-80716666D01*
X145452380Y-80621428D01*
%TO.C,R9*%
X161452380Y-65716666D02*
X160976190Y-66050000D01*
X161452380Y-66288095D02*
X160452380Y-66288095D01*
X160452380Y-65907142D01*
X160500000Y-65811904D01*
X160547619Y-65764285D01*
X160642857Y-65716666D01*
X160785714Y-65716666D01*
X160880952Y-65764285D01*
X160928571Y-65811904D01*
X160976190Y-65907142D01*
X160976190Y-66288095D01*
X161452380Y-65240476D02*
X161452380Y-65050000D01*
X161404761Y-64954761D01*
X161357142Y-64907142D01*
X161214285Y-64811904D01*
X161023809Y-64764285D01*
X160642857Y-64764285D01*
X160547619Y-64811904D01*
X160500000Y-64859523D01*
X160452380Y-64954761D01*
X160452380Y-65145238D01*
X160500000Y-65240476D01*
X160547619Y-65288095D01*
X160642857Y-65335714D01*
X160880952Y-65335714D01*
X160976190Y-65288095D01*
X161023809Y-65240476D01*
X161071428Y-65145238D01*
X161071428Y-64954761D01*
X161023809Y-64859523D01*
X160976190Y-64811904D01*
X160880952Y-64764285D01*
%TO.C,R8*%
X146452380Y-65716666D02*
X145976190Y-66050000D01*
X146452380Y-66288095D02*
X145452380Y-66288095D01*
X145452380Y-65907142D01*
X145500000Y-65811904D01*
X145547619Y-65764285D01*
X145642857Y-65716666D01*
X145785714Y-65716666D01*
X145880952Y-65764285D01*
X145928571Y-65811904D01*
X145976190Y-65907142D01*
X145976190Y-66288095D01*
X145880952Y-65145238D02*
X145833333Y-65240476D01*
X145785714Y-65288095D01*
X145690476Y-65335714D01*
X145642857Y-65335714D01*
X145547619Y-65288095D01*
X145500000Y-65240476D01*
X145452380Y-65145238D01*
X145452380Y-64954761D01*
X145500000Y-64859523D01*
X145547619Y-64811904D01*
X145642857Y-64764285D01*
X145690476Y-64764285D01*
X145785714Y-64811904D01*
X145833333Y-64859523D01*
X145880952Y-64954761D01*
X145880952Y-65145238D01*
X145928571Y-65240476D01*
X145976190Y-65288095D01*
X146071428Y-65335714D01*
X146261904Y-65335714D01*
X146357142Y-65288095D01*
X146404761Y-65240476D01*
X146452380Y-65145238D01*
X146452380Y-64954761D01*
X146404761Y-64859523D01*
X146357142Y-64811904D01*
X146261904Y-64764285D01*
X146071428Y-64764285D01*
X145976190Y-64811904D01*
X145928571Y-64859523D01*
X145880952Y-64954761D01*
%TO.C,R7*%
X146452380Y-72616666D02*
X145976190Y-72950000D01*
X146452380Y-73188095D02*
X145452380Y-73188095D01*
X145452380Y-72807142D01*
X145500000Y-72711904D01*
X145547619Y-72664285D01*
X145642857Y-72616666D01*
X145785714Y-72616666D01*
X145880952Y-72664285D01*
X145928571Y-72711904D01*
X145976190Y-72807142D01*
X145976190Y-73188095D01*
X145452380Y-72283333D02*
X145452380Y-71616666D01*
X146452380Y-72045238D01*
%TO.C,R4*%
X131452380Y-72616666D02*
X130976190Y-72950000D01*
X131452380Y-73188095D02*
X130452380Y-73188095D01*
X130452380Y-72807142D01*
X130500000Y-72711904D01*
X130547619Y-72664285D01*
X130642857Y-72616666D01*
X130785714Y-72616666D01*
X130880952Y-72664285D01*
X130928571Y-72711904D01*
X130976190Y-72807142D01*
X130976190Y-73188095D01*
X130785714Y-71759523D02*
X131452380Y-71759523D01*
X130404761Y-71997619D02*
X131119047Y-72235714D01*
X131119047Y-71616666D01*
%TO.C,R6*%
X133272380Y-104716666D02*
X132796190Y-105050000D01*
X133272380Y-105288095D02*
X132272380Y-105288095D01*
X132272380Y-104907142D01*
X132320000Y-104811904D01*
X132367619Y-104764285D01*
X132462857Y-104716666D01*
X132605714Y-104716666D01*
X132700952Y-104764285D01*
X132748571Y-104811904D01*
X132796190Y-104907142D01*
X132796190Y-105288095D01*
X132272380Y-103859523D02*
X132272380Y-104050000D01*
X132320000Y-104145238D01*
X132367619Y-104192857D01*
X132510476Y-104288095D01*
X132700952Y-104335714D01*
X133081904Y-104335714D01*
X133177142Y-104288095D01*
X133224761Y-104240476D01*
X133272380Y-104145238D01*
X133272380Y-103954761D01*
X133224761Y-103859523D01*
X133177142Y-103811904D01*
X133081904Y-103764285D01*
X132843809Y-103764285D01*
X132748571Y-103811904D01*
X132700952Y-103859523D01*
X132653333Y-103954761D01*
X132653333Y-104145238D01*
X132700952Y-104240476D01*
X132748571Y-104288095D01*
X132843809Y-104335714D01*
%TO.C,R5*%
X133272380Y-98616666D02*
X132796190Y-98950000D01*
X133272380Y-99188095D02*
X132272380Y-99188095D01*
X132272380Y-98807142D01*
X132320000Y-98711904D01*
X132367619Y-98664285D01*
X132462857Y-98616666D01*
X132605714Y-98616666D01*
X132700952Y-98664285D01*
X132748571Y-98711904D01*
X132796190Y-98807142D01*
X132796190Y-99188095D01*
X132272380Y-97711904D02*
X132272380Y-98188095D01*
X132748571Y-98235714D01*
X132700952Y-98188095D01*
X132653333Y-98092857D01*
X132653333Y-97854761D01*
X132700952Y-97759523D01*
X132748571Y-97711904D01*
X132843809Y-97664285D01*
X133081904Y-97664285D01*
X133177142Y-97711904D01*
X133224761Y-97759523D01*
X133272380Y-97854761D01*
X133272380Y-98092857D01*
X133224761Y-98188095D01*
X133177142Y-98235714D01*
%TO.C,C1*%
X137207142Y-104729166D02*
X137254761Y-104776785D01*
X137302380Y-104919642D01*
X137302380Y-105014880D01*
X137254761Y-105157738D01*
X137159523Y-105252976D01*
X137064285Y-105300595D01*
X136873809Y-105348214D01*
X136730952Y-105348214D01*
X136540476Y-105300595D01*
X136445238Y-105252976D01*
X136350000Y-105157738D01*
X136302380Y-105014880D01*
X136302380Y-104919642D01*
X136350000Y-104776785D01*
X136397619Y-104729166D01*
X137302380Y-103776785D02*
X137302380Y-104348214D01*
X137302380Y-104062500D02*
X136302380Y-104062500D01*
X136445238Y-104157738D01*
X136540476Y-104252976D01*
X136588095Y-104348214D01*
%TO.C,R3*%
X154272380Y-88616666D02*
X153796190Y-88950000D01*
X154272380Y-89188095D02*
X153272380Y-89188095D01*
X153272380Y-88807142D01*
X153320000Y-88711904D01*
X153367619Y-88664285D01*
X153462857Y-88616666D01*
X153605714Y-88616666D01*
X153700952Y-88664285D01*
X153748571Y-88711904D01*
X153796190Y-88807142D01*
X153796190Y-89188095D01*
X153272380Y-88283333D02*
X153272380Y-87664285D01*
X153653333Y-87997619D01*
X153653333Y-87854761D01*
X153700952Y-87759523D01*
X153748571Y-87711904D01*
X153843809Y-87664285D01*
X154081904Y-87664285D01*
X154177142Y-87711904D01*
X154224761Y-87759523D01*
X154272380Y-87854761D01*
X154272380Y-88140476D01*
X154224761Y-88235714D01*
X154177142Y-88283333D01*
%TO.C,R2*%
X158272380Y-88616666D02*
X157796190Y-88950000D01*
X158272380Y-89188095D02*
X157272380Y-89188095D01*
X157272380Y-88807142D01*
X157320000Y-88711904D01*
X157367619Y-88664285D01*
X157462857Y-88616666D01*
X157605714Y-88616666D01*
X157700952Y-88664285D01*
X157748571Y-88711904D01*
X157796190Y-88807142D01*
X157796190Y-89188095D01*
X157367619Y-88235714D02*
X157320000Y-88188095D01*
X157272380Y-88092857D01*
X157272380Y-87854761D01*
X157320000Y-87759523D01*
X157367619Y-87711904D01*
X157462857Y-87664285D01*
X157558095Y-87664285D01*
X157700952Y-87711904D01*
X158272380Y-88283333D01*
X158272380Y-87664285D01*
%TO.C,R1*%
X131452380Y-88616666D02*
X130976190Y-88950000D01*
X131452380Y-89188095D02*
X130452380Y-89188095D01*
X130452380Y-88807142D01*
X130500000Y-88711904D01*
X130547619Y-88664285D01*
X130642857Y-88616666D01*
X130785714Y-88616666D01*
X130880952Y-88664285D01*
X130928571Y-88711904D01*
X130976190Y-88807142D01*
X130976190Y-89188095D01*
X131452380Y-87664285D02*
X131452380Y-88235714D01*
X131452380Y-87950000D02*
X130452380Y-87950000D01*
X130595238Y-88045238D01*
X130690476Y-88140476D01*
X130738095Y-88235714D01*
%TO.C,D2*%
X130774404Y-78452380D02*
X130774404Y-77452380D01*
X131012500Y-77452380D01*
X131155357Y-77500000D01*
X131250595Y-77595238D01*
X131298214Y-77690476D01*
X131345833Y-77880952D01*
X131345833Y-78023809D01*
X131298214Y-78214285D01*
X131250595Y-78309523D01*
X131155357Y-78404761D01*
X131012500Y-78452380D01*
X130774404Y-78452380D01*
X131726785Y-77547619D02*
X131774404Y-77500000D01*
X131869642Y-77452380D01*
X132107738Y-77452380D01*
X132202976Y-77500000D01*
X132250595Y-77547619D01*
X132298214Y-77642857D01*
X132298214Y-77738095D01*
X132250595Y-77880952D01*
X131679166Y-78452380D01*
X132298214Y-78452380D01*
%TO.C,D1*%
X130774404Y-85272380D02*
X130774404Y-84272380D01*
X131012500Y-84272380D01*
X131155357Y-84320000D01*
X131250595Y-84415238D01*
X131298214Y-84510476D01*
X131345833Y-84700952D01*
X131345833Y-84843809D01*
X131298214Y-85034285D01*
X131250595Y-85129523D01*
X131155357Y-85224761D01*
X131012500Y-85272380D01*
X130774404Y-85272380D01*
X132298214Y-85272380D02*
X131726785Y-85272380D01*
X132012500Y-85272380D02*
X132012500Y-84272380D01*
X131917261Y-84415238D01*
X131822023Y-84510476D01*
X131726785Y-84558095D01*
%TO.C,J1*%
X170141666Y-65682380D02*
X170141666Y-66396666D01*
X170094047Y-66539523D01*
X169998809Y-66634761D01*
X169855952Y-66682380D01*
X169760714Y-66682380D01*
X171141666Y-66682380D02*
X170570238Y-66682380D01*
X170855952Y-66682380D02*
X170855952Y-65682380D01*
X170760714Y-65825238D01*
X170665476Y-65920476D01*
X170570238Y-65968095D01*
%TD*%
M02*
