M48
; DRILL file {KiCad 5.1.10} date Sun Sep 26 09:30:04 2021
; FORMAT={-:-/ absolute / inch / decimal}
; #@! TF.CreationDate,2021-09-26T09:30:04+10:00
; #@! TF.GenerationSoftware,Kicad,Pcbnew,5.1.10
FMAT,2
INCH
T1C0.0157
T2C0.0394
%
G90
G05
T1
X5.0394Y-3.1496
X5.0394Y-3.2677
X5.1575Y-2.7953
X5.1575Y-3.7402
X5.2323Y-4.1772
X5.4331Y-3.6614
X5.5543Y-3.0283
X5.5906Y-2.4016
X5.748Y-2.7953
X5.9055Y-3.5433
X6.063Y-3.0315
X6.063Y-3.5433
X6.1811Y-2.4016
X6.2992Y-2.7559
X6.2992Y-3.3465
X6.378Y-3.5433
X6.4961Y-3.3465
X6.7717Y-4.4882
X6.7717Y-4.5669
X6.9291Y-3.2283
X7.2441Y-4.5669
T2
X5.3543Y-4.8031
X5.4543Y-4.8031
X5.5543Y-4.8031
X5.6543Y-4.8031
X5.7543Y-4.8031
X5.8543Y-4.8031
X5.9543Y-4.8031
X6.0543Y-4.8031
X6.1543Y-4.8031
X6.2543Y-4.8031
X6.3543Y-4.8031
X6.4543Y-4.8031
X6.9512Y-4.0669
X7.0512Y-4.0669
T0
M30
