%TF.GenerationSoftware,KiCad,Pcbnew,5.1.10*%
%TF.CreationDate,2021-09-26T09:48:59+10:00*%
%TF.ProjectId,pcb-face,7063622d-6661-4636-952e-6b696361645f,rev?*%
%TF.SameCoordinates,Original*%
%TF.FileFunction,Copper,L2,Bot*%
%TF.FilePolarity,Positive*%
%FSLAX46Y46*%
G04 Gerber Fmt 4.6, Leading zero omitted, Abs format (unit mm)*
G04 Created by KiCad (PCBNEW 5.1.10) date 2021-09-26 09:48:59*
%MOMM*%
%LPD*%
G01*
G04 APERTURE LIST*
%TA.AperFunction,SMDPad,CuDef*%
%ADD10R,1.800000X0.820000*%
%TD*%
%TA.AperFunction,SMDPad,CuDef*%
%ADD11R,3.150000X1.000000*%
%TD*%
%TA.AperFunction,Conductor*%
%ADD12C,0.250000*%
%TD*%
%TA.AperFunction,Conductor*%
%ADD13C,0.254000*%
%TD*%
%TA.AperFunction,Conductor*%
%ADD14C,0.100000*%
%TD*%
G04 APERTURE END LIST*
D10*
X128500000Y-93250000D03*
X128500000Y-94750000D03*
X133500000Y-94750000D03*
X133500000Y-93250000D03*
X128500000Y-106250000D03*
X128500000Y-107750000D03*
X133500000Y-107750000D03*
X133500000Y-106250000D03*
X166500000Y-106250000D03*
X166500000Y-107750000D03*
X171500000Y-107750000D03*
X171500000Y-106250000D03*
X166500000Y-93250000D03*
X166500000Y-94750000D03*
X171500000Y-94750000D03*
X171500000Y-93250000D03*
D11*
X173050000Y-69000000D03*
X168000000Y-69000000D03*
X173050000Y-71540000D03*
X168000000Y-71540000D03*
D12*
X171150010Y-92900010D02*
X171500000Y-93250000D01*
X171150010Y-72150010D02*
X171150010Y-92900010D01*
X168000000Y-69000000D02*
X171150010Y-72150010D01*
X128424081Y-106174082D02*
X128425868Y-106169535D01*
X128104998Y-93250000D02*
X128500000Y-93250000D01*
X166398420Y-73141580D02*
X166398420Y-93263247D01*
X168000000Y-71540000D02*
X166398420Y-73141580D01*
X128500000Y-105434301D02*
X128500000Y-106250000D01*
X129084311Y-104849990D02*
X128500000Y-105434301D01*
X165099990Y-104849990D02*
X129084311Y-104849990D01*
X166500000Y-106250000D02*
X165099990Y-104849990D01*
X165350000Y-93250000D02*
X165274999Y-93325001D01*
X165274999Y-93325001D02*
X165274999Y-105024999D01*
X166500000Y-93250000D02*
X165350000Y-93250000D01*
X165274999Y-105024999D02*
X166500000Y-106250000D01*
X127274999Y-94079999D02*
X128104998Y-93250000D01*
X127274999Y-105024999D02*
X127274999Y-94079999D01*
X128500000Y-106250000D02*
X127274999Y-105024999D01*
X128005008Y-91849990D02*
X132915689Y-91849990D01*
X132915689Y-91849990D02*
X133500000Y-92434301D01*
X127350000Y-107750000D02*
X126824989Y-107224989D01*
X126824989Y-107224989D02*
X126824989Y-93030009D01*
X128500000Y-107750000D02*
X127350000Y-107750000D01*
X133500000Y-92434301D02*
X133500000Y-93250000D01*
X126824989Y-93030009D02*
X128005008Y-91849990D01*
X165350000Y-107750000D02*
X163850000Y-106250000D01*
X166500000Y-107750000D02*
X165350000Y-107750000D01*
X163850000Y-106250000D02*
X133500000Y-106250000D01*
X166500000Y-100434301D02*
X171500000Y-105434301D01*
X171500000Y-105434301D02*
X171500000Y-106250000D01*
X166500000Y-94750000D02*
X166500000Y-100434301D01*
D13*
X152541850Y-58788314D02*
X155074058Y-59022957D01*
X157587018Y-59413041D01*
X160071198Y-59957085D01*
X162517174Y-60653025D01*
X164915668Y-61498222D01*
X167257583Y-62489469D01*
X169534033Y-63623006D01*
X171736384Y-64894534D01*
X173856281Y-66299229D01*
X175885684Y-67831763D01*
X177816893Y-69486322D01*
X179642583Y-71256629D01*
X181355829Y-73135970D01*
X182950131Y-75117216D01*
X184419442Y-77192850D01*
X185758189Y-79355000D01*
X186961292Y-81595463D01*
X188024189Y-83905741D01*
X188942847Y-86277070D01*
X189713781Y-88700455D01*
X190334067Y-91166703D01*
X190801352Y-93666459D01*
X191113864Y-96190239D01*
X191270417Y-98728472D01*
X191270417Y-101271528D01*
X191113864Y-103809761D01*
X190801352Y-106333541D01*
X190334067Y-108833297D01*
X189713781Y-111299545D01*
X188942847Y-113722930D01*
X188024189Y-116094259D01*
X186961292Y-118404537D01*
X185758189Y-120645000D01*
X184419442Y-122807150D01*
X182950131Y-124882784D01*
X181355829Y-126864030D01*
X179642583Y-128743371D01*
X177816893Y-130513678D01*
X175885684Y-132168237D01*
X173856281Y-133700771D01*
X171736384Y-135105466D01*
X169534033Y-136376994D01*
X167257583Y-137510531D01*
X164915668Y-138501778D01*
X162517174Y-139346975D01*
X160071198Y-140042915D01*
X157587018Y-140586959D01*
X155074058Y-140977043D01*
X152541850Y-141211686D01*
X150000000Y-141290000D01*
X147458150Y-141211686D01*
X144925942Y-140977043D01*
X142412982Y-140586959D01*
X139928802Y-140042915D01*
X137482826Y-139346975D01*
X135877904Y-138781422D01*
X147780738Y-138781422D01*
X147780738Y-139218578D01*
X147866023Y-139647335D01*
X148033316Y-140051215D01*
X148276187Y-140414697D01*
X148585303Y-140723813D01*
X148948785Y-140966684D01*
X149352665Y-141133977D01*
X149781422Y-141219262D01*
X150218578Y-141219262D01*
X150647335Y-141133977D01*
X151051215Y-140966684D01*
X151414697Y-140723813D01*
X151723813Y-140414697D01*
X151966684Y-140051215D01*
X152133977Y-139647335D01*
X152219262Y-139218578D01*
X152219262Y-138781422D01*
X152133977Y-138352665D01*
X151966684Y-137948785D01*
X151723813Y-137585303D01*
X151414697Y-137276187D01*
X151051215Y-137033316D01*
X150647335Y-136866023D01*
X150218578Y-136780738D01*
X149781422Y-136780738D01*
X149352665Y-136866023D01*
X148948785Y-137033316D01*
X148585303Y-137276187D01*
X148276187Y-137585303D01*
X148033316Y-137948785D01*
X147866023Y-138352665D01*
X147780738Y-138781422D01*
X135877904Y-138781422D01*
X135084332Y-138501778D01*
X132742417Y-137510531D01*
X130465967Y-136376994D01*
X128263616Y-135105466D01*
X126143719Y-133700771D01*
X124114316Y-132168237D01*
X122183107Y-130513678D01*
X120357417Y-128743371D01*
X118644171Y-126864030D01*
X117049869Y-124882784D01*
X115580558Y-122807150D01*
X114241811Y-120645000D01*
X113071243Y-118465124D01*
X125290000Y-118465124D01*
X125290001Y-127534877D01*
X125293058Y-127565912D01*
X125292971Y-127578313D01*
X125293939Y-127588179D01*
X125334739Y-127976371D01*
X125347677Y-128039396D01*
X125359737Y-128102618D01*
X125362602Y-128112109D01*
X125478026Y-128484983D01*
X125502960Y-128544299D01*
X125527069Y-128603971D01*
X125531723Y-128612724D01*
X125717374Y-128956079D01*
X125753356Y-129009424D01*
X125788596Y-129063276D01*
X125794861Y-129070958D01*
X126043668Y-129371713D01*
X126089323Y-129417050D01*
X126134353Y-129463033D01*
X126141991Y-129469351D01*
X126444476Y-129716052D01*
X126498041Y-129751640D01*
X126551171Y-129788020D01*
X126559891Y-129792734D01*
X126904533Y-129975984D01*
X126963995Y-130000492D01*
X127023177Y-130025858D01*
X127032647Y-130028789D01*
X127406318Y-130141607D01*
X127469456Y-130154108D01*
X127532388Y-130167485D01*
X127542247Y-130168521D01*
X127929984Y-130206539D01*
X127965123Y-130210000D01*
X172034877Y-130210000D01*
X172065921Y-130206943D01*
X172078313Y-130207029D01*
X172088179Y-130206061D01*
X172476371Y-130165261D01*
X172539396Y-130152323D01*
X172602618Y-130140263D01*
X172612109Y-130137398D01*
X172984983Y-130021974D01*
X173044299Y-129997040D01*
X173103971Y-129972931D01*
X173112724Y-129968277D01*
X173456079Y-129782626D01*
X173509424Y-129746644D01*
X173563276Y-129711404D01*
X173570958Y-129705139D01*
X173871713Y-129456332D01*
X173917050Y-129410677D01*
X173963033Y-129365647D01*
X173969351Y-129358009D01*
X174216052Y-129055524D01*
X174251640Y-129001959D01*
X174288020Y-128948829D01*
X174292734Y-128940109D01*
X174475984Y-128595467D01*
X174500492Y-128536005D01*
X174525858Y-128476823D01*
X174528789Y-128467353D01*
X174641607Y-128093682D01*
X174654108Y-128030544D01*
X174667485Y-127967612D01*
X174668521Y-127957753D01*
X174706611Y-127569284D01*
X174710000Y-127534877D01*
X174710000Y-118465123D01*
X174706943Y-118434079D01*
X174707029Y-118421687D01*
X174706061Y-118411821D01*
X174665260Y-118023628D01*
X174652330Y-117960640D01*
X174640263Y-117897381D01*
X174637398Y-117887891D01*
X174521974Y-117515016D01*
X174497029Y-117455675D01*
X174472931Y-117396029D01*
X174468277Y-117387276D01*
X174282626Y-117043921D01*
X174246644Y-116990576D01*
X174211404Y-116936724D01*
X174205138Y-116929042D01*
X173956332Y-116628287D01*
X173910677Y-116582950D01*
X173865647Y-116536967D01*
X173858009Y-116530648D01*
X173555524Y-116283948D01*
X173501941Y-116248348D01*
X173448828Y-116211980D01*
X173440108Y-116207265D01*
X173095467Y-116024016D01*
X173035993Y-115999503D01*
X172976823Y-115974142D01*
X172967353Y-115971211D01*
X172593681Y-115858393D01*
X172530551Y-115845893D01*
X172467612Y-115832515D01*
X172457753Y-115831479D01*
X172070016Y-115793461D01*
X172034877Y-115790000D01*
X127965123Y-115790000D01*
X127934079Y-115793057D01*
X127921687Y-115792971D01*
X127911821Y-115793939D01*
X127523628Y-115834740D01*
X127460640Y-115847670D01*
X127397381Y-115859737D01*
X127387891Y-115862602D01*
X127015016Y-115978026D01*
X126955675Y-116002971D01*
X126896029Y-116027069D01*
X126887276Y-116031723D01*
X126543921Y-116217374D01*
X126490576Y-116253356D01*
X126436724Y-116288596D01*
X126429042Y-116294862D01*
X126128287Y-116543668D01*
X126082950Y-116589323D01*
X126036967Y-116634353D01*
X126030648Y-116641991D01*
X125783948Y-116944476D01*
X125748348Y-116998059D01*
X125711980Y-117051172D01*
X125707265Y-117059892D01*
X125524016Y-117404533D01*
X125499503Y-117464007D01*
X125474142Y-117523177D01*
X125471211Y-117532647D01*
X125358393Y-117906319D01*
X125345893Y-117969449D01*
X125332515Y-118032388D01*
X125331479Y-118042247D01*
X125293439Y-118430210D01*
X125290000Y-118465124D01*
X113071243Y-118465124D01*
X113038708Y-118404537D01*
X111975811Y-116094259D01*
X111894488Y-115884340D01*
X122825682Y-115884340D01*
X122825682Y-116115660D01*
X122870810Y-116342536D01*
X122959333Y-116556248D01*
X123087848Y-116748584D01*
X123251416Y-116912152D01*
X123443752Y-117040667D01*
X123657464Y-117129190D01*
X123884340Y-117174318D01*
X124115660Y-117174318D01*
X124342536Y-117129190D01*
X124556248Y-117040667D01*
X124748584Y-116912152D01*
X124912152Y-116748584D01*
X125040667Y-116556248D01*
X125129190Y-116342536D01*
X125174318Y-116115660D01*
X125174318Y-115884340D01*
X125129190Y-115657464D01*
X125040667Y-115443752D01*
X124912152Y-115251416D01*
X124748584Y-115087848D01*
X124556248Y-114959333D01*
X124342536Y-114870810D01*
X124115660Y-114825682D01*
X123884340Y-114825682D01*
X123657464Y-114870810D01*
X123443752Y-114959333D01*
X123251416Y-115087848D01*
X123087848Y-115251416D01*
X122959333Y-115443752D01*
X122870810Y-115657464D01*
X122825682Y-115884340D01*
X111894488Y-115884340D01*
X111057153Y-113722930D01*
X110286219Y-111299545D01*
X109665933Y-108833297D01*
X109198648Y-106333541D01*
X108886136Y-103809761D01*
X108729583Y-101271528D01*
X108729583Y-98728472D01*
X108886136Y-96190239D01*
X109198648Y-93666459D01*
X109317621Y-93030009D01*
X126061313Y-93030009D01*
X126064990Y-93067341D01*
X126064989Y-107187667D01*
X126061313Y-107224989D01*
X126064989Y-107262311D01*
X126064989Y-107262321D01*
X126075986Y-107373974D01*
X126119443Y-107517235D01*
X126190015Y-107649265D01*
X126229860Y-107697815D01*
X126284988Y-107764990D01*
X126313991Y-107788792D01*
X126786200Y-108261002D01*
X126809999Y-108290001D01*
X126925724Y-108384974D01*
X127030035Y-108440730D01*
X127069463Y-108514494D01*
X127148815Y-108611185D01*
X127245506Y-108690537D01*
X127355820Y-108749502D01*
X127475518Y-108785812D01*
X127600000Y-108798072D01*
X128541300Y-108798072D01*
X128550273Y-108889184D01*
X128590872Y-109023020D01*
X128656800Y-109146363D01*
X128745525Y-109254475D01*
X128853637Y-109343200D01*
X128976980Y-109409128D01*
X129110816Y-109449727D01*
X129250000Y-109463435D01*
X129284877Y-109460000D01*
X132715123Y-109460000D01*
X132750000Y-109463435D01*
X132784877Y-109460000D01*
X132889184Y-109449727D01*
X133023020Y-109409128D01*
X133146363Y-109343200D01*
X133254475Y-109254475D01*
X133343200Y-109146363D01*
X133409128Y-109023020D01*
X133449727Y-108889184D01*
X133463435Y-108750000D01*
X133460000Y-108715123D01*
X133460000Y-107877000D01*
X133627000Y-107877000D01*
X133627000Y-108636250D01*
X133785750Y-108795000D01*
X134400000Y-108798072D01*
X134524482Y-108785812D01*
X134644180Y-108749502D01*
X134754494Y-108690537D01*
X134851185Y-108611185D01*
X134930537Y-108514494D01*
X134989502Y-108404180D01*
X135025812Y-108284482D01*
X135038072Y-108160000D01*
X135035000Y-108035750D01*
X134876250Y-107877000D01*
X133627000Y-107877000D01*
X133460000Y-107877000D01*
X133460000Y-107603000D01*
X133627000Y-107603000D01*
X133627000Y-107623000D01*
X134876250Y-107623000D01*
X135035000Y-107464250D01*
X135038072Y-107340000D01*
X135025812Y-107215518D01*
X134989502Y-107095820D01*
X134943630Y-107010000D01*
X163535199Y-107010000D01*
X164786201Y-108261003D01*
X164809999Y-108290001D01*
X164925724Y-108384974D01*
X165030035Y-108440730D01*
X165069463Y-108514494D01*
X165148815Y-108611185D01*
X165245506Y-108690537D01*
X165355820Y-108749502D01*
X165475518Y-108785812D01*
X165600000Y-108798072D01*
X166541300Y-108798072D01*
X166550273Y-108889184D01*
X166590872Y-109023020D01*
X166656800Y-109146363D01*
X166745525Y-109254475D01*
X166853637Y-109343200D01*
X166976980Y-109409128D01*
X167110816Y-109449727D01*
X167250000Y-109463435D01*
X167284877Y-109460000D01*
X170715123Y-109460000D01*
X170750000Y-109463435D01*
X170784877Y-109460000D01*
X170889184Y-109449727D01*
X171023020Y-109409128D01*
X171146363Y-109343200D01*
X171254475Y-109254475D01*
X171343200Y-109146363D01*
X171409128Y-109023020D01*
X171449727Y-108889184D01*
X171463435Y-108750000D01*
X171460000Y-108715123D01*
X171460000Y-107877000D01*
X171627000Y-107877000D01*
X171627000Y-108636250D01*
X171785750Y-108795000D01*
X172400000Y-108798072D01*
X172524482Y-108785812D01*
X172644180Y-108749502D01*
X172754494Y-108690537D01*
X172851185Y-108611185D01*
X172930537Y-108514494D01*
X172989502Y-108404180D01*
X173025812Y-108284482D01*
X173038072Y-108160000D01*
X173035000Y-108035750D01*
X172876250Y-107877000D01*
X171627000Y-107877000D01*
X171460000Y-107877000D01*
X171460000Y-107603000D01*
X171627000Y-107603000D01*
X171627000Y-107623000D01*
X172876250Y-107623000D01*
X173035000Y-107464250D01*
X173038072Y-107340000D01*
X173025812Y-107215518D01*
X172989502Y-107095820D01*
X172938284Y-107000000D01*
X172989502Y-106904180D01*
X173025812Y-106784482D01*
X173038072Y-106660000D01*
X173038072Y-105840000D01*
X173025812Y-105715518D01*
X172989502Y-105595820D01*
X172930537Y-105485506D01*
X172851185Y-105388815D01*
X172754494Y-105309463D01*
X172644180Y-105250498D01*
X172524482Y-105214188D01*
X172400000Y-105201928D01*
X172223708Y-105201928D01*
X172205546Y-105142054D01*
X172134974Y-105010025D01*
X172040001Y-104894300D01*
X172011004Y-104870503D01*
X167260000Y-100119500D01*
X167260000Y-96462450D01*
X167284877Y-96460000D01*
X170715123Y-96460000D01*
X170750000Y-96463435D01*
X170784877Y-96460000D01*
X170889184Y-96449727D01*
X171023020Y-96409128D01*
X171146363Y-96343200D01*
X171254475Y-96254475D01*
X171343200Y-96146363D01*
X171409128Y-96023020D01*
X171449727Y-95889184D01*
X171463435Y-95750000D01*
X171460000Y-95715123D01*
X171460000Y-94877000D01*
X171627000Y-94877000D01*
X171627000Y-95636250D01*
X171785750Y-95795000D01*
X172400000Y-95798072D01*
X172524482Y-95785812D01*
X172644180Y-95749502D01*
X172754494Y-95690537D01*
X172851185Y-95611185D01*
X172930537Y-95514494D01*
X172989502Y-95404180D01*
X173025812Y-95284482D01*
X173038072Y-95160000D01*
X173035000Y-95035750D01*
X172876250Y-94877000D01*
X171627000Y-94877000D01*
X171460000Y-94877000D01*
X171460000Y-94603000D01*
X171627000Y-94603000D01*
X171627000Y-94623000D01*
X172876250Y-94623000D01*
X173035000Y-94464250D01*
X173038072Y-94340000D01*
X173025812Y-94215518D01*
X172989502Y-94095820D01*
X172938284Y-94000000D01*
X172989502Y-93904180D01*
X173025812Y-93784482D01*
X173038072Y-93660000D01*
X173038072Y-92840000D01*
X173025812Y-92715518D01*
X172989502Y-92595820D01*
X172930537Y-92485506D01*
X172851185Y-92388815D01*
X172754494Y-92309463D01*
X172644180Y-92250498D01*
X172524482Y-92214188D01*
X172400000Y-92201928D01*
X171910010Y-92201928D01*
X171910010Y-80281422D01*
X181550738Y-80281422D01*
X181550738Y-80718578D01*
X181636023Y-81147335D01*
X181803316Y-81551215D01*
X182046187Y-81914697D01*
X182355303Y-82223813D01*
X182718785Y-82466684D01*
X183122665Y-82633977D01*
X183551422Y-82719262D01*
X183988578Y-82719262D01*
X184417335Y-82633977D01*
X184821215Y-82466684D01*
X185184697Y-82223813D01*
X185493813Y-81914697D01*
X185736684Y-81551215D01*
X185903977Y-81147335D01*
X185989262Y-80718578D01*
X185989262Y-80281422D01*
X185903977Y-79852665D01*
X185736684Y-79448785D01*
X185493813Y-79085303D01*
X185184697Y-78776187D01*
X184821215Y-78533316D01*
X184417335Y-78366023D01*
X183988578Y-78280738D01*
X183551422Y-78280738D01*
X183122665Y-78366023D01*
X182718785Y-78533316D01*
X182355303Y-78776187D01*
X182046187Y-79085303D01*
X181803316Y-79448785D01*
X181636023Y-79852665D01*
X181550738Y-80281422D01*
X171910010Y-80281422D01*
X171910010Y-72677035D01*
X172764250Y-72675000D01*
X172923000Y-72516250D01*
X172923000Y-71667000D01*
X173177000Y-71667000D01*
X173177000Y-72516250D01*
X173335750Y-72675000D01*
X174625000Y-72678072D01*
X174749482Y-72665812D01*
X174869180Y-72629502D01*
X174979494Y-72570537D01*
X175076185Y-72491185D01*
X175155537Y-72394494D01*
X175214502Y-72284180D01*
X175250812Y-72164482D01*
X175263072Y-72040000D01*
X175260000Y-71825750D01*
X175101250Y-71667000D01*
X173177000Y-71667000D01*
X172923000Y-71667000D01*
X172903000Y-71667000D01*
X172903000Y-71413000D01*
X172923000Y-71413000D01*
X172923000Y-70563750D01*
X173177000Y-70563750D01*
X173177000Y-71413000D01*
X175101250Y-71413000D01*
X175260000Y-71254250D01*
X175263072Y-71040000D01*
X175250812Y-70915518D01*
X175214502Y-70795820D01*
X175155537Y-70685506D01*
X175076185Y-70588815D01*
X174979494Y-70509463D01*
X174869180Y-70450498D01*
X174749482Y-70414188D01*
X174625000Y-70401928D01*
X173335750Y-70405000D01*
X173177000Y-70563750D01*
X172923000Y-70563750D01*
X172764250Y-70405000D01*
X171475000Y-70401928D01*
X171350518Y-70414188D01*
X171230820Y-70450498D01*
X171120506Y-70509463D01*
X171023815Y-70588815D01*
X170944463Y-70685506D01*
X170885498Y-70795820D01*
X170882036Y-70807234D01*
X170026076Y-69951274D01*
X170026185Y-69951185D01*
X170105537Y-69854494D01*
X170164502Y-69744180D01*
X170200812Y-69624482D01*
X170213072Y-69500000D01*
X170213072Y-68500000D01*
X170836928Y-68500000D01*
X170836928Y-69500000D01*
X170849188Y-69624482D01*
X170885498Y-69744180D01*
X170944463Y-69854494D01*
X171023815Y-69951185D01*
X171120506Y-70030537D01*
X171230820Y-70089502D01*
X171350518Y-70125812D01*
X171475000Y-70138072D01*
X174625000Y-70138072D01*
X174749482Y-70125812D01*
X174869180Y-70089502D01*
X174979494Y-70030537D01*
X175076185Y-69951185D01*
X175155537Y-69854494D01*
X175214502Y-69744180D01*
X175250812Y-69624482D01*
X175263072Y-69500000D01*
X175263072Y-68500000D01*
X175250812Y-68375518D01*
X175214502Y-68255820D01*
X175155537Y-68145506D01*
X175076185Y-68048815D01*
X174979494Y-67969463D01*
X174869180Y-67910498D01*
X174749482Y-67874188D01*
X174625000Y-67861928D01*
X171475000Y-67861928D01*
X171350518Y-67874188D01*
X171230820Y-67910498D01*
X171120506Y-67969463D01*
X171023815Y-68048815D01*
X170944463Y-68145506D01*
X170885498Y-68255820D01*
X170849188Y-68375518D01*
X170836928Y-68500000D01*
X170213072Y-68500000D01*
X170200812Y-68375518D01*
X170164502Y-68255820D01*
X170105537Y-68145506D01*
X170026185Y-68048815D01*
X169929494Y-67969463D01*
X169819180Y-67910498D01*
X169699482Y-67874188D01*
X169575000Y-67861928D01*
X166425000Y-67861928D01*
X166300518Y-67874188D01*
X166180820Y-67910498D01*
X166070506Y-67969463D01*
X165973815Y-68048815D01*
X165894463Y-68145506D01*
X165835498Y-68255820D01*
X165799188Y-68375518D01*
X165786928Y-68500000D01*
X165786928Y-69500000D01*
X165799188Y-69624482D01*
X165835498Y-69744180D01*
X165894463Y-69854494D01*
X165973815Y-69951185D01*
X166070506Y-70030537D01*
X166180820Y-70089502D01*
X166300518Y-70125812D01*
X166425000Y-70138072D01*
X168063271Y-70138072D01*
X168327127Y-70401928D01*
X166425000Y-70401928D01*
X166300518Y-70414188D01*
X166180820Y-70450498D01*
X166070506Y-70509463D01*
X165973815Y-70588815D01*
X165894463Y-70685506D01*
X165835498Y-70795820D01*
X165799188Y-70915518D01*
X165786928Y-71040000D01*
X165786928Y-72040000D01*
X165799188Y-72164482D01*
X165835498Y-72284180D01*
X165894463Y-72394494D01*
X165973815Y-72491185D01*
X165973924Y-72491275D01*
X165887423Y-72577776D01*
X165858419Y-72601579D01*
X165805705Y-72665812D01*
X165763446Y-72717304D01*
X165727270Y-72784984D01*
X165692874Y-72849334D01*
X165649417Y-72992595D01*
X165638420Y-73104248D01*
X165638420Y-73104258D01*
X165634744Y-73141580D01*
X165638420Y-73178902D01*
X165638421Y-92201928D01*
X165600000Y-92201928D01*
X165475518Y-92214188D01*
X165355820Y-92250498D01*
X165245506Y-92309463D01*
X165148815Y-92388815D01*
X165069463Y-92485506D01*
X165030035Y-92559270D01*
X164925724Y-92615026D01*
X164809999Y-92709999D01*
X164786200Y-92738998D01*
X164763999Y-92761199D01*
X164734998Y-92785000D01*
X164689861Y-92840000D01*
X164640025Y-92900725D01*
X164613833Y-92949727D01*
X164569453Y-93032755D01*
X164525996Y-93176016D01*
X164514999Y-93287669D01*
X164514999Y-93287679D01*
X164511323Y-93325001D01*
X164514999Y-93362323D01*
X164515000Y-104089990D01*
X129121644Y-104089990D01*
X129084311Y-104086313D01*
X129046978Y-104089990D01*
X128935325Y-104100987D01*
X128792064Y-104144444D01*
X128660035Y-104215016D01*
X128544310Y-104309989D01*
X128520511Y-104338988D01*
X128092150Y-104767349D01*
X128034999Y-104710198D01*
X128034999Y-99732413D01*
X147283146Y-99732413D01*
X147283146Y-100267587D01*
X147387553Y-100792477D01*
X147592355Y-101286913D01*
X147889681Y-101731894D01*
X148268106Y-102110319D01*
X148713087Y-102407645D01*
X149207523Y-102612447D01*
X149732413Y-102716854D01*
X150267587Y-102716854D01*
X150792477Y-102612447D01*
X151286913Y-102407645D01*
X151731894Y-102110319D01*
X152110319Y-101731894D01*
X152407645Y-101286913D01*
X152612447Y-100792477D01*
X152716854Y-100267587D01*
X152716854Y-99732413D01*
X152612447Y-99207523D01*
X152407645Y-98713087D01*
X152110319Y-98268106D01*
X151731894Y-97889681D01*
X151286913Y-97592355D01*
X150792477Y-97387553D01*
X150267587Y-97283146D01*
X149732413Y-97283146D01*
X149207523Y-97387553D01*
X148713087Y-97592355D01*
X148268106Y-97889681D01*
X147889681Y-98268106D01*
X147592355Y-98713087D01*
X147387553Y-99207523D01*
X147283146Y-99732413D01*
X128034999Y-99732413D01*
X128034999Y-95798072D01*
X128541300Y-95798072D01*
X128550273Y-95889184D01*
X128590872Y-96023020D01*
X128656800Y-96146363D01*
X128745525Y-96254475D01*
X128853637Y-96343200D01*
X128976980Y-96409128D01*
X129110816Y-96449727D01*
X129250000Y-96463435D01*
X129284877Y-96460000D01*
X132715123Y-96460000D01*
X132750000Y-96463435D01*
X132784877Y-96460000D01*
X132889184Y-96449727D01*
X133023020Y-96409128D01*
X133146363Y-96343200D01*
X133254475Y-96254475D01*
X133343200Y-96146363D01*
X133409128Y-96023020D01*
X133449727Y-95889184D01*
X133463435Y-95750000D01*
X133460000Y-95715123D01*
X133460000Y-94877000D01*
X133627000Y-94877000D01*
X133627000Y-95636250D01*
X133785750Y-95795000D01*
X134400000Y-95798072D01*
X134524482Y-95785812D01*
X134644180Y-95749502D01*
X134754494Y-95690537D01*
X134851185Y-95611185D01*
X134930537Y-95514494D01*
X134989502Y-95404180D01*
X135025812Y-95284482D01*
X135038072Y-95160000D01*
X135035000Y-95035750D01*
X134876250Y-94877000D01*
X133627000Y-94877000D01*
X133460000Y-94877000D01*
X133460000Y-94603000D01*
X133627000Y-94603000D01*
X133627000Y-94623000D01*
X134876250Y-94623000D01*
X135035000Y-94464250D01*
X135038072Y-94340000D01*
X135025812Y-94215518D01*
X134989502Y-94095820D01*
X134938284Y-94000000D01*
X134989502Y-93904180D01*
X135025812Y-93784482D01*
X135038072Y-93660000D01*
X135038072Y-92840000D01*
X135025812Y-92715518D01*
X134989502Y-92595820D01*
X134930537Y-92485506D01*
X134851185Y-92388815D01*
X134754494Y-92309463D01*
X134644180Y-92250498D01*
X134524482Y-92214188D01*
X134400000Y-92201928D01*
X134223708Y-92201928D01*
X134205546Y-92142054D01*
X134134974Y-92010025D01*
X134125906Y-91998975D01*
X134040001Y-91894300D01*
X134011004Y-91870503D01*
X133479492Y-91338992D01*
X133455690Y-91309989D01*
X133339965Y-91215016D01*
X133207936Y-91144444D01*
X133064675Y-91100987D01*
X132953022Y-91089990D01*
X132953011Y-91089990D01*
X132915689Y-91086314D01*
X132878367Y-91089990D01*
X128042331Y-91089990D01*
X128005008Y-91086314D01*
X127967685Y-91089990D01*
X127967675Y-91089990D01*
X127856022Y-91100987D01*
X127712761Y-91144444D01*
X127580731Y-91215016D01*
X127497091Y-91283658D01*
X127465007Y-91309989D01*
X127441209Y-91338987D01*
X126313987Y-92466210D01*
X126284989Y-92490008D01*
X126261191Y-92519006D01*
X126261190Y-92519007D01*
X126190015Y-92605733D01*
X126119443Y-92737763D01*
X126096318Y-92813999D01*
X126075987Y-92881023D01*
X126074046Y-92900726D01*
X126061313Y-93030009D01*
X109317621Y-93030009D01*
X109665933Y-91166703D01*
X110286219Y-88700455D01*
X111057153Y-86277070D01*
X111975811Y-83905741D01*
X113038708Y-81595463D01*
X113744332Y-80281422D01*
X114000738Y-80281422D01*
X114000738Y-80718578D01*
X114086023Y-81147335D01*
X114253316Y-81551215D01*
X114496187Y-81914697D01*
X114805303Y-82223813D01*
X115168785Y-82466684D01*
X115572665Y-82633977D01*
X116001422Y-82719262D01*
X116438578Y-82719262D01*
X116867335Y-82633977D01*
X117271215Y-82466684D01*
X117634697Y-82223813D01*
X117943813Y-81914697D01*
X118186684Y-81551215D01*
X118353977Y-81147335D01*
X118439262Y-80718578D01*
X118439262Y-80281422D01*
X118353977Y-79852665D01*
X118186684Y-79448785D01*
X117943813Y-79085303D01*
X117634697Y-78776187D01*
X117271215Y-78533316D01*
X116867335Y-78366023D01*
X116438578Y-78280738D01*
X116001422Y-78280738D01*
X115572665Y-78366023D01*
X115168785Y-78533316D01*
X114805303Y-78776187D01*
X114496187Y-79085303D01*
X114253316Y-79448785D01*
X114086023Y-79852665D01*
X114000738Y-80281422D01*
X113744332Y-80281422D01*
X114241811Y-79355000D01*
X115580558Y-77192850D01*
X117049869Y-75117216D01*
X118644171Y-73135970D01*
X120357417Y-71256629D01*
X122183107Y-69486322D01*
X124114316Y-67831763D01*
X126143719Y-66299229D01*
X128263616Y-64894534D01*
X130465967Y-63623006D01*
X132742417Y-62489469D01*
X135084332Y-61498222D01*
X137482826Y-60653025D01*
X139928802Y-59957085D01*
X142412982Y-59413041D01*
X144925942Y-59022957D01*
X147458150Y-58788314D01*
X150000000Y-58710000D01*
X152541850Y-58788314D01*
%TA.AperFunction,Conductor*%
D14*
G36*
X152541850Y-58788314D02*
G01*
X155074058Y-59022957D01*
X157587018Y-59413041D01*
X160071198Y-59957085D01*
X162517174Y-60653025D01*
X164915668Y-61498222D01*
X167257583Y-62489469D01*
X169534033Y-63623006D01*
X171736384Y-64894534D01*
X173856281Y-66299229D01*
X175885684Y-67831763D01*
X177816893Y-69486322D01*
X179642583Y-71256629D01*
X181355829Y-73135970D01*
X182950131Y-75117216D01*
X184419442Y-77192850D01*
X185758189Y-79355000D01*
X186961292Y-81595463D01*
X188024189Y-83905741D01*
X188942847Y-86277070D01*
X189713781Y-88700455D01*
X190334067Y-91166703D01*
X190801352Y-93666459D01*
X191113864Y-96190239D01*
X191270417Y-98728472D01*
X191270417Y-101271528D01*
X191113864Y-103809761D01*
X190801352Y-106333541D01*
X190334067Y-108833297D01*
X189713781Y-111299545D01*
X188942847Y-113722930D01*
X188024189Y-116094259D01*
X186961292Y-118404537D01*
X185758189Y-120645000D01*
X184419442Y-122807150D01*
X182950131Y-124882784D01*
X181355829Y-126864030D01*
X179642583Y-128743371D01*
X177816893Y-130513678D01*
X175885684Y-132168237D01*
X173856281Y-133700771D01*
X171736384Y-135105466D01*
X169534033Y-136376994D01*
X167257583Y-137510531D01*
X164915668Y-138501778D01*
X162517174Y-139346975D01*
X160071198Y-140042915D01*
X157587018Y-140586959D01*
X155074058Y-140977043D01*
X152541850Y-141211686D01*
X150000000Y-141290000D01*
X147458150Y-141211686D01*
X144925942Y-140977043D01*
X142412982Y-140586959D01*
X139928802Y-140042915D01*
X137482826Y-139346975D01*
X135877904Y-138781422D01*
X147780738Y-138781422D01*
X147780738Y-139218578D01*
X147866023Y-139647335D01*
X148033316Y-140051215D01*
X148276187Y-140414697D01*
X148585303Y-140723813D01*
X148948785Y-140966684D01*
X149352665Y-141133977D01*
X149781422Y-141219262D01*
X150218578Y-141219262D01*
X150647335Y-141133977D01*
X151051215Y-140966684D01*
X151414697Y-140723813D01*
X151723813Y-140414697D01*
X151966684Y-140051215D01*
X152133977Y-139647335D01*
X152219262Y-139218578D01*
X152219262Y-138781422D01*
X152133977Y-138352665D01*
X151966684Y-137948785D01*
X151723813Y-137585303D01*
X151414697Y-137276187D01*
X151051215Y-137033316D01*
X150647335Y-136866023D01*
X150218578Y-136780738D01*
X149781422Y-136780738D01*
X149352665Y-136866023D01*
X148948785Y-137033316D01*
X148585303Y-137276187D01*
X148276187Y-137585303D01*
X148033316Y-137948785D01*
X147866023Y-138352665D01*
X147780738Y-138781422D01*
X135877904Y-138781422D01*
X135084332Y-138501778D01*
X132742417Y-137510531D01*
X130465967Y-136376994D01*
X128263616Y-135105466D01*
X126143719Y-133700771D01*
X124114316Y-132168237D01*
X122183107Y-130513678D01*
X120357417Y-128743371D01*
X118644171Y-126864030D01*
X117049869Y-124882784D01*
X115580558Y-122807150D01*
X114241811Y-120645000D01*
X113071243Y-118465124D01*
X125290000Y-118465124D01*
X125290001Y-127534877D01*
X125293058Y-127565912D01*
X125292971Y-127578313D01*
X125293939Y-127588179D01*
X125334739Y-127976371D01*
X125347677Y-128039396D01*
X125359737Y-128102618D01*
X125362602Y-128112109D01*
X125478026Y-128484983D01*
X125502960Y-128544299D01*
X125527069Y-128603971D01*
X125531723Y-128612724D01*
X125717374Y-128956079D01*
X125753356Y-129009424D01*
X125788596Y-129063276D01*
X125794861Y-129070958D01*
X126043668Y-129371713D01*
X126089323Y-129417050D01*
X126134353Y-129463033D01*
X126141991Y-129469351D01*
X126444476Y-129716052D01*
X126498041Y-129751640D01*
X126551171Y-129788020D01*
X126559891Y-129792734D01*
X126904533Y-129975984D01*
X126963995Y-130000492D01*
X127023177Y-130025858D01*
X127032647Y-130028789D01*
X127406318Y-130141607D01*
X127469456Y-130154108D01*
X127532388Y-130167485D01*
X127542247Y-130168521D01*
X127929984Y-130206539D01*
X127965123Y-130210000D01*
X172034877Y-130210000D01*
X172065921Y-130206943D01*
X172078313Y-130207029D01*
X172088179Y-130206061D01*
X172476371Y-130165261D01*
X172539396Y-130152323D01*
X172602618Y-130140263D01*
X172612109Y-130137398D01*
X172984983Y-130021974D01*
X173044299Y-129997040D01*
X173103971Y-129972931D01*
X173112724Y-129968277D01*
X173456079Y-129782626D01*
X173509424Y-129746644D01*
X173563276Y-129711404D01*
X173570958Y-129705139D01*
X173871713Y-129456332D01*
X173917050Y-129410677D01*
X173963033Y-129365647D01*
X173969351Y-129358009D01*
X174216052Y-129055524D01*
X174251640Y-129001959D01*
X174288020Y-128948829D01*
X174292734Y-128940109D01*
X174475984Y-128595467D01*
X174500492Y-128536005D01*
X174525858Y-128476823D01*
X174528789Y-128467353D01*
X174641607Y-128093682D01*
X174654108Y-128030544D01*
X174667485Y-127967612D01*
X174668521Y-127957753D01*
X174706611Y-127569284D01*
X174710000Y-127534877D01*
X174710000Y-118465123D01*
X174706943Y-118434079D01*
X174707029Y-118421687D01*
X174706061Y-118411821D01*
X174665260Y-118023628D01*
X174652330Y-117960640D01*
X174640263Y-117897381D01*
X174637398Y-117887891D01*
X174521974Y-117515016D01*
X174497029Y-117455675D01*
X174472931Y-117396029D01*
X174468277Y-117387276D01*
X174282626Y-117043921D01*
X174246644Y-116990576D01*
X174211404Y-116936724D01*
X174205138Y-116929042D01*
X173956332Y-116628287D01*
X173910677Y-116582950D01*
X173865647Y-116536967D01*
X173858009Y-116530648D01*
X173555524Y-116283948D01*
X173501941Y-116248348D01*
X173448828Y-116211980D01*
X173440108Y-116207265D01*
X173095467Y-116024016D01*
X173035993Y-115999503D01*
X172976823Y-115974142D01*
X172967353Y-115971211D01*
X172593681Y-115858393D01*
X172530551Y-115845893D01*
X172467612Y-115832515D01*
X172457753Y-115831479D01*
X172070016Y-115793461D01*
X172034877Y-115790000D01*
X127965123Y-115790000D01*
X127934079Y-115793057D01*
X127921687Y-115792971D01*
X127911821Y-115793939D01*
X127523628Y-115834740D01*
X127460640Y-115847670D01*
X127397381Y-115859737D01*
X127387891Y-115862602D01*
X127015016Y-115978026D01*
X126955675Y-116002971D01*
X126896029Y-116027069D01*
X126887276Y-116031723D01*
X126543921Y-116217374D01*
X126490576Y-116253356D01*
X126436724Y-116288596D01*
X126429042Y-116294862D01*
X126128287Y-116543668D01*
X126082950Y-116589323D01*
X126036967Y-116634353D01*
X126030648Y-116641991D01*
X125783948Y-116944476D01*
X125748348Y-116998059D01*
X125711980Y-117051172D01*
X125707265Y-117059892D01*
X125524016Y-117404533D01*
X125499503Y-117464007D01*
X125474142Y-117523177D01*
X125471211Y-117532647D01*
X125358393Y-117906319D01*
X125345893Y-117969449D01*
X125332515Y-118032388D01*
X125331479Y-118042247D01*
X125293439Y-118430210D01*
X125290000Y-118465124D01*
X113071243Y-118465124D01*
X113038708Y-118404537D01*
X111975811Y-116094259D01*
X111894488Y-115884340D01*
X122825682Y-115884340D01*
X122825682Y-116115660D01*
X122870810Y-116342536D01*
X122959333Y-116556248D01*
X123087848Y-116748584D01*
X123251416Y-116912152D01*
X123443752Y-117040667D01*
X123657464Y-117129190D01*
X123884340Y-117174318D01*
X124115660Y-117174318D01*
X124342536Y-117129190D01*
X124556248Y-117040667D01*
X124748584Y-116912152D01*
X124912152Y-116748584D01*
X125040667Y-116556248D01*
X125129190Y-116342536D01*
X125174318Y-116115660D01*
X125174318Y-115884340D01*
X125129190Y-115657464D01*
X125040667Y-115443752D01*
X124912152Y-115251416D01*
X124748584Y-115087848D01*
X124556248Y-114959333D01*
X124342536Y-114870810D01*
X124115660Y-114825682D01*
X123884340Y-114825682D01*
X123657464Y-114870810D01*
X123443752Y-114959333D01*
X123251416Y-115087848D01*
X123087848Y-115251416D01*
X122959333Y-115443752D01*
X122870810Y-115657464D01*
X122825682Y-115884340D01*
X111894488Y-115884340D01*
X111057153Y-113722930D01*
X110286219Y-111299545D01*
X109665933Y-108833297D01*
X109198648Y-106333541D01*
X108886136Y-103809761D01*
X108729583Y-101271528D01*
X108729583Y-98728472D01*
X108886136Y-96190239D01*
X109198648Y-93666459D01*
X109317621Y-93030009D01*
X126061313Y-93030009D01*
X126064990Y-93067341D01*
X126064989Y-107187667D01*
X126061313Y-107224989D01*
X126064989Y-107262311D01*
X126064989Y-107262321D01*
X126075986Y-107373974D01*
X126119443Y-107517235D01*
X126190015Y-107649265D01*
X126229860Y-107697815D01*
X126284988Y-107764990D01*
X126313991Y-107788792D01*
X126786200Y-108261002D01*
X126809999Y-108290001D01*
X126925724Y-108384974D01*
X127030035Y-108440730D01*
X127069463Y-108514494D01*
X127148815Y-108611185D01*
X127245506Y-108690537D01*
X127355820Y-108749502D01*
X127475518Y-108785812D01*
X127600000Y-108798072D01*
X128541300Y-108798072D01*
X128550273Y-108889184D01*
X128590872Y-109023020D01*
X128656800Y-109146363D01*
X128745525Y-109254475D01*
X128853637Y-109343200D01*
X128976980Y-109409128D01*
X129110816Y-109449727D01*
X129250000Y-109463435D01*
X129284877Y-109460000D01*
X132715123Y-109460000D01*
X132750000Y-109463435D01*
X132784877Y-109460000D01*
X132889184Y-109449727D01*
X133023020Y-109409128D01*
X133146363Y-109343200D01*
X133254475Y-109254475D01*
X133343200Y-109146363D01*
X133409128Y-109023020D01*
X133449727Y-108889184D01*
X133463435Y-108750000D01*
X133460000Y-108715123D01*
X133460000Y-107877000D01*
X133627000Y-107877000D01*
X133627000Y-108636250D01*
X133785750Y-108795000D01*
X134400000Y-108798072D01*
X134524482Y-108785812D01*
X134644180Y-108749502D01*
X134754494Y-108690537D01*
X134851185Y-108611185D01*
X134930537Y-108514494D01*
X134989502Y-108404180D01*
X135025812Y-108284482D01*
X135038072Y-108160000D01*
X135035000Y-108035750D01*
X134876250Y-107877000D01*
X133627000Y-107877000D01*
X133460000Y-107877000D01*
X133460000Y-107603000D01*
X133627000Y-107603000D01*
X133627000Y-107623000D01*
X134876250Y-107623000D01*
X135035000Y-107464250D01*
X135038072Y-107340000D01*
X135025812Y-107215518D01*
X134989502Y-107095820D01*
X134943630Y-107010000D01*
X163535199Y-107010000D01*
X164786201Y-108261003D01*
X164809999Y-108290001D01*
X164925724Y-108384974D01*
X165030035Y-108440730D01*
X165069463Y-108514494D01*
X165148815Y-108611185D01*
X165245506Y-108690537D01*
X165355820Y-108749502D01*
X165475518Y-108785812D01*
X165600000Y-108798072D01*
X166541300Y-108798072D01*
X166550273Y-108889184D01*
X166590872Y-109023020D01*
X166656800Y-109146363D01*
X166745525Y-109254475D01*
X166853637Y-109343200D01*
X166976980Y-109409128D01*
X167110816Y-109449727D01*
X167250000Y-109463435D01*
X167284877Y-109460000D01*
X170715123Y-109460000D01*
X170750000Y-109463435D01*
X170784877Y-109460000D01*
X170889184Y-109449727D01*
X171023020Y-109409128D01*
X171146363Y-109343200D01*
X171254475Y-109254475D01*
X171343200Y-109146363D01*
X171409128Y-109023020D01*
X171449727Y-108889184D01*
X171463435Y-108750000D01*
X171460000Y-108715123D01*
X171460000Y-107877000D01*
X171627000Y-107877000D01*
X171627000Y-108636250D01*
X171785750Y-108795000D01*
X172400000Y-108798072D01*
X172524482Y-108785812D01*
X172644180Y-108749502D01*
X172754494Y-108690537D01*
X172851185Y-108611185D01*
X172930537Y-108514494D01*
X172989502Y-108404180D01*
X173025812Y-108284482D01*
X173038072Y-108160000D01*
X173035000Y-108035750D01*
X172876250Y-107877000D01*
X171627000Y-107877000D01*
X171460000Y-107877000D01*
X171460000Y-107603000D01*
X171627000Y-107603000D01*
X171627000Y-107623000D01*
X172876250Y-107623000D01*
X173035000Y-107464250D01*
X173038072Y-107340000D01*
X173025812Y-107215518D01*
X172989502Y-107095820D01*
X172938284Y-107000000D01*
X172989502Y-106904180D01*
X173025812Y-106784482D01*
X173038072Y-106660000D01*
X173038072Y-105840000D01*
X173025812Y-105715518D01*
X172989502Y-105595820D01*
X172930537Y-105485506D01*
X172851185Y-105388815D01*
X172754494Y-105309463D01*
X172644180Y-105250498D01*
X172524482Y-105214188D01*
X172400000Y-105201928D01*
X172223708Y-105201928D01*
X172205546Y-105142054D01*
X172134974Y-105010025D01*
X172040001Y-104894300D01*
X172011004Y-104870503D01*
X167260000Y-100119500D01*
X167260000Y-96462450D01*
X167284877Y-96460000D01*
X170715123Y-96460000D01*
X170750000Y-96463435D01*
X170784877Y-96460000D01*
X170889184Y-96449727D01*
X171023020Y-96409128D01*
X171146363Y-96343200D01*
X171254475Y-96254475D01*
X171343200Y-96146363D01*
X171409128Y-96023020D01*
X171449727Y-95889184D01*
X171463435Y-95750000D01*
X171460000Y-95715123D01*
X171460000Y-94877000D01*
X171627000Y-94877000D01*
X171627000Y-95636250D01*
X171785750Y-95795000D01*
X172400000Y-95798072D01*
X172524482Y-95785812D01*
X172644180Y-95749502D01*
X172754494Y-95690537D01*
X172851185Y-95611185D01*
X172930537Y-95514494D01*
X172989502Y-95404180D01*
X173025812Y-95284482D01*
X173038072Y-95160000D01*
X173035000Y-95035750D01*
X172876250Y-94877000D01*
X171627000Y-94877000D01*
X171460000Y-94877000D01*
X171460000Y-94603000D01*
X171627000Y-94603000D01*
X171627000Y-94623000D01*
X172876250Y-94623000D01*
X173035000Y-94464250D01*
X173038072Y-94340000D01*
X173025812Y-94215518D01*
X172989502Y-94095820D01*
X172938284Y-94000000D01*
X172989502Y-93904180D01*
X173025812Y-93784482D01*
X173038072Y-93660000D01*
X173038072Y-92840000D01*
X173025812Y-92715518D01*
X172989502Y-92595820D01*
X172930537Y-92485506D01*
X172851185Y-92388815D01*
X172754494Y-92309463D01*
X172644180Y-92250498D01*
X172524482Y-92214188D01*
X172400000Y-92201928D01*
X171910010Y-92201928D01*
X171910010Y-80281422D01*
X181550738Y-80281422D01*
X181550738Y-80718578D01*
X181636023Y-81147335D01*
X181803316Y-81551215D01*
X182046187Y-81914697D01*
X182355303Y-82223813D01*
X182718785Y-82466684D01*
X183122665Y-82633977D01*
X183551422Y-82719262D01*
X183988578Y-82719262D01*
X184417335Y-82633977D01*
X184821215Y-82466684D01*
X185184697Y-82223813D01*
X185493813Y-81914697D01*
X185736684Y-81551215D01*
X185903977Y-81147335D01*
X185989262Y-80718578D01*
X185989262Y-80281422D01*
X185903977Y-79852665D01*
X185736684Y-79448785D01*
X185493813Y-79085303D01*
X185184697Y-78776187D01*
X184821215Y-78533316D01*
X184417335Y-78366023D01*
X183988578Y-78280738D01*
X183551422Y-78280738D01*
X183122665Y-78366023D01*
X182718785Y-78533316D01*
X182355303Y-78776187D01*
X182046187Y-79085303D01*
X181803316Y-79448785D01*
X181636023Y-79852665D01*
X181550738Y-80281422D01*
X171910010Y-80281422D01*
X171910010Y-72677035D01*
X172764250Y-72675000D01*
X172923000Y-72516250D01*
X172923000Y-71667000D01*
X173177000Y-71667000D01*
X173177000Y-72516250D01*
X173335750Y-72675000D01*
X174625000Y-72678072D01*
X174749482Y-72665812D01*
X174869180Y-72629502D01*
X174979494Y-72570537D01*
X175076185Y-72491185D01*
X175155537Y-72394494D01*
X175214502Y-72284180D01*
X175250812Y-72164482D01*
X175263072Y-72040000D01*
X175260000Y-71825750D01*
X175101250Y-71667000D01*
X173177000Y-71667000D01*
X172923000Y-71667000D01*
X172903000Y-71667000D01*
X172903000Y-71413000D01*
X172923000Y-71413000D01*
X172923000Y-70563750D01*
X173177000Y-70563750D01*
X173177000Y-71413000D01*
X175101250Y-71413000D01*
X175260000Y-71254250D01*
X175263072Y-71040000D01*
X175250812Y-70915518D01*
X175214502Y-70795820D01*
X175155537Y-70685506D01*
X175076185Y-70588815D01*
X174979494Y-70509463D01*
X174869180Y-70450498D01*
X174749482Y-70414188D01*
X174625000Y-70401928D01*
X173335750Y-70405000D01*
X173177000Y-70563750D01*
X172923000Y-70563750D01*
X172764250Y-70405000D01*
X171475000Y-70401928D01*
X171350518Y-70414188D01*
X171230820Y-70450498D01*
X171120506Y-70509463D01*
X171023815Y-70588815D01*
X170944463Y-70685506D01*
X170885498Y-70795820D01*
X170882036Y-70807234D01*
X170026076Y-69951274D01*
X170026185Y-69951185D01*
X170105537Y-69854494D01*
X170164502Y-69744180D01*
X170200812Y-69624482D01*
X170213072Y-69500000D01*
X170213072Y-68500000D01*
X170836928Y-68500000D01*
X170836928Y-69500000D01*
X170849188Y-69624482D01*
X170885498Y-69744180D01*
X170944463Y-69854494D01*
X171023815Y-69951185D01*
X171120506Y-70030537D01*
X171230820Y-70089502D01*
X171350518Y-70125812D01*
X171475000Y-70138072D01*
X174625000Y-70138072D01*
X174749482Y-70125812D01*
X174869180Y-70089502D01*
X174979494Y-70030537D01*
X175076185Y-69951185D01*
X175155537Y-69854494D01*
X175214502Y-69744180D01*
X175250812Y-69624482D01*
X175263072Y-69500000D01*
X175263072Y-68500000D01*
X175250812Y-68375518D01*
X175214502Y-68255820D01*
X175155537Y-68145506D01*
X175076185Y-68048815D01*
X174979494Y-67969463D01*
X174869180Y-67910498D01*
X174749482Y-67874188D01*
X174625000Y-67861928D01*
X171475000Y-67861928D01*
X171350518Y-67874188D01*
X171230820Y-67910498D01*
X171120506Y-67969463D01*
X171023815Y-68048815D01*
X170944463Y-68145506D01*
X170885498Y-68255820D01*
X170849188Y-68375518D01*
X170836928Y-68500000D01*
X170213072Y-68500000D01*
X170200812Y-68375518D01*
X170164502Y-68255820D01*
X170105537Y-68145506D01*
X170026185Y-68048815D01*
X169929494Y-67969463D01*
X169819180Y-67910498D01*
X169699482Y-67874188D01*
X169575000Y-67861928D01*
X166425000Y-67861928D01*
X166300518Y-67874188D01*
X166180820Y-67910498D01*
X166070506Y-67969463D01*
X165973815Y-68048815D01*
X165894463Y-68145506D01*
X165835498Y-68255820D01*
X165799188Y-68375518D01*
X165786928Y-68500000D01*
X165786928Y-69500000D01*
X165799188Y-69624482D01*
X165835498Y-69744180D01*
X165894463Y-69854494D01*
X165973815Y-69951185D01*
X166070506Y-70030537D01*
X166180820Y-70089502D01*
X166300518Y-70125812D01*
X166425000Y-70138072D01*
X168063271Y-70138072D01*
X168327127Y-70401928D01*
X166425000Y-70401928D01*
X166300518Y-70414188D01*
X166180820Y-70450498D01*
X166070506Y-70509463D01*
X165973815Y-70588815D01*
X165894463Y-70685506D01*
X165835498Y-70795820D01*
X165799188Y-70915518D01*
X165786928Y-71040000D01*
X165786928Y-72040000D01*
X165799188Y-72164482D01*
X165835498Y-72284180D01*
X165894463Y-72394494D01*
X165973815Y-72491185D01*
X165973924Y-72491275D01*
X165887423Y-72577776D01*
X165858419Y-72601579D01*
X165805705Y-72665812D01*
X165763446Y-72717304D01*
X165727270Y-72784984D01*
X165692874Y-72849334D01*
X165649417Y-72992595D01*
X165638420Y-73104248D01*
X165638420Y-73104258D01*
X165634744Y-73141580D01*
X165638420Y-73178902D01*
X165638421Y-92201928D01*
X165600000Y-92201928D01*
X165475518Y-92214188D01*
X165355820Y-92250498D01*
X165245506Y-92309463D01*
X165148815Y-92388815D01*
X165069463Y-92485506D01*
X165030035Y-92559270D01*
X164925724Y-92615026D01*
X164809999Y-92709999D01*
X164786200Y-92738998D01*
X164763999Y-92761199D01*
X164734998Y-92785000D01*
X164689861Y-92840000D01*
X164640025Y-92900725D01*
X164613833Y-92949727D01*
X164569453Y-93032755D01*
X164525996Y-93176016D01*
X164514999Y-93287669D01*
X164514999Y-93287679D01*
X164511323Y-93325001D01*
X164514999Y-93362323D01*
X164515000Y-104089990D01*
X129121644Y-104089990D01*
X129084311Y-104086313D01*
X129046978Y-104089990D01*
X128935325Y-104100987D01*
X128792064Y-104144444D01*
X128660035Y-104215016D01*
X128544310Y-104309989D01*
X128520511Y-104338988D01*
X128092150Y-104767349D01*
X128034999Y-104710198D01*
X128034999Y-99732413D01*
X147283146Y-99732413D01*
X147283146Y-100267587D01*
X147387553Y-100792477D01*
X147592355Y-101286913D01*
X147889681Y-101731894D01*
X148268106Y-102110319D01*
X148713087Y-102407645D01*
X149207523Y-102612447D01*
X149732413Y-102716854D01*
X150267587Y-102716854D01*
X150792477Y-102612447D01*
X151286913Y-102407645D01*
X151731894Y-102110319D01*
X152110319Y-101731894D01*
X152407645Y-101286913D01*
X152612447Y-100792477D01*
X152716854Y-100267587D01*
X152716854Y-99732413D01*
X152612447Y-99207523D01*
X152407645Y-98713087D01*
X152110319Y-98268106D01*
X151731894Y-97889681D01*
X151286913Y-97592355D01*
X150792477Y-97387553D01*
X150267587Y-97283146D01*
X149732413Y-97283146D01*
X149207523Y-97387553D01*
X148713087Y-97592355D01*
X148268106Y-97889681D01*
X147889681Y-98268106D01*
X147592355Y-98713087D01*
X147387553Y-99207523D01*
X147283146Y-99732413D01*
X128034999Y-99732413D01*
X128034999Y-95798072D01*
X128541300Y-95798072D01*
X128550273Y-95889184D01*
X128590872Y-96023020D01*
X128656800Y-96146363D01*
X128745525Y-96254475D01*
X128853637Y-96343200D01*
X128976980Y-96409128D01*
X129110816Y-96449727D01*
X129250000Y-96463435D01*
X129284877Y-96460000D01*
X132715123Y-96460000D01*
X132750000Y-96463435D01*
X132784877Y-96460000D01*
X132889184Y-96449727D01*
X133023020Y-96409128D01*
X133146363Y-96343200D01*
X133254475Y-96254475D01*
X133343200Y-96146363D01*
X133409128Y-96023020D01*
X133449727Y-95889184D01*
X133463435Y-95750000D01*
X133460000Y-95715123D01*
X133460000Y-94877000D01*
X133627000Y-94877000D01*
X133627000Y-95636250D01*
X133785750Y-95795000D01*
X134400000Y-95798072D01*
X134524482Y-95785812D01*
X134644180Y-95749502D01*
X134754494Y-95690537D01*
X134851185Y-95611185D01*
X134930537Y-95514494D01*
X134989502Y-95404180D01*
X135025812Y-95284482D01*
X135038072Y-95160000D01*
X135035000Y-95035750D01*
X134876250Y-94877000D01*
X133627000Y-94877000D01*
X133460000Y-94877000D01*
X133460000Y-94603000D01*
X133627000Y-94603000D01*
X133627000Y-94623000D01*
X134876250Y-94623000D01*
X135035000Y-94464250D01*
X135038072Y-94340000D01*
X135025812Y-94215518D01*
X134989502Y-94095820D01*
X134938284Y-94000000D01*
X134989502Y-93904180D01*
X135025812Y-93784482D01*
X135038072Y-93660000D01*
X135038072Y-92840000D01*
X135025812Y-92715518D01*
X134989502Y-92595820D01*
X134930537Y-92485506D01*
X134851185Y-92388815D01*
X134754494Y-92309463D01*
X134644180Y-92250498D01*
X134524482Y-92214188D01*
X134400000Y-92201928D01*
X134223708Y-92201928D01*
X134205546Y-92142054D01*
X134134974Y-92010025D01*
X134125906Y-91998975D01*
X134040001Y-91894300D01*
X134011004Y-91870503D01*
X133479492Y-91338992D01*
X133455690Y-91309989D01*
X133339965Y-91215016D01*
X133207936Y-91144444D01*
X133064675Y-91100987D01*
X132953022Y-91089990D01*
X132953011Y-91089990D01*
X132915689Y-91086314D01*
X132878367Y-91089990D01*
X128042331Y-91089990D01*
X128005008Y-91086314D01*
X127967685Y-91089990D01*
X127967675Y-91089990D01*
X127856022Y-91100987D01*
X127712761Y-91144444D01*
X127580731Y-91215016D01*
X127497091Y-91283658D01*
X127465007Y-91309989D01*
X127441209Y-91338987D01*
X126313987Y-92466210D01*
X126284989Y-92490008D01*
X126261191Y-92519006D01*
X126261190Y-92519007D01*
X126190015Y-92605733D01*
X126119443Y-92737763D01*
X126096318Y-92813999D01*
X126075987Y-92881023D01*
X126074046Y-92900726D01*
X126061313Y-93030009D01*
X109317621Y-93030009D01*
X109665933Y-91166703D01*
X110286219Y-88700455D01*
X111057153Y-86277070D01*
X111975811Y-83905741D01*
X113038708Y-81595463D01*
X113744332Y-80281422D01*
X114000738Y-80281422D01*
X114000738Y-80718578D01*
X114086023Y-81147335D01*
X114253316Y-81551215D01*
X114496187Y-81914697D01*
X114805303Y-82223813D01*
X115168785Y-82466684D01*
X115572665Y-82633977D01*
X116001422Y-82719262D01*
X116438578Y-82719262D01*
X116867335Y-82633977D01*
X117271215Y-82466684D01*
X117634697Y-82223813D01*
X117943813Y-81914697D01*
X118186684Y-81551215D01*
X118353977Y-81147335D01*
X118439262Y-80718578D01*
X118439262Y-80281422D01*
X118353977Y-79852665D01*
X118186684Y-79448785D01*
X117943813Y-79085303D01*
X117634697Y-78776187D01*
X117271215Y-78533316D01*
X116867335Y-78366023D01*
X116438578Y-78280738D01*
X116001422Y-78280738D01*
X115572665Y-78366023D01*
X115168785Y-78533316D01*
X114805303Y-78776187D01*
X114496187Y-79085303D01*
X114253316Y-79448785D01*
X114086023Y-79852665D01*
X114000738Y-80281422D01*
X113744332Y-80281422D01*
X114241811Y-79355000D01*
X115580558Y-77192850D01*
X117049869Y-75117216D01*
X118644171Y-73135970D01*
X120357417Y-71256629D01*
X122183107Y-69486322D01*
X124114316Y-67831763D01*
X126143719Y-66299229D01*
X128263616Y-64894534D01*
X130465967Y-63623006D01*
X132742417Y-62489469D01*
X135084332Y-61498222D01*
X137482826Y-60653025D01*
X139928802Y-59957085D01*
X142412982Y-59413041D01*
X144925942Y-59022957D01*
X147458150Y-58788314D01*
X150000000Y-58710000D01*
X152541850Y-58788314D01*
G37*
%TD.AperFunction*%
M02*
