%TF.GenerationSoftware,KiCad,Pcbnew,5.1.10*%
%TF.CreationDate,2021-09-26T09:48:59+10:00*%
%TF.ProjectId,pcb-face,7063622d-6661-4636-952e-6b696361645f,rev?*%
%TF.SameCoordinates,Original*%
%TF.FileFunction,Legend,Bot*%
%TF.FilePolarity,Positive*%
%FSLAX46Y46*%
G04 Gerber Fmt 4.6, Leading zero omitted, Abs format (unit mm)*
G04 Created by KiCad (PCBNEW 5.1.10) date 2021-09-26 09:48:59*
%MOMM*%
%LPD*%
G01*
G04 APERTURE LIST*
%ADD10C,0.150000*%
%ADD11C,0.120000*%
G04 APERTURE END LIST*
D10*
X154619047Y-84452380D02*
X154619047Y-85166666D01*
X154666666Y-85309523D01*
X154761904Y-85404761D01*
X154904761Y-85452380D01*
X155000000Y-85452380D01*
X153666666Y-85452380D02*
X154142857Y-85452380D01*
X154142857Y-84452380D01*
X152761904Y-85357142D02*
X152809523Y-85404761D01*
X152952380Y-85452380D01*
X153047619Y-85452380D01*
X153190476Y-85404761D01*
X153285714Y-85309523D01*
X153333333Y-85214285D01*
X153380952Y-85023809D01*
X153380952Y-84880952D01*
X153333333Y-84690476D01*
X153285714Y-84595238D01*
X153190476Y-84500000D01*
X153047619Y-84452380D01*
X152952380Y-84452380D01*
X152809523Y-84500000D01*
X152761904Y-84547619D01*
X152047619Y-84452380D02*
X152047619Y-85166666D01*
X152095238Y-85309523D01*
X152190476Y-85404761D01*
X152333333Y-85452380D01*
X152428571Y-85452380D01*
X151095238Y-85452380D02*
X151571428Y-85452380D01*
X151571428Y-84452380D01*
X150190476Y-85357142D02*
X150238095Y-85404761D01*
X150380952Y-85452380D01*
X150476190Y-85452380D01*
X150619047Y-85404761D01*
X150714285Y-85309523D01*
X150761904Y-85214285D01*
X150809523Y-85023809D01*
X150809523Y-84880952D01*
X150761904Y-84690476D01*
X150714285Y-84595238D01*
X150619047Y-84500000D01*
X150476190Y-84452380D01*
X150380952Y-84452380D01*
X150238095Y-84500000D01*
X150190476Y-84547619D01*
X149476190Y-84452380D02*
X149476190Y-85166666D01*
X149523809Y-85309523D01*
X149619047Y-85404761D01*
X149761904Y-85452380D01*
X149857142Y-85452380D01*
X148523809Y-85452380D02*
X149000000Y-85452380D01*
X149000000Y-84452380D01*
X147619047Y-85357142D02*
X147666666Y-85404761D01*
X147809523Y-85452380D01*
X147904761Y-85452380D01*
X148047619Y-85404761D01*
X148142857Y-85309523D01*
X148190476Y-85214285D01*
X148238095Y-85023809D01*
X148238095Y-84880952D01*
X148190476Y-84690476D01*
X148142857Y-84595238D01*
X148047619Y-84500000D01*
X147904761Y-84452380D01*
X147809523Y-84452380D01*
X147666666Y-84500000D01*
X147619047Y-84547619D01*
X146904761Y-84452380D02*
X146904761Y-85166666D01*
X146952380Y-85309523D01*
X147047619Y-85404761D01*
X147190476Y-85452380D01*
X147285714Y-85452380D01*
X145952380Y-85452380D02*
X146428571Y-85452380D01*
X146428571Y-84452380D01*
X145047619Y-85357142D02*
X145095238Y-85404761D01*
X145238095Y-85452380D01*
X145333333Y-85452380D01*
X145476190Y-85404761D01*
X145571428Y-85309523D01*
X145619047Y-85214285D01*
X145666666Y-85023809D01*
X145666666Y-84880952D01*
X145619047Y-84690476D01*
X145571428Y-84595238D01*
X145476190Y-84500000D01*
X145333333Y-84452380D01*
X145238095Y-84452380D01*
X145095238Y-84500000D01*
X145047619Y-84547619D01*
X156309523Y-81627380D02*
X156309523Y-80627380D01*
X155976190Y-81341666D01*
X155642857Y-80627380D01*
X155642857Y-81627380D01*
X155023809Y-81627380D02*
X155119047Y-81579761D01*
X155166666Y-81532142D01*
X155214285Y-81436904D01*
X155214285Y-81151190D01*
X155166666Y-81055952D01*
X155119047Y-81008333D01*
X155023809Y-80960714D01*
X154880952Y-80960714D01*
X154785714Y-81008333D01*
X154738095Y-81055952D01*
X154690476Y-81151190D01*
X154690476Y-81436904D01*
X154738095Y-81532142D01*
X154785714Y-81579761D01*
X154880952Y-81627380D01*
X155023809Y-81627380D01*
X154404761Y-80960714D02*
X154023809Y-80960714D01*
X154261904Y-80627380D02*
X154261904Y-81484523D01*
X154214285Y-81579761D01*
X154119047Y-81627380D01*
X154023809Y-81627380D01*
X153547619Y-81627380D02*
X153642857Y-81579761D01*
X153690476Y-81532142D01*
X153738095Y-81436904D01*
X153738095Y-81151190D01*
X153690476Y-81055952D01*
X153642857Y-81008333D01*
X153547619Y-80960714D01*
X153404761Y-80960714D01*
X153309523Y-81008333D01*
X153261904Y-81055952D01*
X153214285Y-81151190D01*
X153214285Y-81436904D01*
X153261904Y-81532142D01*
X153309523Y-81579761D01*
X153404761Y-81627380D01*
X153547619Y-81627380D01*
X152785714Y-81627380D02*
X152785714Y-80960714D01*
X152785714Y-81151190D02*
X152738095Y-81055952D01*
X152690476Y-81008333D01*
X152595238Y-80960714D01*
X152500000Y-80960714D01*
X151738095Y-81579761D02*
X151833333Y-81627380D01*
X152023809Y-81627380D01*
X152119047Y-81579761D01*
X152166666Y-81532142D01*
X152214285Y-81436904D01*
X152214285Y-81151190D01*
X152166666Y-81055952D01*
X152119047Y-81008333D01*
X152023809Y-80960714D01*
X151833333Y-80960714D01*
X151738095Y-81008333D01*
X151404761Y-80960714D02*
X151166666Y-81627380D01*
X150928571Y-80960714D02*
X151166666Y-81627380D01*
X151261904Y-81865476D01*
X151309523Y-81913095D01*
X151404761Y-81960714D01*
X150119047Y-81579761D02*
X150214285Y-81627380D01*
X150404761Y-81627380D01*
X150500000Y-81579761D01*
X150547619Y-81532142D01*
X150595238Y-81436904D01*
X150595238Y-81151190D01*
X150547619Y-81055952D01*
X150500000Y-81008333D01*
X150404761Y-80960714D01*
X150214285Y-80960714D01*
X150119047Y-81008333D01*
X149547619Y-81627380D02*
X149642857Y-81579761D01*
X149690476Y-81484523D01*
X149690476Y-80627380D01*
X148785714Y-81579761D02*
X148880952Y-81627380D01*
X149071428Y-81627380D01*
X149166666Y-81579761D01*
X149214285Y-81484523D01*
X149214285Y-81103571D01*
X149166666Y-81008333D01*
X149071428Y-80960714D01*
X148880952Y-80960714D01*
X148785714Y-81008333D01*
X148738095Y-81103571D01*
X148738095Y-81198809D01*
X149214285Y-81294047D01*
X147690476Y-80627380D02*
X147119047Y-80627380D01*
X147404761Y-81627380D02*
X147404761Y-80627380D01*
X146357142Y-81627380D02*
X146357142Y-81103571D01*
X146404761Y-81008333D01*
X146500000Y-80960714D01*
X146690476Y-80960714D01*
X146785714Y-81008333D01*
X146357142Y-81579761D02*
X146452380Y-81627380D01*
X146690476Y-81627380D01*
X146785714Y-81579761D01*
X146833333Y-81484523D01*
X146833333Y-81389285D01*
X146785714Y-81294047D01*
X146690476Y-81246428D01*
X146452380Y-81246428D01*
X146357142Y-81198809D01*
X145452380Y-81579761D02*
X145547619Y-81627380D01*
X145738095Y-81627380D01*
X145833333Y-81579761D01*
X145880952Y-81532142D01*
X145928571Y-81436904D01*
X145928571Y-81151190D01*
X145880952Y-81055952D01*
X145833333Y-81008333D01*
X145738095Y-80960714D01*
X145547619Y-80960714D01*
X145452380Y-81008333D01*
X145023809Y-81627380D02*
X145023809Y-80627380D01*
X144595238Y-81627380D02*
X144595238Y-81103571D01*
X144642857Y-81008333D01*
X144738095Y-80960714D01*
X144880952Y-80960714D01*
X144976190Y-81008333D01*
X145023809Y-81055952D01*
X143976190Y-81627380D02*
X144071428Y-81579761D01*
X144119047Y-81532142D01*
X144166666Y-81436904D01*
X144166666Y-81151190D01*
X144119047Y-81055952D01*
X144071428Y-81008333D01*
X143976190Y-80960714D01*
X143833333Y-80960714D01*
X143738095Y-81008333D01*
X143690476Y-81055952D01*
X143642857Y-81151190D01*
X143642857Y-81436904D01*
X143690476Y-81532142D01*
X143738095Y-81579761D01*
X143833333Y-81627380D01*
X143976190Y-81627380D01*
X151428571Y-82610714D02*
X151190476Y-83277380D01*
X150952380Y-82610714D01*
X150047619Y-83277380D02*
X150619047Y-83277380D01*
X150333333Y-83277380D02*
X150333333Y-82277380D01*
X150428571Y-82420238D01*
X150523809Y-82515476D01*
X150619047Y-82563095D01*
X149619047Y-83182142D02*
X149571428Y-83229761D01*
X149619047Y-83277380D01*
X149666666Y-83229761D01*
X149619047Y-83182142D01*
X149619047Y-83277380D01*
X148952380Y-82277380D02*
X148857142Y-82277380D01*
X148761904Y-82325000D01*
X148714285Y-82372619D01*
X148666666Y-82467857D01*
X148619047Y-82658333D01*
X148619047Y-82896428D01*
X148666666Y-83086904D01*
X148714285Y-83182142D01*
X148761904Y-83229761D01*
X148857142Y-83277380D01*
X148952380Y-83277380D01*
X149047619Y-83229761D01*
X149095238Y-83182142D01*
X149142857Y-83086904D01*
X149190476Y-82896428D01*
X149190476Y-82658333D01*
X149142857Y-82467857D01*
X149095238Y-82372619D01*
X149047619Y-82325000D01*
X148952380Y-82277380D01*
D11*
X132600000Y-94600000D02*
X131800000Y-95400000D01*
X129400000Y-95400000D02*
X129400000Y-92600000D01*
X132600000Y-92600000D02*
X132600000Y-95400000D01*
X132600000Y-95400000D02*
X129400000Y-95400000D01*
X129400000Y-92600000D02*
X132600000Y-92600000D01*
X132600000Y-107600000D02*
X131800000Y-108400000D01*
X129400000Y-108400000D02*
X129400000Y-105600000D01*
X132600000Y-105600000D02*
X132600000Y-108400000D01*
X132600000Y-108400000D02*
X129400000Y-108400000D01*
X129400000Y-105600000D02*
X132600000Y-105600000D01*
X170600000Y-107600000D02*
X169800000Y-108400000D01*
X167400000Y-108400000D02*
X167400000Y-105600000D01*
X170600000Y-105600000D02*
X170600000Y-108400000D01*
X170600000Y-108400000D02*
X167400000Y-108400000D01*
X167400000Y-105600000D02*
X170600000Y-105600000D01*
X170600000Y-94600000D02*
X169800000Y-95400000D01*
X167400000Y-95400000D02*
X167400000Y-92600000D01*
X170600000Y-92600000D02*
X170600000Y-95400000D01*
X170600000Y-95400000D02*
X167400000Y-95400000D01*
X167400000Y-92600000D02*
X170600000Y-92600000D01*
X173125000Y-70780000D02*
X173125000Y-69760000D01*
X167925000Y-70780000D02*
X167925000Y-69760000D01*
X173125000Y-68240000D02*
X173125000Y-67670000D01*
X167925000Y-68240000D02*
X167925000Y-67670000D01*
X173125000Y-72870000D02*
X173125000Y-72300000D01*
X167925000Y-72870000D02*
X167925000Y-72300000D01*
X166485000Y-72300000D02*
X167925000Y-72300000D01*
X167925000Y-67670000D02*
X173125000Y-67670000D01*
X167925000Y-72870000D02*
X173125000Y-72870000D01*
D10*
X131761904Y-90452380D02*
X131761904Y-91261904D01*
X131714285Y-91357142D01*
X131666666Y-91404761D01*
X131571428Y-91452380D01*
X131380952Y-91452380D01*
X131285714Y-91404761D01*
X131238095Y-91357142D01*
X131190476Y-91261904D01*
X131190476Y-90452380D01*
X130190476Y-91452380D02*
X130761904Y-91452380D01*
X130476190Y-91452380D02*
X130476190Y-90452380D01*
X130571428Y-90595238D01*
X130666666Y-90690476D01*
X130761904Y-90738095D01*
X131761904Y-103452380D02*
X131761904Y-104261904D01*
X131714285Y-104357142D01*
X131666666Y-104404761D01*
X131571428Y-104452380D01*
X131380952Y-104452380D01*
X131285714Y-104404761D01*
X131238095Y-104357142D01*
X131190476Y-104261904D01*
X131190476Y-103452380D01*
X130761904Y-103547619D02*
X130714285Y-103500000D01*
X130619047Y-103452380D01*
X130380952Y-103452380D01*
X130285714Y-103500000D01*
X130238095Y-103547619D01*
X130190476Y-103642857D01*
X130190476Y-103738095D01*
X130238095Y-103880952D01*
X130809523Y-104452380D01*
X130190476Y-104452380D01*
X169761904Y-103452380D02*
X169761904Y-104261904D01*
X169714285Y-104357142D01*
X169666666Y-104404761D01*
X169571428Y-104452380D01*
X169380952Y-104452380D01*
X169285714Y-104404761D01*
X169238095Y-104357142D01*
X169190476Y-104261904D01*
X169190476Y-103452380D01*
X168809523Y-103452380D02*
X168190476Y-103452380D01*
X168523809Y-103833333D01*
X168380952Y-103833333D01*
X168285714Y-103880952D01*
X168238095Y-103928571D01*
X168190476Y-104023809D01*
X168190476Y-104261904D01*
X168238095Y-104357142D01*
X168285714Y-104404761D01*
X168380952Y-104452380D01*
X168666666Y-104452380D01*
X168761904Y-104404761D01*
X168809523Y-104357142D01*
X169761904Y-90452380D02*
X169761904Y-91261904D01*
X169714285Y-91357142D01*
X169666666Y-91404761D01*
X169571428Y-91452380D01*
X169380952Y-91452380D01*
X169285714Y-91404761D01*
X169238095Y-91357142D01*
X169190476Y-91261904D01*
X169190476Y-90452380D01*
X168285714Y-90785714D02*
X168285714Y-91452380D01*
X168523809Y-90404761D02*
X168761904Y-91119047D01*
X168142857Y-91119047D01*
X170858333Y-73322380D02*
X170858333Y-74036666D01*
X170905952Y-74179523D01*
X171001190Y-74274761D01*
X171144047Y-74322380D01*
X171239285Y-74322380D01*
X169858333Y-74322380D02*
X170429761Y-74322380D01*
X170144047Y-74322380D02*
X170144047Y-73322380D01*
X170239285Y-73465238D01*
X170334523Y-73560476D01*
X170429761Y-73608095D01*
M02*
