%TF.GenerationSoftware,KiCad,Pcbnew,5.1.10*%
%TF.CreationDate,2021-09-26T09:48:59+10:00*%
%TF.ProjectId,pcb-face,7063622d-6661-4636-952e-6b696361645f,rev?*%
%TF.SameCoordinates,Original*%
%TF.FileFunction,Legend,Top*%
%TF.FilePolarity,Positive*%
%FSLAX46Y46*%
G04 Gerber Fmt 4.6, Leading zero omitted, Abs format (unit mm)*
G04 Created by KiCad (PCBNEW 5.1.10) date 2021-09-26 09:48:59*
%MOMM*%
%LPD*%
G01*
G04 APERTURE LIST*
%ADD10C,0.500000*%
%ADD11C,1.000000*%
%ADD12C,0.300000*%
%ADD13C,0.010000*%
G04 APERTURE END LIST*
D10*
X110532910Y-114139821D02*
X116171066Y-112087700D01*
X108000000Y-99774975D02*
X114000000Y-99774975D01*
X157293223Y-58413049D02*
X156251334Y-64321896D01*
X182173867Y-72777895D02*
X177577600Y-76634621D01*
X110532910Y-85410129D02*
X116171066Y-87462250D01*
X171000000Y-63401908D02*
X168000000Y-68598060D01*
X129000000Y-63401908D02*
X132000000Y-68598060D01*
X189467090Y-114139821D02*
X183828934Y-112087700D01*
X189467090Y-85410129D02*
X183828934Y-87462250D01*
X192000000Y-99774975D02*
X186000000Y-99774975D01*
X117826133Y-72777895D02*
X122422400Y-76634621D01*
X142706777Y-58413049D02*
X143748666Y-64321896D01*
D11*
X191361926Y-92636353D02*
X183483464Y-94025538D01*
X150000000Y-57929576D02*
X150000000Y-65929576D01*
X113626933Y-78929576D02*
X120555136Y-82929576D01*
X176997080Y-67755709D02*
X171854779Y-73884065D01*
X191361926Y-107222799D02*
X183483464Y-105833614D01*
X135635154Y-60462486D02*
X138371315Y-67980027D01*
X164364846Y-60462486D02*
X161628685Y-67980027D01*
X108638074Y-92636353D02*
X116516536Y-94025538D01*
X113626933Y-120929576D02*
X120555136Y-116929576D01*
X186373067Y-78929576D02*
X179444864Y-82929576D01*
X123002920Y-67755709D02*
X128145221Y-73884065D01*
X186373067Y-120929576D02*
X179444864Y-116929576D01*
X108638074Y-107222799D02*
X116516536Y-105833614D01*
D12*
X122685904Y-82809523D02*
X125162095Y-82809523D01*
X123828761Y-84333333D01*
X124400190Y-84333333D01*
X124781142Y-84523809D01*
X124971618Y-84714285D01*
X125162095Y-85095238D01*
X125162095Y-86047619D01*
X124971618Y-86428571D01*
X124781142Y-86619047D01*
X124400190Y-86809523D01*
X123257333Y-86809523D01*
X122876380Y-86619047D01*
X122685904Y-86428571D01*
X178238095Y-96600078D02*
X175952380Y-96600078D01*
X177095238Y-96600078D02*
X177095238Y-92600078D01*
X176714285Y-93171507D01*
X176333333Y-93552459D01*
X175952380Y-93742935D01*
X180714285Y-92600078D02*
X181095238Y-92600078D01*
X181476190Y-92790555D01*
X181666666Y-92981031D01*
X181857142Y-93361983D01*
X182047619Y-94123888D01*
X182047619Y-95076269D01*
X181857142Y-95838174D01*
X181666666Y-96219126D01*
X181476190Y-96409602D01*
X181095238Y-96600078D01*
X180714285Y-96600078D01*
X180333333Y-96409602D01*
X180142857Y-96219126D01*
X179952380Y-95838174D01*
X179761904Y-95076269D01*
X179761904Y-94123888D01*
X179952380Y-93361983D01*
X180142857Y-92981031D01*
X180333333Y-92790555D01*
X180714285Y-92600078D01*
X158927270Y-69618744D02*
X161593937Y-69618744D01*
X159879651Y-73618744D01*
X178238095Y-107018968D02*
X175952380Y-107018968D01*
X177095238Y-107018968D02*
X177095238Y-103018968D01*
X176714285Y-103590397D01*
X176333333Y-103971349D01*
X175952380Y-104161825D01*
X182047619Y-107018968D02*
X179761904Y-107018968D01*
X180904761Y-107018968D02*
X180904761Y-103018968D01*
X180523809Y-103590397D01*
X180142857Y-103971349D01*
X179761904Y-104161825D01*
X150761904Y-67809523D02*
X150000000Y-67809523D01*
X149619047Y-68000000D01*
X149428571Y-68190476D01*
X149047619Y-68761904D01*
X148857142Y-69523809D01*
X148857142Y-71047619D01*
X149047619Y-71428571D01*
X149238095Y-71619047D01*
X149619047Y-71809523D01*
X150380952Y-71809523D01*
X150761904Y-71619047D01*
X150952380Y-71428571D01*
X151142857Y-71047619D01*
X151142857Y-70095238D01*
X150952380Y-69714285D01*
X150761904Y-69523809D01*
X150380952Y-69333333D01*
X149619047Y-69333333D01*
X149238095Y-69523809D01*
X149047619Y-69714285D01*
X148857142Y-70095238D01*
X140691776Y-69618744D02*
X138787015Y-69618744D01*
X138596538Y-71523506D01*
X138787015Y-71333030D01*
X139167967Y-71142554D01*
X140120348Y-71142554D01*
X140501300Y-71333030D01*
X140691776Y-71523506D01*
X140882253Y-71904459D01*
X140882253Y-72856840D01*
X140691776Y-73237792D01*
X140501300Y-73428268D01*
X140120348Y-73618744D01*
X139167967Y-73618744D01*
X138787015Y-73428268D01*
X138596538Y-73237792D01*
X168902675Y-76542476D02*
X168521723Y-76352000D01*
X168331247Y-76161524D01*
X168140770Y-75780571D01*
X168140770Y-75590095D01*
X168331247Y-75209143D01*
X168521723Y-75018667D01*
X168902675Y-74828190D01*
X169664580Y-74828190D01*
X170045532Y-75018667D01*
X170236008Y-75209143D01*
X170426485Y-75590095D01*
X170426485Y-75780571D01*
X170236008Y-76161524D01*
X170045532Y-76352000D01*
X169664580Y-76542476D01*
X168902675Y-76542476D01*
X168521723Y-76732952D01*
X168331247Y-76923428D01*
X168140770Y-77304381D01*
X168140770Y-78066286D01*
X168331247Y-78447238D01*
X168521723Y-78637714D01*
X168902675Y-78828190D01*
X169664580Y-78828190D01*
X170045532Y-78637714D01*
X170236008Y-78447238D01*
X170426485Y-78066286D01*
X170426485Y-77304381D01*
X170236008Y-76923428D01*
X170045532Y-76732952D01*
X169664580Y-76542476D01*
X131478276Y-76161524D02*
X131478276Y-78828190D01*
X130525895Y-74637714D02*
X129573514Y-77494857D01*
X132049705Y-77494857D01*
X121598624Y-107018968D02*
X119312909Y-107018968D01*
X120455767Y-107018968D02*
X120455767Y-103018968D01*
X120074814Y-103590397D01*
X119693862Y-103971349D01*
X119312909Y-104161825D01*
X175218857Y-86809523D02*
X175980762Y-86809523D01*
X176361714Y-86619047D01*
X176552190Y-86428571D01*
X176933142Y-85857142D01*
X177123619Y-85095238D01*
X177123619Y-83571428D01*
X176933142Y-83190476D01*
X176742666Y-83000000D01*
X176361714Y-82809523D01*
X175599809Y-82809523D01*
X175218857Y-83000000D01*
X175028381Y-83190476D01*
X174837904Y-83571428D01*
X174837904Y-84523809D01*
X175028381Y-84904761D01*
X175218857Y-85095238D01*
X175599809Y-85285714D01*
X176361714Y-85285714D01*
X176742666Y-85095238D01*
X176933142Y-84904761D01*
X177123619Y-84523809D01*
X119312909Y-92981031D02*
X119503386Y-92790555D01*
X119884338Y-92600078D01*
X120836719Y-92600078D01*
X121217671Y-92790555D01*
X121408147Y-92981031D01*
X121598624Y-93361983D01*
X121598624Y-93742935D01*
X121408147Y-94314364D01*
X119122433Y-96600078D01*
X121598624Y-96600078D01*
D13*
G36*
X162749877Y-92905215D02*
G01*
X162960406Y-92926567D01*
X163061838Y-92968953D01*
X163084667Y-93026333D01*
X163008938Y-93127159D01*
X162830667Y-93153333D01*
X162650758Y-93174312D01*
X162584448Y-93273273D01*
X162576667Y-93407333D01*
X162598023Y-93587546D01*
X162696168Y-93653901D01*
X162819248Y-93661333D01*
X163067329Y-93714613D01*
X163265250Y-93821343D01*
X163360460Y-93890116D01*
X163453451Y-93923138D01*
X163579008Y-93915115D01*
X163771913Y-93860754D01*
X164066951Y-93754762D01*
X164313834Y-93661774D01*
X164710508Y-93521625D01*
X165013694Y-93434643D01*
X165199114Y-93407204D01*
X165240716Y-93418381D01*
X165217919Y-93508797D01*
X165078251Y-93699367D01*
X164831606Y-93977977D01*
X164522722Y-94297616D01*
X163723011Y-95100667D01*
X161401069Y-95100667D01*
X161375035Y-94745560D01*
X161350615Y-94539653D01*
X161288167Y-94411869D01*
X161146614Y-94315643D01*
X160904674Y-94212335D01*
X160643306Y-94098536D01*
X160443210Y-93995107D01*
X160371158Y-93945025D01*
X160342094Y-93813444D01*
X160361925Y-93716903D01*
X160642946Y-93716903D01*
X160677718Y-93806991D01*
X160835631Y-93896671D01*
X160946833Y-93944248D01*
X161197275Y-94042458D01*
X161330064Y-94066652D01*
X161382361Y-94011422D01*
X161388899Y-93915333D01*
X161645333Y-93915333D01*
X161645333Y-94846667D01*
X163640784Y-94846667D01*
X164103559Y-94371920D01*
X164327452Y-94133908D01*
X164428092Y-93995999D01*
X164398138Y-93951188D01*
X164230250Y-93992471D01*
X163917086Y-94112846D01*
X163857493Y-94137142D01*
X163549894Y-94236020D01*
X163331262Y-94229612D01*
X163155377Y-94114598D01*
X163127000Y-94084667D01*
X163019771Y-93996291D01*
X162867857Y-93944580D01*
X162628125Y-93920597D01*
X162309544Y-93915333D01*
X161645333Y-93915333D01*
X161388899Y-93915333D01*
X161391333Y-93879566D01*
X161351988Y-93724337D01*
X161205978Y-93618862D01*
X161084940Y-93573346D01*
X160869887Y-93516817D01*
X160753549Y-93535072D01*
X160705236Y-93587947D01*
X160642946Y-93716903D01*
X160361925Y-93716903D01*
X160384633Y-93606359D01*
X160474078Y-93385969D01*
X160585733Y-93214473D01*
X160685500Y-93153333D01*
X160818867Y-93184977D01*
X161058728Y-93268570D01*
X161356919Y-93387106D01*
X161404839Y-93407333D01*
X161772491Y-93557963D01*
X162013488Y-93635759D01*
X162153961Y-93640900D01*
X162220043Y-93573561D01*
X162237863Y-93433918D01*
X162238000Y-93412957D01*
X162210175Y-93229019D01*
X162095038Y-93151916D01*
X162011696Y-93137790D01*
X161831752Y-93082563D01*
X161750640Y-93005167D01*
X161779089Y-92949661D01*
X161923086Y-92916108D01*
X162203981Y-92901030D01*
X162400278Y-92899333D01*
X162749877Y-92905215D01*
G37*
X162749877Y-92905215D02*
X162960406Y-92926567D01*
X163061838Y-92968953D01*
X163084667Y-93026333D01*
X163008938Y-93127159D01*
X162830667Y-93153333D01*
X162650758Y-93174312D01*
X162584448Y-93273273D01*
X162576667Y-93407333D01*
X162598023Y-93587546D01*
X162696168Y-93653901D01*
X162819248Y-93661333D01*
X163067329Y-93714613D01*
X163265250Y-93821343D01*
X163360460Y-93890116D01*
X163453451Y-93923138D01*
X163579008Y-93915115D01*
X163771913Y-93860754D01*
X164066951Y-93754762D01*
X164313834Y-93661774D01*
X164710508Y-93521625D01*
X165013694Y-93434643D01*
X165199114Y-93407204D01*
X165240716Y-93418381D01*
X165217919Y-93508797D01*
X165078251Y-93699367D01*
X164831606Y-93977977D01*
X164522722Y-94297616D01*
X163723011Y-95100667D01*
X161401069Y-95100667D01*
X161375035Y-94745560D01*
X161350615Y-94539653D01*
X161288167Y-94411869D01*
X161146614Y-94315643D01*
X160904674Y-94212335D01*
X160643306Y-94098536D01*
X160443210Y-93995107D01*
X160371158Y-93945025D01*
X160342094Y-93813444D01*
X160361925Y-93716903D01*
X160642946Y-93716903D01*
X160677718Y-93806991D01*
X160835631Y-93896671D01*
X160946833Y-93944248D01*
X161197275Y-94042458D01*
X161330064Y-94066652D01*
X161382361Y-94011422D01*
X161388899Y-93915333D01*
X161645333Y-93915333D01*
X161645333Y-94846667D01*
X163640784Y-94846667D01*
X164103559Y-94371920D01*
X164327452Y-94133908D01*
X164428092Y-93995999D01*
X164398138Y-93951188D01*
X164230250Y-93992471D01*
X163917086Y-94112846D01*
X163857493Y-94137142D01*
X163549894Y-94236020D01*
X163331262Y-94229612D01*
X163155377Y-94114598D01*
X163127000Y-94084667D01*
X163019771Y-93996291D01*
X162867857Y-93944580D01*
X162628125Y-93920597D01*
X162309544Y-93915333D01*
X161645333Y-93915333D01*
X161388899Y-93915333D01*
X161391333Y-93879566D01*
X161351988Y-93724337D01*
X161205978Y-93618862D01*
X161084940Y-93573346D01*
X160869887Y-93516817D01*
X160753549Y-93535072D01*
X160705236Y-93587947D01*
X160642946Y-93716903D01*
X160361925Y-93716903D01*
X160384633Y-93606359D01*
X160474078Y-93385969D01*
X160585733Y-93214473D01*
X160685500Y-93153333D01*
X160818867Y-93184977D01*
X161058728Y-93268570D01*
X161356919Y-93387106D01*
X161404839Y-93407333D01*
X161772491Y-93557963D01*
X162013488Y-93635759D01*
X162153961Y-93640900D01*
X162220043Y-93573561D01*
X162237863Y-93433918D01*
X162238000Y-93412957D01*
X162210175Y-93229019D01*
X162095038Y-93151916D01*
X162011696Y-93137790D01*
X161831752Y-93082563D01*
X161750640Y-93005167D01*
X161779089Y-92949661D01*
X161923086Y-92916108D01*
X162203981Y-92901030D01*
X162400278Y-92899333D01*
X162749877Y-92905215D01*
G36*
X165559441Y-94495600D02*
G01*
X165648655Y-94664143D01*
X165693026Y-94856576D01*
X165680787Y-94968267D01*
X165564259Y-95076781D01*
X165455333Y-95100667D01*
X165290408Y-95043894D01*
X165229879Y-94968267D01*
X165224069Y-94802943D01*
X165284424Y-94609969D01*
X165380998Y-94461731D01*
X165455333Y-94423333D01*
X165559441Y-94495600D01*
G37*
X165559441Y-94495600D02*
X165648655Y-94664143D01*
X165693026Y-94856576D01*
X165680787Y-94968267D01*
X165564259Y-95076781D01*
X165455333Y-95100667D01*
X165290408Y-95043894D01*
X165229879Y-94968267D01*
X165224069Y-94802943D01*
X165284424Y-94609969D01*
X165380998Y-94461731D01*
X165455333Y-94423333D01*
X165559441Y-94495600D01*
G36*
X164393016Y-105702352D02*
G01*
X164581723Y-105857024D01*
X164830929Y-106084771D01*
X165074333Y-106322666D01*
X165747694Y-107000000D01*
X165074333Y-107677333D01*
X164795595Y-107948586D01*
X164552748Y-108168099D01*
X164374140Y-108311294D01*
X164293153Y-108354667D01*
X164214783Y-108277396D01*
X164185342Y-108066934D01*
X164185333Y-108062373D01*
X164185333Y-107770080D01*
X163656167Y-107744873D01*
X163127000Y-107719667D01*
X163127000Y-106492000D01*
X163423333Y-106492000D01*
X163423333Y-107508000D01*
X163931333Y-107508000D01*
X164213605Y-107513265D01*
X164366066Y-107538865D01*
X164428147Y-107599507D01*
X164439333Y-107697492D01*
X164453796Y-107779766D01*
X164512406Y-107778470D01*
X164637996Y-107680529D01*
X164853398Y-107472865D01*
X164882825Y-107443492D01*
X165326317Y-107000000D01*
X164882825Y-106556508D01*
X164656420Y-106336282D01*
X164522280Y-106227184D01*
X164457570Y-106216136D01*
X164439461Y-106290062D01*
X164439333Y-106302508D01*
X164425219Y-106407800D01*
X164356589Y-106464670D01*
X164194015Y-106487827D01*
X163931333Y-106492000D01*
X163423333Y-106492000D01*
X163127000Y-106492000D01*
X163127000Y-106280333D01*
X163656167Y-106255126D01*
X164185333Y-106229920D01*
X164185333Y-105937626D01*
X164213836Y-105725169D01*
X164291471Y-105645357D01*
X164293153Y-105645333D01*
X164393016Y-105702352D01*
G37*
X164393016Y-105702352D02*
X164581723Y-105857024D01*
X164830929Y-106084771D01*
X165074333Y-106322666D01*
X165747694Y-107000000D01*
X165074333Y-107677333D01*
X164795595Y-107948586D01*
X164552748Y-108168099D01*
X164374140Y-108311294D01*
X164293153Y-108354667D01*
X164214783Y-108277396D01*
X164185342Y-108066934D01*
X164185333Y-108062373D01*
X164185333Y-107770080D01*
X163656167Y-107744873D01*
X163127000Y-107719667D01*
X163127000Y-106492000D01*
X163423333Y-106492000D01*
X163423333Y-107508000D01*
X163931333Y-107508000D01*
X164213605Y-107513265D01*
X164366066Y-107538865D01*
X164428147Y-107599507D01*
X164439333Y-107697492D01*
X164453796Y-107779766D01*
X164512406Y-107778470D01*
X164637996Y-107680529D01*
X164853398Y-107472865D01*
X164882825Y-107443492D01*
X165326317Y-107000000D01*
X164882825Y-106556508D01*
X164656420Y-106336282D01*
X164522280Y-106227184D01*
X164457570Y-106216136D01*
X164439461Y-106290062D01*
X164439333Y-106302508D01*
X164425219Y-106407800D01*
X164356589Y-106464670D01*
X164194015Y-106487827D01*
X163931333Y-106492000D01*
X163423333Y-106492000D01*
X163127000Y-106492000D01*
X163127000Y-106280333D01*
X163656167Y-106255126D01*
X164185333Y-106229920D01*
X164185333Y-105937626D01*
X164213836Y-105725169D01*
X164291471Y-105645357D01*
X164293153Y-105645333D01*
X164393016Y-105702352D01*
G36*
X161785217Y-105722604D02*
G01*
X161814658Y-105933066D01*
X161814667Y-105937626D01*
X161814667Y-106229920D01*
X162343833Y-106255126D01*
X162873000Y-106280333D01*
X162873000Y-107719667D01*
X162343833Y-107744873D01*
X161814667Y-107770080D01*
X161814667Y-108062373D01*
X161786163Y-108274831D01*
X161708529Y-108354642D01*
X161706847Y-108354667D01*
X161606984Y-108297648D01*
X161418276Y-108142976D01*
X161169071Y-107915229D01*
X160925666Y-107677333D01*
X160252307Y-107000000D01*
X160254485Y-106997809D01*
X160675874Y-106997809D01*
X161097103Y-107426592D01*
X161317234Y-107643735D01*
X161448732Y-107749346D01*
X161516453Y-107757571D01*
X161545253Y-107682552D01*
X161545388Y-107681688D01*
X161580866Y-107583748D01*
X161675805Y-107531260D01*
X161871467Y-107510681D01*
X162074555Y-107508000D01*
X162576667Y-107508000D01*
X162576667Y-106492000D01*
X162068667Y-106492000D01*
X161786395Y-106486735D01*
X161633934Y-106461135D01*
X161571853Y-106400492D01*
X161560667Y-106302508D01*
X161546231Y-106220119D01*
X161487680Y-106221353D01*
X161362145Y-106319280D01*
X161146758Y-106526975D01*
X161118270Y-106555412D01*
X160675874Y-106997809D01*
X160254485Y-106997809D01*
X160925667Y-106322667D01*
X161204405Y-106051414D01*
X161447251Y-105831901D01*
X161625860Y-105688706D01*
X161706847Y-105645333D01*
X161785217Y-105722604D01*
G37*
X161785217Y-105722604D02*
X161814658Y-105933066D01*
X161814667Y-105937626D01*
X161814667Y-106229920D01*
X162343833Y-106255126D01*
X162873000Y-106280333D01*
X162873000Y-107719667D01*
X162343833Y-107744873D01*
X161814667Y-107770080D01*
X161814667Y-108062373D01*
X161786163Y-108274831D01*
X161708529Y-108354642D01*
X161706847Y-108354667D01*
X161606984Y-108297648D01*
X161418276Y-108142976D01*
X161169071Y-107915229D01*
X160925666Y-107677333D01*
X160252307Y-107000000D01*
X160254485Y-106997809D01*
X160675874Y-106997809D01*
X161097103Y-107426592D01*
X161317234Y-107643735D01*
X161448732Y-107749346D01*
X161516453Y-107757571D01*
X161545253Y-107682552D01*
X161545388Y-107681688D01*
X161580866Y-107583748D01*
X161675805Y-107531260D01*
X161871467Y-107510681D01*
X162074555Y-107508000D01*
X162576667Y-107508000D01*
X162576667Y-106492000D01*
X162068667Y-106492000D01*
X161786395Y-106486735D01*
X161633934Y-106461135D01*
X161571853Y-106400492D01*
X161560667Y-106302508D01*
X161546231Y-106220119D01*
X161487680Y-106221353D01*
X161362145Y-106319280D01*
X161146758Y-106526975D01*
X161118270Y-106555412D01*
X160675874Y-106997809D01*
X160254485Y-106997809D01*
X160925667Y-106322667D01*
X161204405Y-106051414D01*
X161447251Y-105831901D01*
X161625860Y-105688706D01*
X161706847Y-105645333D01*
X161785217Y-105722604D01*
G36*
X135626298Y-106844543D02*
G01*
X135933172Y-106887987D01*
X136088542Y-106963724D01*
X136100251Y-107074478D01*
X136056285Y-107141919D01*
X135931851Y-107193003D01*
X135687278Y-107229554D01*
X135371223Y-107250565D01*
X135032338Y-107255027D01*
X134719278Y-107241931D01*
X134480698Y-107210269D01*
X134384162Y-107176582D01*
X134308069Y-107045444D01*
X134318005Y-106966211D01*
X134372730Y-106900624D01*
X134496772Y-106859560D01*
X134721491Y-106837972D01*
X135078248Y-106830813D01*
X135160076Y-106830667D01*
X135626298Y-106844543D01*
G37*
X135626298Y-106844543D02*
X135933172Y-106887987D01*
X136088542Y-106963724D01*
X136100251Y-107074478D01*
X136056285Y-107141919D01*
X135931851Y-107193003D01*
X135687278Y-107229554D01*
X135371223Y-107250565D01*
X135032338Y-107255027D01*
X134719278Y-107241931D01*
X134480698Y-107210269D01*
X134384162Y-107176582D01*
X134308069Y-107045444D01*
X134318005Y-106966211D01*
X134372730Y-106900624D01*
X134496772Y-106859560D01*
X134721491Y-106837972D01*
X135078248Y-106830813D01*
X135160076Y-106830667D01*
X135626298Y-106844543D01*
G36*
X135264333Y-107528782D02*
G01*
X135626537Y-107541748D01*
X135853073Y-107561714D01*
X135977593Y-107597726D01*
X136033751Y-107658826D01*
X136053388Y-107740833D01*
X136058773Y-107826931D01*
X136025613Y-107882176D01*
X135924168Y-107913408D01*
X135724699Y-107927470D01*
X135397465Y-107931201D01*
X135225231Y-107931333D01*
X134824224Y-107926928D01*
X134562089Y-107910694D01*
X134408525Y-107878105D01*
X134333226Y-107824631D01*
X134318005Y-107795788D01*
X134310245Y-107669434D01*
X134412201Y-107585193D01*
X134640254Y-107538445D01*
X135010783Y-107524567D01*
X135264333Y-107528782D01*
G37*
X135264333Y-107528782D02*
X135626537Y-107541748D01*
X135853073Y-107561714D01*
X135977593Y-107597726D01*
X136033751Y-107658826D01*
X136053388Y-107740833D01*
X136058773Y-107826931D01*
X136025613Y-107882176D01*
X135924168Y-107913408D01*
X135724699Y-107927470D01*
X135397465Y-107931201D01*
X135225231Y-107931333D01*
X134824224Y-107926928D01*
X134562089Y-107910694D01*
X134408525Y-107878105D01*
X134333226Y-107824631D01*
X134318005Y-107795788D01*
X134310245Y-107669434D01*
X134412201Y-107585193D01*
X134640254Y-107538445D01*
X135010783Y-107524567D01*
X135264333Y-107528782D01*
G36*
X135611002Y-108272350D02*
G01*
X135856431Y-108283521D01*
X135994019Y-108309699D01*
X136054503Y-108357066D01*
X136068620Y-108431806D01*
X136068667Y-108439333D01*
X136056987Y-108516590D01*
X136001458Y-108565967D01*
X135871344Y-108593648D01*
X135635907Y-108605817D01*
X135264412Y-108608657D01*
X135226997Y-108608667D01*
X134859137Y-108600601D01*
X134563279Y-108578767D01*
X134376823Y-108546706D01*
X134333000Y-108524000D01*
X134304974Y-108415414D01*
X134388374Y-108340407D01*
X134599157Y-108294446D01*
X134953278Y-108272996D01*
X135226997Y-108270000D01*
X135611002Y-108272350D01*
G37*
X135611002Y-108272350D02*
X135856431Y-108283521D01*
X135994019Y-108309699D01*
X136054503Y-108357066D01*
X136068620Y-108431806D01*
X136068667Y-108439333D01*
X136056987Y-108516590D01*
X136001458Y-108565967D01*
X135871344Y-108593648D01*
X135635907Y-108605817D01*
X135264412Y-108608657D01*
X135226997Y-108608667D01*
X134859137Y-108600601D01*
X134563279Y-108578767D01*
X134376823Y-108546706D01*
X134333000Y-108524000D01*
X134304974Y-108415414D01*
X134388374Y-108340407D01*
X134599157Y-108294446D01*
X134953278Y-108272996D01*
X135226997Y-108270000D01*
X135611002Y-108272350D01*
G36*
X137682068Y-105282561D02*
G01*
X138183676Y-105367759D01*
X138657491Y-105565308D01*
X139075239Y-105851252D01*
X139408646Y-106201641D01*
X139629435Y-106592519D01*
X139709333Y-106999933D01*
X139709333Y-107000000D01*
X139629766Y-107409763D01*
X139411378Y-107796257D01*
X139084638Y-108139990D01*
X138680018Y-108421470D01*
X138227987Y-108621207D01*
X137759014Y-108719709D01*
X137303572Y-108697485D01*
X137130241Y-108649805D01*
X136789572Y-108466027D01*
X136547127Y-108181709D01*
X136397209Y-107783383D01*
X136334120Y-107257581D01*
X136338526Y-106889083D01*
X136697460Y-106889083D01*
X136713996Y-107328103D01*
X136796928Y-107731232D01*
X136946255Y-108050551D01*
X137046224Y-108164167D01*
X137349118Y-108322393D01*
X137743549Y-108343407D01*
X138093856Y-108271953D01*
X138539479Y-108072065D01*
X138924776Y-107763658D01*
X139197109Y-107389350D01*
X139205908Y-107371548D01*
X139385772Y-107000000D01*
X139205908Y-106628451D01*
X138967863Y-106280146D01*
X138641286Y-105995726D01*
X138261586Y-105788187D01*
X137864169Y-105670522D01*
X137484444Y-105655727D01*
X137157817Y-105756797D01*
X137046224Y-105835833D01*
X136863573Y-106095031D01*
X136747319Y-106462087D01*
X136697460Y-106889083D01*
X136338526Y-106889083D01*
X136339810Y-106781794D01*
X136413676Y-106212287D01*
X136572842Y-105785161D01*
X136824212Y-105492705D01*
X137174690Y-105327208D01*
X137631180Y-105280960D01*
X137682068Y-105282561D01*
G37*
X137682068Y-105282561D02*
X138183676Y-105367759D01*
X138657491Y-105565308D01*
X139075239Y-105851252D01*
X139408646Y-106201641D01*
X139629435Y-106592519D01*
X139709333Y-106999933D01*
X139709333Y-107000000D01*
X139629766Y-107409763D01*
X139411378Y-107796257D01*
X139084638Y-108139990D01*
X138680018Y-108421470D01*
X138227987Y-108621207D01*
X137759014Y-108719709D01*
X137303572Y-108697485D01*
X137130241Y-108649805D01*
X136789572Y-108466027D01*
X136547127Y-108181709D01*
X136397209Y-107783383D01*
X136334120Y-107257581D01*
X136338526Y-106889083D01*
X136697460Y-106889083D01*
X136713996Y-107328103D01*
X136796928Y-107731232D01*
X136946255Y-108050551D01*
X137046224Y-108164167D01*
X137349118Y-108322393D01*
X137743549Y-108343407D01*
X138093856Y-108271953D01*
X138539479Y-108072065D01*
X138924776Y-107763658D01*
X139197109Y-107389350D01*
X139205908Y-107371548D01*
X139385772Y-107000000D01*
X139205908Y-106628451D01*
X138967863Y-106280146D01*
X138641286Y-105995726D01*
X138261586Y-105788187D01*
X137864169Y-105670522D01*
X137484444Y-105655727D01*
X137157817Y-105756797D01*
X137046224Y-105835833D01*
X136863573Y-106095031D01*
X136747319Y-106462087D01*
X136697460Y-106889083D01*
X136338526Y-106889083D01*
X136339810Y-106781794D01*
X136413676Y-106212287D01*
X136572842Y-105785161D01*
X136824212Y-105492705D01*
X137174690Y-105327208D01*
X137631180Y-105280960D01*
X137682068Y-105282561D01*
G36*
X135611002Y-105478350D02*
G01*
X135856431Y-105489521D01*
X135994019Y-105515699D01*
X136054503Y-105563066D01*
X136068620Y-105637806D01*
X136068667Y-105645333D01*
X136056987Y-105722590D01*
X136001458Y-105771967D01*
X135871344Y-105799648D01*
X135635907Y-105811817D01*
X135264412Y-105814657D01*
X135226997Y-105814667D01*
X134859137Y-105806601D01*
X134563279Y-105784767D01*
X134376823Y-105752706D01*
X134333000Y-105730000D01*
X134304974Y-105621414D01*
X134388374Y-105546407D01*
X134599157Y-105500446D01*
X134953278Y-105478996D01*
X135226997Y-105476000D01*
X135611002Y-105478350D01*
G37*
X135611002Y-105478350D02*
X135856431Y-105489521D01*
X135994019Y-105515699D01*
X136054503Y-105563066D01*
X136068620Y-105637806D01*
X136068667Y-105645333D01*
X136056987Y-105722590D01*
X136001458Y-105771967D01*
X135871344Y-105799648D01*
X135635907Y-105811817D01*
X135264412Y-105814657D01*
X135226997Y-105814667D01*
X134859137Y-105806601D01*
X134563279Y-105784767D01*
X134376823Y-105752706D01*
X134333000Y-105730000D01*
X134304974Y-105621414D01*
X134388374Y-105546407D01*
X134599157Y-105500446D01*
X134953278Y-105478996D01*
X135226997Y-105476000D01*
X135611002Y-105478350D01*
G36*
X135606213Y-106155932D02*
G01*
X135854181Y-106167553D01*
X135993646Y-106193933D01*
X136055008Y-106240809D01*
X136068667Y-106313608D01*
X136006418Y-106472715D01*
X135934742Y-106525275D01*
X135765058Y-106555874D01*
X135490441Y-106571814D01*
X135163715Y-106573981D01*
X134837703Y-106563263D01*
X134565229Y-106540545D01*
X134399114Y-106506715D01*
X134384162Y-106499248D01*
X134308069Y-106368111D01*
X134318005Y-106288878D01*
X134370306Y-106225393D01*
X134488801Y-106184788D01*
X134703885Y-106162492D01*
X135045955Y-106153934D01*
X135219343Y-106153333D01*
X135606213Y-106155932D01*
G37*
X135606213Y-106155932D02*
X135854181Y-106167553D01*
X135993646Y-106193933D01*
X136055008Y-106240809D01*
X136068667Y-106313608D01*
X136006418Y-106472715D01*
X135934742Y-106525275D01*
X135765058Y-106555874D01*
X135490441Y-106571814D01*
X135163715Y-106573981D01*
X134837703Y-106563263D01*
X134565229Y-106540545D01*
X134399114Y-106506715D01*
X134384162Y-106499248D01*
X134308069Y-106368111D01*
X134318005Y-106288878D01*
X134370306Y-106225393D01*
X134488801Y-106184788D01*
X134703885Y-106162492D01*
X135045955Y-106153934D01*
X135219343Y-106153333D01*
X135606213Y-106155932D01*
G36*
X138143000Y-95651000D02*
G01*
X137914514Y-95677371D01*
X137822508Y-95681660D01*
X137739009Y-95659386D01*
X137651047Y-95592668D01*
X137545652Y-95463621D01*
X137409855Y-95254362D01*
X137230685Y-94947008D01*
X136995174Y-94523676D01*
X136740987Y-94059269D01*
X136195667Y-93060206D01*
X136172350Y-94376769D01*
X136149033Y-95693333D01*
X135726263Y-95693333D01*
X135772333Y-92518333D01*
X136042288Y-92492191D01*
X136146926Y-92483094D01*
X136232938Y-92491257D01*
X136314611Y-92535376D01*
X136406233Y-92634143D01*
X136522093Y-92806253D01*
X136676478Y-93070399D01*
X136883677Y-93445275D01*
X137157977Y-93949576D01*
X137162374Y-93957667D01*
X137760550Y-95058333D01*
X137761275Y-93767167D01*
X137762000Y-92476000D01*
X138189070Y-92476000D01*
X138143000Y-95651000D01*
G37*
X138143000Y-95651000D02*
X137914514Y-95677371D01*
X137822508Y-95681660D01*
X137739009Y-95659386D01*
X137651047Y-95592668D01*
X137545652Y-95463621D01*
X137409855Y-95254362D01*
X137230685Y-94947008D01*
X136995174Y-94523676D01*
X136740987Y-94059269D01*
X136195667Y-93060206D01*
X136172350Y-94376769D01*
X136149033Y-95693333D01*
X135726263Y-95693333D01*
X135772333Y-92518333D01*
X136042288Y-92492191D01*
X136146926Y-92483094D01*
X136232938Y-92491257D01*
X136314611Y-92535376D01*
X136406233Y-92634143D01*
X136522093Y-92806253D01*
X136676478Y-93070399D01*
X136883677Y-93445275D01*
X137157977Y-93949576D01*
X137162374Y-93957667D01*
X137760550Y-95058333D01*
X137761275Y-93767167D01*
X137762000Y-92476000D01*
X138189070Y-92476000D01*
X138143000Y-95651000D01*
M02*
