%TF.GenerationSoftware,KiCad,Pcbnew,5.1.10*%
%TF.CreationDate,2021-09-26T09:48:59+10:00*%
%TF.ProjectId,pcb-face,7063622d-6661-4636-952e-6b696361645f,rev?*%
%TF.SameCoordinates,Original*%
%TF.FileFunction,Profile,NP*%
%FSLAX46Y46*%
G04 Gerber Fmt 4.6, Leading zero omitted, Abs format (unit mm)*
G04 Created by KiCad (PCBNEW 5.1.10) date 2021-09-26 09:48:59*
%MOMM*%
%LPD*%
G01*
G04 APERTURE LIST*
%TA.AperFunction,Profile*%
%ADD10C,0.150000*%
%TD*%
G04 APERTURE END LIST*
D10*
X132750000Y-95750000D02*
X129250000Y-95750000D01*
X132750000Y-92250000D02*
X132750000Y-95750000D01*
X129250000Y-92250000D02*
X132750000Y-92250000D01*
X129250000Y-95750000D02*
X129250000Y-92250000D01*
X129250000Y-105250000D02*
X132750000Y-105250000D01*
X132750000Y-105250000D02*
X132750000Y-108750000D01*
X129250000Y-108750000D02*
X129250000Y-105250000D01*
X132750000Y-108750000D02*
X129250000Y-108750000D01*
X170750000Y-108750000D02*
X167250000Y-108750000D01*
X167250000Y-108750000D02*
X167250000Y-105250000D01*
X170750000Y-105250000D02*
X170750000Y-108750000D01*
X167250000Y-105250000D02*
X170750000Y-105250000D01*
X170750000Y-95750000D02*
X167250000Y-95750000D01*
X167250000Y-95750000D02*
X167250000Y-92250000D01*
X170750000Y-92250000D02*
X170750000Y-95750000D01*
X167250000Y-92250000D02*
X170750000Y-92250000D01*
X174000000Y-118500000D02*
X174000000Y-127500000D01*
X126000000Y-118500000D02*
G75*
G02*
X128000000Y-116500000I2000000J0D01*
G01*
X128000000Y-129500000D02*
G75*
G02*
X126000000Y-127500000I0J2000000D01*
G01*
X151500000Y-139000000D02*
G75*
G03*
X151500000Y-139000000I-1500000J0D01*
G01*
X174000000Y-127500000D02*
G75*
G02*
X172000000Y-129500000I-2000000J0D01*
G01*
X124450000Y-116000000D02*
G75*
G03*
X124450000Y-116000000I-450000J0D01*
G01*
X126000000Y-118500000D02*
X126000000Y-127500000D01*
X185270000Y-80500000D02*
G75*
G03*
X185270000Y-80500000I-1500000J0D01*
G01*
X172000000Y-116500000D02*
G75*
G02*
X174000000Y-118500000I0J-2000000D01*
G01*
X128000000Y-116500000D02*
X172000000Y-116500000D01*
X117720000Y-80500000D02*
G75*
G03*
X117720000Y-80500000I-1500000J0D01*
G01*
X152000000Y-100000000D02*
G75*
G03*
X152000000Y-100000000I-2000000J0D01*
G01*
X128000000Y-129500000D02*
X172000000Y-129500000D01*
X192000000Y-100000000D02*
G75*
G03*
X192000000Y-100000000I-42000000J0D01*
G01*
M02*
